999
dxflib 2.5.0.0
  0
SECTION
  2
HEADER
  9
$ACADVER
  1
AC1015
  9
$HANDSEED
  5
FFFF
  9
$DIMASZ
 40
2.5
  9
$FILLMODE
 70
0
  9
$PLIMMIN
 10
0.0
 20
0.0
  9
$DIMEXE
 40
1.25
  9
$DIMGAP
 40
0.625
  9
$PLIMMAX
 10
210.0
 20
297.0
  9
$EXTMIN
 10
0.0
 20
0.0
 30
0.0
  9
$EXTMAX
 10
1000.0
 20
1000.0
 30
0.0
  9
$SPLFRAME
 70
1
  9
$INSUNITS
 70
4
  9
$DIMSTYLE
  2
Standard
  9
$DIMEXO
 40
0.625
  9
$DIMTXT
 40
2.5
  0
ENDSEC
  0
SECTION
  2
TABLES
  0
TABLE
  2
VPORT
  5
8
100
AcDbSymbolTable
 70
1
  0
VPORT
  5
30
100
AcDbSymbolTableRecord
100
AcDbViewportTableRecord
  2
*Active
 70
0
 10
0.0
 20
0.0
 11
1.0
 21
1.0
 12
286.3055555555554861
 22
148.5
 13
0.0
 23
0.0
 14
10.0
 24
10.0
 15
10.0
 25
10.0
 16
0.0
 26
0.0
 36
1.0
 17
0.0
 27
0.0
 37
0.0
 40
297.0
 41
1.92798353909465
 42
50.0
 43
0.0
 44
0.0
 50
0.0
 51
0.0
 71
0
 72
100
 73
1
 74
3
 75
1
 76
1
 77
0
 78
0
281
0
 65
1
110
0.0
120
0.0
130
0.0
111
1.0
121
0.0
131
0.0
112
0.0
122
1.0
132
0.0
 79
0
146
0.0
  0
ENDTAB
  0
TABLE
  2
LTYPE
  5
5
100
AcDbSymbolTable
 70
21
  0
LTYPE
  5
14
100
AcDbSymbolTableRecord
100
AcDbLinetypeTableRecord
  2
ByBlock
 70
0
  3

 72
65
 73
0
 40
0.0
  0
LTYPE
  5
15
100
AcDbSymbolTableRecord
100
AcDbLinetypeTableRecord
  2
ByLayer
 70
0
  3

 72
65
 73
0
 40
0.0
  0
LTYPE
  5
16
100
AcDbSymbolTableRecord
100
AcDbLinetypeTableRecord
  2
CONTINUOUS
 70
0
  3
Solid line
 72
65
 73
0
 40
0.0
  0
LTYPE
  5
31
100
AcDbSymbolTableRecord
100
AcDbLinetypeTableRecord
  2
DOT
 70
0
  3
Dot . . . . . . . . . . . . . . . . . . . . . .
 72
65
 73
2
 40
6.3499999999999996
 49
0.0
 74
0
 49
-6.3499999999999996
 74
0
  0
LTYPE
  5
32
100
AcDbSymbolTableRecord
100
AcDbLinetypeTableRecord
  2
DOT2
 70
0
  3
Dot (.5x) .....................................
 72
65
 73
2
 40
3.1749999999999998
 49
0.0
 74
0
 49
-3.1749999999999998
 74
0
  0
LTYPE
  5
33
100
AcDbSymbolTableRecord
100
AcDbLinetypeTableRecord
  2
DOTX2
 70
0
  3
Dot (2x) .  .  .  .  .  .  .  .  .  .  .  .  .
 72
65
 73
2
 40
12.6999999999999993
 49
0.0
 74
0
 49
-12.6999999999999993
 74
0
  0
LTYPE
  5
34
100
AcDbSymbolTableRecord
100
AcDbLinetypeTableRecord
  2
DASHED
 70
0
  3
Dashed __ __ __ __ __ __ __ __ __ __ __ __ __ _
 72
65
 73
2
 40
19.0500000000000007
 49
12.6999999999999993
 74
0
 49
-6.3499999999999996
 74
0
  0
LTYPE
  5
35
100
AcDbSymbolTableRecord
100
AcDbLinetypeTableRecord
  2
DASHED2
 70
0
  3
Dashed (.5x) _ _ _ _ _ _ _ _ _ _ _ _ _ _ _ _ _
 72
65
 73
2
 40
9.5250000000000004
 49
6.3499999999999996
 74
0
 49
-3.1749999999999998
 74
0
  0
LTYPE
  5
36
100
AcDbSymbolTableRecord
100
AcDbLinetypeTableRecord
  2
DASHEDX2
 70
0
  3
Dashed (2x) ____  ____  ____  ____  ____  ___
 72
65
 73
2
 40
38.1000000000000014
 49
25.3999999999999986
 74
0
 49
-12.6999999999999993
 74
0
  0
LTYPE
  5
37
100
AcDbSymbolTableRecord
100
AcDbLinetypeTableRecord
  2
DASHDOT
 70
0
  3
Dash dot __ . __ . __ . __ . __ . __ . __ . __
 72
65
 73
4
 40
25.3999999999999986
 49
12.6999999999999993
 74
0
 49
-6.3499999999999996
 74
0
 49
0.0
 74
0
 49
-6.3499999999999996
 74
0
  0
LTYPE
  5
38
100
AcDbSymbolTableRecord
100
AcDbLinetypeTableRecord
  2
DASHDOT2
 70
0
  3
Dash dot (.5x) _._._._._._._._._._._._._._._.
 72
65
 73
4
 40
12.6999999999999993
 49
6.3499999999999996
 74
0
 49
-3.1749999999999998
 74
0
 49
0.0
 74
0
 49
-3.1749999999999998
 74
0
  0
LTYPE
  5
39
100
AcDbSymbolTableRecord
100
AcDbLinetypeTableRecord
  2
DASHDOTX2
 70
0
  3
Dash dot (2x) ____  .  ____  .  ____  .  ___
 72
65
 73
4
 40
50.7999999999999972
 49
25.3999999999999986
 74
0
 49
-12.6999999999999993
 74
0
 49
0.0
 74
0
 49
-12.6999999999999993
 74
0
  0
LTYPE
  5
3A
100
AcDbSymbolTableRecord
100
AcDbLinetypeTableRecord
  2
DIVIDE
 70
0
  3
Divide ____ . . ____ . . ____ . . ____ . . ____
 72
65
 73
6
 40
31.75
 49
12.6999999999999993
 74
0
 49
-6.3499999999999996
 74
0
 49
0.0
 74
0
 49
-6.3499999999999996
 74
0
 49
0.0
 74
0
 49
-6.3499999999999996
 74
0
  0
LTYPE
  5
3B
100
AcDbSymbolTableRecord
100
AcDbLinetypeTableRecord
  2
DIVIDE2
 70
0
  3
Divide (.5x) __..__..__..__..__..__..__..__.._
 72
65
 73
6
 40
15.875
 49
6.3499999999999996
 74
0
 49
-3.1749999999999998
 74
0
 49
0.0
 74
0
 49
-3.1749999999999998
 74
0
 49
0.0
 74
0
 49
-3.1749999999999998
 74
0
  0
LTYPE
  5
3C
100
AcDbSymbolTableRecord
100
AcDbLinetypeTableRecord
  2
DIVIDEX2
 70
0
  3
Divide (2x) ________  .  .  ________  .  .  _
 72
65
 73
6
 40
63.5
 49
25.3999999999999986
 74
0
 49
-12.6999999999999993
 74
0
 49
0.0
 74
0
 49
-12.6999999999999993
 74
0
 49
0.0
 74
0
 49
-12.6999999999999993
 74
0
  0
LTYPE
  5
3D
100
AcDbSymbolTableRecord
100
AcDbLinetypeTableRecord
  2
CENTER
 70
0
  3
Center ____ _ ____ _ ____ _ ____ _ ____ _ ____
 72
65
 73
4
 40
50.7999999999999972
 49
31.75
 74
0
 49
-6.3499999999999996
 74
0
 49
6.3499999999999996
 74
0
 49
-6.3499999999999996
 74
0
  0
LTYPE
  5
3E
100
AcDbSymbolTableRecord
100
AcDbLinetypeTableRecord
  2
CENTER2
 70
0
  3
Center (.5x) ___ _ ___ _ ___ _ ___ _ ___ _ ___
 72
65
 73
4
 40
28.5749999999999993
 49
19.0500000000000007
 74
0
 49
-3.1749999999999998
 74
0
 49
3.1749999999999998
 74
0
 49
-3.1749999999999998
 74
0
  0
LTYPE
  5
3F
100
AcDbSymbolTableRecord
100
AcDbLinetypeTableRecord
  2
CENTERX2
 70
0
  3
Center (2x) ________  __  ________  __  _____
 72
65
 73
4
 40
101.5999999999999943
 49
63.5
 74
0
 49
-12.6999999999999993
 74
0
 49
12.6999999999999993
 74
0
 49
-12.6999999999999993
 74
0
  0
LTYPE
  5
40
100
AcDbSymbolTableRecord
100
AcDbLinetypeTableRecord
  2
BORDER
 70
0
  3
Border __ __ . __ __ . __ __ . __ __ . __ __ .
 72
65
 73
6
 40
44.4500000000000028
 49
12.6999999999999993
 74
0
 49
-6.3499999999999996
 74
0
 49
12.6999999999999993
 74
0
 49
-6.3499999999999996
 74
0
 49
0.0
 74
0
 49
-6.3499999999999996
 74
0
  0
LTYPE
  5
41
100
AcDbSymbolTableRecord
100
AcDbLinetypeTableRecord
  2
BORDER2
 70
0
  3
Border (.5x) __.__.__.__.__.__.__.__.__.__.__.
 72
65
 73
6
 40
22.2250000000000014
 49
6.3499999999999996
 74
0
 49
-3.1749999999999998
 74
0
 49
6.3499999999999996
 74
0
 49
-3.1749999999999998
 74
0
 49
0.0
 74
0
 49
-3.1749999999999998
 74
0
  0
LTYPE
  5
42
100
AcDbSymbolTableRecord
100
AcDbLinetypeTableRecord
  2
BORDERX2
 70
0
  3
Border (2x) ____  ____  .  ____  ____  .  ___
 72
65
 73
6
 40
88.9000000000000057
 49
25.3999999999999986
 74
0
 49
-12.6999999999999993
 74
0
 49
25.3999999999999986
 74
0
 49
-12.6999999999999993
 74
0
 49
0.0
 74
0
 49
-12.6999999999999993
 74
0
  0
ENDTAB
  0
TABLE
  2
LAYER
  5
2
100
AcDbSymbolTable
 70
5
  0
LAYER
  5
10
100
AcDbSymbolTableRecord
100
AcDbLayerTableRecord
  2
0
 70
0
 62
7
  6
CONTINUOUS
390
F
  0
LAYER
  5
43
100
AcDbSymbolTableRecord
100
AcDbLayerTableRecord
  2
Dash
 70
0
 62
7
  6
CENTER
370
0
390
F
  0
LAYER
  5
44
100
AcDbSymbolTableRecord
100
AcDbLayerTableRecord
  2
Hidden
 70
0
 62
7
  6
DOT
370
0
390
F
  0
LAYER
  5
45
100
AcDbSymbolTableRecord
100
AcDbLayerTableRecord
  2
Hatch
 70
0
 62
7
  6
CONTINUOUS
370
0
390
F
  0
LAYER
  5
46
100
AcDbSymbolTableRecord
100
AcDbLayerTableRecord
  2
Label
 70
0
 62
8
  6
CONTINUOUS
370
0
390
F
  0
ENDTAB
  0
TABLE
  2
STYLE
  5
3
100
AcDbSymbolTable
 70
1
  0
STYLE
  5
11
100
AcDbSymbolTableRecord
100
AcDbTextStyleTableRecord
  2
Standard
 70
0
 40
0.0
 41
0.75
 50
0.0
 71
0
 42
2.5
  3
txt
  4

  0
ENDTAB
  0
TABLE
  2
VIEW
  5
6
100
AcDbSymbolTable
 70
0
  0
ENDTAB
  0
TABLE
  2
UCS
  5
7
100
AcDbSymbolTable
 70
0
  0
ENDTAB
  0
TABLE
  2
APPID
  5
9
100
AcDbSymbolTable
 70
1
  0
APPID
  5
12
100
AcDbSymbolTableRecord
100
AcDbRegAppTableRecord
  2
ACAD
 70
0
  0
ENDTAB
  0
TABLE
  2
DIMSTYLE
  5
A
100
AcDbSymbolTable
 70
1
100
AcDbDimStyleTable
 71
0
  0
DIMSTYLE
105
27
100
AcDbSymbolTableRecord
100
AcDbDimStyleTableRecord
  2
Standard
 41
2.5
 42
0.625
 43
3.75
 44
1.25
 70
0
 73
0
 74
0
 77
1
 78
8
140
2.5
141
2.5
143
0.03937007874016
147
0.625
171
3
172
1
271
2
272
2
274
3
278
44
283
0
284
8
340
11
  0
ENDTAB
  0
TABLE
  2
BLOCK_RECORD
  5
1
100
AcDbSymbolTable
 70
1
  0
BLOCK_RECORD
  5
1F
100
AcDbSymbolTableRecord
100
AcDbBlockTableRecord
  2
*Model_Space
340
22
  0
BLOCK_RECORD
  5
1B
100
AcDbSymbolTableRecord
100
AcDbBlockTableRecord
  2
*Paper_Space
340
1E
  0
BLOCK_RECORD
  5
23
100
AcDbSymbolTableRecord
100
AcDbBlockTableRecord
  2
*Paper_Space0
340
26
  0
ENDTAB
  0
ENDSEC
  0
SECTION
  2
BLOCKS
  0
BLOCK
  5
20
100
AcDbEntity
  8
0
100
AcDbBlockBegin
  2
*Model_Space
 70
0
 10
0.0
 20
0.0
 30
0.0
  3
*Model_Space
  1

  0
ENDBLK
  5
21
100
AcDbEntity
  8
0
100
AcDbBlockEnd
  0
BLOCK
  5
1C
100
AcDbEntity
 67
1
  8
0
100
AcDbBlockBegin
  2
*Paper_Space
 70
0
 10
0.0
 20
0.0
 30
0.0
  3
*Paper_Space
  1

  0
ENDBLK
  5
1D
100
AcDbEntity
 67
1
  8
0
100
AcDbBlockEnd
  0
BLOCK
  5
24
100
AcDbEntity
  8
0
100
AcDbBlockBegin
  2
*Paper_Space0
 70
0
 10
0.0
 20
0.0
 30
0.0
  3
*Paper_Space0
  1

  0
ENDBLK
  5
25
100
AcDbEntity
  8
0
100
AcDbBlockEnd
  0
ENDSEC
  0
SECTION
  2
ENTITIES
  0
HATCH
  5
47
  8
0
 62
256
370
-1
  6
ByLayer
100
AcDbEntity
100
AcDbHatch
 10
0.0
 20
0.0
 30
0.0
210
0.0
220
0.0
230
1.0
  2
ANSI31
 70
0
 71
0
 91
1
 92
1
 93
16
 72
1
 10
314.6507300000000669
 20
205.999999999999801
 11
314.6507300000001237
 21
197.9999999999997442
 72
1
 10
314.6507300000001237
 20
197.9999999999997442
 11
309.90073000000001
 21
198.0000000000000284
 72
1
 10
309.90073000000001
 20
198.0000000000000284
 11
309.9007300000000669
 21
202.9999999999999432
 72
1
 10
309.9007300000000669
 20
202.9999999999999432
 11
307.4007300000000669
 21
202.9999999999998863
 72
1
 10
307.4007300000000669
 20
202.9999999999998863
 11
307.4007300000000669
 21
197.9999999999999432
 72
1
 10
307.4007300000000669
 20
197.9999999999999432
 11
277.6507300000000669
 21
197.9999999999998863
 72
1
 10
277.6507300000000669
 20
197.9999999999998863
 11
277.6507300000001237
 21
205.9999999999997726
 72
1
 10
277.6507300000001237
 20
205.9999999999997726
 11
314.6507300000000669
 21
205.999999999999801
 72
1
 10
8.0000000000000906
 20
206.0000000000000853
 11
8.0000000000000178
 21
198.0
 72
1
 10
8.0000000000000178
 20
198.0
 11
5.24999999999857
 21
198.0
 72
1
 10
5.24999999999857
 20
198.0
 11
5.2499999999984448
 21
203.0000000000000568
 72
1
 10
5.2499999999984448
 20
203.0000000000000568
 11
2.7500000000015876
 21
203.0000000000001421
 72
1
 10
2.7500000000015876
 20
203.0000000000001421
 11
2.7500000000015432
 21
198.0
 72
1
 10
2.7500000000015432
 20
198.0
 11
-1.9999999999998799
 21
198.0
 72
1
 10
-1.9999999999998799
 20
198.0
 11
-1.9999999999999216
 21
205.9999999999999716
 72
1
 10
-1.9999999999999216
 20
205.9999999999999716
 11
8.0000000000000906
 21
206.0000000000000853
 97
0
 75
0
 76
1
 52
3.1415926535897931
 41
1.0
 77
0
 78
1
 53
45.0
 43
0.0
 44
0.0
 45
-0.0883883476483184
 46
0.0883883476483185
 79
0
 98
0
  0
LINE
  5
48
100
AcDbEntity
100
AcDbLine
  8
0
 62
256
370
-1
  6
ByLayer
 10
142.8253650000000903
 20
144.8006199999999524
 30
0.0
 11
142.8253650000000903
 21
144.8006199999999524
 31
0.0
  0
ARC
  5
49
100
AcDbEntity
  8
0
 62
256
370
-1
  6
ByLayer
100
AcDbCircle
 10
0.0000000000000466
 20
152.3006200000000092
 30
0.0
 40
2.0
100
AcDbArc
 50
90.0
 51
180.0
  0
LINE
  5
4A
100
AcDbEntity
100
AcDbLine
  8
0
 62
256
370
-1
  6
ByLayer
 10
0.0000000000000472
 20
154.3006200000000092
 30
0.0
 11
312.6507300000001237
 21
154.3006199999999524
 31
0.0
  0
ARC
  5
4B
100
AcDbEntity
  8
0
 62
256
370
-1
  6
ByLayer
100
AcDbCircle
 10
312.65073000000001
 20
152.3006199999999524
 30
0.0
 40
2.0
100
AcDbArc
 50
360.0
 51
89.9999999999981668
  0
LINE
  5
4C
100
AcDbEntity
100
AcDbLine
  8
Dash
 62
256
370
-1
  6
ByLayer
 10
334.6507300000001237
 20
76.1503099999997772
 30
0.0
 11
-22.0000000000000036
 21
76.1503100000000046
 31
0.0
  0
LINE
  5
4D
100
AcDbEntity
100
AcDbLine
  8
Dash
 62
256
370
-1
  6
ByLayer
 10
312.65073000000001
 20
3.9999999999998623
 30
0.0
 11
0.0000000000000012
 21
4.0
 31
0.0
  0
LINE
  5
4E
100
AcDbEntity
100
AcDbLine
  8
Dash
 62
256
370
-1
  6
ByLayer
 10
0.0000000000000454
 20
148.3006200000000092
 30
0.0
 11
312.6507300000001237
 21
148.3006199999998103
 31
0.0
  0
ARC
  5
4F
100
AcDbEntity
  8
0
 62
256
370
-1
  6
ByLayer
100
AcDbCircle
 10
312.65073000000001
 20
-0.0000000000000766
 30
0.0
 40
2.0
100
AcDbArc
 50
270.0
 51
360.0
  0
LINE
  5
50
100
AcDbEntity
100
AcDbLine
  8
0
 62
256
370
-1
  6
ByLayer
 10
314.65073000000001
 20
152.3006200000000092
 30
0.0
 11
314.65073000000001
 21
-0.0000000000000771
 31
0.0
  0
LINE
  5
51
100
AcDbEntity
100
AcDbLine
  8
0
 62
256
370
-1
  6
ByLayer
 10
-2.0
 20
0.0000000000000002
 30
0.0
 11
-2.0000000000000195
 21
152.3006200000000092
 31
0.0
  0
ARC
  5
52
100
AcDbEntity
  8
0
 62
256
370
-1
  6
ByLayer
100
AcDbCircle
 10
0.0
 20
0.0
 30
0.0
 40
2.0
100
AcDbArc
 50
180.0
 51
269.9999999999983515
  0
LINE
  5
53
100
AcDbEntity
100
AcDbLine
  8
0
 62
256
370
-1
  6
ByLayer
 10
312.6507300000000669
 20
-1.9999999999999161
 30
0.0
 11
-0.0000000000000572
 21
-2.0
 31
0.0
  0
CIRCLE
  5
54
100
AcDbEntity
100
AcDbCircle
  8
Hidden
 62
256
370
-1
  6
ByLayer
 10
308.65073000000001
 20
3.9999999999998805
 30
0.0
 40
1.25
  0
CIRCLE
  5
55
100
AcDbEntity
100
AcDbCircle
  8
Hidden
 62
256
370
-1
  6
ByLayer
 10
208.65073000000001
 20
3.9999999999998792
 30
0.0
 40
1.25
  0
CIRCLE
  5
56
100
AcDbEntity
100
AcDbCircle
  8
Hidden
 62
256
370
-1
  6
ByLayer
 10
104.0
 20
3.9999999999999067
 30
0.0
 40
1.25
  0
CIRCLE
  5
57
100
AcDbEntity
100
AcDbCircle
  8
Hidden
 62
256
370
-1
  6
ByLayer
 10
4.0000000000000009
 20
3.9999999999999991
 30
0.0
 40
1.25
  0
CIRCLE
  5
58
100
AcDbEntity
100
AcDbCircle
  8
Hidden
 62
256
370
-1
  6
ByLayer
 10
3.9999999999999418
 20
76.1503100000000046
 30
0.0
 40
1.25
  0
CIRCLE
  5
59
100
AcDbEntity
100
AcDbCircle
  8
Hidden
 62
256
370
-1
  6
ByLayer
 10
3.9999999999999805
 20
148.3006200000000092
 30
0.0
 40
1.25
  0
CIRCLE
  5
5A
100
AcDbEntity
100
AcDbCircle
  8
Hidden
 62
256
370
-1
  6
ByLayer
 10
104.0000000000000995
 20
148.3006199999999239
 30
0.0
 40
1.25
  0
CIRCLE
  5
5B
100
AcDbEntity
100
AcDbCircle
  8
Hidden
 62
256
370
-1
  6
ByLayer
 10
208.65073000000001
 20
148.3006200000000376
 30
0.0
 40
1.25
  0
CIRCLE
  5
5C
100
AcDbEntity
100
AcDbCircle
  8
Hidden
 62
256
370
-1
  6
ByLayer
 10
308.6507300000001806
 20
148.300619999999725
 30
0.0
 40
1.25
  0
CIRCLE
  5
5D
100
AcDbEntity
100
AcDbCircle
  8
Hidden
 62
256
370
-1
  6
ByLayer
 10
308.65073000000001
 20
76.1503099999999478
 30
0.0
 40
1.25
  0
ARC
  5
5E
100
AcDbEntity
  8
0
 62
256
370
-1
  6
ByLayer
100
AcDbCircle
 10
275.65073000000001
 20
9.9999999999997407
 30
0.0
 40
2.0
100
AcDbArc
 50
270.0
 51
360.0
  0
LINE
  5
5F
100
AcDbEntity
100
AcDbLine
  8
0
 62
256
370
-1
  6
ByLayer
 10
277.6507300000001237
 20
142.3006199999998387
 30
0.0
 11
277.65073000000001
 21
9.9999999999999325
 31
0.0
  0
ARC
  5
60
100
AcDbEntity
  8
0
 62
256
370
-1
  6
ByLayer
100
AcDbCircle
 10
275.6507300000000669
 20
142.3006199999999239
 30
0.0
 40
2.0
100
AcDbArc
 50
360.0
 51
90.0
  0
LINE
  5
61
100
AcDbEntity
100
AcDbLine
  8
0
 62
256
370
-1
  6
ByLayer
 10
200.4999999999999716
 20
144.3006200000000092
 30
0.0
 11
275.65073000000001
 21
144.3006199999999524
 31
0.0
  0
ARC
  5
62
100
AcDbEntity
  8
0
 62
256
370
-1
  6
ByLayer
100
AcDbCircle
 10
200.4999999999999432
 20
142.3006200000000376
 30
0.0
 40
2.0
100
AcDbArc
 50
90.0
 51
180.0
  0
ARC
  5
63
100
AcDbEntity
  8
0
 62
256
370
-1
  6
ByLayer
100
AcDbCircle
 10
196.5
 20
127.2492000000000161
 30
0.0
 40
2.0
100
AcDbArc
 50
270.0
 51
360.0
  0
LINE
  5
64
100
AcDbEntity
100
AcDbLine
  8
0
 62
256
370
-1
  6
ByLayer
 10
165.3510000000001128
 20
125.249199999999874
 30
0.0
 11
196.5000000000000853
 21
125.2491999999998313
 31
0.0
  0
ARC
  5
65
100
AcDbEntity
  8
0
 62
256
370
-1
  6
ByLayer
100
AcDbCircle
 10
165.3510000000000275
 20
127.2491999999999308
 30
0.0
 40
2.0
100
AcDbArc
 50
180.0
 51
270.0
  0
ARC
  5
66
100
AcDbEntity
  8
0
 62
256
370
-1
  6
ByLayer
100
AcDbCircle
 10
161.3509999999999991
 20
142.3006200000000092
 30
0.0
 40
2.0
100
AcDbArc
 50
360.0
 51
90.0
  0
LINE
  5
67
100
AcDbEntity
100
AcDbLine
  8
0
 62
256
370
-1
  6
ByLayer
 10
143.3500000000000796
 20
144.3006199999999524
 30
0.0
 11
161.3509999999999991
 21
144.3006200000000092
 31
0.0
  0
ARC
  5
68
100
AcDbEntity
  8
0
 62
256
370
-1
  6
ByLayer
100
AcDbCircle
 10
143.3499999999999943
 20
142.3006200000000092
 30
0.0
 40
2.0
100
AcDbArc
 50
90.0
 51
180.0000000000000568
  0
ARC
  5
69
100
AcDbEntity
  8
0
 62
256
370
-1
  6
ByLayer
100
AcDbCircle
 10
139.3500000000000227
 20
127.2491999999999734
 30
0.0
 40
2.0
100
AcDbArc
 50
270.0
 51
360.0
  0
LINE
  5
6A
100
AcDbEntity
100
AcDbLine
  8
0
 62
256
370
-1
  6
ByLayer
 10
108.201000000000036
 20
125.2491999999999734
 30
0.0
 11
139.3499999999999659
 21
125.2492000000000019
 31
0.0
  0
ARC
  5
6B
100
AcDbEntity
  8
0
 62
256
370
-1
  6
ByLayer
100
AcDbCircle
 10
108.2009999999999934
 20
127.2492000000000303
 30
0.0
 40
2.0
100
AcDbArc
 50
180.0
 51
270.0
  0
ARC
  5
6C
100
AcDbEntity
  8
0
 62
256
370
-1
  6
ByLayer
100
AcDbCircle
 10
104.2010000000000645
 20
142.3006199999999524
 30
0.0
 40
2.0
100
AcDbArc
 50
360.0
 51
90.0
  0
LINE
  5
6D
100
AcDbEntity
100
AcDbLine
  8
0
 62
256
370
-1
  6
ByLayer
 10
10.0000000000000799
 20
144.3006200000000092
 30
0.0
 11
104.2010000000001213
 21
144.3006199999998955
 31
0.0
  0
ARC
  5
6E
100
AcDbEntity
  8
0
 62
256
370
-1
  6
ByLayer
100
AcDbCircle
 10
9.9999999999999947
 20
142.3006200000000376
 30
0.0
 40
2.0
100
AcDbArc
 50
90.0
 51
180.0
  0
LINE
  5
6F
100
AcDbEntity
100
AcDbLine
  8
0
 62
256
370
-1
  6
ByLayer
 10
275.6507300000000669
 20
7.9999999999997806
 30
0.0
 11
9.9999999999999396
 21
8.0000000000000018
 31
0.0
  0
LINE
  5
70
100
AcDbEntity
100
AcDbLine
  8
0
 62
256
370
-1
  6
ByLayer
 10
8.0
 20
9.9999999999999982
 30
0.0
 11
8.0000000000001155
 21
142.3006200000000092
 31
0.0
  0
ARC
  5
71
100
AcDbEntity
  8
0
 62
256
370
-1
  6
ByLayer
100
AcDbCircle
 10
9.9999999999999467
 20
9.9999999999999964
 30
0.0
 40
2.0
100
AcDbArc
 50
180.0
 51
270.0
  0
CIRCLE
  5
72
100
AcDbEntity
100
AcDbCircle
  8
Hidden
 62
256
370
-1
  6
ByLayer
 10
228.5503999999999962
 20
3.999999999999877
 30
0.0
 40
3.0
  0
CIRCLE
  5
73
100
AcDbEntity
100
AcDbCircle
  8
Hidden
 62
256
370
-1
  6
ByLayer
 10
76.1510000000000105
 20
3.9999999999999667
 30
0.0
 40
3.0
  0
CIRCLE
  5
74
100
AcDbEntity
100
AcDbCircle
  8
Hidden
 62
256
370
-1
  6
ByLayer
 10
228.5504000000001383
 20
148.3006199999997818
 30
0.0
 40
3.0
  0
CIRCLE
  5
75
100
AcDbEntity
100
AcDbCircle
  8
Hidden
 62
256
370
-1
  6
ByLayer
 10
76.1510000000001099
 20
148.3006199999999808
 30
0.0
 40
3.0
  0
LINE
  5
76
100
AcDbEntity
100
AcDbLine
  8
0
 62
256
370
-1
  6
ByLayer
 10
314.6507300000001237
 20
197.9999999999997442
 30
0.0
 11
-1.9999999999998799
 21
198.0
 31
0.0
  0
LINE
  5
77
100
AcDbEntity
100
AcDbLine
  8
0
 62
256
370
-1
  6
ByLayer
 10
314.6507300000001237
 20
197.9999999999997442
 30
0.0
 11
314.6507300000000669
 21
205.999999999999801
 31
0.0
  0
LINE
  5
78
100
AcDbEntity
100
AcDbLine
  8
0
 62
256
370
-1
  6
ByLayer
 10
309.90073000000001
 20
198.0000000000000284
 30
0.0
 11
309.9007300000000669
 21
202.9999999999999432
 31
0.0
  0
LINE
  5
79
100
AcDbEntity
100
AcDbLine
  8
0
 62
256
370
-1
  6
ByLayer
 10
-1.9999999999999216
 20
205.9999999999999716
 30
0.0
 11
-1.9999999999998799
 21
198.0
 31
0.0
  0
LINE
  5
7A
100
AcDbEntity
100
AcDbLine
  8
0
 62
256
370
-1
  6
ByLayer
 10
314.6507300000000669
 20
205.999999999999801
 30
0.0
 11
-1.9999999999999216
 21
205.9999999999999716
 31
0.0
  0
LINE
  5
7B
100
AcDbEntity
100
AcDbLine
  8
0
 62
256
370
-1
  6
ByLayer
 10
2.7500000000015432
 20
198.0
 30
0.0
 11
2.7500000000015876
 21
203.0000000000001421
 31
0.0
  0
LINE
  5
7C
100
AcDbEntity
100
AcDbLine
  8
0
 62
256
370
-1
  6
ByLayer
 10
5.24999999999857
 20
198.0
 30
0.0
 11
5.2499999999984448
 21
203.0000000000000568
 31
0.0
  0
LINE
  5
7D
100
AcDbEntity
100
AcDbLine
  8
0
 62
256
370
-1
  6
ByLayer
 10
5.2499999999984448
 20
203.0000000000000568
 30
0.0
 11
2.7500000000015876
 21
203.0000000000001421
 31
0.0
  0
LINE
  5
7E
100
AcDbEntity
100
AcDbLine
  8
0
 62
256
370
-1
  6
ByLayer
 10
307.4007300000000669
 20
197.9999999999999432
 30
0.0
 11
307.4007300000000669
 21
202.9999999999998863
 31
0.0
  0
LINE
  5
7F
100
AcDbEntity
100
AcDbLine
  8
0
 62
256
370
-1
  6
ByLayer
 10
309.9007300000000669
 20
202.9999999999999432
 30
0.0
 11
307.4007300000000669
 21
202.9999999999998863
 31
0.0
  0
LINE
  5
80
100
AcDbEntity
100
AcDbLine
  8
0
 62
256
370
-1
  6
ByLayer
 10
277.6507300000000669
 20
197.9999999999998863
 30
0.0
 11
277.6507300000001237
 21
205.9999999999997726
 31
0.0
  0
LINE
  5
81
100
AcDbEntity
100
AcDbLine
  8
0
 62
256
370
-1
  6
ByLayer
 10
8.0000000000000178
 20
198.0
 30
0.0
 11
8.0000000000000906
 21
206.0000000000000853
 31
0.0
  0
LWPOLYLINE
  5
82
  8
0
 62
256
370
-1
  6
ByLayer
100
AcDbEntity
100
AcDbPolyline
 90
9
 70
0
 10
314.6507300000000669
 20
205.999999999999801
 30
0.0
 10
314.6507300000001237
 20
197.9999999999997442
 30
0.0
 10
309.90073000000001
 20
198.0000000000000284
 30
0.0
 10
309.9007300000000669
 20
202.9999999999999432
 30
0.0
 10
307.4007300000000669
 20
202.9999999999998863
 30
0.0
 10
307.4007300000000669
 20
197.9999999999999432
 30
0.0
 10
277.6507300000000669
 20
197.9999999999998863
 30
0.0
 10
277.6507300000001237
 20
205.9999999999997726
 30
0.0
 10
314.6507300000000669
 20
205.999999999999801
 30
0.0
  0
LWPOLYLINE
  5
83
  8
0
 62
256
370
-1
  6
ByLayer
100
AcDbEntity
100
AcDbPolyline
 90
9
 70
0
 10
8.0000000000000906
 20
206.0000000000000853
 30
0.0
 10
8.0000000000000178
 20
198.0
 30
0.0
 10
5.24999999999857
 20
198.0
 30
0.0
 10
5.2499999999984448
 20
203.0000000000000568
 30
0.0
 10
2.7500000000015876
 20
203.0000000000001421
 30
0.0
 10
2.7500000000015432
 20
198.0
 30
0.0
 10
-1.9999999999998799
 20
198.0
 30
0.0
 10
-1.9999999999999216
 20
205.9999999999999716
 30
0.0
 10
8.0000000000000906
 20
206.0000000000000853
 30
0.0
  0
LINE
  5
84
100
AcDbEntity
100
AcDbLine
  8
Hidden
 62
256
370
-1
  6
ByLayer
 10
231.5503000000001919
 20
197.9999999999998295
 30
0.0
 11
231.5503000000000782
 21
200.9999999999999147
 31
0.0
  0
LINE
  5
85
100
AcDbEntity
100
AcDbLine
  8
Hidden
 62
256
370
-1
  6
ByLayer
 10
231.5503000000000782
 20
200.9999999999999147
 30
0.0
 11
225.5504000000000815
 21
200.9999999999999432
 31
0.0
  0
LINE
  5
86
100
AcDbEntity
100
AcDbLine
  8
Hidden
 62
256
370
-1
  6
ByLayer
 10
225.5503999999999394
 20
198.0000000000000568
 30
0.0
 11
225.5504000000000815
 21
200.9999999999999432
 31
0.0
  0
LINE
  5
87
100
AcDbEntity
100
AcDbLine
  8
Hidden
 62
256
370
-1
  6
ByLayer
 10
209.9007000000000573
 20
197.9999999999999432
 30
0.0
 11
209.9007000000000858
 21
202.9999999999998863
 31
0.0
  0
LINE
  5
88
100
AcDbEntity
100
AcDbLine
  8
Hidden
 62
256
370
-1
  6
ByLayer
 10
209.9007000000000858
 20
202.9999999999998863
 30
0.0
 11
207.4007000000000858
 21
202.9999999999999432
 31
0.0
  0
LINE
  5
89
100
AcDbEntity
100
AcDbLine
  8
Hidden
 62
256
370
-1
  6
ByLayer
 10
207.4007000000000858
 20
197.9999999999999147
 30
0.0
 11
207.4007000000000858
 21
202.9999999999999432
 31
0.0
  0
LINE
  5
8A
100
AcDbEntity
100
AcDbLine
  8
Hidden
 62
256
370
-1
  6
ByLayer
 10
105.2499999999999716
 20
198.0
 30
0.0
 11
105.2500000000000426
 21
202.9999999999999716
 31
0.0
  0
LINE
  5
8B
100
AcDbEntity
100
AcDbLine
  8
Hidden
 62
256
370
-1
  6
ByLayer
 10
105.2500000000000426
 20
202.9999999999999716
 30
0.0
 11
102.7499999999999716
 21
203.0000000000000284
 31
0.0
  0
LINE
  5
8C
100
AcDbEntity
100
AcDbLine
  8
Hidden
 62
256
370
-1
  6
ByLayer
 10
102.7500000000000995
 20
197.9999999999999716
 30
0.0
 11
102.7499999999999716
 21
203.0000000000000284
 31
0.0
  0
LINE
  5
8D
100
AcDbEntity
100
AcDbLine
  8
Hidden
 62
256
370
-1
  6
ByLayer
 10
79.1510000000000815
 20
197.9999999999999432
 30
0.0
 11
79.1510000000000815
 21
200.9999999999999716
 31
0.0
  0
LINE
  5
8E
100
AcDbEntity
100
AcDbLine
  8
Hidden
 62
256
370
-1
  6
ByLayer
 10
79.1510000000000815
 20
200.9999999999999716
 30
0.0
 11
73.1500000000001052
 21
200.9999999999999716
 31
0.0
  0
LINE
  5
8F
100
AcDbEntity
100
AcDbLine
  8
Hidden
 62
256
370
-1
  6
ByLayer
 10
73.150000000000162
 20
197.9999999999999432
 30
0.0
 11
73.1500000000001052
 21
200.9999999999999716
 31
0.0
  0
LINE
  5
90
100
AcDbEntity
100
AcDbLine
  8
Dash
 62
256
370
-1
  6
ByLayer
 10
308.6507300000001237
 20
252.3006199999998955
 30
0.0
 11
308.6507299999998963
 21
-35.4763282779741758
 31
0.0
  0
LINE
  5
91
100
AcDbEntity
100
AcDbLine
  8
Dash
 62
256
370
-1
  6
ByLayer
 10
228.5503500000002362
 20
252.3006199999998387
 30
0.0
 11
228.5503500000000372
 21
-35.4763282779736784
 31
0.0
  0
LINE
  5
92
100
AcDbEntity
100
AcDbLine
  8
Dash
 62
256
370
-1
  6
ByLayer
 10
208.6507299999999248
 20
252.3006200000000661
 30
0.0
 11
208.65073000000001
 21
-35.4763282779737565
 31
0.0
  0
LINE
  5
93
100
AcDbEntity
100
AcDbLine
  8
Dash
 62
256
370
-1
  6
ByLayer
 10
103.9999999999999858
 20
-35.4763282779737921
 30
0.0
 11
104.0000000000002416
 21
252.3006199999998671
 31
0.0
  0
LINE
  5
94
100
AcDbEntity
100
AcDbLine
  8
Dash
 62
256
370
-1
  6
ByLayer
 10
76.1505000000000365
 20
252.3006200000000376
 30
0.0
 11
76.1505000000000507
 21
-35.4763282779737708
 31
0.0
  0
LINE
  5
95
100
AcDbEntity
100
AcDbLine
  8
Dash
 62
256
370
-1
  6
ByLayer
 10
3.9999999999999916
 20
-35.4763282779738063
 30
0.0
 11
4.000000000000032
 21
252.3006200000000092
 31
0.0
  0
LINE
  5
96
100
AcDbEntity
100
AcDbLine
  8
0
 62
256
370
-1
  6
ByLayer
 10
106.2010000000000645
 20
142.3006199999999808
 30
0.0
 11
106.2010000000001213
 21
127.2491999999999024
 31
0.0
  0
LINE
  5
97
100
AcDbEntity
100
AcDbLine
  8
0
 62
256
370
-1
  6
ByLayer
 10
141.350000000000108
 20
127.2491999999998598
 30
0.0
 11
141.350000000000108
 21
142.3006200000000092
 31
0.0
  0
LINE
  5
98
100
AcDbEntity
100
AcDbLine
  8
0
 62
256
370
-1
  6
ByLayer
 10
163.3510000000000559
 20
142.3006199999999808
 30
0.0
 11
163.3510000000000275
 21
127.2492000000000161
 31
0.0
  0
LINE
  5
99
100
AcDbEntity
100
AcDbLine
  8
0
 62
256
370
-1
  6
ByLayer
 10
198.5000000000000568
 20
127.2491999999999166
 30
0.0
 11
198.5000000000001421
 21
142.3006200000000376
 31
0.0
  0
LINE
  5
9A
100
AcDbEntity
100
AcDbLine
  8
0
 62
256
370
-1
  6
ByLayer
 10
106.2009999999998513
 20
205.9999999999999147
 30
0.0
 11
106.2009999999998797
 21
197.9999999999999147
 31
0.0
  0
LINE
  5
9B
100
AcDbEntity
100
AcDbLine
  8
0
 62
256
370
-1
  6
ByLayer
 10
141.350000000000108
 20
197.9999999999998863
 30
0.0
 11
141.350000000000108
 21
205.9999999999998863
 31
0.0
  0
LINE
  5
9C
100
AcDbEntity
100
AcDbLine
  8
0
 62
256
370
-1
  6
ByLayer
 10
163.351000000000198
 20
205.9999999999998863
 30
0.0
 11
163.3510000000001696
 21
197.9999999999998579
 31
0.0
  0
LINE
  5
9D
100
AcDbEntity
100
AcDbLine
  8
0
 62
256
370
-1
  6
ByLayer
 10
198.5000000000004547
 20
197.9999999999998295
 30
0.0
 11
198.5000000000004832
 21
205.9999999999998579
 31
0.0
  0
DIMENSION
  5
9E
100
AcDbEntity
  8
Label
 62
256
370
-1
  6
ByLayer
100
AcDbDimension
 10
5.249999999998578
 20
187.4516720911777554
 30
0.0
 11
4.0000000000000853
 21
189.3266720911777554
 31
0.0
 70
0
 71
5
 72
1
 41
1.0
 42
0.0
  1

  3
Standard
100
AcDbAlignedDimension
 13
2.7500000000015916
 23
198.0
 33
0.0
 14
5.2499999999985789
 24
198.0
 34
0.0
 50
0.0
100
AcDbRotatedDimension
  0
DIMENSION
  5
9F
100
AcDbEntity
  8
Label
 62
256
370
-1
  6
ByLayer
100
AcDbDimension
 10
79.1510000000000957
 20
187.4516720911777554
 30
0.0
 11
76.150500000000136
 21
189.3266720911777554
 31
0.0
 70
0
 71
5
 72
1
 41
1.0
 42
0.0
  1

  3
Standard
100
AcDbAlignedDimension
 13
73.1500000000001762
 23
197.9999999999999432
 33
0.0
 14
79.1510000000000957
 24
197.9999999999999432
 34
0.0
 50
0.0
100
AcDbRotatedDimension
  0
DIMENSION
  5
A0
100
AcDbEntity
  8
Label
 62
256
370
-1
  6
ByLayer
100
AcDbDimension
 10
-18.7938069002392751
 20
200.9999999999999716
 30
0.0
 11
-20.6688069002392751
 21
199.5
 31
0.0
 70
0
 71
5
 72
1
 41
1.0
 42
0.0
  1

  3
Standard
100
AcDbAlignedDimension
 13
-2.0000079999999798
 23
198.0
 33
0.0
 14
73.1500000000001052
 24
200.9999999999999716
 34
0.0
 50
90.0
100
AcDbRotatedDimension
  0
DIMENSION
  5
A1
100
AcDbEntity
  8
Label
 62
256
370
-1
  6
ByLayer
100
AcDbDimension
 10
-24.5638353345232616
 20
203.0000000000000284
 30
0.0
 11
-26.4388353345232616
 21
200.5
 31
0.0
 70
0
 71
5
 72
1
 41
1.0
 42
0.0
  1

  3
Standard
100
AcDbAlignedDimension
 13
8.0000000000000568
 23
198.0
 33
0.0
 14
102.7499999999999716
 24
203.0000000000000284
 34
0.0
 50
90.0
100
AcDbRotatedDimension
  0
DIMENSION
  5
A2
100
AcDbEntity
  8
Label
 62
256
370
-1
  6
ByLayer
100
AcDbDimension
 10
-30.9932955898682856
 20
205.9999999999999716
 30
0.0
 11
-32.868295589868282
 21
202.0
 31
0.0
 70
0
 71
5
 72
1
 41
1.0
 42
0.0
  1

  3
Standard
100
AcDbAlignedDimension
 13
-2.0000079999999727
 23
198.0
 33
0.0
 14
-1.9999999999999216
 24
205.9999999999999716
 34
0.0
 50
90.0
100
AcDbRotatedDimension
  0
DIMENSION
  5
A3
100
AcDbEntity
  8
Label
 62
256
370
-1
  6
ByLayer
100
AcDbDimension
 10
-18.7938069002392965
 20
8.0000000000000053
 30
0.0
 11
-20.6688069002392965
 21
3.0000000000000031
 31
0.0
 70
0
 71
5
 72
1
 41
1.0
 42
0.0
  1

  3
Standard
100
AcDbAlignedDimension
 13
4.0
 23
-1.9999999999999989
 33
0.0
 14
9.9999999999999432
 24
8.0000000000000018
 34
0.0
 50
90.0
100
AcDbRotatedDimension
  0
DIMENSION
  5
A4
100
AcDbEntity
  8
Label
 62
256
370
-1
  6
ByLayer
100
AcDbDimension
 10
-18.7938069002392965
 20
144.3006200000000092
 30
0.0
 11
-20.6688069002393036
 21
76.1503100000000046
 31
0.0
 70
0
 71
5
 72
1
 41
1.0
 42
0.0
  1

  3
Standard
100
AcDbAlignedDimension
 13
9.9999999999999432
 23
8.0000000000000018
 33
0.0
 14
9.9999999999999964
 24
144.3006200000000092
 34
0.0
 50
90.0
100
AcDbRotatedDimension
  0
DIMENSION
  5
A5
100
AcDbEntity
  8
Label
 62
256
370
-1
  6
ByLayer
100
AcDbDimension
 10
-18.7938069002392965
 20
154.3006200000000092
 30
0.0
 11
-20.6688069002392965
 21
149.3006200000000092
 31
0.0
 70
0
 71
5
 72
1
 41
1.0
 42
0.0
  1

  3
Standard
100
AcDbAlignedDimension
 13
9.9999999999999964
 23
144.3006200000000092
 33
0.0
 14
0.000000000000047
 24
154.3006200000000092
 34
0.0
 50
90.0
100
AcDbRotatedDimension
  0
DIMENSION
  5
A6
100
AcDbEntity
  8
Label
 62
256
370
-1
  6
ByLayer
100
AcDbDimension
 10
8.0000000000001155
 20
224.6189640489129999
 30
0.0
 11
3.0000000000000959
 21
226.4939640489129999
 31
0.0
 70
0
 71
5
 72
1
 41
1.0
 42
0.0
  1

  3
Standard
100
AcDbAlignedDimension
 13
-1.9999999999999216
 23
205.9999999999999716
 33
0.0
 14
8.0000000000001137
 24
205.9999999999999716
 34
0.0
 50
0.0
100
AcDbRotatedDimension
  0
DIMENSION
  5
A7
100
AcDbEntity
  8
Label
 62
256
370
-1
  6
ByLayer
100
AcDbDimension
 10
106.2009999999998513
 20
224.6189640489129999
 30
0.0
 11
57.1004999999999825
 21
226.4939640489129999
 31
0.0
 70
0
 71
5
 72
1
 41
1.0
 42
0.0
  1

  3
Standard
100
AcDbAlignedDimension
 13
8.0000000000001137
 23
205.9999999999999716
 33
0.0
 14
106.2009999999998513
 24
205.9999999999999147
 34
0.0
 50
0.0
100
AcDbRotatedDimension
  0
DIMENSION
  5
A8
100
AcDbEntity
  8
Label
 62
256
370
-1
  6
ByLayer
100
AcDbDimension
 10
141.350000000000108
 20
224.6189640489129999
 30
0.0
 11
123.7754999999999797
 21
226.4939640489129999
 31
0.0
 70
0
 71
5
 72
1
 41
1.0
 42
0.0
  1

  3
Standard
100
AcDbAlignedDimension
 13
106.2009999999998513
 23
205.9999999999999147
 33
0.0
 14
141.350000000000108
 24
205.9999999999998863
 34
0.0
 50
0.0
100
AcDbRotatedDimension
  0
DIMENSION
  5
A9
100
AcDbEntity
  8
Label
 62
256
370
-1
  6
ByLayer
100
AcDbDimension
 10
163.351000000000198
 20
224.6189640489129999
 30
0.0
 11
152.350500000000153
 21
226.4939640489129999
 31
0.0
 70
0
 71
5
 72
1
 41
1.0
 42
0.0
  1

  3
Standard
100
AcDbAlignedDimension
 13
141.350000000000108
 23
224.6189640489129999
 33
0.0
 14
163.351000000000198
 24
205.9999999999998863
 34
0.0
 50
0.0
100
AcDbRotatedDimension
  0
DIMENSION
  5
AA
100
AcDbEntity
  8
Label
 62
256
370
-1
  6
ByLayer
100
AcDbDimension
 10
198.5000000000004832
 20
224.6189640489129999
 30
0.0
 11
180.9255000000003406
 21
226.4939640489129999
 31
0.0
 70
0
 71
5
 72
1
 41
1.0
 42
0.0
  1

  3
Standard
100
AcDbAlignedDimension
 13
163.351000000000198
 23
205.9999999999998863
 33
0.0
 14
198.5000000000004832
 24
205.9999999999998579
 34
0.0
 50
0.0
100
AcDbRotatedDimension
  0
DIMENSION
  5
AB
100
AcDbEntity
  8
Label
 62
256
370
-1
  6
ByLayer
100
AcDbDimension
 10
277.6507300000001237
 20
224.6189640489129999
 30
0.0
 11
238.0753650000003177
 21
226.4939640489129999
 31
0.0
 70
0
 71
5
 72
1
 41
1.0
 42
0.0
  1

  3
Standard
100
AcDbAlignedDimension
 13
198.5000000000004832
 23
224.6189640489129999
 33
0.0
 14
277.6507300000001237
 24
205.9999999999998295
 34
0.0
 50
0.0
100
AcDbRotatedDimension
  0
DIMENSION
  5
AC
100
AcDbEntity
  8
Label
 62
256
370
-1
  6
ByLayer
100
AcDbDimension
 10
314.6507300000000669
 20
224.6189640489129999
 30
0.0
 11
296.3253710000000183
 21
226.4939640489129999
 31
0.0
 70
0
 71
5
 72
1
 41
1.0
 42
0.0
  1

  3
Standard
100
AcDbAlignedDimension
 13
278.0000119999999129
 23
205.9999999999998295
 33
0.0
 14
314.6507300000000669
 24
205.999999999999801
 34
0.0
 50
0.0
100
AcDbRotatedDimension
  0
DIMENSION
  5
AD
100
AcDbEntity
  8
Label
 62
256
370
-1
  6
ByLayer
100
AcDbDimension
 10
-10.5096946481601492
 20
144.3006199999999239
 30
0.0
 11
-12.3846946481601492
 21
134.7749099999999487
 31
0.0
 70
0
 71
5
 72
1
 41
1.0
 42
0.0
  1

  3
Standard
100
AcDbAlignedDimension
 13
108.2009999999999934
 23
125.2491999999999734
 33
0.0
 14
104.0000000000001421
 24
144.3006199999999239
 34
0.0
 50
90.0
100
AcDbRotatedDimension
  0
ENDSEC
  0
SECTION
  2
OBJECTS
  0
DICTIONARY
  5
C
100
AcDbDictionary
280
0
281
1
  3
ACAD_GROUP
350
D
  3
ACAD_LAYOUT
350
1A
  3
ACAD_MLINESTYLE
350
17
  3
ACAD_PLOTSETTINGS
350
19
  3
ACAD_PLOTSTYLENAME
350
E
  3
AcDbVariableDictionary
350
AE
  0
DICTIONARY
  5
D
100
AcDbDictionary
280
0
281
1
  0
ACDBDICTIONARYWDFLT
  5
E
100
AcDbDictionary
281
1
  3
Normal
350
F
100
AcDbDictionaryWithDefault
340
F
  0
ACDBPLACEHOLDER
  5
F
  0
DICTIONARY
  5
17
100
AcDbDictionary
280
0
281
1
  3
Standard
350
18
  0
MLINESTYLE
  5
18
100
AcDbMlineStyle
  2
STANDARD
 70
0
  3

 62
256
 51
90.0
 52
90.0
 71
2
 49
0.5
 62
256
  6
BYLAYER
 49
-0.5
 62
256
  6
BYLAYER
  0
DICTIONARY
  5
19
100
AcDbDictionary
280
0
281
1
  0
DICTIONARY
  5
1A
100
AcDbDictionary
281
1
  3
Layout1
350
1E
  3
Layout2
350
26
  3
Model
350
22
  0
LAYOUT
  5
1E
100
AcDbPlotSettings
  1

  2
C:\Program Files\AutoCAD 2002\plotters\DWF ePlot (optimized for plotting).pc3
  4

  6

 40
0.0
 41
0.0
 42
0.0
 43
0.0
 44
0.0
 45
0.0
 46
0.0
 47
0.0
 48
0.0
 49
0.0
140
0.0
141
0.0
142
1.0
143
1.0
 70
688
 72
0
 73
0
 74
5
  7

 75
16
147
1.0
148
0.0
149
0.0
100
AcDbLayout
  1
Layout1
 70
1
 71
1
 10
0.0
 20
0.0
 11
420.0
 21
297.0
 12
0.0
 22
0.0
 32
0.0
 14
100000000000000000000.0
 24
100000000000000000000.0
 34
100000000000000000000.0
 15
-100000000000000000000.0
 25
-100000000000000000000.0
 35
-100000000000000000000.0
146
0.0
 13
0.0
 23
0.0
 33
0.0
 16
1.0
 26
0.0
 36
0.0
 17
0.0
 27
1.0
 37
0.0
 76
0
330
1B
  0
LAYOUT
  5
22
100
AcDbPlotSettings
  1

  2
C:\Program Files\AutoCAD 2002\plotters\DWF ePlot (optimized for plotting).pc3
  4

  6

 40
0.0
 41
0.0
 42
0.0
 43
0.0
 44
0.0
 45
0.0
 46
0.0
 47
0.0
 48
0.0
 49
0.0
140
0.0
141
0.0
142
1.0
143
1.0
 70
1712
 72
0
 73
0
 74
0
  7

 75
0
147
1.0
148
0.0
149
0.0
100
AcDbLayout
  1
Model
 70
1
 71
0
 10
0.0
 20
0.0
 11
12.0
 21
9.0
 12
0.0
 22
0.0
 32
0.0
 14
0.0
 24
0.0
 34
0.0
 15
0.0
 25
0.0
 35
0.0
146
0.0
 13
0.0
 23
0.0
 33
0.0
 16
1.0
 26
0.0
 36
0.0
 17
0.0
 27
1.0
 37
0.0
 76
0
330
1F
  0
LAYOUT
  5
26
100
AcDbPlotSettings
  1

  2
C:\Program Files\AutoCAD 2002\plotters\DWF ePlot (optimized for plotting).pc3
  4

  6

 40
0.0
 41
0.0
 42
0.0
 43
0.0
 44
0.0
 45
0.0
 46
0.0
 47
0.0
 48
0.0
 49
0.0
140
0.0
141
0.0
142
1.0
143
1.0
 70
688
 72
0
 73
0
 74
5
  7

 75
16
147
1.0
148
0.0
149
0.0
100
AcDbLayout
  1
Layout2
 70
1
 71
2
 10
0.0
 20
0.0
 11
12.0
 21
9.0
 12
0.0
 22
0.0
 32
0.0
 14
0.0
 24
0.0
 34
0.0
 15
0.0
 25
0.0
 35
0.0
146
0.0
 13
0.0
 23
0.0
 33
0.0
 16
1.0
 26
0.0
 36
0.0
 17
0.0
 27
1.0
 37
0.0
 76
0
330
23
  0
DICTIONARY
  5
AE
100
AcDbDictionary
281
1
  3
DIMASSOC
350
B0
  3
HIDETEXT
350
AF
  0
DICTIONARYVAR
  5
AF
100
DictionaryVariables
280
0
  1
2
  0
DICTIONARYVAR
  5
B0
100
DictionaryVariables
280
0
  1
1
  0
ENDSEC
  0
EOF
