999
dxflib 2.5.0.0
  0
SECTION
  2
HEADER
  9
$ACADVER
  1
AC1015
  9
$HANDSEED
  5
FFFF
  9
$DIMASZ
 40
2.5
  9
$FILLMODE
 70
0
  9
$PLIMMIN
 10
0.0
 20
0.0
  9
$DIMEXE
 40
1.25
  9
$DIMGAP
 40
0.625
  9
$PLIMMAX
 10
210.0
 20
297.0
  9
$EXTMIN
 10
0.0
 20
0.0
 30
0.0
  9
$EXTMAX
 10
1000.0
 20
1000.0
 30
0.0
  9
$SPLFRAME
 70
1
  9
$INSUNITS
 70
4
  9
$DIMSTYLE
  2
Standard
  9
$DIMEXO
 40
0.625
  9
$DIMTXT
 40
2.5
  0
ENDSEC
  0
SECTION
  2
TABLES
  0
TABLE
  2
VPORT
  5
8
100
AcDbSymbolTable
 70
1
  0
VPORT
  5
30
100
AcDbSymbolTableRecord
100
AcDbViewportTableRecord
  2
*Active
 70
0
 10
0.0
 20
0.0
 11
1.0
 21
1.0
 12
286.3055555555554861
 22
148.5
 13
0.0
 23
0.0
 14
10.0
 24
10.0
 15
10.0
 25
10.0
 16
0.0
 26
0.0
 36
1.0
 17
0.0
 27
0.0
 37
0.0
 40
297.0
 41
1.92798353909465
 42
50.0
 43
0.0
 44
0.0
 50
0.0
 51
0.0
 71
0
 72
100
 73
1
 74
3
 75
1
 76
1
 77
0
 78
0
281
0
 65
1
110
0.0
120
0.0
130
0.0
111
1.0
121
0.0
131
0.0
112
0.0
122
1.0
132
0.0
 79
0
146
0.0
  0
ENDTAB
  0
TABLE
  2
LTYPE
  5
5
100
AcDbSymbolTable
 70
21
  0
LTYPE
  5
14
100
AcDbSymbolTableRecord
100
AcDbLinetypeTableRecord
  2
ByBlock
 70
0
  3

 72
65
 73
0
 40
0.0
  0
LTYPE
  5
15
100
AcDbSymbolTableRecord
100
AcDbLinetypeTableRecord
  2
ByLayer
 70
0
  3

 72
65
 73
0
 40
0.0
  0
LTYPE
  5
16
100
AcDbSymbolTableRecord
100
AcDbLinetypeTableRecord
  2
CONTINUOUS
 70
0
  3
Solid line
 72
65
 73
0
 40
0.0
  0
LTYPE
  5
31
100
AcDbSymbolTableRecord
100
AcDbLinetypeTableRecord
  2
DOT
 70
0
  3
Dot . . . . . . . . . . . . . . . . . . . . . .
 72
65
 73
2
 40
6.3499999999999996
 49
0.0
 74
0
 49
-6.3499999999999996
 74
0
  0
LTYPE
  5
32
100
AcDbSymbolTableRecord
100
AcDbLinetypeTableRecord
  2
DOT2
 70
0
  3
Dot (.5x) .....................................
 72
65
 73
2
 40
3.1749999999999998
 49
0.0
 74
0
 49
-3.1749999999999998
 74
0
  0
LTYPE
  5
33
100
AcDbSymbolTableRecord
100
AcDbLinetypeTableRecord
  2
DOTX2
 70
0
  3
Dot (2x) .  .  .  .  .  .  .  .  .  .  .  .  .
 72
65
 73
2
 40
12.6999999999999993
 49
0.0
 74
0
 49
-12.6999999999999993
 74
0
  0
LTYPE
  5
34
100
AcDbSymbolTableRecord
100
AcDbLinetypeTableRecord
  2
DASHED
 70
0
  3
Dashed __ __ __ __ __ __ __ __ __ __ __ __ __ _
 72
65
 73
2
 40
19.0500000000000007
 49
12.6999999999999993
 74
0
 49
-6.3499999999999996
 74
0
  0
LTYPE
  5
35
100
AcDbSymbolTableRecord
100
AcDbLinetypeTableRecord
  2
DASHED2
 70
0
  3
Dashed (.5x) _ _ _ _ _ _ _ _ _ _ _ _ _ _ _ _ _
 72
65
 73
2
 40
9.5250000000000004
 49
6.3499999999999996
 74
0
 49
-3.1749999999999998
 74
0
  0
LTYPE
  5
36
100
AcDbSymbolTableRecord
100
AcDbLinetypeTableRecord
  2
DASHEDX2
 70
0
  3
Dashed (2x) ____  ____  ____  ____  ____  ___
 72
65
 73
2
 40
38.1000000000000014
 49
25.3999999999999986
 74
0
 49
-12.6999999999999993
 74
0
  0
LTYPE
  5
37
100
AcDbSymbolTableRecord
100
AcDbLinetypeTableRecord
  2
DASHDOT
 70
0
  3
Dash dot __ . __ . __ . __ . __ . __ . __ . __
 72
65
 73
4
 40
25.3999999999999986
 49
12.6999999999999993
 74
0
 49
-6.3499999999999996
 74
0
 49
0.0
 74
0
 49
-6.3499999999999996
 74
0
  0
LTYPE
  5
38
100
AcDbSymbolTableRecord
100
AcDbLinetypeTableRecord
  2
DASHDOT2
 70
0
  3
Dash dot (.5x) _._._._._._._._._._._._._._._.
 72
65
 73
4
 40
12.6999999999999993
 49
6.3499999999999996
 74
0
 49
-3.1749999999999998
 74
0
 49
0.0
 74
0
 49
-3.1749999999999998
 74
0
  0
LTYPE
  5
39
100
AcDbSymbolTableRecord
100
AcDbLinetypeTableRecord
  2
DASHDOTX2
 70
0
  3
Dash dot (2x) ____  .  ____  .  ____  .  ___
 72
65
 73
4
 40
50.7999999999999972
 49
25.3999999999999986
 74
0
 49
-12.6999999999999993
 74
0
 49
0.0
 74
0
 49
-12.6999999999999993
 74
0
  0
LTYPE
  5
3A
100
AcDbSymbolTableRecord
100
AcDbLinetypeTableRecord
  2
DIVIDE
 70
0
  3
Divide ____ . . ____ . . ____ . . ____ . . ____
 72
65
 73
6
 40
31.75
 49
12.6999999999999993
 74
0
 49
-6.3499999999999996
 74
0
 49
0.0
 74
0
 49
-6.3499999999999996
 74
0
 49
0.0
 74
0
 49
-6.3499999999999996
 74
0
  0
LTYPE
  5
3B
100
AcDbSymbolTableRecord
100
AcDbLinetypeTableRecord
  2
DIVIDE2
 70
0
  3
Divide (.5x) __..__..__..__..__..__..__..__.._
 72
65
 73
6
 40
15.875
 49
6.3499999999999996
 74
0
 49
-3.1749999999999998
 74
0
 49
0.0
 74
0
 49
-3.1749999999999998
 74
0
 49
0.0
 74
0
 49
-3.1749999999999998
 74
0
  0
LTYPE
  5
3C
100
AcDbSymbolTableRecord
100
AcDbLinetypeTableRecord
  2
DIVIDEX2
 70
0
  3
Divide (2x) ________  .  .  ________  .  .  _
 72
65
 73
6
 40
63.5
 49
25.3999999999999986
 74
0
 49
-12.6999999999999993
 74
0
 49
0.0
 74
0
 49
-12.6999999999999993
 74
0
 49
0.0
 74
0
 49
-12.6999999999999993
 74
0
  0
LTYPE
  5
3D
100
AcDbSymbolTableRecord
100
AcDbLinetypeTableRecord
  2
CENTER
 70
0
  3
Center ____ _ ____ _ ____ _ ____ _ ____ _ ____
 72
65
 73
4
 40
50.7999999999999972
 49
31.75
 74
0
 49
-6.3499999999999996
 74
0
 49
6.3499999999999996
 74
0
 49
-6.3499999999999996
 74
0
  0
LTYPE
  5
3E
100
AcDbSymbolTableRecord
100
AcDbLinetypeTableRecord
  2
CENTER2
 70
0
  3
Center (.5x) ___ _ ___ _ ___ _ ___ _ ___ _ ___
 72
65
 73
4
 40
28.5749999999999993
 49
19.0500000000000007
 74
0
 49
-3.1749999999999998
 74
0
 49
3.1749999999999998
 74
0
 49
-3.1749999999999998
 74
0
  0
LTYPE
  5
3F
100
AcDbSymbolTableRecord
100
AcDbLinetypeTableRecord
  2
CENTERX2
 70
0
  3
Center (2x) ________  __  ________  __  _____
 72
65
 73
4
 40
101.5999999999999943
 49
63.5
 74
0
 49
-12.6999999999999993
 74
0
 49
12.6999999999999993
 74
0
 49
-12.6999999999999993
 74
0
  0
LTYPE
  5
40
100
AcDbSymbolTableRecord
100
AcDbLinetypeTableRecord
  2
BORDER
 70
0
  3
Border __ __ . __ __ . __ __ . __ __ . __ __ .
 72
65
 73
6
 40
44.4500000000000028
 49
12.6999999999999993
 74
0
 49
-6.3499999999999996
 74
0
 49
12.6999999999999993
 74
0
 49
-6.3499999999999996
 74
0
 49
0.0
 74
0
 49
-6.3499999999999996
 74
0
  0
LTYPE
  5
41
100
AcDbSymbolTableRecord
100
AcDbLinetypeTableRecord
  2
BORDER2
 70
0
  3
Border (.5x) __.__.__.__.__.__.__.__.__.__.__.
 72
65
 73
6
 40
22.2250000000000014
 49
6.3499999999999996
 74
0
 49
-3.1749999999999998
 74
0
 49
6.3499999999999996
 74
0
 49
-3.1749999999999998
 74
0
 49
0.0
 74
0
 49
-3.1749999999999998
 74
0
  0
LTYPE
  5
42
100
AcDbSymbolTableRecord
100
AcDbLinetypeTableRecord
  2
BORDERX2
 70
0
  3
Border (2x) ____  ____  .  ____  ____  .  ___
 72
65
 73
6
 40
88.9000000000000057
 49
25.3999999999999986
 74
0
 49
-12.6999999999999993
 74
0
 49
25.3999999999999986
 74
0
 49
-12.6999999999999993
 74
0
 49
0.0
 74
0
 49
-12.6999999999999993
 74
0
  0
ENDTAB
  0
TABLE
  2
LAYER
  5
2
100
AcDbSymbolTable
 70
5
  0
LAYER
  5
10
100
AcDbSymbolTableRecord
100
AcDbLayerTableRecord
  2
0
 70
0
 62
7
  6
CONTINUOUS
390
F
  0
LAYER
  5
43
100
AcDbSymbolTableRecord
100
AcDbLayerTableRecord
  2
Dash
 70
0
 62
7
  6
CENTER
370
0
390
F
  0
LAYER
  5
44
100
AcDbSymbolTableRecord
100
AcDbLayerTableRecord
  2
Hidden
 70
0
 62
7
  6
DOT
370
0
390
F
  0
LAYER
  5
45
100
AcDbSymbolTableRecord
100
AcDbLayerTableRecord
  2
Hatch
 70
0
 62
7
  6
CONTINUOUS
370
0
390
F
  0
LAYER
  5
46
100
AcDbSymbolTableRecord
100
AcDbLayerTableRecord
  2
Label
 70
0
 62
8
  6
CONTINUOUS
370
0
390
F
  0
ENDTAB
  0
TABLE
  2
STYLE
  5
3
100
AcDbSymbolTable
 70
1
  0
STYLE
  5
11
100
AcDbSymbolTableRecord
100
AcDbTextStyleTableRecord
  2
Standard
 70
0
 40
0.0
 41
0.75
 50
0.0
 71
0
 42
2.5
  3
txt
  4

  0
ENDTAB
  0
TABLE
  2
VIEW
  5
6
100
AcDbSymbolTable
 70
0
  0
ENDTAB
  0
TABLE
  2
UCS
  5
7
100
AcDbSymbolTable
 70
0
  0
ENDTAB
  0
TABLE
  2
APPID
  5
9
100
AcDbSymbolTable
 70
1
  0
APPID
  5
12
100
AcDbSymbolTableRecord
100
AcDbRegAppTableRecord
  2
ACAD
 70
0
  0
ENDTAB
  0
TABLE
  2
DIMSTYLE
  5
A
100
AcDbSymbolTable
 70
1
100
AcDbDimStyleTable
 71
0
  0
DIMSTYLE
105
27
100
AcDbSymbolTableRecord
100
AcDbDimStyleTableRecord
  2
Standard
 41
2.5
 42
0.625
 43
3.75
 44
1.25
 70
0
 73
0
 74
0
 77
1
 78
8
140
2.5
141
2.5
143
0.03937007874016
147
0.625
171
3
172
1
271
2
272
2
274
3
278
44
283
0
284
8
340
11
  0
ENDTAB
  0
TABLE
  2
BLOCK_RECORD
  5
1
100
AcDbSymbolTable
 70
1
  0
BLOCK_RECORD
  5
1F
100
AcDbSymbolTableRecord
100
AcDbBlockTableRecord
  2
*Model_Space
340
22
  0
BLOCK_RECORD
  5
1B
100
AcDbSymbolTableRecord
100
AcDbBlockTableRecord
  2
*Paper_Space
340
1E
  0
BLOCK_RECORD
  5
23
100
AcDbSymbolTableRecord
100
AcDbBlockTableRecord
  2
*Paper_Space0
340
26
  0
ENDTAB
  0
ENDSEC
  0
SECTION
  2
BLOCKS
  0
BLOCK
  5
20
100
AcDbEntity
  8
0
100
AcDbBlockBegin
  2
*Model_Space
 70
0
 10
0.0
 20
0.0
 30
0.0
  3
*Model_Space
  1

  0
ENDBLK
  5
21
100
AcDbEntity
  8
0
100
AcDbBlockEnd
  0
BLOCK
  5
1C
100
AcDbEntity
 67
1
  8
0
100
AcDbBlockBegin
  2
*Paper_Space
 70
0
 10
0.0
 20
0.0
 30
0.0
  3
*Paper_Space
  1

  0
ENDBLK
  5
1D
100
AcDbEntity
 67
1
  8
0
100
AcDbBlockEnd
  0
BLOCK
  5
24
100
AcDbEntity
  8
0
100
AcDbBlockBegin
  2
*Paper_Space0
 70
0
 10
0.0
 20
0.0
 30
0.0
  3
*Paper_Space0
  1

  0
ENDBLK
  5
25
100
AcDbEntity
  8
0
100
AcDbBlockEnd
  0
ENDSEC
  0
SECTION
  2
ENTITIES
  0
HATCH
  5
47
  8
0
 62
256
370
-1
  6
ByLayer
100
AcDbEntity
100
AcDbHatch
 10
0.0
 20
0.0
 30
0.0
210
0.0
220
0.0
230
1.0
  2
ANSI31
 70
0
 71
0
 91
1
 92
1
 93
20
 72
1
 10
306.9007300000000669
 20
212.9999999999999147
 11
306.9007300000001237
 21
202.999999999999801
 72
1
 10
306.9007300000001237
 20
202.999999999999801
 11
305.65073000000001
 21
202.9999999999999432
 72
1
 10
305.65073000000001
 20
202.9999999999999432
 11
305.6507300000001237
 21
197.9999999999998295
 72
1
 10
305.6507300000001237
 20
197.9999999999998295
 11
7.0000000000005906
 21
198.0
 72
1
 10
7.0000000000005906
 20
198.0
 11
7.0000000000005898
 21
202.9999999999999716
 72
1
 10
7.0000000000005898
 20
202.9999999999999716
 11
5.7500000000011795
 21
203.0000000000000284
 72
1
 10
5.7500000000011795
 20
203.0000000000000284
 11
5.7500000000012976
 21
212.9999999999999716
 72
1
 10
5.7500000000012976
 20
212.9999999999999716
 11
7.0000000000000924
 21
213.0
 72
1
 10
7.0000000000000924
 20
213.0
 11
7.0000000000000355
 21
211.5000000000000568
 72
1
 10
7.0000000000000355
 20
211.5000000000000568
 11
9.9999999999999662
 21
211.5000000000000284
 72
1
 10
9.9999999999999662
 20
211.5000000000000284
 11
10.0000000000000089
 21
201.9999999999999716
 72
1
 10
10.0000000000000089
 20
201.9999999999999716
 11
302.6507300000000669
 21
201.9999999999998295
 72
1
 10
302.6507300000000669
 20
201.9999999999998295
 11
302.6507299999999532
 21
212.9999999999999716
 72
1
 10
302.6507299999999532
 20
212.9999999999999716
 11
306.9007300000000669
 21
212.9999999999999147
 72
1
 10
2.2499999999990052
 20
212.9999999999999432
 11
2.2499999999990776
 21
203.0000000000000568
 72
1
 10
2.2499999999990776
 20
203.0000000000000568
 11
0.9999999999993735
 21
202.9999999999999716
 72
1
 10
0.9999999999993735
 20
202.9999999999999716
 11
0.9999999999995302
 21
198.0
 72
1
 10
0.9999999999995302
 20
198.0
 11
-1.9999999999998799
 21
198.0
 72
1
 10
-1.9999999999998799
 20
198.0
 11
-1.9999999999998739
 21
212.9999999999999716
 72
1
 10
-1.9999999999998739
 20
212.9999999999999716
 11
2.2499999999990052
 21
212.9999999999999432
 97
0
 75
0
 76
1
 52
3.1415926535897931
 41
1.0
 77
0
 78
1
 53
45.0
 43
0.0
 44
0.0
 45
-0.0883883476483184
 46
0.0883883476483185
 79
0
 98
0
  0
HATCH
  5
48
  8
0
 62
256
370
-1
  6
ByLayer
100
AcDbEntity
100
AcDbHatch
 10
0.0
 20
0.0
 30
0.0
210
0.0
220
0.0
230
1.0
  2
ANSI31
 70
0
 71
0
 91
1
 92
1
 93
6
 72
1
 10
314.6507300000001806
 20
212.9999999999997158
 11
314.6507300000001237
 21
197.9999999999997442
 72
1
 10
314.6507300000001237
 20
197.9999999999997442
 11
311.65073000000001
 21
197.9999999999999716
 72
1
 10
311.65073000000001
 20
197.9999999999999716
 11
311.6507300000001806
 21
202.9999999999997158
 72
1
 10
311.6507300000001806
 20
202.9999999999997158
 11
310.4007300000000669
 21
202.9999999999999432
 72
1
 10
310.4007300000000669
 20
202.9999999999999432
 11
310.40073000000001
 21
212.9999999999999716
 72
1
 10
310.40073000000001
 20
212.9999999999999716
 11
314.6507300000001806
 21
212.9999999999997158
 97
0
 75
0
 76
1
 52
3.1415926535897931
 41
1.0
 77
0
 78
1
 53
45.0
 43
0.0
 44
0.0
 45
-0.0883883476483184
 46
0.0883883476483185
 79
0
 98
0
  0
LINE
  5
49
100
AcDbEntity
100
AcDbLine
  8
0
 62
256
370
-1
  6
ByLayer
 10
142.8253650000000903
 20
144.8006199999999524
 30
0.0
 11
142.8253650000000903
 21
144.8006199999999524
 31
0.0
  0
LINE
  5
4A
100
AcDbEntity
100
AcDbLine
  8
0
 62
256
370
-1
  6
ByLayer
 10
219.5500000000000114
 20
6.9999999999998685
 30
0.0
 11
85.1510000000000105
 21
6.9999999999999973
 31
0.0
  0
LINE
  5
4B
100
AcDbEntity
100
AcDbLine
  8
0
 62
256
370
-1
  6
ByLayer
 10
67.1500000000000057
 20
6.9999999999999423
 30
0.0
 11
9.0000000000000036
 21
6.9999999999999947
 31
0.0
  0
ARC
  5
4C
100
AcDbEntity
  8
0
 62
256
370
-1
  6
ByLayer
100
AcDbCircle
 10
9.0000000000000551
 20
143.3006200000000092
 30
0.0
 40
2.0
100
AcDbArc
 50
90.0
 51
180.0
  0
LINE
  5
4D
100
AcDbEntity
100
AcDbLine
  8
0
 62
256
370
-1
  6
ByLayer
 10
8.9999999999999947
 20
145.3006200000000092
 30
0.0
 11
67.1500000000000767
 21
145.3006199999999808
 31
0.0
  0
LINE
  5
4E
100
AcDbEntity
100
AcDbLine
  8
0
 62
256
370
-1
  6
ByLayer
 10
237.5507000000000346
 20
145.3006199999999808
 30
0.0
 11
276.6507300000001237
 21
145.3006199999999239
 31
0.0
  0
ARC
  5
4F
100
AcDbEntity
  8
0
 62
256
370
-1
  6
ByLayer
100
AcDbCircle
 10
276.65073000000001
 20
143.3006199999999239
 30
0.0
 40
2.0
100
AcDbArc
 50
360.0
 51
90.0
  0
LINE
  5
50
100
AcDbEntity
100
AcDbLine
  8
0
 62
256
370
-1
  6
ByLayer
 10
276.65073000000001
 20
6.9999999999998845
 30
0.0
 11
237.5507000000000062
 21
6.9999999999999218
 31
0.0
  0
ARC
  5
51
100
AcDbEntity
  8
0
 62
256
370
-1
  6
ByLayer
100
AcDbCircle
 10
12.0000000000000853
 20
140.3006200000000092
 30
0.0
 40
2.0
100
AcDbArc
 50
90.0
 51
180.0
  0
LINE
  5
52
100
AcDbEntity
100
AcDbLine
  8
0
 62
256
370
-1
  6
ByLayer
 10
235.5507000000000346
 20
0.4999999999997577
 30
0.0
 11
221.5500000000000398
 21
0.4999999999998939
 31
0.0
  0
LINE
  5
53
100
AcDbEntity
100
AcDbLine
  8
0
 62
256
370
-1
  6
ByLayer
 10
83.1510000000000105
 20
0.4999999999999522
 30
0.0
 11
69.1500000000000057
 21
0.4999999999999395
 31
0.0
  0
LINE
  5
54
100
AcDbEntity
100
AcDbLine
  8
0
 62
256
370
-1
  6
ByLayer
 10
69.1500000000000483
 20
151.8006199999999808
 30
0.0
 11
83.1510000000000105
 21
151.8006200000000092
 31
0.0
  0
LINE
  5
55
100
AcDbEntity
100
AcDbLine
  8
0
 62
256
370
-1
  6
ByLayer
 10
221.5500000000000682
 20
151.8006199999999808
 30
0.0
 11
235.5507000000000062
 21
151.8006199999999808
 31
0.0
  0
ARC
  5
56
100
AcDbEntity
  8
0
 62
256
370
-1
  6
ByLayer
100
AcDbCircle
 10
69.1500000000000341
 20
149.8006199999999808
 30
0.0
 40
2.0
100
AcDbArc
 50
90.0
 51
180.0
  0
LINE
  5
57
100
AcDbEntity
100
AcDbLine
  8
0
 62
256
370
-1
  6
ByLayer
 10
67.1500000000000909
 20
149.8006199999999524
 30
0.0
 11
67.1500000000000767
 21
145.3006199999999808
 31
0.0
  0
ARC
  5
58
100
AcDbEntity
  8
0
 62
256
370
-1
  6
ByLayer
100
AcDbCircle
 10
83.1510000000000957
 20
149.8006199999999808
 30
0.0
 40
2.0
100
AcDbArc
 50
360.0
 51
90.0
  0
LINE
  5
59
100
AcDbEntity
100
AcDbLine
  8
0
 62
256
370
-1
  6
ByLayer
 10
85.1510000000001241
 20
149.8006199999999239
 30
0.0
 11
85.1510000000000531
 21
145.3006199999999808
 31
0.0
  0
ARC
  5
5A
100
AcDbEntity
  8
0
 62
256
370
-1
  6
ByLayer
100
AcDbCircle
 10
221.5499999999999545
 20
149.8006200000000092
 30
0.0
 40
2.0
100
AcDbArc
 50
90.0
 51
180.0
  0
LINE
  5
5B
100
AcDbEntity
100
AcDbLine
  8
0
 62
256
370
-1
  6
ByLayer
 10
219.5500000000000114
 20
149.8006199999999808
 30
0.0
 11
219.5499999999999545
 21
145.3006200000000661
 31
0.0
  0
ARC
  5
5C
100
AcDbEntity
  8
0
 62
256
370
-1
  6
ByLayer
100
AcDbCircle
 10
235.5507000000000346
 20
149.8006199999999524
 30
0.0
 40
2.0
100
AcDbArc
 50
360.0
 51
90.0
  0
LINE
  5
5D
100
AcDbEntity
100
AcDbLine
  8
0
 62
256
370
-1
  6
ByLayer
 10
237.550700000000063
 20
149.8006199999998955
 30
0.0
 11
237.5507000000000346
 21
145.3006199999999808
 31
0.0
  0
ARC
  5
5E
100
AcDbEntity
  8
0
 62
256
370
-1
  6
ByLayer
100
AcDbCircle
 10
0.0000000000000466
 20
152.3006200000000092
 30
0.0
 40
2.0
100
AcDbArc
 50
90.0
 51
180.0
  0
LINE
  5
5F
100
AcDbEntity
100
AcDbLine
  8
0
 62
256
370
-1
  6
ByLayer
 10
278.6507300000000669
 20
143.3006199999998387
 30
0.0
 11
278.6507300000000669
 21
142.3006199999999239
 31
0.0
  0
LINE
  5
60
100
AcDbEntity
100
AcDbLine
  8
0
 62
256
370
-1
  6
ByLayer
 10
0.0000000000000472
 20
154.3006200000000092
 30
0.0
 11
312.6507300000001237
 21
154.3006199999999524
 31
0.0
  0
ARC
  5
61
100
AcDbEntity
  8
0
 62
256
370
-1
  6
ByLayer
100
AcDbCircle
 10
312.65073000000001
 20
152.3006199999999524
 30
0.0
 40
2.0
100
AcDbArc
 50
360.0
 51
89.9999999999981668
  0
ARC
  5
62
100
AcDbEntity
  8
0
 62
256
370
-1
  6
ByLayer
100
AcDbCircle
 10
300.6507300000001237
 20
140.3006199999997534
 30
0.0
 40
2.0
100
AcDbArc
 50
360.0
 51
89.9999999999983658
  0
LINE
  5
63
100
AcDbEntity
100
AcDbLine
  8
0
 62
256
370
-1
  6
ByLayer
 10
300.65073000000001
 20
9.9999999999997939
 30
0.0
 11
12.0000000000000053
 21
9.9999999999999929
 31
0.0
  0
LINE
  5
64
100
AcDbEntity
100
AcDbLine
  8
Dash
 62
256
370
-1
  6
ByLayer
 10
334.6507300000001237
 20
76.1503099999997772
 30
0.0
 11
-22.0000000000000036
 21
76.1503100000000046
 31
0.0
  0
LINE
  5
65
100
AcDbEntity
100
AcDbLine
  8
Dash
 62
256
370
-1
  6
ByLayer
 10
312.65073000000001
 20
3.9999999999998623
 30
0.0
 11
0.0000000000000012
 21
4.0
 31
0.0
  0
LINE
  5
66
100
AcDbEntity
100
AcDbLine
  8
Dash
 62
256
370
-1
  6
ByLayer
 10
0.0000000000000454
 20
148.3006200000000092
 30
0.0
 11
312.6507300000001237
 21
148.3006199999998103
 31
0.0
  0
CIRCLE
  5
67
100
AcDbEntity
100
AcDbCircle
  8
0
 62
256
370
-1
  6
ByLayer
 10
308.65073000000001
 20
3.9999999999998805
 30
0.0
 40
1.75
  0
CIRCLE
  5
68
100
AcDbEntity
100
AcDbCircle
  8
0
 62
256
370
-1
  6
ByLayer
 10
308.65073000000001
 20
76.1503099999999478
 30
0.0
 40
1.75
  0
CIRCLE
  5
69
100
AcDbEntity
100
AcDbCircle
  8
0
 62
256
370
-1
  6
ByLayer
 10
308.6507300000001806
 20
148.300619999999725
 30
0.0
 40
1.75
  0
CIRCLE
  5
6A
100
AcDbEntity
100
AcDbCircle
  8
0
 62
256
370
-1
  6
ByLayer
 10
208.65073000000001
 20
148.3006200000000376
 30
0.0
 40
1.75
  0
CIRCLE
  5
6B
100
AcDbEntity
100
AcDbCircle
  8
0
 62
256
370
-1
  6
ByLayer
 10
104.0000000000000995
 20
148.3006199999999239
 30
0.0
 40
1.75
  0
CIRCLE
  5
6C
100
AcDbEntity
100
AcDbCircle
  8
0
 62
256
370
-1
  6
ByLayer
 10
3.9999999999999805
 20
148.3006200000000092
 30
0.0
 40
1.75
  0
CIRCLE
  5
6D
100
AcDbEntity
100
AcDbCircle
  8
0
 62
256
370
-1
  6
ByLayer
 10
3.9999999999999418
 20
76.1503100000000046
 30
0.0
 40
1.75
  0
CIRCLE
  5
6E
100
AcDbEntity
100
AcDbCircle
  8
0
 62
256
370
-1
  6
ByLayer
 10
4.0000000000000009
 20
3.9999999999999991
 30
0.0
 40
1.75
  0
CIRCLE
  5
6F
100
AcDbEntity
100
AcDbCircle
  8
0
 62
256
370
-1
  6
ByLayer
 10
104.0
 20
3.9999999999999067
 30
0.0
 40
1.75
  0
CIRCLE
  5
70
100
AcDbEntity
100
AcDbCircle
  8
0
 62
256
370
-1
  6
ByLayer
 10
208.65073000000001
 20
3.9999999999998792
 30
0.0
 40
1.75
  0
CIRCLE
  5
71
100
AcDbEntity
100
AcDbCircle
  8
Hidden
 62
256
370
-1
  6
ByLayer
 10
308.65073000000001
 20
3.9999999999998805
 30
0.0
 40
3.0
  0
CIRCLE
  5
72
100
AcDbEntity
100
AcDbCircle
  8
Hidden
 62
256
370
-1
  6
ByLayer
 10
308.65073000000001
 20
76.1503099999999478
 30
0.0
 40
3.0
  0
CIRCLE
  5
73
100
AcDbEntity
100
AcDbCircle
  8
Hidden
 62
256
370
-1
  6
ByLayer
 10
308.6507300000001806
 20
148.300619999999725
 30
0.0
 40
3.0
  0
CIRCLE
  5
74
100
AcDbEntity
100
AcDbCircle
  8
Hidden
 62
256
370
-1
  6
ByLayer
 10
208.65073000000001
 20
148.3006200000000376
 30
0.0
 40
3.0
  0
CIRCLE
  5
75
100
AcDbEntity
100
AcDbCircle
  8
Hidden
 62
256
370
-1
  6
ByLayer
 10
104.0000000000000995
 20
148.3006199999999239
 30
0.0
 40
3.0
  0
CIRCLE
  5
76
100
AcDbEntity
100
AcDbCircle
  8
Hidden
 62
256
370
-1
  6
ByLayer
 10
3.9999999999999805
 20
148.3006200000000092
 30
0.0
 40
3.0
  0
CIRCLE
  5
77
100
AcDbEntity
100
AcDbCircle
  8
Hidden
 62
256
370
-1
  6
ByLayer
 10
3.9999999999999418
 20
76.1503100000000046
 30
0.0
 40
3.0
  0
CIRCLE
  5
78
100
AcDbEntity
100
AcDbCircle
  8
Hidden
 62
256
370
-1
  6
ByLayer
 10
4.0000000000000009
 20
3.9999999999999991
 30
0.0
 40
3.0
  0
CIRCLE
  5
79
100
AcDbEntity
100
AcDbCircle
  8
Hidden
 62
256
370
-1
  6
ByLayer
 10
104.0
 20
3.9999999999999067
 30
0.0
 40
3.0
  0
CIRCLE
  5
7A
100
AcDbEntity
100
AcDbCircle
  8
Hidden
 62
256
370
-1
  6
ByLayer
 10
208.65073000000001
 20
3.9999999999998792
 30
0.0
 40
3.0
  0
ARC
  5
7B
100
AcDbEntity
  8
0
 62
256
370
-1
  6
ByLayer
100
AcDbCircle
 10
312.65073000000001
 20
-0.0000000000000766
 30
0.0
 40
2.0
100
AcDbArc
 50
270.0
 51
360.0
  0
LINE
  5
7C
100
AcDbEntity
100
AcDbLine
  8
0
 62
256
370
-1
  6
ByLayer
 10
314.65073000000001
 20
152.3006200000000092
 30
0.0
 11
314.65073000000001
 21
-0.0000000000000771
 31
0.0
  0
LINE
  5
7D
100
AcDbEntity
100
AcDbLine
  8
0
 62
256
370
-1
  6
ByLayer
 10
-2.0
 20
0.0000000000000002
 30
0.0
 11
-2.0000000000000195
 21
152.3006200000000092
 31
0.0
  0
ARC
  5
7E
100
AcDbEntity
  8
0
 62
256
370
-1
  6
ByLayer
100
AcDbCircle
 10
0.0
 20
0.0
 30
0.0
 40
2.0
100
AcDbArc
 50
180.0
 51
269.9999999999983515
  0
LINE
  5
7F
100
AcDbEntity
100
AcDbLine
  8
0
 62
256
370
-1
  6
ByLayer
 10
312.6507300000000669
 20
-1.9999999999999161
 30
0.0
 11
-0.0000000000000572
 21
-2.0
 31
0.0
  0
ARC
  5
80
100
AcDbEntity
  8
0
 62
256
370
-1
  6
ByLayer
100
AcDbCircle
 10
300.65073000000001
 20
12.0000000000000018
 30
0.0
 40
2.0
100
AcDbArc
 50
270.0
 51
0.0000000000008142
  0
LINE
  5
81
100
AcDbEntity
100
AcDbLine
  8
0
 62
256
370
-1
  6
ByLayer
 10
302.65073000000001
 20
140.3006199999999239
 30
0.0
 11
302.65073000000001
 21
11.999999999999849
 31
0.0
  0
LINE
  5
82
100
AcDbEntity
100
AcDbLine
  8
0
 62
256
370
-1
  6
ByLayer
 10
237.5507000000000062
 20
6.9999999999999218
 30
0.0
 11
237.5507000000000062
 21
2.4999999999998339
 31
0.0
  0
ARC
  5
83
100
AcDbEntity
  8
0
 62
256
370
-1
  6
ByLayer
100
AcDbCircle
 10
235.5507000000000062
 20
2.4999999999999316
 30
0.0
 40
2.0
100
AcDbArc
 50
270.0
 51
360.0
  0
ARC
  5
84
100
AcDbEntity
  8
0
 62
256
370
-1
  6
ByLayer
100
AcDbCircle
 10
221.5500000000000398
 20
2.4999999999999298
 30
0.0
 40
2.0
100
AcDbArc
 50
180.0
 51
270.0
  0
LINE
  5
85
100
AcDbEntity
100
AcDbLine
  8
0
 62
256
370
-1
  6
ByLayer
 10
219.5500000000000114
 20
6.9999999999998685
 30
0.0
 11
219.5500000000000398
 21
2.499999999999964
 31
0.0
  0
LINE
  5
86
100
AcDbEntity
100
AcDbLine
  8
0
 62
256
370
-1
  6
ByLayer
 10
85.1510000000000105
 20
6.9999999999999973
 30
0.0
 11
85.1510000000000247
 21
2.4999999999999623
 31
0.0
  0
ARC
  5
87
100
AcDbEntity
  8
0
 62
256
370
-1
  6
ByLayer
100
AcDbCircle
 10
83.1510000000000105
 20
2.4999999999999836
 30
0.0
 40
2.0
100
AcDbArc
 50
270.0
 51
360.0
  0
LINE
  5
88
100
AcDbEntity
100
AcDbLine
  8
0
 62
256
370
-1
  6
ByLayer
 10
67.1500000000000057
 20
6.9999999999999423
 30
0.0
 11
67.1500000000000057
 21
2.4999999999999405
 31
0.0
  0
ARC
  5
89
100
AcDbEntity
  8
0
 62
256
370
-1
  6
ByLayer
100
AcDbCircle
 10
69.1500000000000057
 20
2.4999999999999716
 30
0.0
 40
2.0
100
AcDbArc
 50
180.0
 51
270.0
  0
ARC
  5
8A
100
AcDbEntity
  8
0
 62
256
370
-1
  6
ByLayer
100
AcDbCircle
 10
276.65073000000001
 20
8.9999999999998703
 30
0.0
 40
2.0
100
AcDbArc
 50
270.0
 51
360.0
  0
LINE
  5
8B
100
AcDbEntity
100
AcDbLine
  8
0
 62
256
370
-1
  6
ByLayer
 10
278.65073000000001
 20
9.999999999999913
 30
0.0
 11
278.6507299999999532
 21
8.9999999999998614
 31
0.0
  0
LINE
  5
8C
100
AcDbEntity
100
AcDbLine
  8
0
 62
256
370
-1
  6
ByLayer
 10
7.0000000000000071
 20
8.9999999999999929
 30
0.0
 11
7.0000000000000364
 21
143.3006200000000092
 31
0.0
  0
ARC
  5
8D
100
AcDbEntity
  8
0
 62
256
370
-1
  6
ByLayer
100
AcDbCircle
 10
9.0000000000000018
 20
8.9999999999999982
 30
0.0
 40
2.0
100
AcDbArc
 50
180.0
 51
270.0
  0
LINE
  5
8E
100
AcDbEntity
100
AcDbLine
  8
0
 62
256
370
-1
  6
ByLayer
 10
10.0000000000000107
 20
11.9999999999999911
 30
0.0
 11
10.0000000000000302
 21
140.3006200000000092
 31
0.0
  0
ARC
  5
8F
100
AcDbEntity
  8
0
 62
256
370
-1
  6
ByLayer
100
AcDbCircle
 10
12.0000000000000018
 20
11.9999999999999964
 30
0.0
 40
2.0
100
AcDbArc
 50
180.0
 51
270.0
  0
CIRCLE
  5
90
100
AcDbEntity
100
AcDbCircle
  8
0
 62
256
370
-1
  6
ByLayer
 10
228.5503500000000088
 20
3.9999999999999494
 30
0.0
 40
1.25
  0
CIRCLE
  5
91
100
AcDbEntity
100
AcDbCircle
  8
0
 62
256
370
-1
  6
ByLayer
 10
76.1505000000000223
 20
4.0000000000000027
 30
0.0
 40
1.25
  0
CIRCLE
  5
92
100
AcDbEntity
100
AcDbCircle
  8
0
 62
256
370
-1
  6
ByLayer
 10
76.1505000000000365
 20
148.3006200000000092
 30
0.0
 40
1.25
  0
CIRCLE
  5
93
100
AcDbEntity
100
AcDbCircle
  8
0
 62
256
370
-1
  6
ByLayer
 10
228.5503500000000656
 20
148.3006199999998671
 30
0.0
 40
1.25
  0
LINE
  5
94
100
AcDbEntity
100
AcDbLine
  8
0
 62
256
370
-1
  6
ByLayer
 10
164.350425000000115
 20
142.3006199999999239
 30
0.0
 11
300.65073000000001
 21
142.3006200000000092
 31
0.0
  0
LINE
  5
95
100
AcDbEntity
100
AcDbLine
  8
0
 62
256
370
-1
  6
ByLayer
 10
12.0000000000000675
 20
142.3006200000000092
 30
0.0
 11
140.3504250000000866
 21
142.3006199999999808
 31
0.0
  0
ARC
  5
96
100
AcDbEntity
  8
0
 62
256
370
-1
  6
ByLayer
100
AcDbCircle
 10
142.3504250000001434
 20
143.3006199999998955
 30
0.0
 40
2.0
100
AcDbArc
 50
90.0
 51
180.0
  0
ARC
  5
97
100
AcDbEntity
  8
0
 62
256
370
-1
  6
ByLayer
100
AcDbCircle
 10
162.3504250000000866
 20
143.3006199999999239
 30
0.0
 40
2.0
100
AcDbArc
 50
360.0
 51
90.0
  0
LINE
  5
98
100
AcDbEntity
100
AcDbLine
  8
0
 62
256
370
-1
  6
ByLayer
 10
85.1510000000000531
 20
145.3006199999999808
 30
0.0
 11
219.5499999999999545
 21
145.3006200000000661
 31
0.0
  0
LINE
  5
99
100
AcDbEntity
100
AcDbLine
  8
0
 62
256
370
-1
  6
ByLayer
 10
164.3504250000000866
 20
143.3006199999999808
 30
0.0
 11
164.350425000000115
 21
142.3006199999999239
 31
0.0
  0
LINE
  5
9A
100
AcDbEntity
100
AcDbLine
  8
0
 62
256
370
-1
  6
ByLayer
 10
140.3504250000000866
 20
143.3006199999999524
 30
0.0
 11
140.3504250000000866
 21
142.3006199999999808
 31
0.0
  0
LINE
  5
9B
100
AcDbEntity
100
AcDbLine
  8
0
 62
256
370
-1
  6
ByLayer
 10
314.6507300000001237
 20
197.9999999999997442
 30
0.0
 11
314.6507300000001806
 21
212.9999999999997158
 31
0.0
  0
LINE
  5
9C
100
AcDbEntity
100
AcDbLine
  8
0
 62
256
370
-1
  6
ByLayer
 10
-1.9999999999998739
 20
212.9999999999999716
 30
0.0
 11
-1.9999999999998799
 21
198.0
 31
0.0
  0
LINE
  5
9D
100
AcDbEntity
100
AcDbLine
  8
0
 62
256
370
-1
  6
ByLayer
 10
314.6507300000001237
 20
197.9999999999997442
 30
0.0
 11
-1.9999999999998799
 21
198.0
 31
0.0
  0
LINE
  5
9E
100
AcDbEntity
100
AcDbLine
  8
0
 62
256
370
-1
  6
ByLayer
 10
278.6507299999999532
 20
211.5000000000000853
 30
0.0
 11
278.6507300000001237
 21
212.9999999999998295
 31
0.0
  0
LINE
  5
9F
100
AcDbEntity
100
AcDbLine
  8
0
 62
256
370
-1
  6
ByLayer
 10
302.6507300000000669
 20
201.9999999999998295
 30
0.0
 11
10.0000000000000089
 21
201.9999999999999716
 31
0.0
  0
LINE
  5
A0
100
AcDbEntity
100
AcDbLine
  8
0
 62
256
370
-1
  6
ByLayer
 10
302.6507300000000669
 20
201.9999999999998295
 30
0.0
 11
302.6507299999999532
 21
212.9999999999999716
 31
0.0
  0
LINE
  5
A1
100
AcDbEntity
100
AcDbLine
  8
0
 62
256
370
-1
  6
ByLayer
 10
237.5506999999998641
 20
211.5
 30
0.0
 11
237.5506999999999778
 21
212.9999999999998579
 31
0.0
  0
LINE
  5
A2
100
AcDbEntity
100
AcDbLine
  8
0
 62
256
370
-1
  6
ByLayer
 10
219.5500000000000682
 20
211.4999999999999147
 30
0.0
 11
219.5499999999999261
 21
213.0
 31
0.0
  0
LINE
  5
A3
100
AcDbEntity
100
AcDbLine
  8
0
 62
256
370
-1
  6
ByLayer
 10
85.1510000000001384
 20
211.4999999999998863
 30
0.0
 11
85.1510000000001099
 21
213.0000000000000568
 31
0.0
  0
LINE
  5
A4
100
AcDbEntity
100
AcDbLine
  8
0
 62
256
370
-1
  6
ByLayer
 10
67.1500000000001336
 20
211.4999999999999147
 30
0.0
 11
67.1500000000001194
 21
212.9999999999999432
 31
0.0
  0
LINE
  5
A5
100
AcDbEntity
100
AcDbLine
  8
0
 62
256
370
-1
  6
ByLayer
 10
7.0000000000000924
 20
213.0
 30
0.0
 11
7.0000000000000355
 21
211.5000000000000568
 31
0.0
  0
LINE
  5
A6
100
AcDbEntity
100
AcDbLine
  8
0
 62
256
370
-1
  6
ByLayer
 10
9.9999999999999662
 20
211.5000000000000284
 30
0.0
 11
10.0000000000000089
 21
201.9999999999999716
 31
0.0
  0
LINE
  5
A7
100
AcDbEntity
100
AcDbLine
  8
0
 62
256
370
-1
  6
ByLayer
 10
311.65073000000001
 20
197.9999999999999716
 30
0.0
 11
311.6507300000001806
 21
202.9999999999997158
 31
0.0
  0
LINE
  5
A8
100
AcDbEntity
100
AcDbLine
  8
0
 62
256
370
-1
  6
ByLayer
 10
305.6507300000001237
 20
197.9999999999998295
 30
0.0
 11
305.65073000000001
 21
202.9999999999999432
 31
0.0
  0
LINE
  5
A9
100
AcDbEntity
100
AcDbLine
  8
0
 62
256
370
-1
  6
ByLayer
 10
306.9007300000001237
 20
202.999999999999801
 30
0.0
 11
306.9007300000000669
 21
212.9999999999999147
 31
0.0
  0
LINE
  5
AA
100
AcDbEntity
100
AcDbLine
  8
0
 62
256
370
-1
  6
ByLayer
 10
5.7500000000011795
 20
203.0000000000000284
 30
0.0
 11
5.7500000000012976
 21
212.9999999999999716
 31
0.0
  0
LINE
  5
AB
100
AcDbEntity
100
AcDbLine
  8
0
 62
256
370
-1
  6
ByLayer
 10
0.9999999999995302
 20
198.0
 30
0.0
 11
0.9999999999993735
 21
202.9999999999999716
 31
0.0
  0
LINE
  5
AC
100
AcDbEntity
100
AcDbLine
  8
0
 62
256
370
-1
  6
ByLayer
 10
2.2499999999990776
 20
203.0000000000000568
 30
0.0
 11
2.2499999999990052
 21
212.9999999999999432
 31
0.0
  0
LINE
  5
AD
100
AcDbEntity
100
AcDbLine
  8
0
 62
256
370
-1
  6
ByLayer
 10
2.2499999999990776
 20
203.0000000000000568
 30
0.0
 11
0.9999999999993735
 21
202.9999999999999716
 31
0.0
  0
LINE
  5
AE
100
AcDbEntity
100
AcDbLine
  8
0
 62
256
370
-1
  6
ByLayer
 10
7.0000000000005906
 20
198.0
 30
0.0
 11
7.0000000000005898
 21
202.9999999999999716
 31
0.0
  0
LINE
  5
AF
100
AcDbEntity
100
AcDbLine
  8
0
 62
256
370
-1
  6
ByLayer
 10
7.0000000000005898
 20
202.9999999999999716
 30
0.0
 11
5.7500000000011795
 21
203.0000000000000284
 31
0.0
  0
LINE
  5
B0
100
AcDbEntity
100
AcDbLine
  8
0
 62
256
370
-1
  6
ByLayer
 10
306.9007300000001237
 20
202.999999999999801
 30
0.0
 11
305.65073000000001
 21
202.9999999999999432
 31
0.0
  0
LINE
  5
B1
100
AcDbEntity
100
AcDbLine
  8
0
 62
256
370
-1
  6
ByLayer
 10
311.6507300000001806
 20
202.9999999999997158
 30
0.0
 11
310.4007300000000669
 21
202.9999999999999432
 31
0.0
  0
LINE
  5
B2
100
AcDbEntity
100
AcDbLine
  8
0
 62
256
370
-1
  6
ByLayer
 10
310.4007300000000669
 20
202.9999999999999432
 30
0.0
 11
310.40073000000001
 21
212.9999999999999716
 31
0.0
  0
LINE
  5
B3
100
AcDbEntity
100
AcDbLine
  8
0
 62
256
370
-1
  6
ByLayer
 10
140.3499999999999943
 20
201.9999999999999432
 30
0.0
 11
140.3500000000000512
 21
211.5
 31
0.0
  0
LINE
  5
B4
100
AcDbEntity
100
AcDbLine
  8
0
 62
256
370
-1
  6
ByLayer
 10
164.3499999999999659
 20
202.0000000000000284
 30
0.0
 11
164.3499999999999659
 21
211.4999999999999432
 31
0.0
  0
LWPOLYLINE
  5
B5
  8
0
 62
256
370
-1
  6
ByLayer
100
AcDbEntity
100
AcDbPolyline
 90
15
 70
0
 10
306.9007300000000669
 20
212.9999999999999147
 30
0.0
 10
306.9007300000001237
 20
202.999999999999801
 30
0.0
 10
305.65073000000001
 20
202.9999999999999432
 30
0.0
 10
305.6507300000001237
 20
197.9999999999998295
 30
0.0
 10
7.0000000000005906
 20
198.0
 30
0.0
 10
7.0000000000005898
 20
202.9999999999999716
 30
0.0
 10
5.7500000000011795
 20
203.0000000000000284
 30
0.0
 10
5.7500000000012976
 20
212.9999999999999716
 30
0.0
 10
7.0000000000000924
 20
213.0
 30
0.0
 10
7.0000000000000355
 20
211.5000000000000568
 30
0.0
 10
9.9999999999999662
 20
211.5000000000000284
 30
0.0
 10
10.0000000000000089
 20
201.9999999999999716
 30
0.0
 10
302.6507300000000669
 20
201.9999999999998295
 30
0.0
 10
302.6507299999999532
 20
212.9999999999999716
 30
0.0
 10
306.9007300000000669
 20
212.9999999999999147
 30
0.0
  0
LWPOLYLINE
  5
B6
  8
0
 62
256
370
-1
  6
ByLayer
100
AcDbEntity
100
AcDbPolyline
 90
7
 70
0
 10
2.2499999999990052
 20
212.9999999999999432
 30
0.0
 10
2.2499999999990776
 20
203.0000000000000568
 30
0.0
 10
0.9999999999993735
 20
202.9999999999999716
 30
0.0
 10
0.9999999999995302
 20
198.0
 30
0.0
 10
-1.9999999999998799
 20
198.0
 30
0.0
 10
-1.9999999999998739
 20
212.9999999999999716
 30
0.0
 10
2.2499999999990052
 20
212.9999999999999432
 30
0.0
  0
LWPOLYLINE
  5
B7
  8
0
 62
256
370
-1
  6
ByLayer
100
AcDbEntity
100
AcDbPolyline
 90
7
 70
0
 10
314.6507300000001806
 20
212.9999999999997158
 30
0.0
 10
314.6507300000001237
 20
197.9999999999997442
 30
0.0
 10
311.65073000000001
 20
197.9999999999999716
 30
0.0
 10
311.6507300000001806
 20
202.9999999999997158
 30
0.0
 10
310.4007300000000669
 20
202.9999999999999432
 30
0.0
 10
310.40073000000001
 20
212.9999999999999716
 30
0.0
 10
314.6507300000001806
 20
212.9999999999997158
 30
0.0
  0
LINE
  5
B8
100
AcDbEntity
100
AcDbLine
  8
Dash
 62
256
370
-1
  6
ByLayer
 10
308.6507300000001237
 20
252.3006199999998955
 30
0.0
 11
308.6507299999999532
 21
-29.4860705594409502
 31
0.0
  0
LINE
  5
B9
100
AcDbEntity
100
AcDbLine
  8
Dash
 62
256
370
-1
  6
ByLayer
 10
228.5503500000002362
 20
252.3006199999998387
 30
0.0
 11
228.5503500000000088
 21
-29.4860705594408401
 31
0.0
  0
LINE
  5
BA
100
AcDbEntity
100
AcDbLine
  8
Dash
 62
256
370
-1
  6
ByLayer
 10
208.6507299999999248
 20
252.3006200000000661
 30
0.0
 11
208.6507299999999816
 21
-29.4860705594409431
 31
0.0
  0
LINE
  5
BB
100
AcDbEntity
100
AcDbLine
  8
Dash
 62
256
370
-1
  6
ByLayer
 10
103.9999999999999574
 20
-29.4860705594408117
 30
0.0
 11
104.0000000000002416
 21
252.3006199999998671
 31
0.0
  0
LINE
  5
BC
100
AcDbEntity
100
AcDbLine
  8
Dash
 62
256
370
-1
  6
ByLayer
 10
76.1505000000000365
 20
252.3006200000000376
 30
0.0
 11
76.1505000000000223
 21
-29.4860705594407868
 31
0.0
  0
LINE
  5
BD
100
AcDbEntity
100
AcDbLine
  8
Dash
 62
256
370
-1
  6
ByLayer
 10
3.9999999999999933
 20
-29.4860705594407797
 30
0.0
 11
4.000000000000032
 21
252.3006200000000092
 31
0.0
  0
LINE
  5
BE
100
AcDbEntity
100
AcDbLine
  8
Hidden
 62
256
370
-1
  6
ByLayer
 10
229.8000000000000114
 20
204.5
 30
0.0
 11
229.8000000000000114
 21
211.5
 31
0.0
  0
LINE
  5
BF
100
AcDbEntity
100
AcDbLine
  8
Hidden
 62
256
370
-1
  6
ByLayer
 10
229.8000000000000114
 20
204.5
 30
0.0
 11
227.3000000000000114
 21
204.5
 31
0.0
  0
LINE
  5
C0
100
AcDbEntity
100
AcDbLine
  8
Hidden
 62
256
370
-1
  6
ByLayer
 10
227.3000000000000114
 20
204.5
 30
0.0
 11
227.3000000000000114
 21
211.5
 31
0.0
  0
LINE
  5
C1
100
AcDbEntity
100
AcDbLine
  8
Hidden
 62
256
370
-1
  6
ByLayer
 10
205.6510000000000105
 20
198.0
 30
0.0
 11
205.6510000000000105
 21
203.0
 31
0.0
  0
LINE
  5
C2
100
AcDbEntity
100
AcDbLine
  8
Hidden
 62
256
370
-1
  6
ByLayer
 10
206.9010000000000105
 20
203.0
 30
0.0
 11
205.6510000000000105
 21
203.0
 31
0.0
  0
LINE
  5
C3
100
AcDbEntity
100
AcDbLine
  8
Hidden
 62
256
370
-1
  6
ByLayer
 10
206.9010000000000105
 20
203.0
 30
0.0
 11
206.9010000000000105
 21
213.0
 31
0.0
  0
LINE
  5
C4
100
AcDbEntity
100
AcDbLine
  8
Hidden
 62
256
370
-1
  6
ByLayer
 10
210.4010000000000105
 20
203.0
 30
0.0
 11
210.4010000000000105
 21
213.0
 31
0.0
  0
LINE
  5
C5
100
AcDbEntity
100
AcDbLine
  8
Hidden
 62
256
370
-1
  6
ByLayer
 10
211.6510000000000105
 20
203.0
 30
0.0
 11
210.4010000000000105
 21
203.0
 31
0.0
  0
LINE
  5
C6
100
AcDbEntity
100
AcDbLine
  8
Hidden
 62
256
370
-1
  6
ByLayer
 10
211.6510000000000105
 20
198.0
 30
0.0
 11
211.6510000000000105
 21
203.0
 31
0.0
  0
LINE
  5
C7
100
AcDbEntity
100
AcDbLine
  8
Hidden
 62
256
370
-1
  6
ByLayer
 10
74.9004999999999939
 20
204.5
 30
0.0
 11
74.9004999999999939
 21
211.5
 31
0.0
  0
LINE
  5
C8
100
AcDbEntity
100
AcDbLine
  8
Hidden
 62
256
370
-1
  6
ByLayer
 10
77.4004999999999939
 20
204.5
 30
0.0
 11
74.9004999999999939
 21
204.5
 31
0.0
  0
LINE
  5
C9
100
AcDbEntity
100
AcDbLine
  8
Hidden
 62
256
370
-1
  6
ByLayer
 10
77.4004999999999939
 20
204.5
 30
0.0
 11
77.4004999999999939
 21
211.5
 31
0.0
  0
LINE
  5
CA
100
AcDbEntity
100
AcDbLine
  8
Hidden
 62
256
370
-1
  6
ByLayer
 10
101.0
 20
198.0
 30
0.0
 11
101.0
 21
203.0
 31
0.0
  0
LINE
  5
CB
100
AcDbEntity
100
AcDbLine
  8
Hidden
 62
256
370
-1
  6
ByLayer
 10
102.25
 20
203.0
 30
0.0
 11
101.0
 21
203.0
 31
0.0
  0
LINE
  5
CC
100
AcDbEntity
100
AcDbLine
  8
Hidden
 62
256
370
-1
  6
ByLayer
 10
102.25
 20
203.0
 30
0.0
 11
102.25
 21
213.0
 31
0.0
  0
LINE
  5
CD
100
AcDbEntity
100
AcDbLine
  8
Hidden
 62
256
370
-1
  6
ByLayer
 10
105.75
 20
203.0
 30
0.0
 11
105.75
 21
213.0
 31
0.0
  0
LINE
  5
CE
100
AcDbEntity
100
AcDbLine
  8
Hidden
 62
256
370
-1
  6
ByLayer
 10
107.0
 20
203.0
 30
0.0
 11
105.75
 21
203.0
 31
0.0
  0
LINE
  5
CF
100
AcDbEntity
100
AcDbLine
  8
Hidden
 62
256
370
-1
  6
ByLayer
 10
107.0
 20
198.0
 30
0.0
 11
107.0
 21
203.0
 31
0.0
  0
LINE
  5
D0
100
AcDbEntity
100
AcDbLine
  8
0
 62
256
370
-1
  6
ByLayer
 10
142.3504250000001434
 20
211.5
 30
0.0
 11
7.0000000000000355
 21
211.5000000000000568
 31
0.0
  0
LINE
  5
D1
100
AcDbEntity
100
AcDbLine
  8
0
 62
256
370
-1
  6
ByLayer
 10
278.6507299999999532
 20
211.5000000000000853
 30
0.0
 11
162.3504250000000866
 21
211.4999999999999432
 31
0.0
  0
DIMENSION
  5
D2
100
AcDbEntity
  8
Label
 62
256
370
-1
  6
ByLayer
100
AcDbDimension
 10
337.0581843498901549
 20
197.9999999999997442
 30
0.0
 11
335.1831843498901549
 21
205.4999999999997158
 31
0.0
 70
0
 71
5
 72
1
 41
1.0
 42
0.0
  1

  3
Standard
100
AcDbAlignedDimension
 13
314.6507300000001806
 23
212.9999999999997158
 33
0.0
 14
314.6507300000001237
 24
197.9999999999997442
 34
0.0
 50
90.0
100
AcDbRotatedDimension
  0
DIMENSION
  5
D3
100
AcDbEntity
  8
Label
 62
256
370
-1
  6
ByLayer
100
AcDbDimension
 10
-1.999999999999873
 20
227.0057814856486118
 30
0.0
 11
156.3253650000001471
 21
228.8807814856486118
 31
0.0
 70
0
 71
5
 72
1
 41
1.0
 42
0.0
  1

  3
Standard
100
AcDbAlignedDimension
 13
314.6507300000001806
 23
212.9999999999997158
 33
0.0
 14
-1.9999999999998739
 24
212.9999999999999716
 34
0.0
 50
0.0
100
AcDbRotatedDimension
  0
DIMENSION
  5
D4
100
AcDbEntity
  8
Label
 62
256
370
-1
  6
ByLayer
100
AcDbDimension
 10
329.0514382082466227
 20
201.9999999999998295
 30
0.0
 11
327.1764382082466227
 21
206.7499999999999432
 31
0.0
 70
0
 71
5
 72
1
 41
1.0
 42
0.0
  1

  3
Standard
100
AcDbAlignedDimension
 13
278.6507299999999532
 23
211.5000000000000853
 33
0.0
 14
302.6507300000000669
 24
201.9999999999998295
 34
0.0
 50
90.0
100
AcDbRotatedDimension
  0
DIMENSION
  5
D5
100
AcDbEntity
  8
Label
 62
256
370
-1
  6
ByLayer
100
AcDbDimension
 10
-7.3610408076413094
 20
211.5000000000000568
 30
0.0
 11
-9.2360408076413094
 21
212.2500000000000284
 31
0.0
 70
0
 71
5
 72
1
 41
1.0
 42
0.0
  1

  3
Standard
100
AcDbAlignedDimension
 13
6.9999960000000101
 23
213.0
 33
0.0
 14
7.0000000000000355
 24
211.5000000000000568
 34
0.0
 50
90.0
100
AcDbRotatedDimension
  0
DIMENSION
  5
D6
100
AcDbEntity
  8
Label
 62
256
370
-1
  6
ByLayer
100
AcDbDimension
 10
-14.5929405484818631
 20
210.9999999999999147
 30
0.0
 11
-16.4679405484818631
 21
211.9999999999999432
 31
0.0
 70
0
 71
5
 72
1
 41
1.0
 42
0.0
  1

  3
Standard
100
AcDbAlignedDimension
 13
5.7500000000012976
 23
213.0
 33
0.0
 14
144.8504250000000582
 24
210.9999999999999147
 34
0.0
 50
90.0
100
AcDbRotatedDimension
  0
DIMENSION
  5
D7
100
AcDbEntity
  8
Label
 62
256
370
-1
  6
ByLayer
100
AcDbDimension
 10
-7.3610408076413103
 20
198.0000080000000935
 30
0.0
 11
-9.2360408076413094
 21
200.0000040000000467
 31
0.0
 70
0
 71
5
 72
1
 41
1.0
 42
0.0
  1

  3
Standard
100
AcDbAlignedDimension
 13
10.0
 23
201.9999999999999716
 33
0.0
 14
-1.9999999999998799
 24
198.0000080000000935
 34
0.0
 50
90.0
100
AcDbRotatedDimension
  0
DIMENSION
  5
D8
100
AcDbEntity
  8
Label
 62
256
370
-1
  6
ByLayer
100
AcDbDimension
 10
-14.5929405484818631
 20
198.0000080000000935
 30
0.0
 11
-16.4679405484818631
 21
200.4999980816311336
 31
0.0
 70
0
 71
5
 72
1
 41
1.0
 42
0.0
  1

  3
Standard
100
AcDbAlignedDimension
 13
0.9999999999993735
 23
202.9999881632621452
 33
0.0
 14
-1.9999999999998799
 24
198.0000080000000935
 34
0.0
 50
90.0
100
AcDbRotatedDimension
  0
DIMENSION
  5
D9
100
AcDbEntity
  8
Label
 62
256
370
-1
  6
ByLayer
100
AcDbDimension
 10
2.2499999999990767
 20
190.3539324642693487
 30
0.0
 11
4.0000000000001288
 21
192.2289324642693487
 31
0.0
 70
0
 71
5
 72
1
 41
1.0
 42
0.0
  1

  3
Standard
100
AcDbAlignedDimension
 13
5.7500000000011795
 23
203.0000000000000284
 33
0.0
 14
2.2499999999990776
 24
203.0000000000000568
 34
0.0
 50
0.0
100
AcDbRotatedDimension
  0
DIMENSION
  5
DA
100
AcDbEntity
  8
Label
 62
256
370
-1
  6
ByLayer
100
AcDbDimension
 10
7.0000000000005675
 20
183.5094559238308989
 30
0.0
 11
4.0000000000000284
 21
185.3844559238308989
 31
0.0
 70
0
 71
5
 72
1
 41
1.0
 42
0.0
  1

  3
Standard
100
AcDbAlignedDimension
 13
0.9999999999994884
 23
198.0
 33
0.0
 14
7.0000000000005684
 24
198.0
 34
0.0
 50
0.0
100
AcDbRotatedDimension
  0
DIMENSION
  5
DB
100
AcDbEntity
  8
Label
 62
256
370
-1
  6
ByLayer
100
AcDbDimension
 10
77.4004999999999939
 20
190.3539324642693487
 30
0.0
 11
76.1504999999999939
 21
192.2289324642693487
 31
0.0
 70
0
 71
5
 72
1
 41
1.0
 42
0.0
  1

  3
Standard
100
AcDbAlignedDimension
 13
74.9004999999999939
 23
204.5
 33
0.0
 14
77.4004999999999939
 24
204.5
 34
0.0
 50
0.0
100
AcDbRotatedDimension
  0
DIMENSION
  5
DC
100
AcDbEntity
  8
Label
 62
256
370
-1
  6
ByLayer
100
AcDbDimension
 10
164.3499999999999659
 20
183.5094559238308989
 30
0.0
 11
152.3500000000000227
 21
185.3844559238308989
 31
0.0
 70
0
 71
5
 72
1
 41
1.0
 42
0.0
  1

  3
Standard
100
AcDbAlignedDimension
 13
140.3500000000000512
 23
211.5
 33
0.0
 14
164.3499999999999659
 24
211.4999999999999432
 34
0.0
 50
0.0
100
AcDbRotatedDimension
  0
DIMENSION
  5
DD
100
AcDbEntity
  8
Label
 62
256
370
-1
  6
ByLayer
100
AcDbDimension
 10
219.5500000000000114
 20
160.9218762087166681
 30
0.0
 11
228.5503500000000372
 21
162.7968762087166681
 31
0.0
 70
0
 71
5
 72
1
 41
1.0
 42
0.0
  1

  3
Standard
100
AcDbAlignedDimension
 13
237.550700000000063
 23
149.8006199999999524
 33
0.0
 14
219.5500000000000114
 24
149.8006200000000376
 34
0.0
 50
0.0
100
AcDbRotatedDimension
  0
DIMENSION
  5
DE
100
AcDbEntity
  8
Label
 62
256
370
-1
  6
ByLayer
100
AcDbDimension
 10
7.0000000000000382
 20
165.9664491306200489
 30
0.0
 11
142.8253650000000334
 21
167.8414491306200489
 31
0.0
 70
0
 71
5
 72
1
 41
1.0
 42
0.0
  1

  3
Standard
100
AcDbAlignedDimension
 13
278.6507300000000669
 23
142.3006200000000092
 33
0.0
 14
7.0000000000000364
 24
143.3006200000000092
 34
0.0
 50
0.0
100
AcDbRotatedDimension
  0
DIMENSION
  5
DF
100
AcDbEntity
  8
Label
 62
256
370
-1
  6
ByLayer
100
AcDbDimension
 10
302.65073000000001
 20
-16.1426333500907013
 30
0.0
 11
156.3253650000000334
 21
-14.2676333500907013
 31
0.0
 70
0
 71
5
 72
1
 41
1.0
 42
0.0
  1

  3
Standard
100
AcDbAlignedDimension
 13
10.0000000000000107
 23
11.9999999999999964
 33
0.0
 14
302.65073000000001
 24
12.0
 34
0.0
 50
0.0
100
AcDbRotatedDimension
  0
DIMENSION
  5
E0
100
AcDbEntity
  8
Label
 62
256
370
-1
  6
ByLayer
100
AcDbDimension
 10
7.0000000000000062
 20
-10.3312853440580739
 30
0.0
 11
2.5000000000000031
 21
-8.4562853440580739
 31
0.0
 70
0
 71
5
 72
1
 41
1.0
 42
0.0
  1

  3
Standard
100
AcDbAlignedDimension
 13
-2.0000000000000013
 23
9.9999999999999929
 33
0.0
 14
7.0000000000000071
 24
9.9999999999999929
 34
0.0
 50
0.0
100
AcDbRotatedDimension
  0
DIMENSION
  5
E1
100
AcDbEntity
  8
Label
 62
256
370
-1
  6
ByLayer
100
AcDbDimension
 10
10.0000000000000089
 20
-16.1426333500906978
 30
0.0
 11
4.0000000000000053
 21
-14.2676333500906978
 31
0.0
 70
0
 71
5
 72
1
 41
1.0
 42
0.0
  1

  3
Standard
100
AcDbAlignedDimension
 13
-2.0
 23
9.9999999999999929
 33
0.0
 14
10.0000000000000107
 24
11.9999999999999964
 34
0.0
 50
0.0
100
AcDbRotatedDimension
  0
DIMENSION
  5
E2
100
AcDbEntity
  8
Label
 62
256
370
-1
  6
ByLayer
100
AcDbDimension
 10
314.65073000000001
 20
-16.1426333500907013
 30
0.0
 11
308.65073000000001
 21
-14.2676333500907013
 31
0.0
 70
0
 71
5
 72
1
 41
1.0
 42
0.0
  1

  3
Standard
100
AcDbAlignedDimension
 13
302.65073000000001
 23
12.0
 33
0.0
 14
314.65073000000001
 24
-0.0000000000000853
 34
0.0
 50
0.0
100
AcDbRotatedDimension
  0
DIMENSION
  5
E3
100
AcDbEntity
  8
Label
 62
256
370
-1
  6
ByLayer
100
AcDbDimension
 10
337.9161854119254258
 20
-1.9999999999999192
 30
0.0
 11
336.0411854119254258
 21
76.1503100000000188
 31
0.0
 70
0
 71
5
 72
1
 41
1.0
 42
0.0
  1

  3
Standard
100
AcDbAlignedDimension
 13
312.65073000000001
 23
154.3006199999999524
 33
0.0
 14
312.65073000000001
 24
-1.9999999999999161
 34
0.0
 50
90.0
100
AcDbRotatedDimension
  0
DIMENSION
  5
E4
100
AcDbEntity
  8
Label
 62
256
370
-1
  6
ByLayer
100
AcDbDimension
 10
-19.9765087707374995
 20
6.9999999999999982
 30
0.0
 11
-21.8515087707374995
 21
2.5000000000000031
 31
0.0
 70
0
 71
5
 72
1
 41
1.0
 42
0.0
  1

  3
Standard
100
AcDbAlignedDimension
 13
3.9999999999999969
 23
-1.9999999999999929
 33
0.0
 14
9.0
 24
6.9999999999999947
 34
0.0
 50
90.0
100
AcDbRotatedDimension
  0
DIMENSION
  5
E5
100
AcDbEntity
  8
Label
 62
256
370
-1
  6
ByLayer
100
AcDbDimension
 10
-19.9765087707375066
 20
9.9999999999999964
 30
0.0
 11
-21.8515087707375066
 21
8.4999999999999964
 31
0.0
 70
0
 71
5
 72
1
 41
1.0
 42
0.0
  1

  3
Standard
100
AcDbAlignedDimension
 13
9.0
 23
6.9999999999999947
 33
0.0
 14
12.0
 24
9.9999999999999929
 34
0.0
 50
90.0
100
AcDbRotatedDimension
  0
DIMENSION
  5
E6
100
AcDbEntity
  8
Label
 62
256
370
-1
  6
ByLayer
100
AcDbDimension
 10
-20.6015087707375102
 20
142.3006200000000092
 30
0.0
 11
-22.4765087707375173
 21
76.1503100000000046
 31
0.0
 70
0
 71
5
 72
1
 41
1.0
 42
0.0
  1

  3
Standard
100
AcDbAlignedDimension
 13
12.0
 23
9.9999999999999929
 33
0.0
 14
12.0000000000000853
 24
142.3006200000000092
 34
0.0
 50
90.0
100
AcDbRotatedDimension
  0
DIMENSION
  5
E7
100
AcDbEntity
  8
Label
 62
256
370
-1
  6
ByLayer
100
AcDbDimension
 10
-20.6015087707375137
 20
145.3006200000000092
 30
0.0
 11
-22.4765087707375137
 21
143.8006200000000092
 31
0.0
 70
0
 71
5
 72
1
 41
1.0
 42
0.0
  1

  3
Standard
100
AcDbAlignedDimension
 13
12.0000000000000853
 23
142.3006200000000092
 33
0.0
 14
9.0000000000000568
 24
145.3006200000000092
 34
0.0
 50
90.0
100
AcDbRotatedDimension
  0
DIMENSION
  5
E8
100
AcDbEntity
  8
Label
 62
256
370
-1
  6
ByLayer
100
AcDbDimension
 10
-20.6015087707375102
 20
151.8006199999999808
 30
0.0
 11
-22.4765087707375102
 21
148.5506199999999808
 31
0.0
 70
0
 71
5
 72
1
 41
1.0
 42
0.0
  1

  3
Standard
100
AcDbAlignedDimension
 13
9.0000000000000568
 23
145.3006200000000092
 33
0.0
 14
69.1500000000000341
 24
151.8006199999999808
 34
0.0
 50
90.0
100
AcDbRotatedDimension
  0
DIMENSION
  5
E9
100
AcDbEntity
  8
Label
 62
256
370
-1
  6
ByLayer
100
AcDbDimension
 10
323.9826513363252616
 20
148.3006199999998103
 30
0.0
 11
322.1076513363252616
 21
151.3006199999998671
 31
0.0
 70
0
 71
5
 72
1
 41
1.0
 42
0.0
  1

  3
Standard
100
AcDbAlignedDimension
 13
312.65073000000001
 23
154.3006199999999524
 33
0.0
 14
311.6507300000041027
 24
148.3006199999998103
 34
0.0
 50
90.0
100
AcDbRotatedDimension
  0
DIMENSION
  5
EA
100
AcDbEntity
  8
Label
 62
256
370
-1
  6
ByLayer
100
AcDbDimension
 10
323.9826513363252616
 20
76.1503099999997914
 30
0.0
 11
322.1076513363252616
 21
112.2254649999998009
 31
0.0
 70
0
 71
5
 72
1
 41
1.0
 42
0.0
  1

  3
Standard
100
AcDbAlignedDimension
 13
311.6507300000041027
 23
148.3006199999998103
 33
0.0
 14
314.65073000000001
 24
76.1503099999997914
 34
0.0
 50
90.0
100
AcDbRotatedDimension
  0
DIMENSION
  5
EB
100
AcDbEntity
  8
Label
 62
256
370
-1
  6
ByLayer
100
AcDbDimension
 10
323.9826513363252616
 20
3.9999999999998614
 30
0.0
 11
322.1076513363252616
 21
40.0751549999998247
 31
0.0
 70
0
 71
5
 72
1
 41
1.0
 42
0.0
  1

  3
Standard
100
AcDbAlignedDimension
 13
314.65073000000001
 23
76.1503099999997914
 33
0.0
 14
311.65073000000001
 24
3.9999999999998628
 34
0.0
 50
90.0
100
AcDbRotatedDimension
  0
DIMENSION
  5
EC
100
AcDbEntity
  8
Label
 62
256
370
-1
  6
ByLayer
100
AcDbDimension
 10
76.1505000000000365
 20
236.8426986833657395
 30
0.0
 11
40.0752500000000325
 21
238.7176986833657395
 31
0.0
 70
0
 71
5
 72
1
 41
1.0
 42
0.0
  1

  3
Standard
100
AcDbAlignedDimension
 13
4.0000000000000284
 23
227.0057814856486118
 33
0.0
 14
76.1505000000000365
 24
227.0057814856486118
 34
0.0
 50
0.0
100
AcDbRotatedDimension
  0
DIMENSION
  5
ED
100
AcDbEntity
  8
Label
 62
256
370
-1
  6
ByLayer
100
AcDbDimension
 10
104.0000000000001705
 20
236.8426986833657395
 30
0.0
 11
90.0752500000001106
 21
238.7176986833657395
 31
0.0
 70
0
 71
5
 72
1
 41
1.0
 42
0.0
  1

  3
Standard
100
AcDbAlignedDimension
 13
76.1505000000000507
 23
227.0057814856486118
 33
0.0
 14
104.0000000000001705
 24
227.0057814856486118
 34
0.0
 50
0.0
100
AcDbRotatedDimension
  0
DIMENSION
  5
EE
100
AcDbEntity
  8
Label
 62
256
370
-1
  6
ByLayer
100
AcDbDimension
 10
208.6507299999999532
 20
236.8426986833657679
 30
0.0
 11
156.3253650000000903
 21
238.7176986833657679
 31
0.0
 70
0
 71
5
 72
1
 41
1.0
 42
0.0
  1

  3
Standard
100
AcDbAlignedDimension
 13
104.0000000000002132
 23
227.0057814856486402
 33
0.0
 14
208.6507299999999532
 24
227.0057814856486118
 34
0.0
 50
0.0
100
AcDbRotatedDimension
  0
DIMENSION
  5
EF
100
AcDbEntity
  8
Label
 62
256
370
-1
  6
ByLayer
100
AcDbDimension
 10
228.5503500000002077
 20
236.8426986833657679
 30
0.0
 11
218.6005400000000805
 21
238.7176986833657679
 31
0.0
 70
0
 71
5
 72
1
 41
1.0
 42
0.0
  1

  3
Standard
100
AcDbAlignedDimension
 13
208.6507299999999532
 23
227.0057814856486118
 33
0.0
 14
228.5503500000002077
 24
227.0057814856486118
 34
0.0
 50
0.0
100
AcDbRotatedDimension
  0
DIMENSION
  5
F0
100
AcDbEntity
  8
Label
 62
256
370
-1
  6
ByLayer
100
AcDbDimension
 10
308.6507300000001237
 20
236.8426986833657679
 30
0.0
 11
268.6005400000001373
 21
238.7176986833657679
 31
0.0
 70
0
 71
5
 72
1
 41
1.0
 42
0.0
  1

  3
Standard
100
AcDbAlignedDimension
 13
228.5503500000002077
 23
227.0057814856486118
 33
0.0
 14
308.6507300000001237
 24
227.0057814856486118
 34
0.0
 50
0.0
100
AcDbRotatedDimension
  0
DIMENSION
  5
F1
100
AcDbEntity
  8
Label
 62
256
370
-1
  6
ByLayer
100
AcDbDimension
 10
308.6507300000001237
 20
236.8426986833657679
 30
0.0
 11
311.6507300000001806
 21
238.7176986833657679
 31
0.0
 70
0
 71
5
 72
1
 41
1.0
 42
0.0
  1

  3
Standard
100
AcDbAlignedDimension
 13
314.6507300000001806
 23
212.9999999999997158
 33
0.0
 14
308.6507300000001237
 24
236.8426986833657679
 34
0.0
 50
0.0
100
AcDbRotatedDimension
  0
DIMENSION
  5
F2
100
AcDbEntity
  8
Label
 62
256
370
-1
  6
ByLayer
100
AcDbDimension
 10
4.0000000000000284
 20
236.8426986833657963
 30
0.0
 11
1.000000000000077
 21
238.7176986833657963
 31
0.0
 70
0
 71
5
 72
1
 41
1.0
 42
0.0
  1

  3
Standard
100
AcDbAlignedDimension
 13
-1.9999999999998748
 23
213.0
 33
0.0
 14
4.0000000000000284
 24
236.8426986833657395
 34
0.0
 50
0.0
100
AcDbRotatedDimension
  0
DIMENSION
  5
F3
100
AcDbEntity
  8
Label
 62
256
370
-1
  6
ByLayer
100
AcDbDimension
 10
67.1500000000000909
 20
160.9218762087166681
 30
0.0
 11
37.0750000000000597
 21
162.7968762087166681
 31
0.0
 70
0
 71
5
 72
1
 41
1.0
 42
0.0
  1

  3
Standard
100
AcDbAlignedDimension
 13
7.0000000000000364
 23
154.3006200000000092
 33
0.0
 14
67.1500000000000909
 24
148.3006199999999524
 34
0.0
 50
0.0
100
AcDbRotatedDimension
  0
DIMENSION
  5
F4
100
AcDbEntity
  8
Label
 62
256
370
-1
  6
ByLayer
100
AcDbDimension
 10
85.1510000000001099
 20
160.9218762087166681
 30
0.0
 11
76.1505000000001075
 21
162.7968762087166681
 31
0.0
 70
0
 71
5
 72
1
 41
1.0
 42
0.0
  1

  3
Standard
100
AcDbAlignedDimension
 13
67.1500000000000909
 23
148.3006199999999524
 33
0.0
 14
85.1510000000001099
 24
148.3006199999999524
 34
0.0
 50
0.0
100
AcDbRotatedDimension
  0
DIMENSION
  5
F5
100
AcDbEntity
  8
Label
 62
256
370
-1
  6
ByLayer
100
AcDbDimension
 10
219.5499999999999829
 20
160.9218762087166681
 30
0.0
 11
152.3505000000000393
 21
162.7968762087166681
 31
0.0
 70
0
 71
5
 72
1
 41
1.0
 42
0.0
  1

  3
Standard
100
AcDbAlignedDimension
 13
85.1510000000001099
 23
148.3006199999999524
 33
0.0
 14
219.5499999999999829
 24
148.3006199999998671
 34
0.0
 50
0.0
100
AcDbRotatedDimension
  0
DIMENSION
  5
F6
100
AcDbEntity
  8
Label
 62
256
370
-1
  6
ByLayer
100
AcDbDimension
 10
278.6507300000000669
 20
160.9218762087166681
 30
0.0
 11
258.1007150000000365
 21
162.7968762087166681
 31
0.0
 70
0
 71
5
 72
1
 41
1.0
 42
0.0
  1

  3
Standard
100
AcDbAlignedDimension
 13
237.550700000000063
 23
160.9218762087166681
 33
0.0
 14
278.6507300000000669
 24
142.3006200000000092
 34
0.0
 50
0.0
100
AcDbRotatedDimension
  0
LINE
  5
F7
100
AcDbEntity
100
AcDbLine
  8
0
 62
256
370
-1
  6
ByLayer
 10
146.3504250000000866
 20
154.3006199999999524
 30
0.0
 11
146.3504250000001434
 21
145.3006199999999239
 31
0.0
  0
LINE
  5
F8
100
AcDbEntity
100
AcDbLine
  8
0
 62
256
370
-1
  6
ByLayer
 10
158.350425000000115
 20
154.3006199999999239
 30
0.0
 11
158.3504250000001718
 21
145.3006199999998671
 31
0.0
  0
LINE
  5
F9
100
AcDbEntity
100
AcDbLine
  8
0
 62
256
370
-1
  6
ByLayer
 10
146.350425000000115
 20
212.9999999999999432
 30
0.0
 11
-1.9999999999998739
 21
212.9999999999999716
 31
0.0
  0
LINE
  5
FA
100
AcDbEntity
100
AcDbLine
  8
0
 62
256
370
-1
  6
ByLayer
 10
146.3504250000000582
 20
210.9999999999999147
 30
0.0
 11
146.350425000000115
 21
212.9999999999999432
 31
0.0
  0
LINE
  5
FB
100
AcDbEntity
100
AcDbLine
  8
0
 62
256
370
-1
  6
ByLayer
 10
158.3504250000000582
 20
210.9999999999999432
 30
0.0
 11
146.3504250000000582
 21
210.9999999999999147
 31
0.0
  0
LINE
  5
FC
100
AcDbEntity
100
AcDbLine
  8
0
 62
256
370
-1
  6
ByLayer
 10
314.6507300000001806
 20
212.9999999999997158
 30
0.0
 11
158.350425000000115
 21
213.0
 31
0.0
  0
LINE
  5
FD
100
AcDbEntity
100
AcDbLine
  8
0
 62
256
370
-1
  6
ByLayer
 10
158.3504250000000582
 20
210.9999999999999432
 30
0.0
 11
158.350425000000115
 21
213.0
 31
0.0
  0
DIMENSION
  5
FE
100
AcDbEntity
  8
Label
 62
256
370
-1
  6
ByLayer
100
AcDbDimension
 10
158.3504250000000582
 20
191.0
 30
0.0
 11
152.3504250000000582
 21
192.875
 31
0.0
 70
0
 71
5
 72
0
 41
1.0
 42
0.0
  1

  3
Standard
100
AcDbAlignedDimension
 13
146.3504250000000582
 23
213.0
 33
0.0
 14
158.3504250000000582
 24
213.0
 34
0.0
 50
0.0
100
AcDbRotatedDimension
  0
CIRCLE
  5
FF
100
AcDbEntity
100
AcDbCircle
  8
Label
 62
256
370
-1
  6
ByLayer
 10
10.0007879091304055
 20
142.3010793903435172
 30
0.0
 40
0.0060976320451255
  0
CIRCLE
  5
100
100
AcDbEntity
100
AcDbCircle
  8
0
 62
256
370
-1
  6
ByLayer
 10
288.5507889897669997
 20
38.3867989655460065
 30
0.0
 40
2.0
  0
ENDSEC
  0
SECTION
  2
OBJECTS
  0
DICTIONARY
  5
C
100
AcDbDictionary
280
0
281
1
  3
ACAD_GROUP
350
D
  3
ACAD_LAYOUT
350
1A
  3
ACAD_MLINESTYLE
350
17
  3
ACAD_PLOTSETTINGS
350
19
  3
ACAD_PLOTSTYLENAME
350
E
  3
AcDbVariableDictionary
350
101
  0
DICTIONARY
  5
D
100
AcDbDictionary
280
0
281
1
  0
ACDBDICTIONARYWDFLT
  5
E
100
AcDbDictionary
281
1
  3
Normal
350
F
100
AcDbDictionaryWithDefault
340
F
  0
ACDBPLACEHOLDER
  5
F
  0
DICTIONARY
  5
17
100
AcDbDictionary
280
0
281
1
  3
Standard
350
18
  0
MLINESTYLE
  5
18
100
AcDbMlineStyle
  2
STANDARD
 70
0
  3

 62
256
 51
90.0
 52
90.0
 71
2
 49
0.5
 62
256
  6
BYLAYER
 49
-0.5
 62
256
  6
BYLAYER
  0
DICTIONARY
  5
19
100
AcDbDictionary
280
0
281
1
  0
DICTIONARY
  5
1A
100
AcDbDictionary
281
1
  3
Layout1
350
1E
  3
Layout2
350
26
  3
Model
350
22
  0
LAYOUT
  5
1E
100
AcDbPlotSettings
  1

  2
C:\Program Files\AutoCAD 2002\plotters\DWF ePlot (optimized for plotting).pc3
  4

  6

 40
0.0
 41
0.0
 42
0.0
 43
0.0
 44
0.0
 45
0.0
 46
0.0
 47
0.0
 48
0.0
 49
0.0
140
0.0
141
0.0
142
1.0
143
1.0
 70
688
 72
0
 73
0
 74
5
  7

 75
16
147
1.0
148
0.0
149
0.0
100
AcDbLayout
  1
Layout1
 70
1
 71
1
 10
0.0
 20
0.0
 11
420.0
 21
297.0
 12
0.0
 22
0.0
 32
0.0
 14
100000000000000000000.0
 24
100000000000000000000.0
 34
100000000000000000000.0
 15
-100000000000000000000.0
 25
-100000000000000000000.0
 35
-100000000000000000000.0
146
0.0
 13
0.0
 23
0.0
 33
0.0
 16
1.0
 26
0.0
 36
0.0
 17
0.0
 27
1.0
 37
0.0
 76
0
330
1B
  0
LAYOUT
  5
22
100
AcDbPlotSettings
  1

  2
C:\Program Files\AutoCAD 2002\plotters\DWF ePlot (optimized for plotting).pc3
  4

  6

 40
0.0
 41
0.0
 42
0.0
 43
0.0
 44
0.0
 45
0.0
 46
0.0
 47
0.0
 48
0.0
 49
0.0
140
0.0
141
0.0
142
1.0
143
1.0
 70
1712
 72
0
 73
0
 74
0
  7

 75
0
147
1.0
148
0.0
149
0.0
100
AcDbLayout
  1
Model
 70
1
 71
0
 10
0.0
 20
0.0
 11
12.0
 21
9.0
 12
0.0
 22
0.0
 32
0.0
 14
0.0
 24
0.0
 34
0.0
 15
0.0
 25
0.0
 35
0.0
146
0.0
 13
0.0
 23
0.0
 33
0.0
 16
1.0
 26
0.0
 36
0.0
 17
0.0
 27
1.0
 37
0.0
 76
0
330
1F
  0
LAYOUT
  5
26
100
AcDbPlotSettings
  1

  2
C:\Program Files\AutoCAD 2002\plotters\DWF ePlot (optimized for plotting).pc3
  4

  6

 40
0.0
 41
0.0
 42
0.0
 43
0.0
 44
0.0
 45
0.0
 46
0.0
 47
0.0
 48
0.0
 49
0.0
140
0.0
141
0.0
142
1.0
143
1.0
 70
688
 72
0
 73
0
 74
5
  7

 75
16
147
1.0
148
0.0
149
0.0
100
AcDbLayout
  1
Layout2
 70
1
 71
2
 10
0.0
 20
0.0
 11
12.0
 21
9.0
 12
0.0
 22
0.0
 32
0.0
 14
0.0
 24
0.0
 34
0.0
 15
0.0
 25
0.0
 35
0.0
146
0.0
 13
0.0
 23
0.0
 33
0.0
 16
1.0
 26
0.0
 36
0.0
 17
0.0
 27
1.0
 37
0.0
 76
0
330
23
  0
DICTIONARY
  5
101
100
AcDbDictionary
281
1
  3
DIMASSOC
350
103
  3
HIDETEXT
350
102
  0
DICTIONARYVAR
  5
102
100
DictionaryVariables
280
0
  1
2
  0
DICTIONARYVAR
  5
103
100
DictionaryVariables
280
0
  1
1
  0
ENDSEC
  0
EOF
