999
dxflib 2.5.0.0
  0
SECTION
  2
HEADER
  9
$ACADVER
  1
AC1015
  9
$HANDSEED
  5
FFFF
  9
$DIMASZ
 40
2.5
  9
$FILLMODE
 70
0
  9
$PLIMMIN
 10
0.0
 20
0.0
  9
$DIMEXE
 40
1.25
  9
$DIMGAP
 40
0.625
  9
$PLIMMAX
 10
210.0
 20
297.0
  9
$EXTMIN
 10
0.0
 20
0.0
 30
0.0
  9
$EXTMAX
 10
1000.0
 20
1000.0
 30
0.0
  9
$SPLFRAME
 70
1
  9
$INSUNITS
 70
4
  9
$DIMSTYLE
  2
Standard
  9
$DIMEXO
 40
0.625
  9
$DIMTXT
 40
2.5
  0
ENDSEC
  0
SECTION
  2
TABLES
  0
TABLE
  2
VPORT
  5
8
100
AcDbSymbolTable
 70
1
  0
VPORT
  5
30
100
AcDbSymbolTableRecord
100
AcDbViewportTableRecord
  2
*Active
 70
0
 10
0.0
 20
0.0
 11
1.0
 21
1.0
 12
286.3055555555554861
 22
148.5
 13
0.0
 23
0.0
 14
10.0
 24
10.0
 15
10.0
 25
10.0
 16
0.0
 26
0.0
 36
1.0
 17
0.0
 27
0.0
 37
0.0
 40
297.0
 41
1.92798353909465
 42
50.0
 43
0.0
 44
0.0
 50
0.0
 51
0.0
 71
0
 72
100
 73
1
 74
3
 75
1
 76
1
 77
0
 78
0
281
0
 65
1
110
0.0
120
0.0
130
0.0
111
1.0
121
0.0
131
0.0
112
0.0
122
1.0
132
0.0
 79
0
146
0.0
  0
ENDTAB
  0
TABLE
  2
LTYPE
  5
5
100
AcDbSymbolTable
 70
21
  0
LTYPE
  5
14
100
AcDbSymbolTableRecord
100
AcDbLinetypeTableRecord
  2
ByBlock
 70
0
  3

 72
65
 73
0
 40
0.0
  0
LTYPE
  5
15
100
AcDbSymbolTableRecord
100
AcDbLinetypeTableRecord
  2
ByLayer
 70
0
  3

 72
65
 73
0
 40
0.0
  0
LTYPE
  5
16
100
AcDbSymbolTableRecord
100
AcDbLinetypeTableRecord
  2
CONTINUOUS
 70
0
  3
Solid line
 72
65
 73
0
 40
0.0
  0
LTYPE
  5
31
100
AcDbSymbolTableRecord
100
AcDbLinetypeTableRecord
  2
DOT
 70
0
  3
Dot . . . . . . . . . . . . . . . . . . . . . .
 72
65
 73
2
 40
6.3499999999999996
 49
0.0
 74
0
 49
-6.3499999999999996
 74
0
  0
LTYPE
  5
32
100
AcDbSymbolTableRecord
100
AcDbLinetypeTableRecord
  2
DOT2
 70
0
  3
Dot (.5x) .....................................
 72
65
 73
2
 40
3.1749999999999998
 49
0.0
 74
0
 49
-3.1749999999999998
 74
0
  0
LTYPE
  5
33
100
AcDbSymbolTableRecord
100
AcDbLinetypeTableRecord
  2
DOTX2
 70
0
  3
Dot (2x) .  .  .  .  .  .  .  .  .  .  .  .  .
 72
65
 73
2
 40
12.6999999999999993
 49
0.0
 74
0
 49
-12.6999999999999993
 74
0
  0
LTYPE
  5
34
100
AcDbSymbolTableRecord
100
AcDbLinetypeTableRecord
  2
DASHED
 70
0
  3
Dashed __ __ __ __ __ __ __ __ __ __ __ __ __ _
 72
65
 73
2
 40
19.0500000000000007
 49
12.6999999999999993
 74
0
 49
-6.3499999999999996
 74
0
  0
LTYPE
  5
35
100
AcDbSymbolTableRecord
100
AcDbLinetypeTableRecord
  2
DASHED2
 70
0
  3
Dashed (.5x) _ _ _ _ _ _ _ _ _ _ _ _ _ _ _ _ _
 72
65
 73
2
 40
9.5250000000000004
 49
6.3499999999999996
 74
0
 49
-3.1749999999999998
 74
0
  0
LTYPE
  5
36
100
AcDbSymbolTableRecord
100
AcDbLinetypeTableRecord
  2
DASHEDX2
 70
0
  3
Dashed (2x) ____  ____  ____  ____  ____  ___
 72
65
 73
2
 40
38.1000000000000014
 49
25.3999999999999986
 74
0
 49
-12.6999999999999993
 74
0
  0
LTYPE
  5
37
100
AcDbSymbolTableRecord
100
AcDbLinetypeTableRecord
  2
DASHDOT
 70
0
  3
Dash dot __ . __ . __ . __ . __ . __ . __ . __
 72
65
 73
4
 40
25.3999999999999986
 49
12.6999999999999993
 74
0
 49
-6.3499999999999996
 74
0
 49
0.0
 74
0
 49
-6.3499999999999996
 74
0
  0
LTYPE
  5
38
100
AcDbSymbolTableRecord
100
AcDbLinetypeTableRecord
  2
DASHDOT2
 70
0
  3
Dash dot (.5x) _._._._._._._._._._._._._._._.
 72
65
 73
4
 40
12.6999999999999993
 49
6.3499999999999996
 74
0
 49
-3.1749999999999998
 74
0
 49
0.0
 74
0
 49
-3.1749999999999998
 74
0
  0
LTYPE
  5
39
100
AcDbSymbolTableRecord
100
AcDbLinetypeTableRecord
  2
DASHDOTX2
 70
0
  3
Dash dot (2x) ____  .  ____  .  ____  .  ___
 72
65
 73
4
 40
50.7999999999999972
 49
25.3999999999999986
 74
0
 49
-12.6999999999999993
 74
0
 49
0.0
 74
0
 49
-12.6999999999999993
 74
0
  0
LTYPE
  5
3A
100
AcDbSymbolTableRecord
100
AcDbLinetypeTableRecord
  2
DIVIDE
 70
0
  3
Divide ____ . . ____ . . ____ . . ____ . . ____
 72
65
 73
6
 40
31.75
 49
12.6999999999999993
 74
0
 49
-6.3499999999999996
 74
0
 49
0.0
 74
0
 49
-6.3499999999999996
 74
0
 49
0.0
 74
0
 49
-6.3499999999999996
 74
0
  0
LTYPE
  5
3B
100
AcDbSymbolTableRecord
100
AcDbLinetypeTableRecord
  2
DIVIDE2
 70
0
  3
Divide (.5x) __..__..__..__..__..__..__..__.._
 72
65
 73
6
 40
15.875
 49
6.3499999999999996
 74
0
 49
-3.1749999999999998
 74
0
 49
0.0
 74
0
 49
-3.1749999999999998
 74
0
 49
0.0
 74
0
 49
-3.1749999999999998
 74
0
  0
LTYPE
  5
3C
100
AcDbSymbolTableRecord
100
AcDbLinetypeTableRecord
  2
DIVIDEX2
 70
0
  3
Divide (2x) ________  .  .  ________  .  .  _
 72
65
 73
6
 40
63.5
 49
25.3999999999999986
 74
0
 49
-12.6999999999999993
 74
0
 49
0.0
 74
0
 49
-12.6999999999999993
 74
0
 49
0.0
 74
0
 49
-12.6999999999999993
 74
0
  0
LTYPE
  5
3D
100
AcDbSymbolTableRecord
100
AcDbLinetypeTableRecord
  2
CENTER
 70
0
  3
Center ____ _ ____ _ ____ _ ____ _ ____ _ ____
 72
65
 73
4
 40
50.7999999999999972
 49
31.75
 74
0
 49
-6.3499999999999996
 74
0
 49
6.3499999999999996
 74
0
 49
-6.3499999999999996
 74
0
  0
LTYPE
  5
3E
100
AcDbSymbolTableRecord
100
AcDbLinetypeTableRecord
  2
CENTER2
 70
0
  3
Center (.5x) ___ _ ___ _ ___ _ ___ _ ___ _ ___
 72
65
 73
4
 40
28.5749999999999993
 49
19.0500000000000007
 74
0
 49
-3.1749999999999998
 74
0
 49
3.1749999999999998
 74
0
 49
-3.1749999999999998
 74
0
  0
LTYPE
  5
3F
100
AcDbSymbolTableRecord
100
AcDbLinetypeTableRecord
  2
CENTERX2
 70
0
  3
Center (2x) ________  __  ________  __  _____
 72
65
 73
4
 40
101.5999999999999943
 49
63.5
 74
0
 49
-12.6999999999999993
 74
0
 49
12.6999999999999993
 74
0
 49
-12.6999999999999993
 74
0
  0
LTYPE
  5
40
100
AcDbSymbolTableRecord
100
AcDbLinetypeTableRecord
  2
BORDER
 70
0
  3
Border __ __ . __ __ . __ __ . __ __ . __ __ .
 72
65
 73
6
 40
44.4500000000000028
 49
12.6999999999999993
 74
0
 49
-6.3499999999999996
 74
0
 49
12.6999999999999993
 74
0
 49
-6.3499999999999996
 74
0
 49
0.0
 74
0
 49
-6.3499999999999996
 74
0
  0
LTYPE
  5
41
100
AcDbSymbolTableRecord
100
AcDbLinetypeTableRecord
  2
BORDER2
 70
0
  3
Border (.5x) __.__.__.__.__.__.__.__.__.__.__.
 72
65
 73
6
 40
22.2250000000000014
 49
6.3499999999999996
 74
0
 49
-3.1749999999999998
 74
0
 49
6.3499999999999996
 74
0
 49
-3.1749999999999998
 74
0
 49
0.0
 74
0
 49
-3.1749999999999998
 74
0
  0
LTYPE
  5
42
100
AcDbSymbolTableRecord
100
AcDbLinetypeTableRecord
  2
BORDERX2
 70
0
  3
Border (2x) ____  ____  .  ____  ____  .  ___
 72
65
 73
6
 40
88.9000000000000057
 49
25.3999999999999986
 74
0
 49
-12.6999999999999993
 74
0
 49
25.3999999999999986
 74
0
 49
-12.6999999999999993
 74
0
 49
0.0
 74
0
 49
-12.6999999999999993
 74
0
  0
ENDTAB
  0
TABLE
  2
LAYER
  5
2
100
AcDbSymbolTable
 70
1
  0
LAYER
  5
10
100
AcDbSymbolTableRecord
100
AcDbLayerTableRecord
  2
0
 70
0
 62
7
  6
CONTINUOUS
390
F
  0
ENDTAB
  0
TABLE
  2
STYLE
  5
3
100
AcDbSymbolTable
 70
1
  0
STYLE
  5
11
100
AcDbSymbolTableRecord
100
AcDbTextStyleTableRecord
  2
Standard
 70
0
 40
0.0
 41
0.75
 50
0.0
 71
0
 42
2.5
  3
txt
  4

  0
ENDTAB
  0
TABLE
  2
VIEW
  5
6
100
AcDbSymbolTable
 70
0
  0
ENDTAB
  0
TABLE
  2
UCS
  5
7
100
AcDbSymbolTable
 70
0
  0
ENDTAB
  0
TABLE
  2
APPID
  5
9
100
AcDbSymbolTable
 70
1
  0
APPID
  5
12
100
AcDbSymbolTableRecord
100
AcDbRegAppTableRecord
  2
ACAD
 70
0
  0
ENDTAB
  0
TABLE
  2
DIMSTYLE
  5
A
100
AcDbSymbolTable
 70
1
100
AcDbDimStyleTable
 71
0
  0
DIMSTYLE
105
27
100
AcDbSymbolTableRecord
100
AcDbDimStyleTableRecord
  2
Standard
 41
2.5
 42
0.625
 43
3.75
 44
1.25
 70
0
 73
0
 74
0
 77
1
 78
8
140
2.5
141
2.5
143
0.03937007874016
147
0.625
171
3
172
1
271
2
272
2
274
3
278
44
283
0
284
8
340
11
  0
ENDTAB
  0
TABLE
  2
BLOCK_RECORD
  5
1
100
AcDbSymbolTable
 70
1
  0
BLOCK_RECORD
  5
1F
100
AcDbSymbolTableRecord
100
AcDbBlockTableRecord
  2
*Model_Space
340
22
  0
BLOCK_RECORD
  5
1B
100
AcDbSymbolTableRecord
100
AcDbBlockTableRecord
  2
*Paper_Space
340
1E
  0
BLOCK_RECORD
  5
23
100
AcDbSymbolTableRecord
100
AcDbBlockTableRecord
  2
*Paper_Space0
340
26
  0
ENDTAB
  0
ENDSEC
  0
SECTION
  2
BLOCKS
  0
BLOCK
  5
20
100
AcDbEntity
  8
0
100
AcDbBlockBegin
  2
*Model_Space
 70
0
 10
0.0
 20
0.0
 30
0.0
  3
*Model_Space
  1

  0
ENDBLK
  5
21
100
AcDbEntity
  8
0
100
AcDbBlockEnd
  0
BLOCK
  5
1C
100
AcDbEntity
 67
1
  8
0
100
AcDbBlockBegin
  2
*Paper_Space
 70
0
 10
0.0
 20
0.0
 30
0.0
  3
*Paper_Space
  1

  0
ENDBLK
  5
1D
100
AcDbEntity
 67
1
  8
0
100
AcDbBlockEnd
  0
BLOCK
  5
24
100
AcDbEntity
  8
0
100
AcDbBlockBegin
  2
*Paper_Space0
 70
0
 10
0.0
 20
0.0
 30
0.0
  3
*Paper_Space0
  1

  0
ENDBLK
  5
25
100
AcDbEntity
  8
0
100
AcDbBlockEnd
  0
ENDSEC
  0
SECTION
  2
ENTITIES
  0
LINE
  5
43
100
AcDbEntity
100
AcDbLine
  8
0
 62
0
370
-1
  6
ByLayer
 10
2.6182699999999999
 20
130.9120000000000061
 30
0.0
 11
16.6191999999999993
 21
130.9120000000000061
 31
0.0
  0
LINE
  5
44
100
AcDbEntity
100
AcDbLine
  8
0
 62
0
370
-1
  6
ByLayer
 10
16.6191999999999993
 20
130.9120000000000061
 30
0.0
 11
16.6191999999999993
 21
116.9110000000000014
 31
0.0
  0
LINE
  5
45
100
AcDbEntity
100
AcDbLine
  8
0
 62
0
370
-1
  6
ByLayer
 10
16.6191999999999993
 20
116.9110000000000014
 30
0.0
 11
2.6182699999999999
 21
116.9110000000000014
 31
0.0
  0
LINE
  5
46
100
AcDbEntity
100
AcDbLine
  8
0
 62
0
370
-1
  6
ByLayer
 10
2.6182699999999999
 20
116.9110000000000014
 30
0.0
 11
2.6182699999999999
 21
130.9120000000000061
 31
0.0
  0
LINE
  5
47
100
AcDbEntity
100
AcDbLine
  8
0
 62
0
370
-1
  6
ByLayer
 10
2.6182699999999999
 20
111.8619999999999948
 30
0.0
 11
16.6191999999999993
 21
111.8619999999999948
 31
0.0
  0
LINE
  5
48
100
AcDbEntity
100
AcDbLine
  8
0
 62
0
370
-1
  6
ByLayer
 10
16.6191999999999993
 20
111.8619999999999948
 30
0.0
 11
16.6191999999999993
 21
97.8613
 31
0.0
  0
LINE
  5
49
100
AcDbEntity
100
AcDbLine
  8
0
 62
0
370
-1
  6
ByLayer
 10
16.6191999999999993
 20
97.8613
 30
0.0
 11
2.6182699999999999
 21
97.8613
 31
0.0
  0
LINE
  5
4A
100
AcDbEntity
100
AcDbLine
  8
0
 62
0
370
-1
  6
ByLayer
 10
2.6182699999999999
 20
97.8613
 30
0.0
 11
2.6182699999999999
 21
111.8619999999999948
 31
0.0
  0
LINE
  5
4B
100
AcDbEntity
100
AcDbLine
  8
0
 62
0
370
-1
  6
ByLayer
 10
2.6182699999999999
 20
92.8122999999999934
 30
0.0
 11
16.6191999999999993
 21
92.8122999999999934
 31
0.0
  0
LINE
  5
4C
100
AcDbEntity
100
AcDbLine
  8
0
 62
0
370
-1
  6
ByLayer
 10
16.6191999999999993
 20
92.8122999999999934
 30
0.0
 11
16.6191999999999993
 21
78.8113000000000028
 31
0.0
  0
LINE
  5
4D
100
AcDbEntity
100
AcDbLine
  8
0
 62
0
370
-1
  6
ByLayer
 10
16.6191999999999993
 20
78.8113000000000028
 30
0.0
 11
2.6182699999999999
 21
78.8113000000000028
 31
0.0
  0
LINE
  5
4E
100
AcDbEntity
100
AcDbLine
  8
0
 62
0
370
-1
  6
ByLayer
 10
2.6182699999999999
 20
78.8113000000000028
 30
0.0
 11
2.6182699999999999
 21
92.8122999999999934
 31
0.0
  0
LINE
  5
4F
100
AcDbEntity
100
AcDbLine
  8
0
 62
0
370
-1
  6
ByLayer
 10
14.3481000000000005
 20
50.2376999999999967
 30
0.0
 11
14.3481000000000005
 21
48.6625000000000014
 31
0.0
  0
LINE
  5
50
100
AcDbEntity
100
AcDbLine
  8
0
 62
0
370
-1
  6
ByLayer
 10
14.3481000000000005
 20
48.6625000000000014
 30
0.0
 11
15.1487999999999996
 21
48.6625000000000014
 31
0.0
  0
LINE
  5
51
100
AcDbEntity
100
AcDbLine
  8
0
 62
0
370
-1
  6
ByLayer
 10
15.1487999999999996
 20
48.6625000000000014
 30
0.0
 11
15.1487999999999996
 21
42.0123000000000033
 31
0.0
  0
LINE
  5
52
100
AcDbEntity
100
AcDbLine
  8
0
 62
0
370
-1
  6
ByLayer
 10
15.1487999999999996
 20
42.0123000000000033
 30
0.0
 11
11.9186999999999994
 21
42.0123000000000033
 31
0.0
  0
LINE
  5
53
100
AcDbEntity
100
AcDbLine
  8
0
 62
0
370
-1
  6
ByLayer
 10
11.9186999999999994
 20
42.0123000000000033
 30
0.0
 11
11.9186999999999994
 21
41.1385000000000005
 31
0.0
  0
LINE
  5
54
100
AcDbEntity
100
AcDbLine
  8
0
 62
0
370
-1
  6
ByLayer
 10
11.9186999999999994
 20
41.1385000000000005
 30
0.0
 11
9.1184899999999995
 21
41.1385000000000005
 31
0.0
  0
LINE
  5
55
100
AcDbEntity
100
AcDbLine
  8
0
 62
0
370
-1
  6
ByLayer
 10
9.1184899999999995
 20
41.1385000000000005
 30
0.0
 11
9.1184899999999995
 21
42.0123000000000033
 31
0.0
  0
LINE
  5
56
100
AcDbEntity
100
AcDbLine
  8
0
 62
0
370
-1
  6
ByLayer
 10
9.1184899999999995
 20
42.0123000000000033
 30
0.0
 11
2.8484099999999999
 21
42.0123000000000033
 31
0.0
  0
LINE
  5
57
100
AcDbEntity
100
AcDbLine
  8
0
 62
0
370
-1
  6
ByLayer
 10
2.8484099999999999
 20
42.0123000000000033
 30
0.0
 11
2.8484099999999999
 21
43.638300000000001
 31
0.0
  0
LINE
  5
58
100
AcDbEntity
100
AcDbLine
  8
0
 62
0
370
-1
  6
ByLayer
 10
2.8484099999999999
 20
43.638300000000001
 30
0.0
 11
1.6481399999999999
 21
43.638300000000001
 31
0.0
  0
LINE
  5
59
100
AcDbEntity
100
AcDbLine
  8
0
 62
0
370
-1
  6
ByLayer
 10
1.6481399999999999
 20
43.638300000000001
 30
0.0
 11
1.6481399999999999
 21
46.9388000000000005
 31
0.0
  0
LINE
  5
5A
100
AcDbEntity
100
AcDbLine
  8
0
 62
0
370
-1
  6
ByLayer
 10
1.6481399999999999
 20
46.9388000000000005
 30
0.0
 11
2.8484099999999999
 21
46.9388000000000005
 31
0.0
  0
LINE
  5
5B
100
AcDbEntity
100
AcDbLine
  8
0
 62
0
370
-1
  6
ByLayer
 10
2.8484099999999999
 20
46.9388000000000005
 30
0.0
 11
2.8484099999999999
 21
48.6625000000000014
 31
0.0
  0
LINE
  5
5C
100
AcDbEntity
100
AcDbLine
  8
0
 62
0
370
-1
  6
ByLayer
 10
2.8484099999999999
 20
48.6625000000000014
 30
0.0
 11
3.64906
 21
48.6625000000000014
 31
0.0
  0
LINE
  5
5D
100
AcDbEntity
100
AcDbLine
  8
0
 62
0
370
-1
  6
ByLayer
 10
3.64906
 20
48.6625000000000014
 30
0.0
 11
3.64906
 21
50.2376999999999967
 31
0.0
  0
LINE
  5
5E
100
AcDbEntity
100
AcDbLine
  8
0
 62
0
370
-1
  6
ByLayer
 10
3.64906
 20
50.2376999999999967
 30
0.0
 11
2.6182699999999999
 21
50.2376999999999967
 31
0.0
  0
LINE
  5
5F
100
AcDbEntity
100
AcDbLine
  8
0
 62
0
370
-1
  6
ByLayer
 10
2.6182699999999999
 20
50.2376999999999967
 30
0.0
 11
2.6182699999999999
 21
64.2373000000000047
 31
0.0
  0
LINE
  5
60
100
AcDbEntity
100
AcDbLine
  8
0
 62
0
370
-1
  6
ByLayer
 10
2.6182699999999999
 20
64.2373000000000047
 30
0.0
 11
3.64906
 21
64.2373000000000047
 31
0.0
  0
LINE
  5
61
100
AcDbEntity
100
AcDbLine
  8
0
 62
0
370
-1
  6
ByLayer
 10
3.64906
 20
64.2373000000000047
 30
0.0
 11
3.64906
 21
65.8139000000000038
 31
0.0
  0
LINE
  5
62
100
AcDbEntity
100
AcDbLine
  8
0
 62
0
370
-1
  6
ByLayer
 10
3.64906
 20
65.8139000000000038
 30
0.0
 11
2.8484099999999999
 21
65.8139000000000038
 31
0.0
  0
LINE
  5
63
100
AcDbEntity
100
AcDbLine
  8
0
 62
0
370
-1
  6
ByLayer
 10
2.8484099999999999
 20
65.8139000000000038
 30
0.0
 11
2.8484099999999999
 21
67.5374999999999943
 31
0.0
  0
LINE
  5
64
100
AcDbEntity
100
AcDbLine
  8
0
 62
0
370
-1
  6
ByLayer
 10
2.8484099999999999
 20
67.5374999999999943
 30
0.0
 11
1.6481399999999999
 21
67.5374999999999943
 31
0.0
  0
LINE
  5
65
100
AcDbEntity
100
AcDbLine
  8
0
 62
0
370
-1
  6
ByLayer
 10
1.6481399999999999
 20
67.5374999999999943
 30
0.0
 11
1.6481399999999999
 21
70.8366999999999933
 31
0.0
  0
LINE
  5
66
100
AcDbEntity
100
AcDbLine
  8
0
 62
0
370
-1
  6
ByLayer
 10
1.6481399999999999
 20
70.8366999999999933
 30
0.0
 11
2.8484099999999999
 21
70.8366999999999933
 31
0.0
  0
LINE
  5
67
100
AcDbEntity
100
AcDbLine
  8
0
 62
0
370
-1
  6
ByLayer
 10
2.8484099999999999
 20
70.8366999999999933
 30
0.0
 11
2.8484099999999999
 21
72.4626999999999981
 31
0.0
  0
LINE
  5
68
100
AcDbEntity
100
AcDbLine
  8
0
 62
0
370
-1
  6
ByLayer
 10
2.8484099999999999
 20
72.4626999999999981
 30
0.0
 11
9.1184899999999995
 21
72.4626999999999981
 31
0.0
  0
LINE
  5
69
100
AcDbEntity
100
AcDbLine
  8
0
 62
0
370
-1
  6
ByLayer
 10
9.1184899999999995
 20
72.4626999999999981
 30
0.0
 11
9.1184899999999995
 21
73.3365000000000009
 31
0.0
  0
LINE
  5
6A
100
AcDbEntity
100
AcDbLine
  8
0
 62
0
370
-1
  6
ByLayer
 10
9.1184899999999995
 20
73.3365000000000009
 30
0.0
 11
11.9186999999999994
 21
73.3365000000000009
 31
0.0
  0
LINE
  5
6B
100
AcDbEntity
100
AcDbLine
  8
0
 62
0
370
-1
  6
ByLayer
 10
11.9186999999999994
 20
73.3365000000000009
 30
0.0
 11
11.9186999999999994
 21
72.4626999999999981
 31
0.0
  0
LINE
  5
6C
100
AcDbEntity
100
AcDbLine
  8
0
 62
0
370
-1
  6
ByLayer
 10
11.9186999999999994
 20
72.4626999999999981
 30
0.0
 11
15.1487999999999996
 21
72.4626999999999981
 31
0.0
  0
LINE
  5
6D
100
AcDbEntity
100
AcDbLine
  8
0
 62
0
370
-1
  6
ByLayer
 10
15.1487999999999996
 20
72.4626999999999981
 30
0.0
 11
15.1487999999999996
 21
65.8139000000000038
 31
0.0
  0
LINE
  5
6E
100
AcDbEntity
100
AcDbLine
  8
0
 62
0
370
-1
  6
ByLayer
 10
15.1487999999999996
 20
65.8139000000000038
 30
0.0
 11
14.3481000000000005
 21
65.8139000000000038
 31
0.0
  0
LINE
  5
6F
100
AcDbEntity
100
AcDbLine
  8
0
 62
0
370
-1
  6
ByLayer
 10
14.3481000000000005
 20
65.8139000000000038
 30
0.0
 11
14.3481000000000005
 21
64.2373000000000047
 31
0.0
  0
LINE
  5
70
100
AcDbEntity
100
AcDbLine
  8
0
 62
0
370
-1
  6
ByLayer
 10
14.3481000000000005
 20
64.2373000000000047
 30
0.0
 11
16.6191999999999993
 21
64.2373000000000047
 31
0.0
  0
LINE
  5
71
100
AcDbEntity
100
AcDbLine
  8
0
 62
0
370
-1
  6
ByLayer
 10
16.6191999999999993
 20
64.2373000000000047
 30
0.0
 11
16.6191999999999993
 21
50.2376999999999967
 31
0.0
  0
LINE
  5
72
100
AcDbEntity
100
AcDbLine
  8
0
 62
0
370
-1
  6
ByLayer
 10
16.6191999999999993
 20
50.2376999999999967
 30
0.0
 11
14.3481000000000005
 21
50.2376999999999967
 31
0.0
  0
LINE
  5
73
100
AcDbEntity
100
AcDbLine
  8
0
 62
0
370
-1
  6
ByLayer
 10
14.3481000000000005
 20
12.1378000000000004
 30
0.0
 11
14.3481000000000005
 21
10.5626999999999995
 31
0.0
  0
LINE
  5
74
100
AcDbEntity
100
AcDbLine
  8
0
 62
0
370
-1
  6
ByLayer
 10
14.3481000000000005
 20
10.5626999999999995
 30
0.0
 11
15.1487999999999996
 21
10.5626999999999995
 31
0.0
  0
LINE
  5
75
100
AcDbEntity
100
AcDbLine
  8
0
 62
0
370
-1
  6
ByLayer
 10
15.1487999999999996
 20
10.5626999999999995
 30
0.0
 11
15.1487999999999996
 21
3.9122300000000001
 31
0.0
  0
LINE
  5
76
100
AcDbEntity
100
AcDbLine
  8
0
 62
0
370
-1
  6
ByLayer
 10
15.1487999999999996
 20
3.9122300000000001
 30
0.0
 11
11.9186999999999994
 21
3.9122300000000001
 31
0.0
  0
LINE
  5
77
100
AcDbEntity
100
AcDbLine
  8
0
 62
0
370
-1
  6
ByLayer
 10
11.9186999999999994
 20
3.9122300000000001
 30
0.0
 11
11.9186999999999994
 21
3.03857
 31
0.0
  0
LINE
  5
78
100
AcDbEntity
100
AcDbLine
  8
0
 62
0
370
-1
  6
ByLayer
 10
11.9186999999999994
 20
3.03857
 30
0.0
 11
9.1184899999999995
 21
3.03857
 31
0.0
  0
LINE
  5
79
100
AcDbEntity
100
AcDbLine
  8
0
 62
0
370
-1
  6
ByLayer
 10
9.1184899999999995
 20
3.03857
 30
0.0
 11
9.1184899999999995
 21
3.9122300000000001
 31
0.0
  0
LINE
  5
7A
100
AcDbEntity
100
AcDbLine
  8
0
 62
0
370
-1
  6
ByLayer
 10
9.1184899999999995
 20
3.9122300000000001
 30
0.0
 11
2.8484099999999999
 21
3.9122300000000001
 31
0.0
  0
LINE
  5
7B
100
AcDbEntity
100
AcDbLine
  8
0
 62
0
370
-1
  6
ByLayer
 10
2.8484099999999999
 20
3.9122300000000001
 30
0.0
 11
2.8484099999999999
 21
5.5383300000000002
 31
0.0
  0
LINE
  5
7C
100
AcDbEntity
100
AcDbLine
  8
0
 62
0
370
-1
  6
ByLayer
 10
2.8484099999999999
 20
5.5383300000000002
 30
0.0
 11
1.6481399999999999
 21
5.5383300000000002
 31
0.0
  0
LINE
  5
7D
100
AcDbEntity
100
AcDbLine
  8
0
 62
0
370
-1
  6
ByLayer
 10
1.6481399999999999
 20
5.5383300000000002
 30
0.0
 11
1.6481399999999999
 21
8.8387399999999996
 31
0.0
  0
LINE
  5
7E
100
AcDbEntity
100
AcDbLine
  8
0
 62
0
370
-1
  6
ByLayer
 10
1.6481399999999999
 20
8.8387399999999996
 30
0.0
 11
2.8484099999999999
 21
8.8387399999999996
 31
0.0
  0
LINE
  5
7F
100
AcDbEntity
100
AcDbLine
  8
0
 62
0
370
-1
  6
ByLayer
 10
2.8484099999999999
 20
8.8387399999999996
 30
0.0
 11
2.8484099999999999
 21
10.5626999999999995
 31
0.0
  0
LINE
  5
80
100
AcDbEntity
100
AcDbLine
  8
0
 62
0
370
-1
  6
ByLayer
 10
2.8484099999999999
 20
10.5626999999999995
 30
0.0
 11
3.64906
 21
10.5626999999999995
 31
0.0
  0
LINE
  5
81
100
AcDbEntity
100
AcDbLine
  8
0
 62
0
370
-1
  6
ByLayer
 10
3.64906
 20
10.5626999999999995
 30
0.0
 11
3.64906
 21
12.1378000000000004
 31
0.0
  0
LINE
  5
82
100
AcDbEntity
100
AcDbLine
  8
0
 62
0
370
-1
  6
ByLayer
 10
3.64906
 20
12.1378000000000004
 30
0.0
 11
2.6182699999999999
 21
12.1378000000000004
 31
0.0
  0
LINE
  5
83
100
AcDbEntity
100
AcDbLine
  8
0
 62
0
370
-1
  6
ByLayer
 10
2.6182699999999999
 20
12.1378000000000004
 30
0.0
 11
2.6182699999999999
 21
26.1372
 31
0.0
  0
LINE
  5
84
100
AcDbEntity
100
AcDbLine
  8
0
 62
0
370
-1
  6
ByLayer
 10
2.6182699999999999
 20
26.1372
 30
0.0
 11
3.64906
 21
26.1372
 31
0.0
  0
LINE
  5
85
100
AcDbEntity
100
AcDbLine
  8
0
 62
0
370
-1
  6
ByLayer
 10
3.64906
 20
26.1372
 30
0.0
 11
3.64906
 21
27.7136999999999993
 31
0.0
  0
LINE
  5
86
100
AcDbEntity
100
AcDbLine
  8
0
 62
0
370
-1
  6
ByLayer
 10
3.64906
 20
27.7136999999999993
 30
0.0
 11
2.8484099999999999
 21
27.7136999999999993
 31
0.0
  0
LINE
  5
87
100
AcDbEntity
100
AcDbLine
  8
0
 62
0
370
-1
  6
ByLayer
 10
2.8484099999999999
 20
27.7136999999999993
 30
0.0
 11
2.8484099999999999
 21
29.4375999999999998
 31
0.0
  0
LINE
  5
88
100
AcDbEntity
100
AcDbLine
  8
0
 62
0
370
-1
  6
ByLayer
 10
2.8484099999999999
 20
29.4375999999999998
 30
0.0
 11
1.6481399999999999
 21
29.4375999999999998
 31
0.0
  0
LINE
  5
89
100
AcDbEntity
100
AcDbLine
  8
0
 62
0
370
-1
  6
ByLayer
 10
1.6481399999999999
 20
29.4375999999999998
 30
0.0
 11
1.6481399999999999
 21
32.736699999999999
 31
0.0
  0
LINE
  5
8A
100
AcDbEntity
100
AcDbLine
  8
0
 62
0
370
-1
  6
ByLayer
 10
1.6481399999999999
 20
32.736699999999999
 30
0.0
 11
2.8484099999999999
 21
32.736699999999999
 31
0.0
  0
LINE
  5
8B
100
AcDbEntity
100
AcDbLine
  8
0
 62
0
370
-1
  6
ByLayer
 10
2.8484099999999999
 20
32.736699999999999
 30
0.0
 11
2.8484099999999999
 21
34.3628
 31
0.0
  0
LINE
  5
8C
100
AcDbEntity
100
AcDbLine
  8
0
 62
0
370
-1
  6
ByLayer
 10
2.8484099999999999
 20
34.3628
 30
0.0
 11
9.1184899999999995
 21
34.3628
 31
0.0
  0
LINE
  5
8D
100
AcDbEntity
100
AcDbLine
  8
0
 62
0
370
-1
  6
ByLayer
 10
9.1184899999999995
 20
34.3628
 30
0.0
 11
9.1184899999999995
 21
35.2364000000000033
 31
0.0
  0
LINE
  5
8E
100
AcDbEntity
100
AcDbLine
  8
0
 62
0
370
-1
  6
ByLayer
 10
9.1184899999999995
 20
35.2364000000000033
 30
0.0
 11
11.9186999999999994
 21
35.2364000000000033
 31
0.0
  0
LINE
  5
8F
100
AcDbEntity
100
AcDbLine
  8
0
 62
0
370
-1
  6
ByLayer
 10
11.9186999999999994
 20
35.2364000000000033
 30
0.0
 11
11.9186999999999994
 21
34.3628
 31
0.0
  0
LINE
  5
90
100
AcDbEntity
100
AcDbLine
  8
0
 62
0
370
-1
  6
ByLayer
 10
11.9186999999999994
 20
34.3628
 30
0.0
 11
15.1487999999999996
 21
34.3628
 31
0.0
  0
LINE
  5
91
100
AcDbEntity
100
AcDbLine
  8
0
 62
0
370
-1
  6
ByLayer
 10
15.1487999999999996
 20
34.3628
 30
0.0
 11
15.1487999999999996
 21
27.7136999999999993
 31
0.0
  0
LINE
  5
92
100
AcDbEntity
100
AcDbLine
  8
0
 62
0
370
-1
  6
ByLayer
 10
15.1487999999999996
 20
27.7136999999999993
 30
0.0
 11
14.3481000000000005
 21
27.7136999999999993
 31
0.0
  0
LINE
  5
93
100
AcDbEntity
100
AcDbLine
  8
0
 62
0
370
-1
  6
ByLayer
 10
14.3481000000000005
 20
27.7136999999999993
 30
0.0
 11
14.3481000000000005
 21
26.1372
 31
0.0
  0
LINE
  5
94
100
AcDbEntity
100
AcDbLine
  8
0
 62
0
370
-1
  6
ByLayer
 10
14.3481000000000005
 20
26.1372
 30
0.0
 11
16.6191999999999993
 21
26.1372
 31
0.0
  0
LINE
  5
95
100
AcDbEntity
100
AcDbLine
  8
0
 62
0
370
-1
  6
ByLayer
 10
16.6191999999999993
 20
26.1372
 30
0.0
 11
16.6191999999999993
 21
12.1378000000000004
 31
0.0
  0
LINE
  5
96
100
AcDbEntity
100
AcDbLine
  8
0
 62
0
370
-1
  6
ByLayer
 10
16.6191999999999993
 20
12.1378000000000004
 30
0.0
 11
14.3481000000000005
 21
12.1378000000000004
 31
0.0
  0
LINE
  5
97
100
AcDbEntity
100
AcDbLine
  8
0
 62
0
370
-1
  6
ByLayer
 10
21.6682999999999986
 20
130.9120000000000061
 30
0.0
 11
35.6689999999999969
 21
130.9120000000000061
 31
0.0
  0
LINE
  5
98
100
AcDbEntity
100
AcDbLine
  8
0
 62
0
370
-1
  6
ByLayer
 10
35.6689999999999969
 20
130.9120000000000061
 30
0.0
 11
35.6689999999999969
 21
116.9110000000000014
 31
0.0
  0
LINE
  5
99
100
AcDbEntity
100
AcDbLine
  8
0
 62
0
370
-1
  6
ByLayer
 10
35.6689999999999969
 20
116.9110000000000014
 30
0.0
 11
21.6682999999999986
 21
116.9110000000000014
 31
0.0
  0
LINE
  5
9A
100
AcDbEntity
100
AcDbLine
  8
0
 62
0
370
-1
  6
ByLayer
 10
21.6682999999999986
 20
116.9110000000000014
 30
0.0
 11
21.6682999999999986
 21
130.9120000000000061
 31
0.0
  0
LINE
  5
9B
100
AcDbEntity
100
AcDbLine
  8
0
 62
0
370
-1
  6
ByLayer
 10
21.6682999999999986
 20
111.8619999999999948
 30
0.0
 11
35.6689999999999969
 21
111.8619999999999948
 31
0.0
  0
LINE
  5
9C
100
AcDbEntity
100
AcDbLine
  8
0
 62
0
370
-1
  6
ByLayer
 10
35.6689999999999969
 20
111.8619999999999948
 30
0.0
 11
35.6689999999999969
 21
97.8613
 31
0.0
  0
LINE
  5
9D
100
AcDbEntity
100
AcDbLine
  8
0
 62
0
370
-1
  6
ByLayer
 10
35.6689999999999969
 20
97.8613
 30
0.0
 11
21.6682999999999986
 21
97.8613
 31
0.0
  0
LINE
  5
9E
100
AcDbEntity
100
AcDbLine
  8
0
 62
0
370
-1
  6
ByLayer
 10
21.6682999999999986
 20
97.8613
 30
0.0
 11
21.6682999999999986
 21
111.8619999999999948
 31
0.0
  0
LINE
  5
9F
100
AcDbEntity
100
AcDbLine
  8
0
 62
0
370
-1
  6
ByLayer
 10
21.6682999999999986
 20
92.8122999999999934
 30
0.0
 11
35.6689999999999969
 21
92.8122999999999934
 31
0.0
  0
LINE
  5
A0
100
AcDbEntity
100
AcDbLine
  8
0
 62
0
370
-1
  6
ByLayer
 10
35.6689999999999969
 20
92.8122999999999934
 30
0.0
 11
35.6689999999999969
 21
78.8113000000000028
 31
0.0
  0
LINE
  5
A1
100
AcDbEntity
100
AcDbLine
  8
0
 62
0
370
-1
  6
ByLayer
 10
35.6689999999999969
 20
78.8113000000000028
 30
0.0
 11
21.6682999999999986
 21
78.8113000000000028
 31
0.0
  0
LINE
  5
A2
100
AcDbEntity
100
AcDbLine
  8
0
 62
0
370
-1
  6
ByLayer
 10
21.6682999999999986
 20
78.8113000000000028
 30
0.0
 11
21.6682999999999986
 21
92.8122999999999934
 31
0.0
  0
LINE
  5
A3
100
AcDbEntity
100
AcDbLine
  8
0
 62
0
370
-1
  6
ByLayer
 10
21.6682999999999986
 20
73.7622999999999962
 30
0.0
 11
35.6689999999999969
 21
73.7622999999999962
 31
0.0
  0
LINE
  5
A4
100
AcDbEntity
100
AcDbLine
  8
0
 62
0
370
-1
  6
ByLayer
 10
35.6689999999999969
 20
73.7622999999999962
 30
0.0
 11
35.6689999999999969
 21
59.7612999999999985
 31
0.0
  0
LINE
  5
A5
100
AcDbEntity
100
AcDbLine
  8
0
 62
0
370
-1
  6
ByLayer
 10
35.6689999999999969
 20
59.7612999999999985
 30
0.0
 11
21.6682999999999986
 21
59.7612999999999985
 31
0.0
  0
LINE
  5
A6
100
AcDbEntity
100
AcDbLine
  8
0
 62
0
370
-1
  6
ByLayer
 10
21.6682999999999986
 20
59.7612999999999985
 30
0.0
 11
21.6682999999999986
 21
73.7622999999999962
 31
0.0
  0
LINE
  5
A7
100
AcDbEntity
100
AcDbLine
  8
0
 62
0
370
-1
  6
ByLayer
 10
21.6682999999999986
 20
54.712299999999999
 30
0.0
 11
35.6689999999999969
 21
54.712299999999999
 31
0.0
  0
LINE
  5
A8
100
AcDbEntity
100
AcDbLine
  8
0
 62
0
370
-1
  6
ByLayer
 10
35.6689999999999969
 20
54.712299999999999
 30
0.0
 11
35.6689999999999969
 21
40.7113000000000014
 31
0.0
  0
LINE
  5
A9
100
AcDbEntity
100
AcDbLine
  8
0
 62
0
370
-1
  6
ByLayer
 10
35.6689999999999969
 20
40.7113000000000014
 30
0.0
 11
21.6682999999999986
 21
40.7113000000000014
 31
0.0
  0
LINE
  5
AA
100
AcDbEntity
100
AcDbLine
  8
0
 62
0
370
-1
  6
ByLayer
 10
21.6682999999999986
 20
40.7113000000000014
 30
0.0
 11
21.6682999999999986
 21
54.712299999999999
 31
0.0
  0
LINE
  5
AB
100
AcDbEntity
100
AcDbLine
  8
0
 62
0
370
-1
  6
ByLayer
 10
21.6682999999999986
 20
35.6623000000000019
 30
0.0
 11
35.6689999999999969
 21
35.6623000000000019
 31
0.0
  0
LINE
  5
AC
100
AcDbEntity
100
AcDbLine
  8
0
 62
0
370
-1
  6
ByLayer
 10
35.6689999999999969
 20
35.6623000000000019
 30
0.0
 11
35.6689999999999969
 21
21.6614000000000004
 31
0.0
  0
LINE
  5
AD
100
AcDbEntity
100
AcDbLine
  8
0
 62
0
370
-1
  6
ByLayer
 10
35.6689999999999969
 20
21.6614000000000004
 30
0.0
 11
21.6682999999999986
 21
21.6614000000000004
 31
0.0
  0
LINE
  5
AE
100
AcDbEntity
100
AcDbLine
  8
0
 62
0
370
-1
  6
ByLayer
 10
21.6682999999999986
 20
21.6614000000000004
 30
0.0
 11
21.6682999999999986
 21
35.6623000000000019
 31
0.0
  0
LINE
  5
AF
100
AcDbEntity
100
AcDbLine
  8
0
 62
0
370
-1
  6
ByLayer
 10
21.6682999999999986
 20
16.6122000000000014
 30
0.0
 11
35.6689999999999969
 21
16.6122000000000014
 31
0.0
  0
LINE
  5
B0
100
AcDbEntity
100
AcDbLine
  8
0
 62
0
370
-1
  6
ByLayer
 10
35.6689999999999969
 20
16.6122000000000014
 30
0.0
 11
35.6689999999999969
 21
2.61138
 31
0.0
  0
LINE
  5
B1
100
AcDbEntity
100
AcDbLine
  8
0
 62
0
370
-1
  6
ByLayer
 10
35.6689999999999969
 20
2.61138
 30
0.0
 11
21.6682999999999986
 21
2.61138
 31
0.0
  0
LINE
  5
B2
100
AcDbEntity
100
AcDbLine
  8
0
 62
0
370
-1
  6
ByLayer
 10
21.6682999999999986
 20
2.61138
 30
0.0
 11
21.6682999999999986
 21
16.6122000000000014
 31
0.0
  0
LINE
  5
B3
100
AcDbEntity
100
AcDbLine
  8
0
 62
0
370
-1
  6
ByLayer
 10
40.7182999999999993
 20
130.9120000000000061
 30
0.0
 11
54.7190000000000012
 21
130.9120000000000061
 31
0.0
  0
LINE
  5
B4
100
AcDbEntity
100
AcDbLine
  8
0
 62
0
370
-1
  6
ByLayer
 10
54.7190000000000012
 20
130.9120000000000061
 30
0.0
 11
54.7190000000000012
 21
116.9110000000000014
 31
0.0
  0
LINE
  5
B5
100
AcDbEntity
100
AcDbLine
  8
0
 62
0
370
-1
  6
ByLayer
 10
54.7190000000000012
 20
116.9110000000000014
 30
0.0
 11
40.7182999999999993
 21
116.9110000000000014
 31
0.0
  0
LINE
  5
B6
100
AcDbEntity
100
AcDbLine
  8
0
 62
0
370
-1
  6
ByLayer
 10
40.7182999999999993
 20
116.9110000000000014
 30
0.0
 11
40.7182999999999993
 21
130.9120000000000061
 31
0.0
  0
LINE
  5
B7
100
AcDbEntity
100
AcDbLine
  8
0
 62
0
370
-1
  6
ByLayer
 10
40.7182999999999993
 20
111.8619999999999948
 30
0.0
 11
54.7190000000000012
 21
111.8619999999999948
 31
0.0
  0
LINE
  5
B8
100
AcDbEntity
100
AcDbLine
  8
0
 62
0
370
-1
  6
ByLayer
 10
54.7190000000000012
 20
111.8619999999999948
 30
0.0
 11
54.7190000000000012
 21
97.8613
 31
0.0
  0
LINE
  5
B9
100
AcDbEntity
100
AcDbLine
  8
0
 62
0
370
-1
  6
ByLayer
 10
54.7190000000000012
 20
97.8613
 30
0.0
 11
40.7182999999999993
 21
97.8613
 31
0.0
  0
LINE
  5
BA
100
AcDbEntity
100
AcDbLine
  8
0
 62
0
370
-1
  6
ByLayer
 10
40.7182999999999993
 20
97.8613
 30
0.0
 11
40.7182999999999993
 21
111.8619999999999948
 31
0.0
  0
LINE
  5
BB
100
AcDbEntity
100
AcDbLine
  8
0
 62
0
370
-1
  6
ByLayer
 10
40.7182999999999993
 20
92.8122999999999934
 30
0.0
 11
54.7190000000000012
 21
92.8122999999999934
 31
0.0
  0
LINE
  5
BC
100
AcDbEntity
100
AcDbLine
  8
0
 62
0
370
-1
  6
ByLayer
 10
54.7190000000000012
 20
92.8122999999999934
 30
0.0
 11
54.7190000000000012
 21
78.8113000000000028
 31
0.0
  0
LINE
  5
BD
100
AcDbEntity
100
AcDbLine
  8
0
 62
0
370
-1
  6
ByLayer
 10
54.7190000000000012
 20
78.8113000000000028
 30
0.0
 11
40.7182999999999993
 21
78.8113000000000028
 31
0.0
  0
LINE
  5
BE
100
AcDbEntity
100
AcDbLine
  8
0
 62
0
370
-1
  6
ByLayer
 10
40.7182999999999993
 20
78.8113000000000028
 30
0.0
 11
40.7182999999999993
 21
92.8122999999999934
 31
0.0
  0
LINE
  5
BF
100
AcDbEntity
100
AcDbLine
  8
0
 62
0
370
-1
  6
ByLayer
 10
40.7182999999999993
 20
73.7622999999999962
 30
0.0
 11
54.7190000000000012
 21
73.7622999999999962
 31
0.0
  0
LINE
  5
C0
100
AcDbEntity
100
AcDbLine
  8
0
 62
0
370
-1
  6
ByLayer
 10
54.7190000000000012
 20
73.7622999999999962
 30
0.0
 11
54.7190000000000012
 21
59.7612999999999985
 31
0.0
  0
LINE
  5
C1
100
AcDbEntity
100
AcDbLine
  8
0
 62
0
370
-1
  6
ByLayer
 10
54.7190000000000012
 20
59.7612999999999985
 30
0.0
 11
40.7182999999999993
 21
59.7612999999999985
 31
0.0
  0
LINE
  5
C2
100
AcDbEntity
100
AcDbLine
  8
0
 62
0
370
-1
  6
ByLayer
 10
40.7182999999999993
 20
59.7612999999999985
 30
0.0
 11
40.7182999999999993
 21
73.7622999999999962
 31
0.0
  0
LINE
  5
C3
100
AcDbEntity
100
AcDbLine
  8
0
 62
0
370
-1
  6
ByLayer
 10
40.7182999999999993
 20
54.712299999999999
 30
0.0
 11
54.7190000000000012
 21
54.712299999999999
 31
0.0
  0
LINE
  5
C4
100
AcDbEntity
100
AcDbLine
  8
0
 62
0
370
-1
  6
ByLayer
 10
54.7190000000000012
 20
54.712299999999999
 30
0.0
 11
54.7190000000000012
 21
40.7113000000000014
 31
0.0
  0
LINE
  5
C5
100
AcDbEntity
100
AcDbLine
  8
0
 62
0
370
-1
  6
ByLayer
 10
54.7190000000000012
 20
40.7113000000000014
 30
0.0
 11
40.7182999999999993
 21
40.7113000000000014
 31
0.0
  0
LINE
  5
C6
100
AcDbEntity
100
AcDbLine
  8
0
 62
0
370
-1
  6
ByLayer
 10
40.7182999999999993
 20
40.7113000000000014
 30
0.0
 11
40.7182999999999993
 21
54.712299999999999
 31
0.0
  0
LINE
  5
C7
100
AcDbEntity
100
AcDbLine
  8
0
 62
0
370
-1
  6
ByLayer
 10
40.7182999999999993
 20
35.6623000000000019
 30
0.0
 11
54.7190000000000012
 21
35.6623000000000019
 31
0.0
  0
LINE
  5
C8
100
AcDbEntity
100
AcDbLine
  8
0
 62
0
370
-1
  6
ByLayer
 10
54.7190000000000012
 20
35.6623000000000019
 30
0.0
 11
54.7190000000000012
 21
21.6614000000000004
 31
0.0
  0
LINE
  5
C9
100
AcDbEntity
100
AcDbLine
  8
0
 62
0
370
-1
  6
ByLayer
 10
54.7190000000000012
 20
21.6614000000000004
 30
0.0
 11
40.7182999999999993
 21
21.6614000000000004
 31
0.0
  0
LINE
  5
CA
100
AcDbEntity
100
AcDbLine
  8
0
 62
0
370
-1
  6
ByLayer
 10
40.7182999999999993
 20
21.6614000000000004
 30
0.0
 11
40.7182999999999993
 21
35.6623000000000019
 31
0.0
  0
LINE
  5
CB
100
AcDbEntity
100
AcDbLine
  8
0
 62
0
370
-1
  6
ByLayer
 10
40.7182999999999993
 20
16.6122000000000014
 30
0.0
 11
54.7190000000000012
 21
16.6122000000000014
 31
0.0
  0
LINE
  5
CC
100
AcDbEntity
100
AcDbLine
  8
0
 62
0
370
-1
  6
ByLayer
 10
54.7190000000000012
 20
16.6122000000000014
 30
0.0
 11
54.7190000000000012
 21
2.61138
 31
0.0
  0
LINE
  5
CD
100
AcDbEntity
100
AcDbLine
  8
0
 62
0
370
-1
  6
ByLayer
 10
54.7190000000000012
 20
2.61138
 30
0.0
 11
40.7182999999999993
 21
2.61138
 31
0.0
  0
LINE
  5
CE
100
AcDbEntity
100
AcDbLine
  8
0
 62
0
370
-1
  6
ByLayer
 10
40.7182999999999993
 20
2.61138
 30
0.0
 11
40.7182999999999993
 21
16.6122000000000014
 31
0.0
  0
LINE
  5
CF
100
AcDbEntity
100
AcDbLine
  8
0
 62
0
370
-1
  6
ByLayer
 10
59.7683000000000035
 20
130.9120000000000061
 30
0.0
 11
73.7690000000000055
 21
130.9120000000000061
 31
0.0
  0
LINE
  5
D0
100
AcDbEntity
100
AcDbLine
  8
0
 62
0
370
-1
  6
ByLayer
 10
73.7690000000000055
 20
130.9120000000000061
 30
0.0
 11
73.7690000000000055
 21
116.9110000000000014
 31
0.0
  0
LINE
  5
D1
100
AcDbEntity
100
AcDbLine
  8
0
 62
0
370
-1
  6
ByLayer
 10
73.7690000000000055
 20
116.9110000000000014
 30
0.0
 11
59.7683000000000035
 21
116.9110000000000014
 31
0.0
  0
LINE
  5
D2
100
AcDbEntity
100
AcDbLine
  8
0
 62
0
370
-1
  6
ByLayer
 10
59.7683000000000035
 20
116.9110000000000014
 30
0.0
 11
59.7683000000000035
 21
130.9120000000000061
 31
0.0
  0
LINE
  5
D3
100
AcDbEntity
100
AcDbLine
  8
0
 62
0
370
-1
  6
ByLayer
 10
59.7683000000000035
 20
111.8619999999999948
 30
0.0
 11
73.7690000000000055
 21
111.8619999999999948
 31
0.0
  0
LINE
  5
D4
100
AcDbEntity
100
AcDbLine
  8
0
 62
0
370
-1
  6
ByLayer
 10
73.7690000000000055
 20
111.8619999999999948
 30
0.0
 11
73.7690000000000055
 21
97.8613
 31
0.0
  0
LINE
  5
D5
100
AcDbEntity
100
AcDbLine
  8
0
 62
0
370
-1
  6
ByLayer
 10
73.7690000000000055
 20
97.8613
 30
0.0
 11
59.7683000000000035
 21
97.8613
 31
0.0
  0
LINE
  5
D6
100
AcDbEntity
100
AcDbLine
  8
0
 62
0
370
-1
  6
ByLayer
 10
59.7683000000000035
 20
97.8613
 30
0.0
 11
59.7683000000000035
 21
111.8619999999999948
 31
0.0
  0
LINE
  5
D7
100
AcDbEntity
100
AcDbLine
  8
0
 62
0
370
-1
  6
ByLayer
 10
59.7683000000000035
 20
92.8122999999999934
 30
0.0
 11
73.7690000000000055
 21
92.8122999999999934
 31
0.0
  0
LINE
  5
D8
100
AcDbEntity
100
AcDbLine
  8
0
 62
0
370
-1
  6
ByLayer
 10
73.7690000000000055
 20
92.8122999999999934
 30
0.0
 11
73.7690000000000055
 21
78.8113000000000028
 31
0.0
  0
LINE
  5
D9
100
AcDbEntity
100
AcDbLine
  8
0
 62
0
370
-1
  6
ByLayer
 10
73.7690000000000055
 20
78.8113000000000028
 30
0.0
 11
59.7683000000000035
 21
78.8113000000000028
 31
0.0
  0
LINE
  5
DA
100
AcDbEntity
100
AcDbLine
  8
0
 62
0
370
-1
  6
ByLayer
 10
59.7683000000000035
 20
78.8113000000000028
 30
0.0
 11
59.7683000000000035
 21
92.8122999999999934
 31
0.0
  0
LINE
  5
DB
100
AcDbEntity
100
AcDbLine
  8
0
 62
0
370
-1
  6
ByLayer
 10
59.7683000000000035
 20
73.7622999999999962
 30
0.0
 11
73.7690000000000055
 21
73.7622999999999962
 31
0.0
  0
LINE
  5
DC
100
AcDbEntity
100
AcDbLine
  8
0
 62
0
370
-1
  6
ByLayer
 10
73.7690000000000055
 20
73.7622999999999962
 30
0.0
 11
73.7690000000000055
 21
59.7612999999999985
 31
0.0
  0
LINE
  5
DD
100
AcDbEntity
100
AcDbLine
  8
0
 62
0
370
-1
  6
ByLayer
 10
73.7690000000000055
 20
59.7612999999999985
 30
0.0
 11
59.7683000000000035
 21
59.7612999999999985
 31
0.0
  0
LINE
  5
DE
100
AcDbEntity
100
AcDbLine
  8
0
 62
0
370
-1
  6
ByLayer
 10
59.7683000000000035
 20
59.7612999999999985
 30
0.0
 11
59.7683000000000035
 21
73.7622999999999962
 31
0.0
  0
LINE
  5
DF
100
AcDbEntity
100
AcDbLine
  8
0
 62
0
370
-1
  6
ByLayer
 10
59.7683000000000035
 20
54.712299999999999
 30
0.0
 11
73.7690000000000055
 21
54.712299999999999
 31
0.0
  0
LINE
  5
E0
100
AcDbEntity
100
AcDbLine
  8
0
 62
0
370
-1
  6
ByLayer
 10
73.7690000000000055
 20
54.712299999999999
 30
0.0
 11
73.7690000000000055
 21
40.7113000000000014
 31
0.0
  0
LINE
  5
E1
100
AcDbEntity
100
AcDbLine
  8
0
 62
0
370
-1
  6
ByLayer
 10
73.7690000000000055
 20
40.7113000000000014
 30
0.0
 11
59.7683000000000035
 21
40.7113000000000014
 31
0.0
  0
LINE
  5
E2
100
AcDbEntity
100
AcDbLine
  8
0
 62
0
370
-1
  6
ByLayer
 10
59.7683000000000035
 20
40.7113000000000014
 30
0.0
 11
59.7683000000000035
 21
54.712299999999999
 31
0.0
  0
LINE
  5
E3
100
AcDbEntity
100
AcDbLine
  8
0
 62
0
370
-1
  6
ByLayer
 10
59.7683000000000035
 20
35.6623000000000019
 30
0.0
 11
73.7690000000000055
 21
35.6623000000000019
 31
0.0
  0
LINE
  5
E4
100
AcDbEntity
100
AcDbLine
  8
0
 62
0
370
-1
  6
ByLayer
 10
73.7690000000000055
 20
35.6623000000000019
 30
0.0
 11
73.7690000000000055
 21
21.6614000000000004
 31
0.0
  0
LINE
  5
E5
100
AcDbEntity
100
AcDbLine
  8
0
 62
0
370
-1
  6
ByLayer
 10
73.7690000000000055
 20
21.6614000000000004
 30
0.0
 11
59.7683000000000035
 21
21.6614000000000004
 31
0.0
  0
LINE
  5
E6
100
AcDbEntity
100
AcDbLine
  8
0
 62
0
370
-1
  6
ByLayer
 10
59.7683000000000035
 20
21.6614000000000004
 30
0.0
 11
59.7683000000000035
 21
35.6623000000000019
 31
0.0
  0
LINE
  5
E7
100
AcDbEntity
100
AcDbLine
  8
0
 62
0
370
-1
  6
ByLayer
 10
59.7683000000000035
 20
16.6122000000000014
 30
0.0
 11
73.7690000000000055
 21
16.6122000000000014
 31
0.0
  0
LINE
  5
E8
100
AcDbEntity
100
AcDbLine
  8
0
 62
0
370
-1
  6
ByLayer
 10
73.7690000000000055
 20
16.6122000000000014
 30
0.0
 11
73.7690000000000055
 21
2.61138
 31
0.0
  0
LINE
  5
E9
100
AcDbEntity
100
AcDbLine
  8
0
 62
0
370
-1
  6
ByLayer
 10
73.7690000000000055
 20
2.61138
 30
0.0
 11
59.7683000000000035
 21
2.61138
 31
0.0
  0
LINE
  5
EA
100
AcDbEntity
100
AcDbLine
  8
0
 62
0
370
-1
  6
ByLayer
 10
59.7683000000000035
 20
2.61138
 30
0.0
 11
59.7683000000000035
 21
16.6122000000000014
 31
0.0
  0
LINE
  5
EB
100
AcDbEntity
100
AcDbLine
  8
0
 62
0
370
-1
  6
ByLayer
 10
78.8182999999999936
 20
130.9120000000000061
 30
0.0
 11
92.8190000000000026
 21
130.9120000000000061
 31
0.0
  0
LINE
  5
EC
100
AcDbEntity
100
AcDbLine
  8
0
 62
0
370
-1
  6
ByLayer
 10
92.8190000000000026
 20
130.9120000000000061
 30
0.0
 11
92.8190000000000026
 21
116.9110000000000014
 31
0.0
  0
LINE
  5
ED
100
AcDbEntity
100
AcDbLine
  8
0
 62
0
370
-1
  6
ByLayer
 10
92.8190000000000026
 20
116.9110000000000014
 30
0.0
 11
78.8182999999999936
 21
116.9110000000000014
 31
0.0
  0
LINE
  5
EE
100
AcDbEntity
100
AcDbLine
  8
0
 62
0
370
-1
  6
ByLayer
 10
78.8182999999999936
 20
116.9110000000000014
 30
0.0
 11
78.8182999999999936
 21
130.9120000000000061
 31
0.0
  0
LINE
  5
EF
100
AcDbEntity
100
AcDbLine
  8
0
 62
0
370
-1
  6
ByLayer
 10
78.8182999999999936
 20
111.8619999999999948
 30
0.0
 11
92.8190000000000026
 21
111.8619999999999948
 31
0.0
  0
LINE
  5
F0
100
AcDbEntity
100
AcDbLine
  8
0
 62
0
370
-1
  6
ByLayer
 10
92.8190000000000026
 20
111.8619999999999948
 30
0.0
 11
92.8190000000000026
 21
97.8613
 31
0.0
  0
LINE
  5
F1
100
AcDbEntity
100
AcDbLine
  8
0
 62
0
370
-1
  6
ByLayer
 10
92.8190000000000026
 20
97.8613
 30
0.0
 11
78.8182999999999936
 21
97.8613
 31
0.0
  0
LINE
  5
F2
100
AcDbEntity
100
AcDbLine
  8
0
 62
0
370
-1
  6
ByLayer
 10
78.8182999999999936
 20
97.8613
 30
0.0
 11
78.8182999999999936
 21
111.8619999999999948
 31
0.0
  0
LINE
  5
F3
100
AcDbEntity
100
AcDbLine
  8
0
 62
0
370
-1
  6
ByLayer
 10
78.8182999999999936
 20
92.8122999999999934
 30
0.0
 11
92.8190000000000026
 21
92.8122999999999934
 31
0.0
  0
LINE
  5
F4
100
AcDbEntity
100
AcDbLine
  8
0
 62
0
370
-1
  6
ByLayer
 10
92.8190000000000026
 20
92.8122999999999934
 30
0.0
 11
92.8190000000000026
 21
78.8113000000000028
 31
0.0
  0
LINE
  5
F5
100
AcDbEntity
100
AcDbLine
  8
0
 62
0
370
-1
  6
ByLayer
 10
92.8190000000000026
 20
78.8113000000000028
 30
0.0
 11
78.8182999999999936
 21
78.8113000000000028
 31
0.0
  0
LINE
  5
F6
100
AcDbEntity
100
AcDbLine
  8
0
 62
0
370
-1
  6
ByLayer
 10
78.8182999999999936
 20
78.8113000000000028
 30
0.0
 11
78.8182999999999936
 21
92.8122999999999934
 31
0.0
  0
LINE
  5
F7
100
AcDbEntity
100
AcDbLine
  8
0
 62
0
370
-1
  6
ByLayer
 10
78.8182999999999936
 20
73.7622999999999962
 30
0.0
 11
92.8190000000000026
 21
73.7622999999999962
 31
0.0
  0
LINE
  5
F8
100
AcDbEntity
100
AcDbLine
  8
0
 62
0
370
-1
  6
ByLayer
 10
92.8190000000000026
 20
73.7622999999999962
 30
0.0
 11
92.8190000000000026
 21
59.7612999999999985
 31
0.0
  0
LINE
  5
F9
100
AcDbEntity
100
AcDbLine
  8
0
 62
0
370
-1
  6
ByLayer
 10
92.8190000000000026
 20
59.7612999999999985
 30
0.0
 11
78.8182999999999936
 21
59.7612999999999985
 31
0.0
  0
LINE
  5
FA
100
AcDbEntity
100
AcDbLine
  8
0
 62
0
370
-1
  6
ByLayer
 10
78.8182999999999936
 20
59.7612999999999985
 30
0.0
 11
78.8182999999999936
 21
73.7622999999999962
 31
0.0
  0
LINE
  5
FB
100
AcDbEntity
100
AcDbLine
  8
0
 62
0
370
-1
  6
ByLayer
 10
78.8182999999999936
 20
54.712299999999999
 30
0.0
 11
92.8190000000000026
 21
54.712299999999999
 31
0.0
  0
LINE
  5
FC
100
AcDbEntity
100
AcDbLine
  8
0
 62
0
370
-1
  6
ByLayer
 10
92.8190000000000026
 20
54.712299999999999
 30
0.0
 11
92.8190000000000026
 21
40.7113000000000014
 31
0.0
  0
LINE
  5
FD
100
AcDbEntity
100
AcDbLine
  8
0
 62
0
370
-1
  6
ByLayer
 10
92.8190000000000026
 20
40.7113000000000014
 30
0.0
 11
78.8182999999999936
 21
40.7113000000000014
 31
0.0
  0
LINE
  5
FE
100
AcDbEntity
100
AcDbLine
  8
0
 62
0
370
-1
  6
ByLayer
 10
78.8182999999999936
 20
40.7113000000000014
 30
0.0
 11
78.8182999999999936
 21
54.712299999999999
 31
0.0
  0
LINE
  5
FF
100
AcDbEntity
100
AcDbLine
  8
0
 62
0
370
-1
  6
ByLayer
 10
110.5679999999999978
 20
28.1616
 30
0.0
 11
110.5679999999999978
 21
21.8929000000000009
 31
0.0
  0
LINE
  5
100
100
AcDbEntity
100
AcDbLine
  8
0
 62
0
370
-1
  6
ByLayer
 10
110.5679999999999978
 20
21.8929000000000009
 30
0.0
 11
108.9429999999999978
 21
21.8929000000000009
 31
0.0
  0
LINE
  5
101
100
AcDbEntity
100
AcDbLine
  8
0
 62
0
370
-1
  6
ByLayer
 10
108.9429999999999978
 20
21.8929000000000009
 30
0.0
 11
108.9429999999999978
 21
20.6925999999999988
 31
0.0
  0
LINE
  5
102
100
AcDbEntity
100
AcDbLine
  8
0
 62
0
370
-1
  6
ByLayer
 10
108.9429999999999978
 20
20.6925999999999988
 30
0.0
 11
105.6430000000000007
 21
20.6925999999999988
 31
0.0
  0
LINE
  5
103
100
AcDbEntity
100
AcDbLine
  8
0
 62
0
370
-1
  6
ByLayer
 10
105.6430000000000007
 20
20.6925999999999988
 30
0.0
 11
105.6430000000000007
 21
21.8929000000000009
 31
0.0
  0
LINE
  5
104
100
AcDbEntity
100
AcDbLine
  8
0
 62
0
370
-1
  6
ByLayer
 10
105.6430000000000007
 20
21.8929000000000009
 30
0.0
 11
103.9189999999999969
 21
21.8929000000000009
 31
0.0
  0
LINE
  5
105
100
AcDbEntity
100
AcDbLine
  8
0
 62
0
370
-1
  6
ByLayer
 10
103.9189999999999969
 20
21.8929000000000009
 30
0.0
 11
103.9189999999999969
 21
22.6920999999999999
 31
0.0
  0
LINE
  5
106
100
AcDbEntity
100
AcDbLine
  8
0
 62
0
370
-1
  6
ByLayer
 10
103.9189999999999969
 20
22.6920999999999999
 30
0.0
 11
102.3439999999999941
 21
22.6920999999999999
 31
0.0
  0
LINE
  5
107
100
AcDbEntity
100
AcDbLine
  8
0
 62
0
370
-1
  6
ByLayer
 10
102.3439999999999941
 20
22.6920999999999999
 30
0.0
 11
102.3439999999999941
 21
21.6628000000000007
 31
0.0
  0
LINE
  5
108
100
AcDbEntity
100
AcDbLine
  8
0
 62
0
370
-1
  6
ByLayer
 10
102.3439999999999941
 20
21.6628000000000007
 30
0.0
 11
88.3432999999999993
 21
21.6628000000000007
 31
0.0
  0
LINE
  5
109
100
AcDbEntity
100
AcDbLine
  8
0
 62
0
370
-1
  6
ByLayer
 10
88.3432999999999993
 20
21.6628000000000007
 30
0.0
 11
88.3432999999999993
 21
22.6920999999999999
 31
0.0
  0
LINE
  5
10A
100
AcDbEntity
100
AcDbLine
  8
0
 62
0
370
-1
  6
ByLayer
 10
88.3432999999999993
 20
22.6920999999999999
 30
0.0
 11
86.7681999999999931
 21
22.6920999999999999
 31
0.0
  0
LINE
  5
10B
100
AcDbEntity
100
AcDbLine
  8
0
 62
0
370
-1
  6
ByLayer
 10
86.7681999999999931
 20
22.6920999999999999
 30
0.0
 11
86.7681999999999931
 21
21.8929000000000009
 31
0.0
  0
LINE
  5
10C
100
AcDbEntity
100
AcDbLine
  8
0
 62
0
370
-1
  6
ByLayer
 10
86.7681999999999931
 20
21.8929000000000009
 30
0.0
 11
85.0441000000000003
 21
21.8929000000000009
 31
0.0
  0
LINE
  5
10D
100
AcDbEntity
100
AcDbLine
  8
0
 62
0
370
-1
  6
ByLayer
 10
85.0441000000000003
 20
21.8929000000000009
 30
0.0
 11
85.0441000000000003
 21
20.6925999999999988
 31
0.0
  0
LINE
  5
10E
100
AcDbEntity
100
AcDbLine
  8
0
 62
0
370
-1
  6
ByLayer
 10
85.0441000000000003
 20
20.6925999999999988
 30
0.0
 11
81.7438999999999965
 21
20.6925999999999988
 31
0.0
  0
LINE
  5
10F
100
AcDbEntity
100
AcDbLine
  8
0
 62
0
370
-1
  6
ByLayer
 10
81.7438999999999965
 20
20.6925999999999988
 30
0.0
 11
81.7438999999999965
 21
21.8929000000000009
 31
0.0
  0
LINE
  5
110
100
AcDbEntity
100
AcDbLine
  8
0
 62
0
370
-1
  6
ByLayer
 10
81.7438999999999965
 20
21.8929000000000009
 30
0.0
 11
80.1189999999999998
 21
21.8929000000000009
 31
0.0
  0
LINE
  5
111
100
AcDbEntity
100
AcDbLine
  8
0
 62
0
370
-1
  6
ByLayer
 10
80.1189999999999998
 20
21.8929000000000009
 30
0.0
 11
80.1189999999999998
 21
28.1616
 31
0.0
  0
LINE
  5
112
100
AcDbEntity
100
AcDbLine
  8
0
 62
0
370
-1
  6
ByLayer
 10
80.1189999999999998
 20
28.1616
 30
0.0
 11
79.2441000000000031
 21
28.1616
 31
0.0
  0
LINE
  5
113
100
AcDbEntity
100
AcDbLine
  8
0
 62
0
370
-1
  6
ByLayer
 10
79.2441000000000031
 20
28.1616
 30
0.0
 11
79.2441000000000031
 21
30.9631000000000007
 31
0.0
  0
LINE
  5
114
100
AcDbEntity
100
AcDbLine
  8
0
 62
0
370
-1
  6
ByLayer
 10
79.2441000000000031
 20
30.9631000000000007
 30
0.0
 11
80.1189999999999998
 21
30.9631000000000007
 31
0.0
  0
LINE
  5
115
100
AcDbEntity
100
AcDbLine
  8
0
 62
0
370
-1
  6
ByLayer
 10
80.1189999999999998
 20
30.9631000000000007
 30
0.0
 11
80.1189999999999998
 21
34.1918999999999969
 31
0.0
  0
LINE
  5
116
100
AcDbEntity
100
AcDbLine
  8
0
 62
0
370
-1
  6
ByLayer
 10
80.1189999999999998
 20
34.1918999999999969
 30
0.0
 11
86.7681999999999931
 21
34.1918999999999969
 31
0.0
  0
LINE
  5
117
100
AcDbEntity
100
AcDbLine
  8
0
 62
0
370
-1
  6
ByLayer
 10
86.7681999999999931
 20
34.1918999999999969
 30
0.0
 11
86.7681999999999931
 21
33.3926000000000016
 31
0.0
  0
LINE
  5
118
100
AcDbEntity
100
AcDbLine
  8
0
 62
0
370
-1
  6
ByLayer
 10
86.7681999999999931
 20
33.3926000000000016
 30
0.0
 11
88.3432999999999993
 21
33.3926000000000016
 31
0.0
  0
LINE
  5
119
100
AcDbEntity
100
AcDbLine
  8
0
 62
0
370
-1
  6
ByLayer
 10
88.3432999999999993
 20
33.3926000000000016
 30
0.0
 11
88.3432999999999993
 21
35.6623000000000019
 31
0.0
  0
LINE
  5
11A
100
AcDbEntity
100
AcDbLine
  8
0
 62
0
370
-1
  6
ByLayer
 10
88.3432999999999993
 20
35.6623000000000019
 30
0.0
 11
102.3439999999999941
 21
35.6623000000000019
 31
0.0
  0
LINE
  5
11B
100
AcDbEntity
100
AcDbLine
  8
0
 62
0
370
-1
  6
ByLayer
 10
102.3439999999999941
 20
35.6623000000000019
 30
0.0
 11
102.3439999999999941
 21
33.3926000000000016
 31
0.0
  0
LINE
  5
11C
100
AcDbEntity
100
AcDbLine
  8
0
 62
0
370
-1
  6
ByLayer
 10
102.3439999999999941
 20
33.3926000000000016
 30
0.0
 11
103.9189999999999969
 21
33.3926000000000016
 31
0.0
  0
LINE
  5
11D
100
AcDbEntity
100
AcDbLine
  8
0
 62
0
370
-1
  6
ByLayer
 10
103.9189999999999969
 20
33.3926000000000016
 30
0.0
 11
103.9189999999999969
 21
34.1918999999999969
 31
0.0
  0
LINE
  5
11E
100
AcDbEntity
100
AcDbLine
  8
0
 62
0
370
-1
  6
ByLayer
 10
103.9189999999999969
 20
34.1918999999999969
 30
0.0
 11
110.5679999999999978
 21
34.1918999999999969
 31
0.0
  0
LINE
  5
11F
100
AcDbEntity
100
AcDbLine
  8
0
 62
0
370
-1
  6
ByLayer
 10
110.5679999999999978
 20
34.1918999999999969
 30
0.0
 11
110.5679999999999978
 21
30.9631000000000007
 31
0.0
  0
LINE
  5
120
100
AcDbEntity
100
AcDbLine
  8
0
 62
0
370
-1
  6
ByLayer
 10
110.5679999999999978
 20
30.9631000000000007
 30
0.0
 11
111.4429999999999978
 21
30.9631000000000007
 31
0.0
  0
LINE
  5
121
100
AcDbEntity
100
AcDbLine
  8
0
 62
0
370
-1
  6
ByLayer
 10
111.4429999999999978
 20
30.9631000000000007
 30
0.0
 11
111.4429999999999978
 21
28.1616
 31
0.0
  0
LINE
  5
122
100
AcDbEntity
100
AcDbLine
  8
0
 62
0
370
-1
  6
ByLayer
 10
111.4429999999999978
 20
28.1616
 30
0.0
 11
110.5679999999999978
 21
28.1616
 31
0.0
  0
LINE
  5
123
100
AcDbEntity
100
AcDbLine
  8
0
 62
0
370
-1
  6
ByLayer
 10
97.868300000000005
 20
130.9120000000000061
 30
0.0
 11
111.8689999999999998
 21
130.9120000000000061
 31
0.0
  0
LINE
  5
124
100
AcDbEntity
100
AcDbLine
  8
0
 62
0
370
-1
  6
ByLayer
 10
111.8689999999999998
 20
130.9120000000000061
 30
0.0
 11
111.8689999999999998
 21
116.9110000000000014
 31
0.0
  0
LINE
  5
125
100
AcDbEntity
100
AcDbLine
  8
0
 62
0
370
-1
  6
ByLayer
 10
111.8689999999999998
 20
116.9110000000000014
 30
0.0
 11
97.868300000000005
 21
116.9110000000000014
 31
0.0
  0
LINE
  5
126
100
AcDbEntity
100
AcDbLine
  8
0
 62
0
370
-1
  6
ByLayer
 10
97.868300000000005
 20
116.9110000000000014
 30
0.0
 11
97.868300000000005
 21
130.9120000000000061
 31
0.0
  0
LINE
  5
127
100
AcDbEntity
100
AcDbLine
  8
0
 62
0
370
-1
  6
ByLayer
 10
97.868300000000005
 20
111.8619999999999948
 30
0.0
 11
111.8689999999999998
 21
111.8619999999999948
 31
0.0
  0
LINE
  5
128
100
AcDbEntity
100
AcDbLine
  8
0
 62
0
370
-1
  6
ByLayer
 10
111.8689999999999998
 20
111.8619999999999948
 30
0.0
 11
111.8689999999999998
 21
97.8613
 31
0.0
  0
LINE
  5
129
100
AcDbEntity
100
AcDbLine
  8
0
 62
0
370
-1
  6
ByLayer
 10
111.8689999999999998
 20
97.8613
 30
0.0
 11
97.868300000000005
 21
97.8613
 31
0.0
  0
LINE
  5
12A
100
AcDbEntity
100
AcDbLine
  8
0
 62
0
370
-1
  6
ByLayer
 10
97.868300000000005
 20
97.8613
 30
0.0
 11
97.868300000000005
 21
111.8619999999999948
 31
0.0
  0
LINE
  5
12B
100
AcDbEntity
100
AcDbLine
  8
0
 62
0
370
-1
  6
ByLayer
 10
97.868300000000005
 20
92.8122999999999934
 30
0.0
 11
111.8689999999999998
 21
92.8122999999999934
 31
0.0
  0
LINE
  5
12C
100
AcDbEntity
100
AcDbLine
  8
0
 62
0
370
-1
  6
ByLayer
 10
111.8689999999999998
 20
92.8122999999999934
 30
0.0
 11
111.8689999999999998
 21
78.8113000000000028
 31
0.0
  0
LINE
  5
12D
100
AcDbEntity
100
AcDbLine
  8
0
 62
0
370
-1
  6
ByLayer
 10
111.8689999999999998
 20
78.8113000000000028
 30
0.0
 11
97.868300000000005
 21
78.8113000000000028
 31
0.0
  0
LINE
  5
12E
100
AcDbEntity
100
AcDbLine
  8
0
 62
0
370
-1
  6
ByLayer
 10
97.868300000000005
 20
78.8113000000000028
 30
0.0
 11
97.868300000000005
 21
92.8122999999999934
 31
0.0
  0
LINE
  5
12F
100
AcDbEntity
100
AcDbLine
  8
0
 62
0
370
-1
  6
ByLayer
 10
97.868300000000005
 20
73.7622999999999962
 30
0.0
 11
111.8689999999999998
 21
73.7622999999999962
 31
0.0
  0
LINE
  5
130
100
AcDbEntity
100
AcDbLine
  8
0
 62
0
370
-1
  6
ByLayer
 10
111.8689999999999998
 20
73.7622999999999962
 30
0.0
 11
111.8689999999999998
 21
59.7612999999999985
 31
0.0
  0
LINE
  5
131
100
AcDbEntity
100
AcDbLine
  8
0
 62
0
370
-1
  6
ByLayer
 10
111.8689999999999998
 20
59.7612999999999985
 30
0.0
 11
97.868300000000005
 21
59.7612999999999985
 31
0.0
  0
LINE
  5
132
100
AcDbEntity
100
AcDbLine
  8
0
 62
0
370
-1
  6
ByLayer
 10
97.868300000000005
 20
59.7612999999999985
 30
0.0
 11
97.868300000000005
 21
73.7622999999999962
 31
0.0
  0
LINE
  5
133
100
AcDbEntity
100
AcDbLine
  8
0
 62
0
370
-1
  6
ByLayer
 10
97.868300000000005
 20
54.712299999999999
 30
0.0
 11
111.8689999999999998
 21
54.712299999999999
 31
0.0
  0
LINE
  5
134
100
AcDbEntity
100
AcDbLine
  8
0
 62
0
370
-1
  6
ByLayer
 10
111.8689999999999998
 20
54.712299999999999
 30
0.0
 11
111.8689999999999998
 21
40.7113000000000014
 31
0.0
  0
LINE
  5
135
100
AcDbEntity
100
AcDbLine
  8
0
 62
0
370
-1
  6
ByLayer
 10
111.8689999999999998
 20
40.7113000000000014
 30
0.0
 11
97.868300000000005
 21
40.7113000000000014
 31
0.0
  0
LINE
  5
136
100
AcDbEntity
100
AcDbLine
  8
0
 62
0
370
-1
  6
ByLayer
 10
97.868300000000005
 20
40.7113000000000014
 30
0.0
 11
97.868300000000005
 21
54.712299999999999
 31
0.0
  0
LINE
  5
137
100
AcDbEntity
100
AcDbLine
  8
0
 62
0
370
-1
  6
ByLayer
 10
116.9180000000000064
 20
130.9120000000000061
 30
0.0
 11
130.9190000000000111
 21
130.9120000000000061
 31
0.0
  0
LINE
  5
138
100
AcDbEntity
100
AcDbLine
  8
0
 62
0
370
-1
  6
ByLayer
 10
130.9190000000000111
 20
130.9120000000000061
 30
0.0
 11
130.9190000000000111
 21
116.9110000000000014
 31
0.0
  0
LINE
  5
139
100
AcDbEntity
100
AcDbLine
  8
0
 62
0
370
-1
  6
ByLayer
 10
130.9190000000000111
 20
116.9110000000000014
 30
0.0
 11
116.9180000000000064
 21
116.9110000000000014
 31
0.0
  0
LINE
  5
13A
100
AcDbEntity
100
AcDbLine
  8
0
 62
0
370
-1
  6
ByLayer
 10
116.9180000000000064
 20
116.9110000000000014
 30
0.0
 11
116.9180000000000064
 21
130.9120000000000061
 31
0.0
  0
LINE
  5
13B
100
AcDbEntity
100
AcDbLine
  8
0
 62
0
370
-1
  6
ByLayer
 10
128.6479999999999961
 20
88.3376999999999981
 30
0.0
 11
128.6479999999999961
 21
86.7625000000000028
 31
0.0
  0
LINE
  5
13C
100
AcDbEntity
100
AcDbLine
  8
0
 62
0
370
-1
  6
ByLayer
 10
128.6479999999999961
 20
86.7625000000000028
 30
0.0
 11
129.4490000000000123
 21
86.7625000000000028
 31
0.0
  0
LINE
  5
13D
100
AcDbEntity
100
AcDbLine
  8
0
 62
0
370
-1
  6
ByLayer
 10
129.4490000000000123
 20
86.7625000000000028
 30
0.0
 11
129.4490000000000123
 21
80.1123000000000047
 31
0.0
  0
LINE
  5
13E
100
AcDbEntity
100
AcDbLine
  8
0
 62
0
370
-1
  6
ByLayer
 10
129.4490000000000123
 20
80.1123000000000047
 30
0.0
 11
126.2189999999999941
 21
80.1123000000000047
 31
0.0
  0
LINE
  5
13F
100
AcDbEntity
100
AcDbLine
  8
0
 62
0
370
-1
  6
ByLayer
 10
126.2189999999999941
 20
80.1123000000000047
 30
0.0
 11
126.2189999999999941
 21
79.2385000000000019
 31
0.0
  0
LINE
  5
140
100
AcDbEntity
100
AcDbLine
  8
0
 62
0
370
-1
  6
ByLayer
 10
126.2189999999999941
 20
79.2385000000000019
 30
0.0
 11
123.4189999999999969
 21
79.2385000000000019
 31
0.0
  0
LINE
  5
141
100
AcDbEntity
100
AcDbLine
  8
0
 62
0
370
-1
  6
ByLayer
 10
123.4189999999999969
 20
79.2385000000000019
 30
0.0
 11
123.4189999999999969
 21
80.1123000000000047
 31
0.0
  0
LINE
  5
142
100
AcDbEntity
100
AcDbLine
  8
0
 62
0
370
-1
  6
ByLayer
 10
123.4189999999999969
 20
80.1123000000000047
 30
0.0
 11
117.1479999999999961
 21
80.1123000000000047
 31
0.0
  0
LINE
  5
143
100
AcDbEntity
100
AcDbLine
  8
0
 62
0
370
-1
  6
ByLayer
 10
117.1479999999999961
 20
80.1123000000000047
 30
0.0
 11
117.1479999999999961
 21
81.7382999999999953
 31
0.0
  0
LINE
  5
144
100
AcDbEntity
100
AcDbLine
  8
0
 62
0
370
-1
  6
ByLayer
 10
117.1479999999999961
 20
81.7382999999999953
 30
0.0
 11
115.9479999999999933
 21
81.7382999999999953
 31
0.0
  0
LINE
  5
145
100
AcDbEntity
100
AcDbLine
  8
0
 62
0
370
-1
  6
ByLayer
 10
115.9479999999999933
 20
81.7382999999999953
 30
0.0
 11
115.9479999999999933
 21
85.0387999999999948
 31
0.0
  0
LINE
  5
146
100
AcDbEntity
100
AcDbLine
  8
0
 62
0
370
-1
  6
ByLayer
 10
115.9479999999999933
 20
85.0387999999999948
 30
0.0
 11
117.1479999999999961
 21
85.0387999999999948
 31
0.0
  0
LINE
  5
147
100
AcDbEntity
100
AcDbLine
  8
0
 62
0
370
-1
  6
ByLayer
 10
117.1479999999999961
 20
85.0387999999999948
 30
0.0
 11
117.1479999999999961
 21
86.7625000000000028
 31
0.0
  0
LINE
  5
148
100
AcDbEntity
100
AcDbLine
  8
0
 62
0
370
-1
  6
ByLayer
 10
117.1479999999999961
 20
86.7625000000000028
 30
0.0
 11
117.9489999999999981
 21
86.7625000000000028
 31
0.0
  0
LINE
  5
149
100
AcDbEntity
100
AcDbLine
  8
0
 62
0
370
-1
  6
ByLayer
 10
117.9489999999999981
 20
86.7625000000000028
 30
0.0
 11
117.9489999999999981
 21
88.3376999999999981
 31
0.0
  0
LINE
  5
14A
100
AcDbEntity
100
AcDbLine
  8
0
 62
0
370
-1
  6
ByLayer
 10
117.9489999999999981
 20
88.3376999999999981
 30
0.0
 11
116.9180000000000064
 21
88.3376999999999981
 31
0.0
  0
LINE
  5
14B
100
AcDbEntity
100
AcDbLine
  8
0
 62
0
370
-1
  6
ByLayer
 10
116.9180000000000064
 20
88.3376999999999981
 30
0.0
 11
116.9180000000000064
 21
102.3370000000000033
 31
0.0
  0
LINE
  5
14C
100
AcDbEntity
100
AcDbLine
  8
0
 62
0
370
-1
  6
ByLayer
 10
116.9180000000000064
 20
102.3370000000000033
 30
0.0
 11
117.9489999999999981
 21
102.3370000000000033
 31
0.0
  0
LINE
  5
14D
100
AcDbEntity
100
AcDbLine
  8
0
 62
0
370
-1
  6
ByLayer
 10
117.9489999999999981
 20
102.3370000000000033
 30
0.0
 11
117.9489999999999981
 21
103.9140000000000015
 31
0.0
  0
LINE
  5
14E
100
AcDbEntity
100
AcDbLine
  8
0
 62
0
370
-1
  6
ByLayer
 10
117.9489999999999981
 20
103.9140000000000015
 30
0.0
 11
117.1479999999999961
 21
103.9140000000000015
 31
0.0
  0
LINE
  5
14F
100
AcDbEntity
100
AcDbLine
  8
0
 62
0
370
-1
  6
ByLayer
 10
117.1479999999999961
 20
103.9140000000000015
 30
0.0
 11
117.1479999999999961
 21
105.6380000000000052
 31
0.0
  0
LINE
  5
150
100
AcDbEntity
100
AcDbLine
  8
0
 62
0
370
-1
  6
ByLayer
 10
117.1479999999999961
 20
105.6380000000000052
 30
0.0
 11
115.9479999999999933
 21
105.6380000000000052
 31
0.0
  0
LINE
  5
151
100
AcDbEntity
100
AcDbLine
  8
0
 62
0
370
-1
  6
ByLayer
 10
115.9479999999999933
 20
105.6380000000000052
 30
0.0
 11
115.9479999999999933
 21
108.9369999999999976
 31
0.0
  0
LINE
  5
152
100
AcDbEntity
100
AcDbLine
  8
0
 62
0
370
-1
  6
ByLayer
 10
115.9479999999999933
 20
108.9369999999999976
 30
0.0
 11
117.1479999999999961
 21
108.9369999999999976
 31
0.0
  0
LINE
  5
153
100
AcDbEntity
100
AcDbLine
  8
0
 62
0
370
-1
  6
ByLayer
 10
117.1479999999999961
 20
108.9369999999999976
 30
0.0
 11
117.1479999999999961
 21
110.5630000000000024
 31
0.0
  0
LINE
  5
154
100
AcDbEntity
100
AcDbLine
  8
0
 62
0
370
-1
  6
ByLayer
 10
117.1479999999999961
 20
110.5630000000000024
 30
0.0
 11
123.4189999999999969
 21
110.5630000000000024
 31
0.0
  0
LINE
  5
155
100
AcDbEntity
100
AcDbLine
  8
0
 62
0
370
-1
  6
ByLayer
 10
123.4189999999999969
 20
110.5630000000000024
 30
0.0
 11
123.4189999999999969
 21
111.4380000000000024
 31
0.0
  0
LINE
  5
156
100
AcDbEntity
100
AcDbLine
  8
0
 62
0
370
-1
  6
ByLayer
 10
123.4189999999999969
 20
111.4380000000000024
 30
0.0
 11
126.2189999999999941
 21
111.4380000000000024
 31
0.0
  0
LINE
  5
157
100
AcDbEntity
100
AcDbLine
  8
0
 62
0
370
-1
  6
ByLayer
 10
126.2189999999999941
 20
111.4380000000000024
 30
0.0
 11
126.2189999999999941
 21
110.5630000000000024
 31
0.0
  0
LINE
  5
158
100
AcDbEntity
100
AcDbLine
  8
0
 62
0
370
-1
  6
ByLayer
 10
126.2189999999999941
 20
110.5630000000000024
 30
0.0
 11
129.4490000000000123
 21
110.5630000000000024
 31
0.0
  0
LINE
  5
159
100
AcDbEntity
100
AcDbLine
  8
0
 62
0
370
-1
  6
ByLayer
 10
129.4490000000000123
 20
110.5630000000000024
 30
0.0
 11
129.4490000000000123
 21
103.9140000000000015
 31
0.0
  0
LINE
  5
15A
100
AcDbEntity
100
AcDbLine
  8
0
 62
0
370
-1
  6
ByLayer
 10
129.4490000000000123
 20
103.9140000000000015
 30
0.0
 11
128.6479999999999961
 21
103.9140000000000015
 31
0.0
  0
LINE
  5
15B
100
AcDbEntity
100
AcDbLine
  8
0
 62
0
370
-1
  6
ByLayer
 10
128.6479999999999961
 20
103.9140000000000015
 30
0.0
 11
128.6479999999999961
 21
102.3370000000000033
 31
0.0
  0
LINE
  5
15C
100
AcDbEntity
100
AcDbLine
  8
0
 62
0
370
-1
  6
ByLayer
 10
128.6479999999999961
 20
102.3370000000000033
 30
0.0
 11
130.9190000000000111
 21
102.3370000000000033
 31
0.0
  0
LINE
  5
15D
100
AcDbEntity
100
AcDbLine
  8
0
 62
0
370
-1
  6
ByLayer
 10
130.9190000000000111
 20
102.3370000000000033
 30
0.0
 11
130.9190000000000111
 21
88.3376999999999981
 31
0.0
  0
LINE
  5
15E
100
AcDbEntity
100
AcDbLine
  8
0
 62
0
370
-1
  6
ByLayer
 10
130.9190000000000111
 20
88.3376999999999981
 30
0.0
 11
128.6479999999999961
 21
88.3376999999999981
 31
0.0
  0
LINE
  5
15F
100
AcDbEntity
100
AcDbLine
  8
0
 62
0
370
-1
  6
ByLayer
 10
128.6479999999999961
 20
50.2376999999999967
 30
0.0
 11
128.6479999999999961
 21
48.6625000000000014
 31
0.0
  0
LINE
  5
160
100
AcDbEntity
100
AcDbLine
  8
0
 62
0
370
-1
  6
ByLayer
 10
128.6479999999999961
 20
48.6625000000000014
 30
0.0
 11
129.4490000000000123
 21
48.6625000000000014
 31
0.0
  0
LINE
  5
161
100
AcDbEntity
100
AcDbLine
  8
0
 62
0
370
-1
  6
ByLayer
 10
129.4490000000000123
 20
48.6625000000000014
 30
0.0
 11
129.4490000000000123
 21
42.0123000000000033
 31
0.0
  0
LINE
  5
162
100
AcDbEntity
100
AcDbLine
  8
0
 62
0
370
-1
  6
ByLayer
 10
129.4490000000000123
 20
42.0123000000000033
 30
0.0
 11
126.2189999999999941
 21
42.0123000000000033
 31
0.0
  0
LINE
  5
163
100
AcDbEntity
100
AcDbLine
  8
0
 62
0
370
-1
  6
ByLayer
 10
126.2189999999999941
 20
42.0123000000000033
 30
0.0
 11
126.2189999999999941
 21
41.1385000000000005
 31
0.0
  0
LINE
  5
164
100
AcDbEntity
100
AcDbLine
  8
0
 62
0
370
-1
  6
ByLayer
 10
126.2189999999999941
 20
41.1385000000000005
 30
0.0
 11
123.4189999999999969
 21
41.1385000000000005
 31
0.0
  0
LINE
  5
165
100
AcDbEntity
100
AcDbLine
  8
0
 62
0
370
-1
  6
ByLayer
 10
123.4189999999999969
 20
41.1385000000000005
 30
0.0
 11
123.4189999999999969
 21
42.0123000000000033
 31
0.0
  0
LINE
  5
166
100
AcDbEntity
100
AcDbLine
  8
0
 62
0
370
-1
  6
ByLayer
 10
123.4189999999999969
 20
42.0123000000000033
 30
0.0
 11
117.1479999999999961
 21
42.0123000000000033
 31
0.0
  0
LINE
  5
167
100
AcDbEntity
100
AcDbLine
  8
0
 62
0
370
-1
  6
ByLayer
 10
117.1479999999999961
 20
42.0123000000000033
 30
0.0
 11
117.1479999999999961
 21
43.638300000000001
 31
0.0
  0
LINE
  5
168
100
AcDbEntity
100
AcDbLine
  8
0
 62
0
370
-1
  6
ByLayer
 10
117.1479999999999961
 20
43.638300000000001
 30
0.0
 11
115.9479999999999933
 21
43.638300000000001
 31
0.0
  0
LINE
  5
169
100
AcDbEntity
100
AcDbLine
  8
0
 62
0
370
-1
  6
ByLayer
 10
115.9479999999999933
 20
43.638300000000001
 30
0.0
 11
115.9479999999999933
 21
46.9388000000000005
 31
0.0
  0
LINE
  5
16A
100
AcDbEntity
100
AcDbLine
  8
0
 62
0
370
-1
  6
ByLayer
 10
115.9479999999999933
 20
46.9388000000000005
 30
0.0
 11
117.1479999999999961
 21
46.9388000000000005
 31
0.0
  0
LINE
  5
16B
100
AcDbEntity
100
AcDbLine
  8
0
 62
0
370
-1
  6
ByLayer
 10
117.1479999999999961
 20
46.9388000000000005
 30
0.0
 11
117.1479999999999961
 21
48.6625000000000014
 31
0.0
  0
LINE
  5
16C
100
AcDbEntity
100
AcDbLine
  8
0
 62
0
370
-1
  6
ByLayer
 10
117.1479999999999961
 20
48.6625000000000014
 30
0.0
 11
117.9489999999999981
 21
48.6625000000000014
 31
0.0
  0
LINE
  5
16D
100
AcDbEntity
100
AcDbLine
  8
0
 62
0
370
-1
  6
ByLayer
 10
117.9489999999999981
 20
48.6625000000000014
 30
0.0
 11
117.9489999999999981
 21
50.2376999999999967
 31
0.0
  0
LINE
  5
16E
100
AcDbEntity
100
AcDbLine
  8
0
 62
0
370
-1
  6
ByLayer
 10
117.9489999999999981
 20
50.2376999999999967
 30
0.0
 11
116.9180000000000064
 21
50.2376999999999967
 31
0.0
  0
LINE
  5
16F
100
AcDbEntity
100
AcDbLine
  8
0
 62
0
370
-1
  6
ByLayer
 10
116.9180000000000064
 20
50.2376999999999967
 30
0.0
 11
116.9180000000000064
 21
64.2373000000000047
 31
0.0
  0
LINE
  5
170
100
AcDbEntity
100
AcDbLine
  8
0
 62
0
370
-1
  6
ByLayer
 10
116.9180000000000064
 20
64.2373000000000047
 30
0.0
 11
117.9489999999999981
 21
64.2373000000000047
 31
0.0
  0
LINE
  5
171
100
AcDbEntity
100
AcDbLine
  8
0
 62
0
370
-1
  6
ByLayer
 10
117.9489999999999981
 20
64.2373000000000047
 30
0.0
 11
117.9489999999999981
 21
65.8139000000000038
 31
0.0
  0
LINE
  5
172
100
AcDbEntity
100
AcDbLine
  8
0
 62
0
370
-1
  6
ByLayer
 10
117.9489999999999981
 20
65.8139000000000038
 30
0.0
 11
117.1479999999999961
 21
65.8139000000000038
 31
0.0
  0
LINE
  5
173
100
AcDbEntity
100
AcDbLine
  8
0
 62
0
370
-1
  6
ByLayer
 10
117.1479999999999961
 20
65.8139000000000038
 30
0.0
 11
117.1479999999999961
 21
67.5374999999999943
 31
0.0
  0
LINE
  5
174
100
AcDbEntity
100
AcDbLine
  8
0
 62
0
370
-1
  6
ByLayer
 10
117.1479999999999961
 20
67.5374999999999943
 30
0.0
 11
115.9479999999999933
 21
67.5374999999999943
 31
0.0
  0
LINE
  5
175
100
AcDbEntity
100
AcDbLine
  8
0
 62
0
370
-1
  6
ByLayer
 10
115.9479999999999933
 20
67.5374999999999943
 30
0.0
 11
115.9479999999999933
 21
70.8366999999999933
 31
0.0
  0
LINE
  5
176
100
AcDbEntity
100
AcDbLine
  8
0
 62
0
370
-1
  6
ByLayer
 10
115.9479999999999933
 20
70.8366999999999933
 30
0.0
 11
117.1479999999999961
 21
70.8366999999999933
 31
0.0
  0
LINE
  5
177
100
AcDbEntity
100
AcDbLine
  8
0
 62
0
370
-1
  6
ByLayer
 10
117.1479999999999961
 20
70.8366999999999933
 30
0.0
 11
117.1479999999999961
 21
72.4626999999999981
 31
0.0
  0
LINE
  5
178
100
AcDbEntity
100
AcDbLine
  8
0
 62
0
370
-1
  6
ByLayer
 10
117.1479999999999961
 20
72.4626999999999981
 30
0.0
 11
123.4189999999999969
 21
72.4626999999999981
 31
0.0
  0
LINE
  5
179
100
AcDbEntity
100
AcDbLine
  8
0
 62
0
370
-1
  6
ByLayer
 10
123.4189999999999969
 20
72.4626999999999981
 30
0.0
 11
123.4189999999999969
 21
73.3365000000000009
 31
0.0
  0
LINE
  5
17A
100
AcDbEntity
100
AcDbLine
  8
0
 62
0
370
-1
  6
ByLayer
 10
123.4189999999999969
 20
73.3365000000000009
 30
0.0
 11
126.2189999999999941
 21
73.3365000000000009
 31
0.0
  0
LINE
  5
17B
100
AcDbEntity
100
AcDbLine
  8
0
 62
0
370
-1
  6
ByLayer
 10
126.2189999999999941
 20
73.3365000000000009
 30
0.0
 11
126.2189999999999941
 21
72.4626999999999981
 31
0.0
  0
LINE
  5
17C
100
AcDbEntity
100
AcDbLine
  8
0
 62
0
370
-1
  6
ByLayer
 10
126.2189999999999941
 20
72.4626999999999981
 30
0.0
 11
129.4490000000000123
 21
72.4626999999999981
 31
0.0
  0
LINE
  5
17D
100
AcDbEntity
100
AcDbLine
  8
0
 62
0
370
-1
  6
ByLayer
 10
129.4490000000000123
 20
72.4626999999999981
 30
0.0
 11
129.4490000000000123
 21
65.8139000000000038
 31
0.0
  0
LINE
  5
17E
100
AcDbEntity
100
AcDbLine
  8
0
 62
0
370
-1
  6
ByLayer
 10
129.4490000000000123
 20
65.8139000000000038
 30
0.0
 11
128.6479999999999961
 21
65.8139000000000038
 31
0.0
  0
LINE
  5
17F
100
AcDbEntity
100
AcDbLine
  8
0
 62
0
370
-1
  6
ByLayer
 10
128.6479999999999961
 20
65.8139000000000038
 30
0.0
 11
128.6479999999999961
 21
64.2373000000000047
 31
0.0
  0
LINE
  5
180
100
AcDbEntity
100
AcDbLine
  8
0
 62
0
370
-1
  6
ByLayer
 10
128.6479999999999961
 20
64.2373000000000047
 30
0.0
 11
130.9190000000000111
 21
64.2373000000000047
 31
0.0
  0
LINE
  5
181
100
AcDbEntity
100
AcDbLine
  8
0
 62
0
370
-1
  6
ByLayer
 10
130.9190000000000111
 20
64.2373000000000047
 30
0.0
 11
130.9190000000000111
 21
50.2376999999999967
 31
0.0
  0
LINE
  5
182
100
AcDbEntity
100
AcDbLine
  8
0
 62
0
370
-1
  6
ByLayer
 10
130.9190000000000111
 20
50.2376999999999967
 30
0.0
 11
128.6479999999999961
 21
50.2376999999999967
 31
0.0
  0
LINE
  5
183
100
AcDbEntity
100
AcDbLine
  8
0
 62
0
370
-1
  6
ByLayer
 10
128.6479999999999961
 20
10.5626999999999995
 30
0.0
 11
129.4490000000000123
 21
10.5626999999999995
 31
0.0
  0
LINE
  5
184
100
AcDbEntity
100
AcDbLine
  8
0
 62
0
370
-1
  6
ByLayer
 10
129.4490000000000123
 20
10.5626999999999995
 30
0.0
 11
129.4490000000000123
 21
3.9122300000000001
 31
0.0
  0
LINE
  5
185
100
AcDbEntity
100
AcDbLine
  8
0
 62
0
370
-1
  6
ByLayer
 10
129.4490000000000123
 20
3.9122300000000001
 30
0.0
 11
126.2189999999999941
 21
3.9122300000000001
 31
0.0
  0
LINE
  5
186
100
AcDbEntity
100
AcDbLine
  8
0
 62
0
370
-1
  6
ByLayer
 10
126.2189999999999941
 20
3.9122300000000001
 30
0.0
 11
126.2189999999999941
 21
3.03857
 31
0.0
  0
LINE
  5
187
100
AcDbEntity
100
AcDbLine
  8
0
 62
0
370
-1
  6
ByLayer
 10
126.2189999999999941
 20
3.03857
 30
0.0
 11
123.4189999999999969
 21
3.03857
 31
0.0
  0
LINE
  5
188
100
AcDbEntity
100
AcDbLine
  8
0
 62
0
370
-1
  6
ByLayer
 10
123.4189999999999969
 20
3.03857
 30
0.0
 11
123.4189999999999969
 21
3.9122300000000001
 31
0.0
  0
LINE
  5
189
100
AcDbEntity
100
AcDbLine
  8
0
 62
0
370
-1
  6
ByLayer
 10
123.4189999999999969
 20
3.9122300000000001
 30
0.0
 11
117.1479999999999961
 21
3.9122300000000001
 31
0.0
  0
LINE
  5
18A
100
AcDbEntity
100
AcDbLine
  8
0
 62
0
370
-1
  6
ByLayer
 10
117.1479999999999961
 20
3.9122300000000001
 30
0.0
 11
117.1479999999999961
 21
5.5383300000000002
 31
0.0
  0
LINE
  5
18B
100
AcDbEntity
100
AcDbLine
  8
0
 62
0
370
-1
  6
ByLayer
 10
117.1479999999999961
 20
5.5383300000000002
 30
0.0
 11
115.9479999999999933
 21
5.5383300000000002
 31
0.0
  0
LINE
  5
18C
100
AcDbEntity
100
AcDbLine
  8
0
 62
0
370
-1
  6
ByLayer
 10
115.9479999999999933
 20
5.5383300000000002
 30
0.0
 11
115.9479999999999933
 21
8.8387399999999996
 31
0.0
  0
LINE
  5
18D
100
AcDbEntity
100
AcDbLine
  8
0
 62
0
370
-1
  6
ByLayer
 10
115.9479999999999933
 20
8.8387399999999996
 30
0.0
 11
117.1479999999999961
 21
8.8387399999999996
 31
0.0
  0
LINE
  5
18E
100
AcDbEntity
100
AcDbLine
  8
0
 62
0
370
-1
  6
ByLayer
 10
117.1479999999999961
 20
8.8387399999999996
 30
0.0
 11
117.1479999999999961
 21
10.5626999999999995
 31
0.0
  0
LINE
  5
18F
100
AcDbEntity
100
AcDbLine
  8
0
 62
0
370
-1
  6
ByLayer
 10
117.1479999999999961
 20
10.5626999999999995
 30
0.0
 11
117.9489999999999981
 21
10.5626999999999995
 31
0.0
  0
LINE
  5
190
100
AcDbEntity
100
AcDbLine
  8
0
 62
0
370
-1
  6
ByLayer
 10
117.9489999999999981
 20
10.5626999999999995
 30
0.0
 11
117.9489999999999981
 21
12.1378000000000004
 31
0.0
  0
LINE
  5
191
100
AcDbEntity
100
AcDbLine
  8
0
 62
0
370
-1
  6
ByLayer
 10
117.9489999999999981
 20
12.1378000000000004
 30
0.0
 11
116.9180000000000064
 21
12.1378000000000004
 31
0.0
  0
LINE
  5
192
100
AcDbEntity
100
AcDbLine
  8
0
 62
0
370
-1
  6
ByLayer
 10
116.9180000000000064
 20
26.1372
 30
0.0
 11
117.9489999999999981
 21
26.1372
 31
0.0
  0
LINE
  5
193
100
AcDbEntity
100
AcDbLine
  8
0
 62
0
370
-1
  6
ByLayer
 10
117.9489999999999981
 20
26.1372
 30
0.0
 11
117.9489999999999981
 21
27.7136999999999993
 31
0.0
  0
LINE
  5
194
100
AcDbEntity
100
AcDbLine
  8
0
 62
0
370
-1
  6
ByLayer
 10
117.9489999999999981
 20
27.7136999999999993
 30
0.0
 11
117.1479999999999961
 21
27.7136999999999993
 31
0.0
  0
LINE
  5
195
100
AcDbEntity
100
AcDbLine
  8
0
 62
0
370
-1
  6
ByLayer
 10
117.1479999999999961
 20
27.7136999999999993
 30
0.0
 11
117.1479999999999961
 21
29.4375999999999998
 31
0.0
  0
LINE
  5
196
100
AcDbEntity
100
AcDbLine
  8
0
 62
0
370
-1
  6
ByLayer
 10
117.1479999999999961
 20
29.4375999999999998
 30
0.0
 11
115.9479999999999933
 21
29.4375999999999998
 31
0.0
  0
LINE
  5
197
100
AcDbEntity
100
AcDbLine
  8
0
 62
0
370
-1
  6
ByLayer
 10
115.9479999999999933
 20
29.4375999999999998
 30
0.0
 11
115.9479999999999933
 21
32.736699999999999
 31
0.0
  0
LINE
  5
198
100
AcDbEntity
100
AcDbLine
  8
0
 62
0
370
-1
  6
ByLayer
 10
115.9479999999999933
 20
32.736699999999999
 30
0.0
 11
117.1479999999999961
 21
32.736699999999999
 31
0.0
  0
LINE
  5
199
100
AcDbEntity
100
AcDbLine
  8
0
 62
0
370
-1
  6
ByLayer
 10
117.1479999999999961
 20
32.736699999999999
 30
0.0
 11
117.1479999999999961
 21
34.3628
 31
0.0
  0
LINE
  5
19A
100
AcDbEntity
100
AcDbLine
  8
0
 62
0
370
-1
  6
ByLayer
 10
117.1479999999999961
 20
34.3628
 30
0.0
 11
123.4189999999999969
 21
34.3628
 31
0.0
  0
LINE
  5
19B
100
AcDbEntity
100
AcDbLine
  8
0
 62
0
370
-1
  6
ByLayer
 10
123.4189999999999969
 20
34.3628
 30
0.0
 11
123.4189999999999969
 21
35.2364000000000033
 31
0.0
  0
LINE
  5
19C
100
AcDbEntity
100
AcDbLine
  8
0
 62
0
370
-1
  6
ByLayer
 10
123.4189999999999969
 20
35.2364000000000033
 30
0.0
 11
126.2189999999999941
 21
35.2364000000000033
 31
0.0
  0
LINE
  5
19D
100
AcDbEntity
100
AcDbLine
  8
0
 62
0
370
-1
  6
ByLayer
 10
126.2189999999999941
 20
35.2364000000000033
 30
0.0
 11
126.2189999999999941
 21
34.3628
 31
0.0
  0
LINE
  5
19E
100
AcDbEntity
100
AcDbLine
  8
0
 62
0
370
-1
  6
ByLayer
 10
126.2189999999999941
 20
34.3628
 30
0.0
 11
129.4490000000000123
 21
34.3628
 31
0.0
  0
LINE
  5
19F
100
AcDbEntity
100
AcDbLine
  8
0
 62
0
370
-1
  6
ByLayer
 10
129.4490000000000123
 20
34.3628
 30
0.0
 11
129.4490000000000123
 21
27.7136999999999993
 31
0.0
  0
LINE
  5
1A0
100
AcDbEntity
100
AcDbLine
  8
0
 62
0
370
-1
  6
ByLayer
 10
129.4490000000000123
 20
27.7136999999999993
 30
0.0
 11
128.6479999999999961
 21
27.7136999999999993
 31
0.0
  0
LINE
  5
1A1
100
AcDbEntity
100
AcDbLine
  8
0
 62
0
370
-1
  6
ByLayer
 10
128.6479999999999961
 20
27.7136999999999993
 30
0.0
 11
128.6479999999999961
 21
26.1372
 31
0.0
  0
LINE
  5
1A2
100
AcDbEntity
100
AcDbLine
  8
0
 62
0
370
-1
  6
ByLayer
 10
128.6479999999999961
 20
26.1372
 30
0.0
 11
130.9190000000000111
 21
26.1372
 31
0.0
  0
LINE
  5
1A3
100
AcDbEntity
100
AcDbLine
  8
0
 62
0
370
-1
  6
ByLayer
 10
130.9190000000000111
 20
26.1372
 30
0.0
 11
130.9190000000000111
 21
12.1378000000000004
 31
0.0
  0
LINE
  5
1A4
100
AcDbEntity
100
AcDbLine
  8
0
 62
0
370
-1
  6
ByLayer
 10
135.9679999999999893
 20
130.9120000000000061
 30
0.0
 11
149.9689999999999941
 21
130.9120000000000061
 31
0.0
  0
LINE
  5
1A5
100
AcDbEntity
100
AcDbLine
  8
0
 62
0
370
-1
  6
ByLayer
 10
149.9689999999999941
 20
130.9120000000000061
 30
0.0
 11
149.9689999999999941
 21
116.9110000000000014
 31
0.0
  0
LINE
  5
1A6
100
AcDbEntity
100
AcDbLine
  8
0
 62
0
370
-1
  6
ByLayer
 10
149.9689999999999941
 20
116.9110000000000014
 30
0.0
 11
135.9679999999999893
 21
116.9110000000000014
 31
0.0
  0
LINE
  5
1A7
100
AcDbEntity
100
AcDbLine
  8
0
 62
0
370
-1
  6
ByLayer
 10
135.9679999999999893
 20
116.9110000000000014
 30
0.0
 11
135.9679999999999893
 21
130.9120000000000061
 31
0.0
  0
LINE
  5
1A8
100
AcDbEntity
100
AcDbLine
  8
0
 62
0
370
-1
  6
ByLayer
 10
135.9679999999999893
 20
111.8619999999999948
 30
0.0
 11
149.9689999999999941
 21
111.8619999999999948
 31
0.0
  0
LINE
  5
1A9
100
AcDbEntity
100
AcDbLine
  8
0
 62
0
370
-1
  6
ByLayer
 10
149.9689999999999941
 20
111.8619999999999948
 30
0.0
 11
149.9689999999999941
 21
97.8613
 31
0.0
  0
LINE
  5
1AA
100
AcDbEntity
100
AcDbLine
  8
0
 62
0
370
-1
  6
ByLayer
 10
149.9689999999999941
 20
97.8613
 30
0.0
 11
135.9679999999999893
 21
97.8613
 31
0.0
  0
LINE
  5
1AB
100
AcDbEntity
100
AcDbLine
  8
0
 62
0
370
-1
  6
ByLayer
 10
135.9679999999999893
 20
97.8613
 30
0.0
 11
135.9679999999999893
 21
111.8619999999999948
 31
0.0
  0
LINE
  5
1AC
100
AcDbEntity
100
AcDbLine
  8
0
 62
0
370
-1
  6
ByLayer
 10
135.9679999999999893
 20
92.8122999999999934
 30
0.0
 11
149.9689999999999941
 21
92.8122999999999934
 31
0.0
  0
LINE
  5
1AD
100
AcDbEntity
100
AcDbLine
  8
0
 62
0
370
-1
  6
ByLayer
 10
149.9689999999999941
 20
92.8122999999999934
 30
0.0
 11
149.9689999999999941
 21
78.8113000000000028
 31
0.0
  0
LINE
  5
1AE
100
AcDbEntity
100
AcDbLine
  8
0
 62
0
370
-1
  6
ByLayer
 10
149.9689999999999941
 20
78.8113000000000028
 30
0.0
 11
135.9679999999999893
 21
78.8113000000000028
 31
0.0
  0
LINE
  5
1AF
100
AcDbEntity
100
AcDbLine
  8
0
 62
0
370
-1
  6
ByLayer
 10
135.9679999999999893
 20
78.8113000000000028
 30
0.0
 11
135.9679999999999893
 21
92.8122999999999934
 31
0.0
  0
LINE
  5
1B0
100
AcDbEntity
100
AcDbLine
  8
0
 62
0
370
-1
  6
ByLayer
 10
135.9679999999999893
 20
73.7622999999999962
 30
0.0
 11
149.9689999999999941
 21
73.7622999999999962
 31
0.0
  0
LINE
  5
1B1
100
AcDbEntity
100
AcDbLine
  8
0
 62
0
370
-1
  6
ByLayer
 10
149.9689999999999941
 20
73.7622999999999962
 30
0.0
 11
149.9689999999999941
 21
59.7612999999999985
 31
0.0
  0
LINE
  5
1B2
100
AcDbEntity
100
AcDbLine
  8
0
 62
0
370
-1
  6
ByLayer
 10
149.9689999999999941
 20
59.7612999999999985
 30
0.0
 11
135.9679999999999893
 21
59.7612999999999985
 31
0.0
  0
LINE
  5
1B3
100
AcDbEntity
100
AcDbLine
  8
0
 62
0
370
-1
  6
ByLayer
 10
135.9679999999999893
 20
59.7612999999999985
 30
0.0
 11
135.9679999999999893
 21
73.7622999999999962
 31
0.0
  0
LINE
  5
1B4
100
AcDbEntity
100
AcDbLine
  8
0
 62
0
370
-1
  6
ByLayer
 10
135.9679999999999893
 20
54.712299999999999
 30
0.0
 11
149.9689999999999941
 21
54.712299999999999
 31
0.0
  0
LINE
  5
1B5
100
AcDbEntity
100
AcDbLine
  8
0
 62
0
370
-1
  6
ByLayer
 10
149.9689999999999941
 20
54.712299999999999
 30
0.0
 11
149.9689999999999941
 21
40.7113000000000014
 31
0.0
  0
LINE
  5
1B6
100
AcDbEntity
100
AcDbLine
  8
0
 62
0
370
-1
  6
ByLayer
 10
149.9689999999999941
 20
40.7113000000000014
 30
0.0
 11
135.9679999999999893
 21
40.7113000000000014
 31
0.0
  0
LINE
  5
1B7
100
AcDbEntity
100
AcDbLine
  8
0
 62
0
370
-1
  6
ByLayer
 10
135.9679999999999893
 20
40.7113000000000014
 30
0.0
 11
135.9679999999999893
 21
54.712299999999999
 31
0.0
  0
LINE
  5
1B8
100
AcDbEntity
100
AcDbLine
  8
0
 62
0
370
-1
  6
ByLayer
 10
167.7179999999999893
 20
28.1616
 30
0.0
 11
167.7179999999999893
 21
21.8929000000000009
 31
0.0
  0
LINE
  5
1B9
100
AcDbEntity
100
AcDbLine
  8
0
 62
0
370
-1
  6
ByLayer
 10
167.7179999999999893
 20
21.8929000000000009
 30
0.0
 11
166.0929999999999893
 21
21.8929000000000009
 31
0.0
  0
LINE
  5
1BA
100
AcDbEntity
100
AcDbLine
  8
0
 62
0
370
-1
  6
ByLayer
 10
166.0929999999999893
 20
21.8929000000000009
 30
0.0
 11
166.0929999999999893
 21
20.6925999999999988
 31
0.0
  0
LINE
  5
1BB
100
AcDbEntity
100
AcDbLine
  8
0
 62
0
370
-1
  6
ByLayer
 10
166.0929999999999893
 20
20.6925999999999988
 30
0.0
 11
162.7930000000000064
 21
20.6925999999999988
 31
0.0
  0
LINE
  5
1BC
100
AcDbEntity
100
AcDbLine
  8
0
 62
0
370
-1
  6
ByLayer
 10
162.7930000000000064
 20
20.6925999999999988
 30
0.0
 11
162.7930000000000064
 21
21.8929000000000009
 31
0.0
  0
LINE
  5
1BD
100
AcDbEntity
100
AcDbLine
  8
0
 62
0
370
-1
  6
ByLayer
 10
162.7930000000000064
 20
21.8929000000000009
 30
0.0
 11
161.0689999999999884
 21
21.8929000000000009
 31
0.0
  0
LINE
  5
1BE
100
AcDbEntity
100
AcDbLine
  8
0
 62
0
370
-1
  6
ByLayer
 10
161.0689999999999884
 20
21.8929000000000009
 30
0.0
 11
161.0689999999999884
 21
22.6920999999999999
 31
0.0
  0
LINE
  5
1BF
100
AcDbEntity
100
AcDbLine
  8
0
 62
0
370
-1
  6
ByLayer
 10
161.0689999999999884
 20
22.6920999999999999
 30
0.0
 11
159.4939999999999998
 21
22.6920999999999999
 31
0.0
  0
LINE
  5
1C0
100
AcDbEntity
100
AcDbLine
  8
0
 62
0
370
-1
  6
ByLayer
 10
159.4939999999999998
 20
22.6920999999999999
 30
0.0
 11
159.4939999999999998
 21
21.6628000000000007
 31
0.0
  0
LINE
  5
1C1
100
AcDbEntity
100
AcDbLine
  8
0
 62
0
370
-1
  6
ByLayer
 10
159.4939999999999998
 20
21.6628000000000007
 30
0.0
 11
145.492999999999995
 21
21.6628000000000007
 31
0.0
  0
LINE
  5
1C2
100
AcDbEntity
100
AcDbLine
  8
0
 62
0
370
-1
  6
ByLayer
 10
145.492999999999995
 20
21.6628000000000007
 30
0.0
 11
145.492999999999995
 21
22.6920999999999999
 31
0.0
  0
LINE
  5
1C3
100
AcDbEntity
100
AcDbLine
  8
0
 62
0
370
-1
  6
ByLayer
 10
145.492999999999995
 20
22.6920999999999999
 30
0.0
 11
143.9180000000000064
 21
22.6920999999999999
 31
0.0
  0
LINE
  5
1C4
100
AcDbEntity
100
AcDbLine
  8
0
 62
0
370
-1
  6
ByLayer
 10
143.9180000000000064
 20
22.6920999999999999
 30
0.0
 11
143.9180000000000064
 21
21.8929000000000009
 31
0.0
  0
LINE
  5
1C5
100
AcDbEntity
100
AcDbLine
  8
0
 62
0
370
-1
  6
ByLayer
 10
143.9180000000000064
 20
21.8929000000000009
 30
0.0
 11
142.1939999999999884
 21
21.8929000000000009
 31
0.0
  0
LINE
  5
1C6
100
AcDbEntity
100
AcDbLine
  8
0
 62
0
370
-1
  6
ByLayer
 10
142.1939999999999884
 20
21.8929000000000009
 30
0.0
 11
142.1939999999999884
 21
20.6925999999999988
 31
0.0
  0
LINE
  5
1C7
100
AcDbEntity
100
AcDbLine
  8
0
 62
0
370
-1
  6
ByLayer
 10
142.1939999999999884
 20
20.6925999999999988
 30
0.0
 11
138.8940000000000055
 21
20.6925999999999988
 31
0.0
  0
LINE
  5
1C8
100
AcDbEntity
100
AcDbLine
  8
0
 62
0
370
-1
  6
ByLayer
 10
138.8940000000000055
 20
20.6925999999999988
 30
0.0
 11
138.8940000000000055
 21
21.8929000000000009
 31
0.0
  0
LINE
  5
1C9
100
AcDbEntity
100
AcDbLine
  8
0
 62
0
370
-1
  6
ByLayer
 10
138.8940000000000055
 20
21.8929000000000009
 30
0.0
 11
137.2690000000000055
 21
21.8929000000000009
 31
0.0
  0
LINE
  5
1CA
100
AcDbEntity
100
AcDbLine
  8
0
 62
0
370
-1
  6
ByLayer
 10
137.2690000000000055
 20
21.8929000000000009
 30
0.0
 11
137.2690000000000055
 21
28.1616
 31
0.0
  0
LINE
  5
1CB
100
AcDbEntity
100
AcDbLine
  8
0
 62
0
370
-1
  6
ByLayer
 10
137.2690000000000055
 20
28.1616
 30
0.0
 11
136.3940000000000055
 21
28.1616
 31
0.0
  0
LINE
  5
1CC
100
AcDbEntity
100
AcDbLine
  8
0
 62
0
370
-1
  6
ByLayer
 10
136.3940000000000055
 20
28.1616
 30
0.0
 11
136.3940000000000055
 21
30.9631000000000007
 31
0.0
  0
LINE
  5
1CD
100
AcDbEntity
100
AcDbLine
  8
0
 62
0
370
-1
  6
ByLayer
 10
136.3940000000000055
 20
30.9631000000000007
 30
0.0
 11
137.2690000000000055
 21
30.9631000000000007
 31
0.0
  0
LINE
  5
1CE
100
AcDbEntity
100
AcDbLine
  8
0
 62
0
370
-1
  6
ByLayer
 10
137.2690000000000055
 20
30.9631000000000007
 30
0.0
 11
137.2690000000000055
 21
34.1918999999999969
 31
0.0
  0
LINE
  5
1CF
100
AcDbEntity
100
AcDbLine
  8
0
 62
0
370
-1
  6
ByLayer
 10
137.2690000000000055
 20
34.1918999999999969
 30
0.0
 11
143.9180000000000064
 21
34.1918999999999969
 31
0.0
  0
LINE
  5
1D0
100
AcDbEntity
100
AcDbLine
  8
0
 62
0
370
-1
  6
ByLayer
 10
143.9180000000000064
 20
34.1918999999999969
 30
0.0
 11
143.9180000000000064
 21
33.3926000000000016
 31
0.0
  0
LINE
  5
1D1
100
AcDbEntity
100
AcDbLine
  8
0
 62
0
370
-1
  6
ByLayer
 10
143.9180000000000064
 20
33.3926000000000016
 30
0.0
 11
145.492999999999995
 21
33.3926000000000016
 31
0.0
  0
LINE
  5
1D2
100
AcDbEntity
100
AcDbLine
  8
0
 62
0
370
-1
  6
ByLayer
 10
145.492999999999995
 20
33.3926000000000016
 30
0.0
 11
145.492999999999995
 21
35.6623000000000019
 31
0.0
  0
LINE
  5
1D3
100
AcDbEntity
100
AcDbLine
  8
0
 62
0
370
-1
  6
ByLayer
 10
145.492999999999995
 20
35.6623000000000019
 30
0.0
 11
159.4939999999999998
 21
35.6623000000000019
 31
0.0
  0
LINE
  5
1D4
100
AcDbEntity
100
AcDbLine
  8
0
 62
0
370
-1
  6
ByLayer
 10
159.4939999999999998
 20
35.6623000000000019
 30
0.0
 11
159.4939999999999998
 21
33.3926000000000016
 31
0.0
  0
LINE
  5
1D5
100
AcDbEntity
100
AcDbLine
  8
0
 62
0
370
-1
  6
ByLayer
 10
159.4939999999999998
 20
33.3926000000000016
 30
0.0
 11
161.0689999999999884
 21
33.3926000000000016
 31
0.0
  0
LINE
  5
1D6
100
AcDbEntity
100
AcDbLine
  8
0
 62
0
370
-1
  6
ByLayer
 10
161.0689999999999884
 20
33.3926000000000016
 30
0.0
 11
161.0689999999999884
 21
34.1918999999999969
 31
0.0
  0
LINE
  5
1D7
100
AcDbEntity
100
AcDbLine
  8
0
 62
0
370
-1
  6
ByLayer
 10
161.0689999999999884
 20
34.1918999999999969
 30
0.0
 11
167.7179999999999893
 21
34.1918999999999969
 31
0.0
  0
LINE
  5
1D8
100
AcDbEntity
100
AcDbLine
  8
0
 62
0
370
-1
  6
ByLayer
 10
167.7179999999999893
 20
34.1918999999999969
 30
0.0
 11
167.7179999999999893
 21
30.9631000000000007
 31
0.0
  0
LINE
  5
1D9
100
AcDbEntity
100
AcDbLine
  8
0
 62
0
370
-1
  6
ByLayer
 10
167.7179999999999893
 20
30.9631000000000007
 30
0.0
 11
168.5929999999999893
 21
30.9631000000000007
 31
0.0
  0
LINE
  5
1DA
100
AcDbEntity
100
AcDbLine
  8
0
 62
0
370
-1
  6
ByLayer
 10
168.5929999999999893
 20
30.9631000000000007
 30
0.0
 11
168.5929999999999893
 21
28.1616
 31
0.0
  0
LINE
  5
1DB
100
AcDbEntity
100
AcDbLine
  8
0
 62
0
370
-1
  6
ByLayer
 10
168.5929999999999893
 20
28.1616
 30
0.0
 11
167.7179999999999893
 21
28.1616
 31
0.0
  0
LINE
  5
1DC
100
AcDbEntity
100
AcDbLine
  8
0
 62
0
370
-1
  6
ByLayer
 10
155.0180000000000007
 20
130.9120000000000061
 30
0.0
 11
169.0190000000000055
 21
130.9120000000000061
 31
0.0
  0
LINE
  5
1DD
100
AcDbEntity
100
AcDbLine
  8
0
 62
0
370
-1
  6
ByLayer
 10
169.0190000000000055
 20
130.9120000000000061
 30
0.0
 11
169.0190000000000055
 21
116.9110000000000014
 31
0.0
  0
LINE
  5
1DE
100
AcDbEntity
100
AcDbLine
  8
0
 62
0
370
-1
  6
ByLayer
 10
169.0190000000000055
 20
116.9110000000000014
 30
0.0
 11
155.0180000000000007
 21
116.9110000000000014
 31
0.0
  0
LINE
  5
1DF
100
AcDbEntity
100
AcDbLine
  8
0
 62
0
370
-1
  6
ByLayer
 10
155.0180000000000007
 20
116.9110000000000014
 30
0.0
 11
155.0180000000000007
 21
130.9120000000000061
 31
0.0
  0
LINE
  5
1E0
100
AcDbEntity
100
AcDbLine
  8
0
 62
0
370
-1
  6
ByLayer
 10
155.0180000000000007
 20
111.8619999999999948
 30
0.0
 11
169.0190000000000055
 21
111.8619999999999948
 31
0.0
  0
LINE
  5
1E1
100
AcDbEntity
100
AcDbLine
  8
0
 62
0
370
-1
  6
ByLayer
 10
169.0190000000000055
 20
111.8619999999999948
 30
0.0
 11
169.0190000000000055
 21
97.8613
 31
0.0
  0
LINE
  5
1E2
100
AcDbEntity
100
AcDbLine
  8
0
 62
0
370
-1
  6
ByLayer
 10
169.0190000000000055
 20
97.8613
 30
0.0
 11
155.0180000000000007
 21
97.8613
 31
0.0
  0
LINE
  5
1E3
100
AcDbEntity
100
AcDbLine
  8
0
 62
0
370
-1
  6
ByLayer
 10
155.0180000000000007
 20
97.8613
 30
0.0
 11
155.0180000000000007
 21
111.8619999999999948
 31
0.0
  0
LINE
  5
1E4
100
AcDbEntity
100
AcDbLine
  8
0
 62
0
370
-1
  6
ByLayer
 10
155.0180000000000007
 20
92.8122999999999934
 30
0.0
 11
169.0190000000000055
 21
92.8122999999999934
 31
0.0
  0
LINE
  5
1E5
100
AcDbEntity
100
AcDbLine
  8
0
 62
0
370
-1
  6
ByLayer
 10
169.0190000000000055
 20
92.8122999999999934
 30
0.0
 11
169.0190000000000055
 21
78.8113000000000028
 31
0.0
  0
LINE
  5
1E6
100
AcDbEntity
100
AcDbLine
  8
0
 62
0
370
-1
  6
ByLayer
 10
169.0190000000000055
 20
78.8113000000000028
 30
0.0
 11
155.0180000000000007
 21
78.8113000000000028
 31
0.0
  0
LINE
  5
1E7
100
AcDbEntity
100
AcDbLine
  8
0
 62
0
370
-1
  6
ByLayer
 10
155.0180000000000007
 20
78.8113000000000028
 30
0.0
 11
155.0180000000000007
 21
92.8122999999999934
 31
0.0
  0
LINE
  5
1E8
100
AcDbEntity
100
AcDbLine
  8
0
 62
0
370
-1
  6
ByLayer
 10
155.0180000000000007
 20
73.7622999999999962
 30
0.0
 11
169.0190000000000055
 21
73.7622999999999962
 31
0.0
  0
LINE
  5
1E9
100
AcDbEntity
100
AcDbLine
  8
0
 62
0
370
-1
  6
ByLayer
 10
169.0190000000000055
 20
73.7622999999999962
 30
0.0
 11
169.0190000000000055
 21
59.7612999999999985
 31
0.0
  0
LINE
  5
1EA
100
AcDbEntity
100
AcDbLine
  8
0
 62
0
370
-1
  6
ByLayer
 10
169.0190000000000055
 20
59.7612999999999985
 30
0.0
 11
155.0180000000000007
 21
59.7612999999999985
 31
0.0
  0
LINE
  5
1EB
100
AcDbEntity
100
AcDbLine
  8
0
 62
0
370
-1
  6
ByLayer
 10
155.0180000000000007
 20
59.7612999999999985
 30
0.0
 11
155.0180000000000007
 21
73.7622999999999962
 31
0.0
  0
LINE
  5
1EC
100
AcDbEntity
100
AcDbLine
  8
0
 62
0
370
-1
  6
ByLayer
 10
155.0180000000000007
 20
54.712299999999999
 30
0.0
 11
169.0190000000000055
 21
54.712299999999999
 31
0.0
  0
LINE
  5
1ED
100
AcDbEntity
100
AcDbLine
  8
0
 62
0
370
-1
  6
ByLayer
 10
169.0190000000000055
 20
54.712299999999999
 30
0.0
 11
169.0190000000000055
 21
40.7113000000000014
 31
0.0
  0
LINE
  5
1EE
100
AcDbEntity
100
AcDbLine
  8
0
 62
0
370
-1
  6
ByLayer
 10
169.0190000000000055
 20
40.7113000000000014
 30
0.0
 11
155.0180000000000007
 21
40.7113000000000014
 31
0.0
  0
LINE
  5
1EF
100
AcDbEntity
100
AcDbLine
  8
0
 62
0
370
-1
  6
ByLayer
 10
155.0180000000000007
 20
40.7113000000000014
 30
0.0
 11
155.0180000000000007
 21
54.712299999999999
 31
0.0
  0
LINE
  5
1F0
100
AcDbEntity
100
AcDbLine
  8
0
 62
0
370
-1
  6
ByLayer
 10
174.0680000000000121
 20
35.6623000000000019
 30
0.0
 11
188.0689999999999884
 21
35.6623000000000019
 31
0.0
  0
LINE
  5
1F1
100
AcDbEntity
100
AcDbLine
  8
0
 62
0
370
-1
  6
ByLayer
 10
188.0689999999999884
 20
35.6623000000000019
 30
0.0
 11
188.0689999999999884
 21
21.6614000000000004
 31
0.0
  0
LINE
  5
1F2
100
AcDbEntity
100
AcDbLine
  8
0
 62
0
370
-1
  6
ByLayer
 10
188.0689999999999884
 20
21.6614000000000004
 30
0.0
 11
174.0680000000000121
 21
21.6614000000000004
 31
0.0
  0
LINE
  5
1F3
100
AcDbEntity
100
AcDbLine
  8
0
 62
0
370
-1
  6
ByLayer
 10
174.0680000000000121
 20
21.6614000000000004
 30
0.0
 11
174.0680000000000121
 21
35.6623000000000019
 31
0.0
  0
LINE
  5
1F4
100
AcDbEntity
100
AcDbLine
  8
0
 62
0
370
-1
  6
ByLayer
 10
174.0680000000000121
 20
130.9120000000000061
 30
0.0
 11
188.0689999999999884
 21
130.9120000000000061
 31
0.0
  0
LINE
  5
1F5
100
AcDbEntity
100
AcDbLine
  8
0
 62
0
370
-1
  6
ByLayer
 10
188.0689999999999884
 20
130.9120000000000061
 30
0.0
 11
188.0689999999999884
 21
116.9110000000000014
 31
0.0
  0
LINE
  5
1F6
100
AcDbEntity
100
AcDbLine
  8
0
 62
0
370
-1
  6
ByLayer
 10
188.0689999999999884
 20
116.9110000000000014
 30
0.0
 11
174.0680000000000121
 21
116.9110000000000014
 31
0.0
  0
LINE
  5
1F7
100
AcDbEntity
100
AcDbLine
  8
0
 62
0
370
-1
  6
ByLayer
 10
174.0680000000000121
 20
116.9110000000000014
 30
0.0
 11
174.0680000000000121
 21
130.9120000000000061
 31
0.0
  0
LINE
  5
1F8
100
AcDbEntity
100
AcDbLine
  8
0
 62
0
370
-1
  6
ByLayer
 10
174.0680000000000121
 20
111.8619999999999948
 30
0.0
 11
188.0689999999999884
 21
111.8619999999999948
 31
0.0
  0
LINE
  5
1F9
100
AcDbEntity
100
AcDbLine
  8
0
 62
0
370
-1
  6
ByLayer
 10
188.0689999999999884
 20
111.8619999999999948
 30
0.0
 11
188.0689999999999884
 21
97.8613
 31
0.0
  0
LINE
  5
1FA
100
AcDbEntity
100
AcDbLine
  8
0
 62
0
370
-1
  6
ByLayer
 10
188.0689999999999884
 20
97.8613
 30
0.0
 11
174.0680000000000121
 21
97.8613
 31
0.0
  0
LINE
  5
1FB
100
AcDbEntity
100
AcDbLine
  8
0
 62
0
370
-1
  6
ByLayer
 10
174.0680000000000121
 20
97.8613
 30
0.0
 11
174.0680000000000121
 21
111.8619999999999948
 31
0.0
  0
LINE
  5
1FC
100
AcDbEntity
100
AcDbLine
  8
0
 62
0
370
-1
  6
ByLayer
 10
174.0680000000000121
 20
92.8122999999999934
 30
0.0
 11
188.0689999999999884
 21
92.8122999999999934
 31
0.0
  0
LINE
  5
1FD
100
AcDbEntity
100
AcDbLine
  8
0
 62
0
370
-1
  6
ByLayer
 10
188.0689999999999884
 20
92.8122999999999934
 30
0.0
 11
188.0689999999999884
 21
78.8113000000000028
 31
0.0
  0
LINE
  5
1FE
100
AcDbEntity
100
AcDbLine
  8
0
 62
0
370
-1
  6
ByLayer
 10
188.0689999999999884
 20
78.8113000000000028
 30
0.0
 11
174.0680000000000121
 21
78.8113000000000028
 31
0.0
  0
LINE
  5
1FF
100
AcDbEntity
100
AcDbLine
  8
0
 62
0
370
-1
  6
ByLayer
 10
174.0680000000000121
 20
78.8113000000000028
 30
0.0
 11
174.0680000000000121
 21
92.8122999999999934
 31
0.0
  0
LINE
  5
200
100
AcDbEntity
100
AcDbLine
  8
0
 62
0
370
-1
  6
ByLayer
 10
174.0680000000000121
 20
73.7622999999999962
 30
0.0
 11
188.0689999999999884
 21
73.7622999999999962
 31
0.0
  0
LINE
  5
201
100
AcDbEntity
100
AcDbLine
  8
0
 62
0
370
-1
  6
ByLayer
 10
188.0689999999999884
 20
73.7622999999999962
 30
0.0
 11
188.0689999999999884
 21
59.7612999999999985
 31
0.0
  0
LINE
  5
202
100
AcDbEntity
100
AcDbLine
  8
0
 62
0
370
-1
  6
ByLayer
 10
188.0689999999999884
 20
59.7612999999999985
 30
0.0
 11
174.0680000000000121
 21
59.7612999999999985
 31
0.0
  0
LINE
  5
203
100
AcDbEntity
100
AcDbLine
  8
0
 62
0
370
-1
  6
ByLayer
 10
174.0680000000000121
 20
59.7612999999999985
 30
0.0
 11
174.0680000000000121
 21
73.7622999999999962
 31
0.0
  0
LINE
  5
204
100
AcDbEntity
100
AcDbLine
  8
0
 62
0
370
-1
  6
ByLayer
 10
174.0680000000000121
 20
54.712299999999999
 30
0.0
 11
188.0689999999999884
 21
54.712299999999999
 31
0.0
  0
LINE
  5
205
100
AcDbEntity
100
AcDbLine
  8
0
 62
0
370
-1
  6
ByLayer
 10
188.0689999999999884
 20
54.712299999999999
 30
0.0
 11
188.0689999999999884
 21
40.7113000000000014
 31
0.0
  0
LINE
  5
206
100
AcDbEntity
100
AcDbLine
  8
0
 62
0
370
-1
  6
ByLayer
 10
188.0689999999999884
 20
40.7113000000000014
 30
0.0
 11
174.0680000000000121
 21
40.7113000000000014
 31
0.0
  0
LINE
  5
207
100
AcDbEntity
100
AcDbLine
  8
0
 62
0
370
-1
  6
ByLayer
 10
174.0680000000000121
 20
40.7113000000000014
 30
0.0
 11
174.0680000000000121
 21
54.712299999999999
 31
0.0
  0
LINE
  5
208
100
AcDbEntity
100
AcDbLine
  8
0
 62
0
370
-1
  6
ByLayer
 10
174.0680000000000121
 20
16.6122000000000014
 30
0.0
 11
188.0689999999999884
 21
16.6122000000000014
 31
0.0
  0
LINE
  5
209
100
AcDbEntity
100
AcDbLine
  8
0
 62
0
370
-1
  6
ByLayer
 10
188.0689999999999884
 20
16.6122000000000014
 30
0.0
 11
188.0689999999999884
 21
2.61138
 31
0.0
  0
LINE
  5
20A
100
AcDbEntity
100
AcDbLine
  8
0
 62
0
370
-1
  6
ByLayer
 10
188.0689999999999884
 20
2.61138
 30
0.0
 11
174.0680000000000121
 21
2.61138
 31
0.0
  0
LINE
  5
20B
100
AcDbEntity
100
AcDbLine
  8
0
 62
0
370
-1
  6
ByLayer
 10
174.0680000000000121
 20
2.61138
 30
0.0
 11
174.0680000000000121
 21
16.6122000000000014
 31
0.0
  0
LINE
  5
20C
100
AcDbEntity
100
AcDbLine
  8
0
 62
0
370
-1
  6
ByLayer
 10
193.117999999999995
 20
35.6623000000000019
 30
0.0
 11
207.1189999999999998
 21
35.6623000000000019
 31
0.0
  0
LINE
  5
20D
100
AcDbEntity
100
AcDbLine
  8
0
 62
0
370
-1
  6
ByLayer
 10
207.1189999999999998
 20
35.6623000000000019
 30
0.0
 11
207.1189999999999998
 21
21.6614000000000004
 31
0.0
  0
LINE
  5
20E
100
AcDbEntity
100
AcDbLine
  8
0
 62
0
370
-1
  6
ByLayer
 10
207.1189999999999998
 20
21.6614000000000004
 30
0.0
 11
193.117999999999995
 21
21.6614000000000004
 31
0.0
  0
LINE
  5
20F
100
AcDbEntity
100
AcDbLine
  8
0
 62
0
370
-1
  6
ByLayer
 10
193.117999999999995
 20
21.6614000000000004
 30
0.0
 11
193.117999999999995
 21
35.6623000000000019
 31
0.0
  0
LINE
  5
210
100
AcDbEntity
100
AcDbLine
  8
0
 62
0
370
-1
  6
ByLayer
 10
193.117999999999995
 20
130.9120000000000061
 30
0.0
 11
207.1189999999999998
 21
130.9120000000000061
 31
0.0
  0
LINE
  5
211
100
AcDbEntity
100
AcDbLine
  8
0
 62
0
370
-1
  6
ByLayer
 10
207.1189999999999998
 20
130.9120000000000061
 30
0.0
 11
207.1189999999999998
 21
116.9110000000000014
 31
0.0
  0
LINE
  5
212
100
AcDbEntity
100
AcDbLine
  8
0
 62
0
370
-1
  6
ByLayer
 10
207.1189999999999998
 20
116.9110000000000014
 30
0.0
 11
193.117999999999995
 21
116.9110000000000014
 31
0.0
  0
LINE
  5
213
100
AcDbEntity
100
AcDbLine
  8
0
 62
0
370
-1
  6
ByLayer
 10
193.117999999999995
 20
116.9110000000000014
 30
0.0
 11
193.117999999999995
 21
130.9120000000000061
 31
0.0
  0
LINE
  5
214
100
AcDbEntity
100
AcDbLine
  8
0
 62
0
370
-1
  6
ByLayer
 10
193.117999999999995
 20
111.8619999999999948
 30
0.0
 11
207.1189999999999998
 21
111.8619999999999948
 31
0.0
  0
LINE
  5
215
100
AcDbEntity
100
AcDbLine
  8
0
 62
0
370
-1
  6
ByLayer
 10
207.1189999999999998
 20
111.8619999999999948
 30
0.0
 11
207.1189999999999998
 21
97.8613
 31
0.0
  0
LINE
  5
216
100
AcDbEntity
100
AcDbLine
  8
0
 62
0
370
-1
  6
ByLayer
 10
207.1189999999999998
 20
97.8613
 30
0.0
 11
193.117999999999995
 21
97.8613
 31
0.0
  0
LINE
  5
217
100
AcDbEntity
100
AcDbLine
  8
0
 62
0
370
-1
  6
ByLayer
 10
193.117999999999995
 20
97.8613
 30
0.0
 11
193.117999999999995
 21
111.8619999999999948
 31
0.0
  0
LINE
  5
218
100
AcDbEntity
100
AcDbLine
  8
0
 62
0
370
-1
  6
ByLayer
 10
193.117999999999995
 20
92.8122999999999934
 30
0.0
 11
207.1189999999999998
 21
92.8122999999999934
 31
0.0
  0
LINE
  5
219
100
AcDbEntity
100
AcDbLine
  8
0
 62
0
370
-1
  6
ByLayer
 10
207.1189999999999998
 20
92.8122999999999934
 30
0.0
 11
207.1189999999999998
 21
78.8113000000000028
 31
0.0
  0
LINE
  5
21A
100
AcDbEntity
100
AcDbLine
  8
0
 62
0
370
-1
  6
ByLayer
 10
207.1189999999999998
 20
78.8113000000000028
 30
0.0
 11
193.117999999999995
 21
78.8113000000000028
 31
0.0
  0
LINE
  5
21B
100
AcDbEntity
100
AcDbLine
  8
0
 62
0
370
-1
  6
ByLayer
 10
193.117999999999995
 20
78.8113000000000028
 30
0.0
 11
193.117999999999995
 21
92.8122999999999934
 31
0.0
  0
LINE
  5
21C
100
AcDbEntity
100
AcDbLine
  8
0
 62
0
370
-1
  6
ByLayer
 10
193.117999999999995
 20
73.7622999999999962
 30
0.0
 11
207.1189999999999998
 21
73.7622999999999962
 31
0.0
  0
LINE
  5
21D
100
AcDbEntity
100
AcDbLine
  8
0
 62
0
370
-1
  6
ByLayer
 10
207.1189999999999998
 20
73.7622999999999962
 30
0.0
 11
207.1189999999999998
 21
59.7612999999999985
 31
0.0
  0
LINE
  5
21E
100
AcDbEntity
100
AcDbLine
  8
0
 62
0
370
-1
  6
ByLayer
 10
207.1189999999999998
 20
59.7612999999999985
 30
0.0
 11
193.117999999999995
 21
59.7612999999999985
 31
0.0
  0
LINE
  5
21F
100
AcDbEntity
100
AcDbLine
  8
0
 62
0
370
-1
  6
ByLayer
 10
193.117999999999995
 20
59.7612999999999985
 30
0.0
 11
193.117999999999995
 21
73.7622999999999962
 31
0.0
  0
LINE
  5
220
100
AcDbEntity
100
AcDbLine
  8
0
 62
0
370
-1
  6
ByLayer
 10
193.117999999999995
 20
54.712299999999999
 30
0.0
 11
207.1189999999999998
 21
54.712299999999999
 31
0.0
  0
LINE
  5
221
100
AcDbEntity
100
AcDbLine
  8
0
 62
0
370
-1
  6
ByLayer
 10
207.1189999999999998
 20
54.712299999999999
 30
0.0
 11
207.1189999999999998
 21
40.7113000000000014
 31
0.0
  0
LINE
  5
222
100
AcDbEntity
100
AcDbLine
  8
0
 62
0
370
-1
  6
ByLayer
 10
207.1189999999999998
 20
40.7113000000000014
 30
0.0
 11
193.117999999999995
 21
40.7113000000000014
 31
0.0
  0
LINE
  5
223
100
AcDbEntity
100
AcDbLine
  8
0
 62
0
370
-1
  6
ByLayer
 10
193.117999999999995
 20
40.7113000000000014
 30
0.0
 11
193.117999999999995
 21
54.712299999999999
 31
0.0
  0
LINE
  5
224
100
AcDbEntity
100
AcDbLine
  8
0
 62
0
370
-1
  6
ByLayer
 10
193.117999999999995
 20
16.6122000000000014
 30
0.0
 11
207.1189999999999998
 21
16.6122000000000014
 31
0.0
  0
LINE
  5
225
100
AcDbEntity
100
AcDbLine
  8
0
 62
0
370
-1
  6
ByLayer
 10
207.1189999999999998
 20
16.6122000000000014
 30
0.0
 11
207.1189999999999998
 21
2.61138
 31
0.0
  0
LINE
  5
226
100
AcDbEntity
100
AcDbLine
  8
0
 62
0
370
-1
  6
ByLayer
 10
207.1189999999999998
 20
2.61138
 30
0.0
 11
193.117999999999995
 21
2.61138
 31
0.0
  0
LINE
  5
227
100
AcDbEntity
100
AcDbLine
  8
0
 62
0
370
-1
  6
ByLayer
 10
193.117999999999995
 20
2.61138
 30
0.0
 11
193.117999999999995
 21
16.6122000000000014
 31
0.0
  0
LINE
  5
228
100
AcDbEntity
100
AcDbLine
  8
0
 62
0
370
-1
  6
ByLayer
 10
212.1680000000000064
 20
35.6623000000000019
 30
0.0
 11
226.1690000000000111
 21
35.6623000000000019
 31
0.0
  0
LINE
  5
229
100
AcDbEntity
100
AcDbLine
  8
0
 62
0
370
-1
  6
ByLayer
 10
226.1690000000000111
 20
35.6623000000000019
 30
0.0
 11
226.1690000000000111
 21
21.6614000000000004
 31
0.0
  0
LINE
  5
22A
100
AcDbEntity
100
AcDbLine
  8
0
 62
0
370
-1
  6
ByLayer
 10
226.1690000000000111
 20
21.6614000000000004
 30
0.0
 11
212.1680000000000064
 21
21.6614000000000004
 31
0.0
  0
LINE
  5
22B
100
AcDbEntity
100
AcDbLine
  8
0
 62
0
370
-1
  6
ByLayer
 10
212.1680000000000064
 20
21.6614000000000004
 30
0.0
 11
212.1680000000000064
 21
35.6623000000000019
 31
0.0
  0
LINE
  5
22C
100
AcDbEntity
100
AcDbLine
  8
0
 62
0
370
-1
  6
ByLayer
 10
212.1680000000000064
 20
130.9120000000000061
 30
0.0
 11
226.1690000000000111
 21
130.9120000000000061
 31
0.0
  0
LINE
  5
22D
100
AcDbEntity
100
AcDbLine
  8
0
 62
0
370
-1
  6
ByLayer
 10
226.1690000000000111
 20
130.9120000000000061
 30
0.0
 11
226.1690000000000111
 21
116.9110000000000014
 31
0.0
  0
LINE
  5
22E
100
AcDbEntity
100
AcDbLine
  8
0
 62
0
370
-1
  6
ByLayer
 10
226.1690000000000111
 20
116.9110000000000014
 30
0.0
 11
212.1680000000000064
 21
116.9110000000000014
 31
0.0
  0
LINE
  5
22F
100
AcDbEntity
100
AcDbLine
  8
0
 62
0
370
-1
  6
ByLayer
 10
212.1680000000000064
 20
116.9110000000000014
 30
0.0
 11
212.1680000000000064
 21
130.9120000000000061
 31
0.0
  0
LINE
  5
230
100
AcDbEntity
100
AcDbLine
  8
0
 62
0
370
-1
  6
ByLayer
 10
212.1680000000000064
 20
111.8619999999999948
 30
0.0
 11
226.1690000000000111
 21
111.8619999999999948
 31
0.0
  0
LINE
  5
231
100
AcDbEntity
100
AcDbLine
  8
0
 62
0
370
-1
  6
ByLayer
 10
226.1690000000000111
 20
111.8619999999999948
 30
0.0
 11
226.1690000000000111
 21
97.8613
 31
0.0
  0
LINE
  5
232
100
AcDbEntity
100
AcDbLine
  8
0
 62
0
370
-1
  6
ByLayer
 10
226.1690000000000111
 20
97.8613
 30
0.0
 11
212.1680000000000064
 21
97.8613
 31
0.0
  0
LINE
  5
233
100
AcDbEntity
100
AcDbLine
  8
0
 62
0
370
-1
  6
ByLayer
 10
212.1680000000000064
 20
97.8613
 30
0.0
 11
212.1680000000000064
 21
111.8619999999999948
 31
0.0
  0
LINE
  5
234
100
AcDbEntity
100
AcDbLine
  8
0
 62
0
370
-1
  6
ByLayer
 10
212.1680000000000064
 20
92.8122999999999934
 30
0.0
 11
226.1690000000000111
 21
92.8122999999999934
 31
0.0
  0
LINE
  5
235
100
AcDbEntity
100
AcDbLine
  8
0
 62
0
370
-1
  6
ByLayer
 10
226.1690000000000111
 20
92.8122999999999934
 30
0.0
 11
226.1690000000000111
 21
78.8113000000000028
 31
0.0
  0
LINE
  5
236
100
AcDbEntity
100
AcDbLine
  8
0
 62
0
370
-1
  6
ByLayer
 10
226.1690000000000111
 20
78.8113000000000028
 30
0.0
 11
212.1680000000000064
 21
78.8113000000000028
 31
0.0
  0
LINE
  5
237
100
AcDbEntity
100
AcDbLine
  8
0
 62
0
370
-1
  6
ByLayer
 10
212.1680000000000064
 20
78.8113000000000028
 30
0.0
 11
212.1680000000000064
 21
92.8122999999999934
 31
0.0
  0
LINE
  5
238
100
AcDbEntity
100
AcDbLine
  8
0
 62
0
370
-1
  6
ByLayer
 10
212.1680000000000064
 20
73.7622999999999962
 30
0.0
 11
226.1690000000000111
 21
73.7622999999999962
 31
0.0
  0
LINE
  5
239
100
AcDbEntity
100
AcDbLine
  8
0
 62
0
370
-1
  6
ByLayer
 10
226.1690000000000111
 20
73.7622999999999962
 30
0.0
 11
226.1690000000000111
 21
59.7612999999999985
 31
0.0
  0
LINE
  5
23A
100
AcDbEntity
100
AcDbLine
  8
0
 62
0
370
-1
  6
ByLayer
 10
226.1690000000000111
 20
59.7612999999999985
 30
0.0
 11
212.1680000000000064
 21
59.7612999999999985
 31
0.0
  0
LINE
  5
23B
100
AcDbEntity
100
AcDbLine
  8
0
 62
0
370
-1
  6
ByLayer
 10
212.1680000000000064
 20
59.7612999999999985
 30
0.0
 11
212.1680000000000064
 21
73.7622999999999962
 31
0.0
  0
LINE
  5
23C
100
AcDbEntity
100
AcDbLine
  8
0
 62
0
370
-1
  6
ByLayer
 10
212.1680000000000064
 20
54.712299999999999
 30
0.0
 11
226.1690000000000111
 21
54.712299999999999
 31
0.0
  0
LINE
  5
23D
100
AcDbEntity
100
AcDbLine
  8
0
 62
0
370
-1
  6
ByLayer
 10
226.1690000000000111
 20
54.712299999999999
 30
0.0
 11
226.1690000000000111
 21
40.7113000000000014
 31
0.0
  0
LINE
  5
23E
100
AcDbEntity
100
AcDbLine
  8
0
 62
0
370
-1
  6
ByLayer
 10
226.1690000000000111
 20
40.7113000000000014
 30
0.0
 11
212.1680000000000064
 21
40.7113000000000014
 31
0.0
  0
LINE
  5
23F
100
AcDbEntity
100
AcDbLine
  8
0
 62
0
370
-1
  6
ByLayer
 10
212.1680000000000064
 20
40.7113000000000014
 30
0.0
 11
212.1680000000000064
 21
54.712299999999999
 31
0.0
  0
LINE
  5
240
100
AcDbEntity
100
AcDbLine
  8
0
 62
0
370
-1
  6
ByLayer
 10
212.1680000000000064
 20
16.6122000000000014
 30
0.0
 11
226.1690000000000111
 21
16.6122000000000014
 31
0.0
  0
LINE
  5
241
100
AcDbEntity
100
AcDbLine
  8
0
 62
0
370
-1
  6
ByLayer
 10
226.1690000000000111
 20
16.6122000000000014
 30
0.0
 11
226.1690000000000111
 21
2.61138
 31
0.0
  0
LINE
  5
242
100
AcDbEntity
100
AcDbLine
  8
0
 62
0
370
-1
  6
ByLayer
 10
226.1690000000000111
 20
2.61138
 30
0.0
 11
212.1680000000000064
 21
2.61138
 31
0.0
  0
LINE
  5
243
100
AcDbEntity
100
AcDbLine
  8
0
 62
0
370
-1
  6
ByLayer
 10
212.1680000000000064
 20
2.61138
 30
0.0
 11
212.1680000000000064
 21
16.6122000000000014
 31
0.0
  0
LINE
  5
244
100
AcDbEntity
100
AcDbLine
  8
0
 62
0
370
-1
  6
ByLayer
 10
231.2179999999999893
 20
35.6623000000000019
 30
0.0
 11
245.2189999999999941
 21
35.6623000000000019
 31
0.0
  0
LINE
  5
245
100
AcDbEntity
100
AcDbLine
  8
0
 62
0
370
-1
  6
ByLayer
 10
245.2189999999999941
 20
35.6623000000000019
 30
0.0
 11
245.2189999999999941
 21
21.6614000000000004
 31
0.0
  0
LINE
  5
246
100
AcDbEntity
100
AcDbLine
  8
0
 62
0
370
-1
  6
ByLayer
 10
245.2189999999999941
 20
21.6614000000000004
 30
0.0
 11
231.2179999999999893
 21
21.6614000000000004
 31
0.0
  0
LINE
  5
247
100
AcDbEntity
100
AcDbLine
  8
0
 62
0
370
-1
  6
ByLayer
 10
231.2179999999999893
 20
21.6614000000000004
 30
0.0
 11
231.2179999999999893
 21
35.6623000000000019
 31
0.0
  0
LINE
  5
248
100
AcDbEntity
100
AcDbLine
  8
0
 62
0
370
-1
  6
ByLayer
 10
231.2179999999999893
 20
130.9120000000000061
 30
0.0
 11
245.2189999999999941
 21
130.9120000000000061
 31
0.0
  0
LINE
  5
249
100
AcDbEntity
100
AcDbLine
  8
0
 62
0
370
-1
  6
ByLayer
 10
245.2189999999999941
 20
130.9120000000000061
 30
0.0
 11
245.2189999999999941
 21
116.9110000000000014
 31
0.0
  0
LINE
  5
24A
100
AcDbEntity
100
AcDbLine
  8
0
 62
0
370
-1
  6
ByLayer
 10
245.2189999999999941
 20
116.9110000000000014
 30
0.0
 11
231.2179999999999893
 21
116.9110000000000014
 31
0.0
  0
LINE
  5
24B
100
AcDbEntity
100
AcDbLine
  8
0
 62
0
370
-1
  6
ByLayer
 10
231.2179999999999893
 20
116.9110000000000014
 30
0.0
 11
231.2179999999999893
 21
130.9120000000000061
 31
0.0
  0
LINE
  5
24C
100
AcDbEntity
100
AcDbLine
  8
0
 62
0
370
-1
  6
ByLayer
 10
231.2179999999999893
 20
111.8619999999999948
 30
0.0
 11
245.2189999999999941
 21
111.8619999999999948
 31
0.0
  0
LINE
  5
24D
100
AcDbEntity
100
AcDbLine
  8
0
 62
0
370
-1
  6
ByLayer
 10
245.2189999999999941
 20
111.8619999999999948
 30
0.0
 11
245.2189999999999941
 21
97.8613
 31
0.0
  0
LINE
  5
24E
100
AcDbEntity
100
AcDbLine
  8
0
 62
0
370
-1
  6
ByLayer
 10
245.2189999999999941
 20
97.8613
 30
0.0
 11
231.2179999999999893
 21
97.8613
 31
0.0
  0
LINE
  5
24F
100
AcDbEntity
100
AcDbLine
  8
0
 62
0
370
-1
  6
ByLayer
 10
231.2179999999999893
 20
97.8613
 30
0.0
 11
231.2179999999999893
 21
111.8619999999999948
 31
0.0
  0
LINE
  5
250
100
AcDbEntity
100
AcDbLine
  8
0
 62
0
370
-1
  6
ByLayer
 10
231.2179999999999893
 20
92.8122999999999934
 30
0.0
 11
245.2189999999999941
 21
92.8122999999999934
 31
0.0
  0
LINE
  5
251
100
AcDbEntity
100
AcDbLine
  8
0
 62
0
370
-1
  6
ByLayer
 10
245.2189999999999941
 20
92.8122999999999934
 30
0.0
 11
245.2189999999999941
 21
78.8113000000000028
 31
0.0
  0
LINE
  5
252
100
AcDbEntity
100
AcDbLine
  8
0
 62
0
370
-1
  6
ByLayer
 10
245.2189999999999941
 20
78.8113000000000028
 30
0.0
 11
231.2179999999999893
 21
78.8113000000000028
 31
0.0
  0
LINE
  5
253
100
AcDbEntity
100
AcDbLine
  8
0
 62
0
370
-1
  6
ByLayer
 10
231.2179999999999893
 20
78.8113000000000028
 30
0.0
 11
231.2179999999999893
 21
92.8122999999999934
 31
0.0
  0
LINE
  5
254
100
AcDbEntity
100
AcDbLine
  8
0
 62
0
370
-1
  6
ByLayer
 10
231.2179999999999893
 20
73.7622999999999962
 30
0.0
 11
245.2189999999999941
 21
73.7622999999999962
 31
0.0
  0
LINE
  5
255
100
AcDbEntity
100
AcDbLine
  8
0
 62
0
370
-1
  6
ByLayer
 10
245.2189999999999941
 20
73.7622999999999962
 30
0.0
 11
245.2189999999999941
 21
59.7612999999999985
 31
0.0
  0
LINE
  5
256
100
AcDbEntity
100
AcDbLine
  8
0
 62
0
370
-1
  6
ByLayer
 10
245.2189999999999941
 20
59.7612999999999985
 30
0.0
 11
231.2179999999999893
 21
59.7612999999999985
 31
0.0
  0
LINE
  5
257
100
AcDbEntity
100
AcDbLine
  8
0
 62
0
370
-1
  6
ByLayer
 10
231.2179999999999893
 20
59.7612999999999985
 30
0.0
 11
231.2179999999999893
 21
73.7622999999999962
 31
0.0
  0
LINE
  5
258
100
AcDbEntity
100
AcDbLine
  8
0
 62
0
370
-1
  6
ByLayer
 10
231.2179999999999893
 20
54.712299999999999
 30
0.0
 11
245.2189999999999941
 21
54.712299999999999
 31
0.0
  0
LINE
  5
259
100
AcDbEntity
100
AcDbLine
  8
0
 62
0
370
-1
  6
ByLayer
 10
245.2189999999999941
 20
54.712299999999999
 30
0.0
 11
245.2189999999999941
 21
40.7113000000000014
 31
0.0
  0
LINE
  5
25A
100
AcDbEntity
100
AcDbLine
  8
0
 62
0
370
-1
  6
ByLayer
 10
245.2189999999999941
 20
40.7113000000000014
 30
0.0
 11
231.2179999999999893
 21
40.7113000000000014
 31
0.0
  0
LINE
  5
25B
100
AcDbEntity
100
AcDbLine
  8
0
 62
0
370
-1
  6
ByLayer
 10
231.2179999999999893
 20
40.7113000000000014
 30
0.0
 11
231.2179999999999893
 21
54.712299999999999
 31
0.0
  0
LINE
  5
25C
100
AcDbEntity
100
AcDbLine
  8
0
 62
0
370
-1
  6
ByLayer
 10
231.2179999999999893
 20
16.6122000000000014
 30
0.0
 11
245.2189999999999941
 21
16.6122000000000014
 31
0.0
  0
LINE
  5
25D
100
AcDbEntity
100
AcDbLine
  8
0
 62
0
370
-1
  6
ByLayer
 10
245.2189999999999941
 20
16.6122000000000014
 30
0.0
 11
245.2189999999999941
 21
2.61138
 31
0.0
  0
LINE
  5
25E
100
AcDbEntity
100
AcDbLine
  8
0
 62
0
370
-1
  6
ByLayer
 10
245.2189999999999941
 20
2.61138
 30
0.0
 11
231.2179999999999893
 21
2.61138
 31
0.0
  0
LINE
  5
25F
100
AcDbEntity
100
AcDbLine
  8
0
 62
0
370
-1
  6
ByLayer
 10
231.2179999999999893
 20
2.61138
 30
0.0
 11
231.2179999999999893
 21
16.6122000000000014
 31
0.0
  0
LINE
  5
260
100
AcDbEntity
100
AcDbLine
  8
0
 62
0
370
-1
  6
ByLayer
 10
261.9979999999999905
 20
12.1378000000000004
 30
0.0
 11
261.9979999999999905
 21
10.5626999999999995
 31
0.0
  0
LINE
  5
261
100
AcDbEntity
100
AcDbLine
  8
0
 62
0
370
-1
  6
ByLayer
 10
261.9979999999999905
 20
10.5626999999999995
 30
0.0
 11
262.7989999999999782
 21
10.5626999999999995
 31
0.0
  0
LINE
  5
262
100
AcDbEntity
100
AcDbLine
  8
0
 62
0
370
-1
  6
ByLayer
 10
262.7989999999999782
 20
10.5626999999999995
 30
0.0
 11
262.7989999999999782
 21
3.9122300000000001
 31
0.0
  0
LINE
  5
263
100
AcDbEntity
100
AcDbLine
  8
0
 62
0
370
-1
  6
ByLayer
 10
262.7989999999999782
 20
3.9122300000000001
 30
0.0
 11
259.5690000000000168
 21
3.9122300000000001
 31
0.0
  0
LINE
  5
264
100
AcDbEntity
100
AcDbLine
  8
0
 62
0
370
-1
  6
ByLayer
 10
259.5690000000000168
 20
3.9122300000000001
 30
0.0
 11
259.5690000000000168
 21
3.03857
 31
0.0
  0
LINE
  5
265
100
AcDbEntity
100
AcDbLine
  8
0
 62
0
370
-1
  6
ByLayer
 10
259.5690000000000168
 20
3.03857
 30
0.0
 11
256.7690000000000055
 21
3.03857
 31
0.0
  0
LINE
  5
266
100
AcDbEntity
100
AcDbLine
  8
0
 62
0
370
-1
  6
ByLayer
 10
256.7690000000000055
 20
3.03857
 30
0.0
 11
256.7690000000000055
 21
3.9122300000000001
 31
0.0
  0
LINE
  5
267
100
AcDbEntity
100
AcDbLine
  8
0
 62
0
370
-1
  6
ByLayer
 10
256.7690000000000055
 20
3.9122300000000001
 30
0.0
 11
250.4979999999999905
 21
3.9122300000000001
 31
0.0
  0
LINE
  5
268
100
AcDbEntity
100
AcDbLine
  8
0
 62
0
370
-1
  6
ByLayer
 10
250.4979999999999905
 20
3.9122300000000001
 30
0.0
 11
250.4979999999999905
 21
5.5383300000000002
 31
0.0
  0
LINE
  5
269
100
AcDbEntity
100
AcDbLine
  8
0
 62
0
370
-1
  6
ByLayer
 10
250.4979999999999905
 20
5.5383300000000002
 30
0.0
 11
249.2980000000000018
 21
5.5383300000000002
 31
0.0
  0
LINE
  5
26A
100
AcDbEntity
100
AcDbLine
  8
0
 62
0
370
-1
  6
ByLayer
 10
249.2980000000000018
 20
5.5383300000000002
 30
0.0
 11
249.2980000000000018
 21
8.8387399999999996
 31
0.0
  0
LINE
  5
26B
100
AcDbEntity
100
AcDbLine
  8
0
 62
0
370
-1
  6
ByLayer
 10
249.2980000000000018
 20
8.8387399999999996
 30
0.0
 11
250.4979999999999905
 21
8.8387399999999996
 31
0.0
  0
LINE
  5
26C
100
AcDbEntity
100
AcDbLine
  8
0
 62
0
370
-1
  6
ByLayer
 10
250.4979999999999905
 20
8.8387399999999996
 30
0.0
 11
250.4979999999999905
 21
10.5626999999999995
 31
0.0
  0
LINE
  5
26D
100
AcDbEntity
100
AcDbLine
  8
0
 62
0
370
-1
  6
ByLayer
 10
250.4979999999999905
 20
10.5626999999999995
 30
0.0
 11
251.2990000000000066
 21
10.5626999999999995
 31
0.0
  0
LINE
  5
26E
100
AcDbEntity
100
AcDbLine
  8
0
 62
0
370
-1
  6
ByLayer
 10
251.2990000000000066
 20
10.5626999999999995
 30
0.0
 11
251.2990000000000066
 21
12.1378000000000004
 31
0.0
  0
LINE
  5
26F
100
AcDbEntity
100
AcDbLine
  8
0
 62
0
370
-1
  6
ByLayer
 10
251.2990000000000066
 20
12.1378000000000004
 30
0.0
 11
250.2680000000000007
 21
12.1378000000000004
 31
0.0
  0
LINE
  5
270
100
AcDbEntity
100
AcDbLine
  8
0
 62
0
370
-1
  6
ByLayer
 10
250.2680000000000007
 20
12.1378000000000004
 30
0.0
 11
250.2680000000000007
 21
26.1372
 31
0.0
  0
LINE
  5
271
100
AcDbEntity
100
AcDbLine
  8
0
 62
0
370
-1
  6
ByLayer
 10
250.2680000000000007
 20
26.1372
 30
0.0
 11
251.2990000000000066
 21
26.1372
 31
0.0
  0
LINE
  5
272
100
AcDbEntity
100
AcDbLine
  8
0
 62
0
370
-1
  6
ByLayer
 10
251.2990000000000066
 20
26.1372
 30
0.0
 11
251.2990000000000066
 21
27.7136999999999993
 31
0.0
  0
LINE
  5
273
100
AcDbEntity
100
AcDbLine
  8
0
 62
0
370
-1
  6
ByLayer
 10
251.2990000000000066
 20
27.7136999999999993
 30
0.0
 11
250.4979999999999905
 21
27.7136999999999993
 31
0.0
  0
LINE
  5
274
100
AcDbEntity
100
AcDbLine
  8
0
 62
0
370
-1
  6
ByLayer
 10
250.4979999999999905
 20
27.7136999999999993
 30
0.0
 11
250.4979999999999905
 21
29.4375999999999998
 31
0.0
  0
LINE
  5
275
100
AcDbEntity
100
AcDbLine
  8
0
 62
0
370
-1
  6
ByLayer
 10
250.4979999999999905
 20
29.4375999999999998
 30
0.0
 11
249.2980000000000018
 21
29.4375999999999998
 31
0.0
  0
LINE
  5
276
100
AcDbEntity
100
AcDbLine
  8
0
 62
0
370
-1
  6
ByLayer
 10
249.2980000000000018
 20
29.4375999999999998
 30
0.0
 11
249.2980000000000018
 21
32.736699999999999
 31
0.0
  0
LINE
  5
277
100
AcDbEntity
100
AcDbLine
  8
0
 62
0
370
-1
  6
ByLayer
 10
249.2980000000000018
 20
32.736699999999999
 30
0.0
 11
250.4979999999999905
 21
32.736699999999999
 31
0.0
  0
LINE
  5
278
100
AcDbEntity
100
AcDbLine
  8
0
 62
0
370
-1
  6
ByLayer
 10
250.4979999999999905
 20
32.736699999999999
 30
0.0
 11
250.4979999999999905
 21
34.3628
 31
0.0
  0
LINE
  5
279
100
AcDbEntity
100
AcDbLine
  8
0
 62
0
370
-1
  6
ByLayer
 10
250.4979999999999905
 20
34.3628
 30
0.0
 11
256.7690000000000055
 21
34.3628
 31
0.0
  0
LINE
  5
27A
100
AcDbEntity
100
AcDbLine
  8
0
 62
0
370
-1
  6
ByLayer
 10
256.7690000000000055
 20
34.3628
 30
0.0
 11
256.7690000000000055
 21
35.2364000000000033
 31
0.0
  0
LINE
  5
27B
100
AcDbEntity
100
AcDbLine
  8
0
 62
0
370
-1
  6
ByLayer
 10
256.7690000000000055
 20
35.2364000000000033
 30
0.0
 11
259.5690000000000168
 21
35.2364000000000033
 31
0.0
  0
LINE
  5
27C
100
AcDbEntity
100
AcDbLine
  8
0
 62
0
370
-1
  6
ByLayer
 10
259.5690000000000168
 20
35.2364000000000033
 30
0.0
 11
259.5690000000000168
 21
34.3628
 31
0.0
  0
LINE
  5
27D
100
AcDbEntity
100
AcDbLine
  8
0
 62
0
370
-1
  6
ByLayer
 10
259.5690000000000168
 20
34.3628
 30
0.0
 11
262.7989999999999782
 21
34.3628
 31
0.0
  0
LINE
  5
27E
100
AcDbEntity
100
AcDbLine
  8
0
 62
0
370
-1
  6
ByLayer
 10
262.7989999999999782
 20
34.3628
 30
0.0
 11
262.7989999999999782
 21
27.7136999999999993
 31
0.0
  0
LINE
  5
27F
100
AcDbEntity
100
AcDbLine
  8
0
 62
0
370
-1
  6
ByLayer
 10
262.7989999999999782
 20
27.7136999999999993
 30
0.0
 11
261.9979999999999905
 21
27.7136999999999993
 31
0.0
  0
LINE
  5
280
100
AcDbEntity
100
AcDbLine
  8
0
 62
0
370
-1
  6
ByLayer
 10
261.9979999999999905
 20
27.7136999999999993
 30
0.0
 11
261.9979999999999905
 21
26.1372
 31
0.0
  0
LINE
  5
281
100
AcDbEntity
100
AcDbLine
  8
0
 62
0
370
-1
  6
ByLayer
 10
261.9979999999999905
 20
26.1372
 30
0.0
 11
264.2690000000000055
 21
26.1372
 31
0.0
  0
LINE
  5
282
100
AcDbEntity
100
AcDbLine
  8
0
 62
0
370
-1
  6
ByLayer
 10
264.2690000000000055
 20
26.1372
 30
0.0
 11
264.2690000000000055
 21
12.1378000000000004
 31
0.0
  0
LINE
  5
283
100
AcDbEntity
100
AcDbLine
  8
0
 62
0
370
-1
  6
ByLayer
 10
264.2690000000000055
 20
12.1378000000000004
 30
0.0
 11
261.9979999999999905
 21
12.1378000000000004
 31
0.0
  0
LINE
  5
284
100
AcDbEntity
100
AcDbLine
  8
0
 62
0
370
-1
  6
ByLayer
 10
250.2680000000000007
 20
130.9120000000000061
 30
0.0
 11
264.2690000000000055
 21
130.9120000000000061
 31
0.0
  0
LINE
  5
285
100
AcDbEntity
100
AcDbLine
  8
0
 62
0
370
-1
  6
ByLayer
 10
264.2690000000000055
 20
130.9120000000000061
 30
0.0
 11
264.2690000000000055
 21
116.9110000000000014
 31
0.0
  0
LINE
  5
286
100
AcDbEntity
100
AcDbLine
  8
0
 62
0
370
-1
  6
ByLayer
 10
264.2690000000000055
 20
116.9110000000000014
 30
0.0
 11
250.2680000000000007
 21
116.9110000000000014
 31
0.0
  0
LINE
  5
287
100
AcDbEntity
100
AcDbLine
  8
0
 62
0
370
-1
  6
ByLayer
 10
250.2680000000000007
 20
116.9110000000000014
 30
0.0
 11
250.2680000000000007
 21
130.9120000000000061
 31
0.0
  0
LINE
  5
288
100
AcDbEntity
100
AcDbLine
  8
0
 62
0
370
-1
  6
ByLayer
 10
250.2680000000000007
 20
111.8619999999999948
 30
0.0
 11
264.2690000000000055
 21
111.8619999999999948
 31
0.0
  0
LINE
  5
289
100
AcDbEntity
100
AcDbLine
  8
0
 62
0
370
-1
  6
ByLayer
 10
264.2690000000000055
 20
111.8619999999999948
 30
0.0
 11
264.2690000000000055
 21
97.8613
 31
0.0
  0
LINE
  5
28A
100
AcDbEntity
100
AcDbLine
  8
0
 62
0
370
-1
  6
ByLayer
 10
264.2690000000000055
 20
97.8613
 30
0.0
 11
250.2680000000000007
 21
97.8613
 31
0.0
  0
LINE
  5
28B
100
AcDbEntity
100
AcDbLine
  8
0
 62
0
370
-1
  6
ByLayer
 10
250.2680000000000007
 20
97.8613
 30
0.0
 11
250.2680000000000007
 21
111.8619999999999948
 31
0.0
  0
LINE
  5
28C
100
AcDbEntity
100
AcDbLine
  8
0
 62
0
370
-1
  6
ByLayer
 10
250.2680000000000007
 20
92.8122999999999934
 30
0.0
 11
264.2690000000000055
 21
92.8122999999999934
 31
0.0
  0
LINE
  5
28D
100
AcDbEntity
100
AcDbLine
  8
0
 62
0
370
-1
  6
ByLayer
 10
264.2690000000000055
 20
92.8122999999999934
 30
0.0
 11
264.2690000000000055
 21
78.8113000000000028
 31
0.0
  0
LINE
  5
28E
100
AcDbEntity
100
AcDbLine
  8
0
 62
0
370
-1
  6
ByLayer
 10
264.2690000000000055
 20
78.8113000000000028
 30
0.0
 11
250.2680000000000007
 21
78.8113000000000028
 31
0.0
  0
LINE
  5
28F
100
AcDbEntity
100
AcDbLine
  8
0
 62
0
370
-1
  6
ByLayer
 10
250.2680000000000007
 20
78.8113000000000028
 30
0.0
 11
250.2680000000000007
 21
92.8122999999999934
 31
0.0
  0
LINE
  5
290
100
AcDbEntity
100
AcDbLine
  8
0
 62
0
370
-1
  6
ByLayer
 10
261.9979999999999905
 20
50.2376999999999967
 30
0.0
 11
261.9979999999999905
 21
48.6625000000000014
 31
0.0
  0
LINE
  5
291
100
AcDbEntity
100
AcDbLine
  8
0
 62
0
370
-1
  6
ByLayer
 10
261.9979999999999905
 20
48.6625000000000014
 30
0.0
 11
262.7989999999999782
 21
48.6625000000000014
 31
0.0
  0
LINE
  5
292
100
AcDbEntity
100
AcDbLine
  8
0
 62
0
370
-1
  6
ByLayer
 10
262.7989999999999782
 20
48.6625000000000014
 30
0.0
 11
262.7989999999999782
 21
42.0123000000000033
 31
0.0
  0
LINE
  5
293
100
AcDbEntity
100
AcDbLine
  8
0
 62
0
370
-1
  6
ByLayer
 10
262.7989999999999782
 20
42.0123000000000033
 30
0.0
 11
259.5690000000000168
 21
42.0123000000000033
 31
0.0
  0
LINE
  5
294
100
AcDbEntity
100
AcDbLine
  8
0
 62
0
370
-1
  6
ByLayer
 10
259.5690000000000168
 20
42.0123000000000033
 30
0.0
 11
259.5690000000000168
 21
41.1385000000000005
 31
0.0
  0
LINE
  5
295
100
AcDbEntity
100
AcDbLine
  8
0
 62
0
370
-1
  6
ByLayer
 10
259.5690000000000168
 20
41.1385000000000005
 30
0.0
 11
256.7690000000000055
 21
41.1385000000000005
 31
0.0
  0
LINE
  5
296
100
AcDbEntity
100
AcDbLine
  8
0
 62
0
370
-1
  6
ByLayer
 10
256.7690000000000055
 20
41.1385000000000005
 30
0.0
 11
256.7690000000000055
 21
42.0123000000000033
 31
0.0
  0
LINE
  5
297
100
AcDbEntity
100
AcDbLine
  8
0
 62
0
370
-1
  6
ByLayer
 10
256.7690000000000055
 20
42.0123000000000033
 30
0.0
 11
250.4979999999999905
 21
42.0123000000000033
 31
0.0
  0
LINE
  5
298
100
AcDbEntity
100
AcDbLine
  8
0
 62
0
370
-1
  6
ByLayer
 10
250.4979999999999905
 20
42.0123000000000033
 30
0.0
 11
250.4979999999999905
 21
43.638300000000001
 31
0.0
  0
LINE
  5
299
100
AcDbEntity
100
AcDbLine
  8
0
 62
0
370
-1
  6
ByLayer
 10
250.4979999999999905
 20
43.638300000000001
 30
0.0
 11
249.2980000000000018
 21
43.638300000000001
 31
0.0
  0
LINE
  5
29A
100
AcDbEntity
100
AcDbLine
  8
0
 62
0
370
-1
  6
ByLayer
 10
249.2980000000000018
 20
43.638300000000001
 30
0.0
 11
249.2980000000000018
 21
46.9388000000000005
 31
0.0
  0
LINE
  5
29B
100
AcDbEntity
100
AcDbLine
  8
0
 62
0
370
-1
  6
ByLayer
 10
249.2980000000000018
 20
46.9388000000000005
 30
0.0
 11
250.4979999999999905
 21
46.9388000000000005
 31
0.0
  0
LINE
  5
29C
100
AcDbEntity
100
AcDbLine
  8
0
 62
0
370
-1
  6
ByLayer
 10
250.4979999999999905
 20
46.9388000000000005
 30
0.0
 11
250.4979999999999905
 21
48.6625000000000014
 31
0.0
  0
LINE
  5
29D
100
AcDbEntity
100
AcDbLine
  8
0
 62
0
370
-1
  6
ByLayer
 10
250.4979999999999905
 20
48.6625000000000014
 30
0.0
 11
251.2990000000000066
 21
48.6625000000000014
 31
0.0
  0
LINE
  5
29E
100
AcDbEntity
100
AcDbLine
  8
0
 62
0
370
-1
  6
ByLayer
 10
251.2990000000000066
 20
48.6625000000000014
 30
0.0
 11
251.2990000000000066
 21
50.2376999999999967
 31
0.0
  0
LINE
  5
29F
100
AcDbEntity
100
AcDbLine
  8
0
 62
0
370
-1
  6
ByLayer
 10
251.2990000000000066
 20
50.2376999999999967
 30
0.0
 11
250.2680000000000007
 21
50.2376999999999967
 31
0.0
  0
LINE
  5
2A0
100
AcDbEntity
100
AcDbLine
  8
0
 62
0
370
-1
  6
ByLayer
 10
250.2680000000000007
 20
50.2376999999999967
 30
0.0
 11
250.2680000000000007
 21
64.2373000000000047
 31
0.0
  0
LINE
  5
2A1
100
AcDbEntity
100
AcDbLine
  8
0
 62
0
370
-1
  6
ByLayer
 10
250.2680000000000007
 20
64.2373000000000047
 30
0.0
 11
251.2990000000000066
 21
64.2373000000000047
 31
0.0
  0
LINE
  5
2A2
100
AcDbEntity
100
AcDbLine
  8
0
 62
0
370
-1
  6
ByLayer
 10
251.2990000000000066
 20
64.2373000000000047
 30
0.0
 11
251.2990000000000066
 21
65.8139000000000038
 31
0.0
  0
LINE
  5
2A3
100
AcDbEntity
100
AcDbLine
  8
0
 62
0
370
-1
  6
ByLayer
 10
251.2990000000000066
 20
65.8139000000000038
 30
0.0
 11
250.4979999999999905
 21
65.8139000000000038
 31
0.0
  0
LINE
  5
2A4
100
AcDbEntity
100
AcDbLine
  8
0
 62
0
370
-1
  6
ByLayer
 10
250.4979999999999905
 20
65.8139000000000038
 30
0.0
 11
250.4979999999999905
 21
67.5374999999999943
 31
0.0
  0
LINE
  5
2A5
100
AcDbEntity
100
AcDbLine
  8
0
 62
0
370
-1
  6
ByLayer
 10
250.4979999999999905
 20
67.5374999999999943
 30
0.0
 11
249.2980000000000018
 21
67.5374999999999943
 31
0.0
  0
LINE
  5
2A6
100
AcDbEntity
100
AcDbLine
  8
0
 62
0
370
-1
  6
ByLayer
 10
249.2980000000000018
 20
67.5374999999999943
 30
0.0
 11
249.2980000000000018
 21
70.8366999999999933
 31
0.0
  0
LINE
  5
2A7
100
AcDbEntity
100
AcDbLine
  8
0
 62
0
370
-1
  6
ByLayer
 10
249.2980000000000018
 20
70.8366999999999933
 30
0.0
 11
250.4979999999999905
 21
70.8366999999999933
 31
0.0
  0
LINE
  5
2A8
100
AcDbEntity
100
AcDbLine
  8
0
 62
0
370
-1
  6
ByLayer
 10
250.4979999999999905
 20
70.8366999999999933
 30
0.0
 11
250.4979999999999905
 21
72.4626999999999981
 31
0.0
  0
LINE
  5
2A9
100
AcDbEntity
100
AcDbLine
  8
0
 62
0
370
-1
  6
ByLayer
 10
250.4979999999999905
 20
72.4626999999999981
 30
0.0
 11
256.7690000000000055
 21
72.4626999999999981
 31
0.0
  0
LINE
  5
2AA
100
AcDbEntity
100
AcDbLine
  8
0
 62
0
370
-1
  6
ByLayer
 10
256.7690000000000055
 20
72.4626999999999981
 30
0.0
 11
256.7690000000000055
 21
73.3365000000000009
 31
0.0
  0
LINE
  5
2AB
100
AcDbEntity
100
AcDbLine
  8
0
 62
0
370
-1
  6
ByLayer
 10
256.7690000000000055
 20
73.3365000000000009
 30
0.0
 11
259.5690000000000168
 21
73.3365000000000009
 31
0.0
  0
LINE
  5
2AC
100
AcDbEntity
100
AcDbLine
  8
0
 62
0
370
-1
  6
ByLayer
 10
259.5690000000000168
 20
73.3365000000000009
 30
0.0
 11
259.5690000000000168
 21
72.4626999999999981
 31
0.0
  0
LINE
  5
2AD
100
AcDbEntity
100
AcDbLine
  8
0
 62
0
370
-1
  6
ByLayer
 10
259.5690000000000168
 20
72.4626999999999981
 30
0.0
 11
262.7989999999999782
 21
72.4626999999999981
 31
0.0
  0
LINE
  5
2AE
100
AcDbEntity
100
AcDbLine
  8
0
 62
0
370
-1
  6
ByLayer
 10
262.7989999999999782
 20
72.4626999999999981
 30
0.0
 11
262.7989999999999782
 21
65.8139000000000038
 31
0.0
  0
LINE
  5
2AF
100
AcDbEntity
100
AcDbLine
  8
0
 62
0
370
-1
  6
ByLayer
 10
262.7989999999999782
 20
65.8139000000000038
 30
0.0
 11
261.9979999999999905
 21
65.8139000000000038
 31
0.0
  0
LINE
  5
2B0
100
AcDbEntity
100
AcDbLine
  8
0
 62
0
370
-1
  6
ByLayer
 10
261.9979999999999905
 20
65.8139000000000038
 30
0.0
 11
261.9979999999999905
 21
64.2373000000000047
 31
0.0
  0
LINE
  5
2B1
100
AcDbEntity
100
AcDbLine
  8
0
 62
0
370
-1
  6
ByLayer
 10
261.9979999999999905
 20
64.2373000000000047
 30
0.0
 11
264.2690000000000055
 21
64.2373000000000047
 31
0.0
  0
LINE
  5
2B2
100
AcDbEntity
100
AcDbLine
  8
0
 62
0
370
-1
  6
ByLayer
 10
264.2690000000000055
 20
64.2373000000000047
 30
0.0
 11
264.2690000000000055
 21
50.2376999999999967
 31
0.0
  0
LINE
  5
2B3
100
AcDbEntity
100
AcDbLine
  8
0
 62
0
370
-1
  6
ByLayer
 10
264.2690000000000055
 20
50.2376999999999967
 30
0.0
 11
261.9979999999999905
 21
50.2376999999999967
 31
0.0
  0
ARC
  5
2B4
100
AcDbEntity
  8
0
 62
256
370
-1
  6
ByLayer
100
AcDbCircle
 10
-0.3817300000000001
 20
133.9120000000000061
 30
0.0
 40
1.5
100
AcDbArc
 50
90.0
 51
180.00000000000108
  0
ARC
  5
2B5
100
AcDbEntity
  8
0
 62
256
370
-1
  6
ByLayer
100
AcDbCircle
 10
267.2690000000000055
 20
133.9120000000000061
 30
0.0
 40
1.5
100
AcDbArc
 50
0.0
 51
90.0
  0
LINE
  5
2B6
100
AcDbEntity
100
AcDbLine
  8
0
 62
256
370
-1
  6
ByLayer
 10
268.7690000000000055
 20
133.9120000000000061
 30
0.0
 11
268.7690000000000055
 21
-0.3886200000000315
 31
0.0
  0
ARC
  5
2B7
100
AcDbEntity
  8
0
 62
256
370
-1
  6
ByLayer
100
AcDbCircle
 10
267.2690000000000055
 20
-0.3886200000000031
 30
0.0
 40
1.5
100
AcDbArc
 50
270.0
 51
359.99999999999892
  0
ARC
  5
2B8
100
AcDbEntity
  8
0
 62
256
370
-1
  6
ByLayer
100
AcDbCircle
 10
-0.3817300000000046
 20
-0.38862
 30
0.0
 40
1.5
100
AcDbArc
 50
180.0
 51
270.0
  0
LINE
  5
2B9
100
AcDbEntity
100
AcDbLine
  8
0
 62
256
370
-1
  6
ByLayer
 10
-1.8817299999999975
 20
-0.38862
 30
0.0
 11
-1.8817300000000001
 21
133.9119999999999777
 31
0.0
  0
LINE
  5
2BA
100
AcDbEntity
100
AcDbLine
  8
0
 62
256
370
-1
  6
ByLayer
 10
133.4436350000000004
 20
-1.88862
 30
0.0
 11
133.4436350000000004
 21
-1.88862
 31
0.0
  0
LINE
  5
2BB
100
AcDbEntity
100
AcDbLine
  8
0
 62
256
370
-1
  6
ByLayer
 10
39.2182999999999993
 20
-1.8886200000000004
 30
0.0
 11
-0.3817300000000046
 21
-1.88862
 31
0.0
  0
LINE
  5
2BC
100
AcDbEntity
100
AcDbLine
  8
0
 62
256
370
-1
  6
ByLayer
 10
-0.3817300000000001
 20
135.4120000000000061
 30
0.0
 11
39.2182999999999993
 21
135.4120000000000061
 31
0.0
  0
LINE
  5
2BD
100
AcDbEntity
100
AcDbLine
  8
0
 62
256
370
-1
  6
ByLayer
 10
267.2690000000000055
 20
-1.88862
 30
0.0
 11
208.6189999999999998
 21
-1.8886199999999995
 31
0.0
  0
LINE
  5
2BE
100
AcDbEntity
100
AcDbLine
  8
0
 62
256
370
-1
  6
ByLayer
 10
208.6189999999999998
 20
135.4120000000000061
 30
0.0
 11
267.2690000000000055
 21
135.4120000000000061
 31
0.0
  0
LINE
  5
2BF
100
AcDbEntity
100
AcDbLine
  8
0
 62
256
370
-1
  6
ByLayer
 10
56.2190000000000083
 20
135.4120000000000061
 30
0.0
 11
191.617999999999995
 21
135.4120000000000061
 31
0.0
  0
LINE
  5
2C0
100
AcDbEntity
100
AcDbLine
  8
0
 62
256
370
-1
  6
ByLayer
 10
193.117999999999995
 20
141.9120000000000061
 30
0.0
 11
207.1189999999999998
 21
141.9120000000000061
 31
0.0
  0
LINE
  5
2C1
100
AcDbEntity
100
AcDbLine
  8
0
 62
256
370
-1
  6
ByLayer
 10
40.7182999999999993
 20
141.9120000000000061
 30
0.0
 11
54.7190000000000012
 21
141.9120000000000061
 31
0.0
  0
ARC
  5
2C2
100
AcDbEntity
  8
0
 62
256
370
-1
  6
ByLayer
100
AcDbCircle
 10
40.7182999999999993
 20
140.4120000000000061
 30
0.0
 40
1.5
100
AcDbArc
 50
90.0
 51
180.0
  0
LINE
  5
2C3
100
AcDbEntity
100
AcDbLine
  8
0
 62
256
370
-1
  6
ByLayer
 10
39.2182999999999993
 20
135.4120000000000061
 30
0.0
 11
39.2183000000000064
 21
140.4120000000000061
 31
0.0
  0
ARC
  5
2C4
100
AcDbEntity
  8
0
 62
256
370
-1
  6
ByLayer
100
AcDbCircle
 10
54.7190000000000012
 20
140.4120000000000061
 30
0.0
 40
1.5
100
AcDbArc
 50
0.0
 51
90.0
  0
LINE
  5
2C5
100
AcDbEntity
100
AcDbLine
  8
0
 62
256
370
-1
  6
ByLayer
 10
56.2190000000000083
 20
135.4120000000000061
 30
0.0
 11
56.2190000000000083
 21
140.4120000000000061
 31
0.0
  0
ARC
  5
2C6
100
AcDbEntity
  8
0
 62
256
370
-1
  6
ByLayer
100
AcDbCircle
 10
193.117999999999995
 20
140.4120000000000061
 30
0.0
 40
1.5
100
AcDbArc
 50
90.0
 51
180.0
  0
LINE
  5
2C7
100
AcDbEntity
100
AcDbLine
  8
0
 62
256
370
-1
  6
ByLayer
 10
191.617999999999995
 20
135.4120000000000061
 30
0.0
 11
191.617999999999995
 21
140.4120000000000061
 31
0.0
  0
ARC
  5
2C8
100
AcDbEntity
  8
0
 62
256
370
-1
  6
ByLayer
100
AcDbCircle
 10
207.1189999999999998
 20
140.4120000000000061
 30
0.0
 40
1.5
100
AcDbArc
 50
0.0
 51
90.0
  0
LINE
  5
2C9
100
AcDbEntity
100
AcDbLine
  8
0
 62
256
370
-1
  6
ByLayer
 10
208.6189999999999998
 20
135.4120000000000061
 30
0.0
 11
208.6189999999999998
 21
140.4120000000000061
 31
0.0
  0
LINE
  5
2CA
100
AcDbEntity
100
AcDbLine
  8
0
 62
256
370
-1
  6
ByLayer
 10
207.1189999999999998
 20
-8.3886199999999995
 30
0.0
 11
193.117999999999995
 21
-8.3886199999999995
 31
0.0
  0
LINE
  5
2CB
100
AcDbEntity
100
AcDbLine
  8
0
 62
256
370
-1
  6
ByLayer
 10
54.7190000000000012
 20
-8.3886199999999995
 30
0.0
 11
40.7182999999999993
 21
-8.3886199999999995
 31
0.0
  0
ARC
  5
2CC
100
AcDbEntity
  8
0
 62
256
370
-1
  6
ByLayer
100
AcDbCircle
 10
40.7182999999999993
 20
-6.8886199999999995
 30
0.0
 40
1.5
100
AcDbArc
 50
180.0
 51
270.0
  0
LINE
  5
2CD
100
AcDbEntity
100
AcDbLine
  8
0
 62
256
370
-1
  6
ByLayer
 10
39.2182999999999993
 20
-6.8886199999999995
 30
0.0
 11
39.2182999999999993
 21
-1.8886200000000004
 31
0.0
  0
LINE
  5
2CE
100
AcDbEntity
100
AcDbLine
  8
0
 62
256
370
-1
  6
ByLayer
 10
56.2190000000000012
 20
-6.8886199999999995
 30
0.0
 11
56.2190000000000012
 21
-1.8886199999999986
 31
0.0
  0
ARC
  5
2CF
100
AcDbEntity
  8
0
 62
256
370
-1
  6
ByLayer
100
AcDbCircle
 10
54.7190000000000012
 20
-6.8886199999999995
 30
0.0
 40
1.5
100
AcDbArc
 50
270.0
 51
0.0
  0
ARC
  5
2D0
100
AcDbEntity
  8
0
 62
256
370
-1
  6
ByLayer
100
AcDbCircle
 10
193.117999999999995
 20
-6.8886199999999995
 30
0.0
 40
1.5
100
AcDbArc
 50
180.0
 51
270.0
  0
LINE
  5
2D1
100
AcDbEntity
100
AcDbLine
  8
0
 62
256
370
-1
  6
ByLayer
 10
191.617999999999995
 20
-6.8886199999999995
 30
0.0
 11
191.617999999999995
 21
-1.8886199999999986
 31
0.0
  0
ARC
  5
2D2
100
AcDbEntity
  8
0
 62
256
370
-1
  6
ByLayer
100
AcDbCircle
 10
207.1189999999999998
 20
-6.8886199999999995
 30
0.0
 40
1.5
100
AcDbArc
 50
270.0
 51
0.0
  0
LINE
  5
2D3
100
AcDbEntity
100
AcDbLine
  8
0
 62
256
370
-1
  6
ByLayer
 10
208.6189999999999998
 20
-6.8886199999999995
 30
0.0
 11
208.6189999999999998
 21
-1.8886199999999995
 31
0.0
  0
CIRCLE
  5
2D4
100
AcDbEntity
100
AcDbCircle
  8
0
 62
256
370
-1
  6
ByLayer
 10
47.7186499999999967
 20
138.9120000000000061
 30
0.0
 40
1.75
  0
CIRCLE
  5
2D5
100
AcDbEntity
100
AcDbCircle
  8
0
 62
256
370
-1
  6
ByLayer
 10
200.1184999999999832
 20
138.9120000000000061
 30
0.0
 40
1.75
  0
CIRCLE
  5
2D6
100
AcDbEntity
100
AcDbCircle
  8
0
 62
256
370
-1
  6
ByLayer
 10
200.1184999999999832
 20
-5.3886199999999995
 30
0.0
 40
1.75
  0
CIRCLE
  5
2D7
100
AcDbEntity
100
AcDbCircle
  8
0
 62
256
370
-1
  6
ByLayer
 10
47.7186499999999967
 20
-5.3886199999999995
 30
0.0
 40
1.75
  0
LINE
  5
2D8
100
AcDbEntity
100
AcDbLine
  8
0
 62
0
370
-1
  6
ByLayer
 10
116.9180000000000064
 20
12.1378000000000004
 30
0.0
 11
116.9180000000000064
 21
26.1372
 31
0.0
  0
LINE
  5
2D9
100
AcDbEntity
100
AcDbLine
  8
0
 62
0
370
-1
  6
ByLayer
 10
128.6479999999999961
 20
12.1378000000000004
 30
0.0
 11
128.6479999999999961
 21
10.5626999999999995
 31
0.0
  0
LINE
  5
2DA
100
AcDbEntity
100
AcDbLine
  8
0
 62
0
370
-1
  6
ByLayer
 10
130.9190000000000111
 20
12.1378000000000004
 30
0.0
 11
128.6479999999999961
 21
12.1378000000000004
 31
0.0
  0
LINE
  5
2DB
100
AcDbEntity
100
AcDbLine
  8
0
 62
256
370
-1
  6
ByLayer
 10
135.9184999999999945
 20
1.1113800000000023
 30
0.0
 11
111.9185000000000088
 21
1.1113800000000005
 31
0.0
  0
LINE
  5
2DC
100
AcDbEntity
100
AcDbLine
  8
0
 62
256
370
-1
  6
ByLayer
 10
111.9185000000000088
 20
-1.8886199999999984
 30
0.0
 11
56.2190000000000012
 21
-1.8886199999999986
 31
0.0
  0
LINE
  5
2DD
100
AcDbEntity
100
AcDbLine
  8
0
 62
256
370
-1
  6
ByLayer
 10
111.9185000000000088
 20
1.1113800000000005
 30
0.0
 11
111.9185000000000088
 21
-1.8886199999999984
 31
0.0
  0
LINE
  5
2DE
100
AcDbEntity
100
AcDbLine
  8
0
 62
256
370
-1
  6
ByLayer
 10
191.617999999999995
 20
-1.8886199999999986
 30
0.0
 11
135.9184999999999945
 21
-1.8886199999999982
 31
0.0
  0
LINE
  5
2DF
100
AcDbEntity
100
AcDbLine
  8
0
 62
256
370
-1
  6
ByLayer
 10
135.9184999999999945
 20
1.1113800000000023
 30
0.0
 11
135.9184999999999945
 21
-1.8886199999999982
 31
0.0
  0
ENDSEC
  0
SECTION
  2
OBJECTS
  0
DICTIONARY
  5
C
100
AcDbDictionary
280
0
281
1
  3
ACAD_GROUP
350
D
  3
ACAD_LAYOUT
350
1A
  3
ACAD_MLINESTYLE
350
17
  3
ACAD_PLOTSETTINGS
350
19
  3
ACAD_PLOTSTYLENAME
350
E
  3
AcDbVariableDictionary
350
2E0
  0
DICTIONARY
  5
D
100
AcDbDictionary
280
0
281
1
  0
ACDBDICTIONARYWDFLT
  5
E
100
AcDbDictionary
281
1
  3
Normal
350
F
100
AcDbDictionaryWithDefault
340
F
  0
ACDBPLACEHOLDER
  5
F
  0
DICTIONARY
  5
17
100
AcDbDictionary
280
0
281
1
  3
Standard
350
18
  0
MLINESTYLE
  5
18
100
AcDbMlineStyle
  2
STANDARD
 70
0
  3

 62
256
 51
90.0
 52
90.0
 71
2
 49
0.5
 62
256
  6
BYLAYER
 49
-0.5
 62
256
  6
BYLAYER
  0
DICTIONARY
  5
19
100
AcDbDictionary
280
0
281
1
  0
DICTIONARY
  5
1A
100
AcDbDictionary
281
1
  3
Layout1
350
1E
  3
Layout2
350
26
  3
Model
350
22
  0
LAYOUT
  5
1E
100
AcDbPlotSettings
  1

  2
C:\Program Files\AutoCAD 2002\plotters\DWF ePlot (optimized for plotting).pc3
  4

  6

 40
0.0
 41
0.0
 42
0.0
 43
0.0
 44
0.0
 45
0.0
 46
0.0
 47
0.0
 48
0.0
 49
0.0
140
0.0
141
0.0
142
1.0
143
1.0
 70
688
 72
0
 73
0
 74
5
  7

 75
16
147
1.0
148
0.0
149
0.0
100
AcDbLayout
  1
Layout1
 70
1
 71
1
 10
0.0
 20
0.0
 11
420.0
 21
297.0
 12
0.0
 22
0.0
 32
0.0
 14
100000000000000000000.0
 24
100000000000000000000.0
 34
100000000000000000000.0
 15
-100000000000000000000.0
 25
-100000000000000000000.0
 35
-100000000000000000000.0
146
0.0
 13
0.0
 23
0.0
 33
0.0
 16
1.0
 26
0.0
 36
0.0
 17
0.0
 27
1.0
 37
0.0
 76
0
330
1B
  0
LAYOUT
  5
22
100
AcDbPlotSettings
  1

  2
C:\Program Files\AutoCAD 2002\plotters\DWF ePlot (optimized for plotting).pc3
  4

  6

 40
0.0
 41
0.0
 42
0.0
 43
0.0
 44
0.0
 45
0.0
 46
0.0
 47
0.0
 48
0.0
 49
0.0
140
0.0
141
0.0
142
1.0
143
1.0
 70
1712
 72
0
 73
0
 74
0
  7

 75
0
147
1.0
148
0.0
149
0.0
100
AcDbLayout
  1
Model
 70
1
 71
0
 10
0.0
 20
0.0
 11
12.0
 21
9.0
 12
0.0
 22
0.0
 32
0.0
 14
0.0
 24
0.0
 34
0.0
 15
0.0
 25
0.0
 35
0.0
146
0.0
 13
0.0
 23
0.0
 33
0.0
 16
1.0
 26
0.0
 36
0.0
 17
0.0
 27
1.0
 37
0.0
 76
0
330
1F
  0
LAYOUT
  5
26
100
AcDbPlotSettings
  1

  2
C:\Program Files\AutoCAD 2002\plotters\DWF ePlot (optimized for plotting).pc3
  4

  6

 40
0.0
 41
0.0
 42
0.0
 43
0.0
 44
0.0
 45
0.0
 46
0.0
 47
0.0
 48
0.0
 49
0.0
140
0.0
141
0.0
142
1.0
143
1.0
 70
688
 72
0
 73
0
 74
5
  7

 75
16
147
1.0
148
0.0
149
0.0
100
AcDbLayout
  1
Layout2
 70
1
 71
2
 10
0.0
 20
0.0
 11
12.0
 21
9.0
 12
0.0
 22
0.0
 32
0.0
 14
0.0
 24
0.0
 34
0.0
 15
0.0
 25
0.0
 35
0.0
146
0.0
 13
0.0
 23
0.0
 33
0.0
 16
1.0
 26
0.0
 36
0.0
 17
0.0
 27
1.0
 37
0.0
 76
0
330
23
  0
DICTIONARY
  5
2E0
100
AcDbDictionary
281
1
  3
DIMASSOC
350
2E2
  3
HIDETEXT
350
2E1
  0
DICTIONARYVAR
  5
2E1
100
DictionaryVariables
280
0
  1
2
  0
DICTIONARYVAR
  5
2E2
100
DictionaryVariables
280
0
  1
1
  0
ENDSEC
  0
EOF
