M48
METRIC,TZ
T1C1.702
T2C3.988
T3C4.000
%
G90
G05
T1
X29.92Y-7.1
X29.92Y-26.1
X29.92Y-45.2
X29.92Y-73.8
X29.92Y-111.9
X40.08Y-7.1
X40.08Y-26.1
X40.08Y-45.2
X40.08Y-73.8
X40.08Y-111.9
X49.02Y-7.1
X49.02Y-26.1
X49.02Y-45.2
X49.02Y-64.2
X49.02Y-83.3
X49.02Y-102.4
X49.02Y-121.4
X59.18Y-7.1
X59.18Y-26.1
X59.18Y-45.2
X59.18Y-64.2
X59.18Y-83.3
X59.18Y-102.4
X59.18Y-121.4
X68.02Y-7.1
X68.02Y-26.1
X68.02Y-45.2
X68.02Y-64.2
X68.02Y-83.3
X68.02Y-102.4
X68.02Y-121.4
X78.18Y-7.1
X78.18Y-26.1
X78.18Y-45.2
X78.18Y-64.2
X78.18Y-83.3
X78.18Y-102.4
X78.18Y-121.4
X87.12Y-7.1
X87.12Y-26.1
X87.12Y-45.2
X87.12Y-64.2
X87.12Y-83.3
X87.12Y-102.4
X87.12Y-121.4
X97.28Y-7.1
X97.28Y-26.1
X97.28Y-45.2
X97.28Y-64.2
X97.28Y-83.3
X97.28Y-102.4
X97.28Y-121.4
X106.12Y-7.1
X106.12Y-26.1
X106.12Y-45.2
X106.12Y-64.2
X106.12Y-83.3
X115.72Y-102.4
X116.28Y-7.1
X116.28Y-26.1
X116.28Y-45.2
X116.28Y-64.2
X116.28Y-83.3
X125.22Y-7.1
X125.22Y-26.1
X125.22Y-45.2
X125.22Y-64.2
X125.22Y-83.3
X125.88Y-102.4
X135.38Y-7.1
X135.38Y-26.1
X135.38Y-45.2
X135.38Y-64.2
X135.38Y-83.3
X144.22Y-7.1
X144.22Y-35.7
X144.22Y-73.8
X144.22Y-111.9
X154.38Y-7.1
X154.38Y-35.7
X154.38Y-73.8
X154.38Y-111.9
X163.32Y-7.1
X163.32Y-26.1
X163.32Y-45.2
X163.32Y-64.2
X163.32Y-83.3
X172.82Y-102.4
X173.48Y-7.1
X173.48Y-26.1
X173.48Y-45.2
X173.48Y-64.2
X173.48Y-83.3
X182.42Y-7.1
X182.42Y-26.1
X182.42Y-45.2
X182.42Y-64.2
X182.42Y-83.3
X182.98Y-102.4
X192.58Y-7.1
X192.58Y-26.1
X192.58Y-45.2
X192.58Y-64.2
X192.58Y-83.3
X201.32Y-7.1
X201.32Y-26.1
X201.32Y-45.2
X201.32Y-64.2
X201.32Y-83.3
X201.32Y-102.4
X201.32Y-121.4
X211.48Y-7.1
X211.48Y-26.1
X211.48Y-45.2
X211.48Y-64.2
X211.48Y-83.3
X211.48Y-102.4
X211.48Y-121.4
X220.42Y-7.1
X220.42Y-26.1
X220.42Y-45.2
X220.42Y-64.2
X220.42Y-83.3
X220.42Y-102.4
X220.42Y-121.4
X230.58Y-7.1
X230.58Y-26.1
X230.58Y-45.2
X230.58Y-64.2
X230.58Y-83.3
X230.58Y-102.4
X230.58Y-121.4
X239.52Y-7.1
X239.52Y-26.1
X239.52Y-45.2
X239.52Y-64.2
X239.52Y-83.3
X239.52Y-102.4
X239.52Y-121.4
X249.68Y-7.1
X249.68Y-26.1
X249.68Y-45.2
X249.68Y-64.2
X249.68Y-83.3
X249.68Y-102.4
X249.68Y-121.4
X258.52Y-7.1
X258.52Y-26.1
X258.52Y-45.2
X258.52Y-64.2
X258.52Y-83.3
X258.52Y-102.4
X258.52Y-121.4
X268.68Y-7.1
X268.68Y-26.1
X268.68Y-45.2
X268.68Y-64.2
X268.68Y-83.3
X268.68Y-102.4
X268.68Y-121.4
X277.52Y-45.2
X277.62Y-7.1
X277.62Y-26.1
X277.62Y-73.8
X277.62Y-111.9
X287.68Y-45.2
X287.78Y-7.1
X287.78Y-26.1
X287.78Y-73.8
X287.78Y-111.9
T2
X35.Y-7.1
X35.Y-26.1
X35.Y-45.2
X35.Y-73.8
X35.Y-111.9
X54.1Y-7.1
X54.1Y-26.1
X54.1Y-45.2
X54.1Y-64.2
X54.1Y-83.3
X54.1Y-102.4
X54.1Y-121.4
X73.1Y-7.1
X73.1Y-26.1
X73.1Y-45.2
X73.1Y-64.2
X73.1Y-83.3
X73.1Y-102.4
X73.1Y-121.4
X92.2Y-7.1
X92.2Y-26.1
X92.2Y-45.2
X92.2Y-64.2
X92.2Y-83.3
X92.2Y-102.4
X92.2Y-121.4
X111.2Y-7.1
X111.2Y-26.1
X111.2Y-45.2
X111.2Y-64.2
X111.2Y-83.3
X120.8Y-102.4
X130.3Y-7.1
X130.3Y-26.1
X130.3Y-45.2
X130.3Y-64.2
X130.3Y-83.3
X149.3Y-7.1
X149.3Y-35.7
X149.3Y-73.8
X149.3Y-111.9
X168.4Y-7.1
X168.4Y-26.1
X168.4Y-45.2
X168.4Y-64.2
X168.4Y-83.3
X177.9Y-102.4
X187.5Y-7.1
X187.5Y-26.1
X187.5Y-45.2
X187.5Y-64.2
X187.5Y-83.3
X206.4Y-7.1
X206.4Y-26.1
X206.4Y-45.2
X206.4Y-64.2
X206.4Y-83.3
X206.4Y-102.4
X206.4Y-121.4
X225.5Y-7.1
X225.5Y-26.1
X225.5Y-45.2
X225.5Y-64.2
X225.5Y-83.3
X225.5Y-102.4
X225.5Y-121.4
X244.6Y-7.1
X244.6Y-26.1
X244.6Y-45.2
X244.6Y-64.2
X244.6Y-83.3
X244.6Y-102.4
X244.6Y-121.4
X263.6Y-7.1
X263.6Y-26.1
X263.6Y-45.2
X263.6Y-64.2
X263.6Y-83.3
X263.6Y-102.4
X263.6Y-121.4
X282.6Y-45.2
X282.7Y-7.1
X282.7Y-26.1
X282.7Y-73.8
X282.7Y-111.9
T3
X12.1Y-26.4
T0
M30
