M48
METRIC,TZ
T1C0.635
T2C0.800
T3C0.813
T4C0.991
T5C1.499
%
G90
G05
T1
X9.809Y-54.216
X10.724Y-60.757
X16.55Y-73.15
X23.853Y-35.6
X24.243Y-93.672
X27.139Y-21.461
X27.149Y-59.506
X28.Y-33.171
X28.577Y-59.725
X30.242Y-27.863
X31.72Y-55.214
X32.599Y-36.796
X37.Y-61.58
X39.3Y-53.6
X39.3Y-64.
X60.483Y-114.516
X141.411Y-56.473
X195.366Y-13.973
T2
X4.86Y-110.1
X7.4Y-110.1
X9.94Y-110.1
X15.06Y-110.1
X17.6Y-110.1
X20.14Y-110.1
T3
X7.4Y-78.49
X7.4Y-86.11
X9.99Y-104.1
X15.23Y-98.4
X17.61Y-104.1
X17.77Y-98.4
X25.39Y-122.5
X25.4Y-44.99
X25.4Y-52.61
X25.4Y-83.09
X25.4Y-90.71
X25.4Y-95.39
X25.4Y-103.01
X25.4Y-106.89
X25.4Y-114.51
X28.29Y-16.6
X28.29Y-35.6
X28.29Y-54.7
X28.29Y-92.9
X33.01Y-122.5
X33.73Y-2.02
X33.73Y-21.02
X33.73Y-40.12
X33.73Y-68.72
X33.73Y-106.82
X35.91Y-16.6
X35.91Y-35.6
X35.91Y-54.7
X35.91Y-92.9
X36.27Y-2.02
X36.27Y-21.02
X36.27Y-40.12
X36.27Y-68.72
X36.27Y-106.82
X44.5Y-6.89
X44.5Y-14.51
X44.5Y-25.99
X44.5Y-33.61
X44.5Y-83.09
X44.5Y-90.71
X44.5Y-116.49
X44.5Y-124.11
X47.29Y-16.6
X47.29Y-35.6
X47.29Y-54.7
X47.29Y-73.7
X47.29Y-92.9
X47.29Y-111.9
X52.83Y-2.02
X52.83Y-21.02
X52.83Y-40.12
X52.83Y-59.12
X52.83Y-78.22
X52.83Y-97.32
X52.83Y-116.32
X54.91Y-16.6
X54.91Y-35.6
X54.91Y-54.7
X54.91Y-73.7
X54.91Y-92.9
X54.91Y-111.9
X55.37Y-2.02
X55.37Y-21.02
X55.37Y-40.12
X55.37Y-59.12
X55.37Y-78.22
X55.37Y-97.32
X55.37Y-116.32
X63.6Y-6.89
X63.6Y-14.51
X63.6Y-25.99
X63.6Y-33.61
X63.6Y-44.99
X63.6Y-52.61
X63.6Y-64.09
X63.6Y-71.71
X63.6Y-102.19
X63.6Y-109.81
X63.6Y-116.29
X63.6Y-123.91
X66.29Y-16.6
X66.29Y-35.6
X66.29Y-54.7
X66.29Y-73.7
X66.29Y-92.9
X66.29Y-111.9
X71.83Y-2.02
X71.83Y-21.02
X71.83Y-40.12
X71.83Y-59.12
X71.83Y-78.22
X71.83Y-97.32
X71.83Y-116.32
X73.91Y-16.6
X73.91Y-35.6
X73.91Y-54.7
X73.91Y-73.7
X73.91Y-92.9
X73.91Y-111.9
X74.37Y-2.02
X74.37Y-21.02
X74.37Y-40.12
X74.37Y-59.12
X74.37Y-78.22
X74.37Y-97.32
X74.37Y-116.32
X82.7Y-83.09
X82.7Y-90.71
X82.7Y-116.29
X82.7Y-123.91
X85.39Y-16.6
X85.39Y-35.6
X85.39Y-54.7
X85.39Y-73.7
X85.39Y-92.9
X85.39Y-111.9
X90.93Y-2.02
X90.93Y-21.02
X90.93Y-40.12
X90.93Y-59.12
X90.93Y-78.22
X90.93Y-97.32
X90.93Y-116.32
X93.01Y-16.6
X93.01Y-35.6
X93.01Y-54.7
X93.01Y-73.7
X93.01Y-92.9
X93.01Y-111.9
X93.47Y-2.02
X93.47Y-21.02
X93.47Y-40.12
X93.47Y-59.12
X93.47Y-78.22
X93.47Y-97.32
X93.47Y-116.32
X101.7Y-6.89
X101.7Y-14.51
X101.7Y-25.99
X101.7Y-33.61
X101.7Y-44.99
X101.7Y-52.61
X101.7Y-64.09
X101.7Y-71.71
X101.7Y-102.19
X101.7Y-109.81
X101.7Y-116.19
X101.7Y-123.81
X104.39Y-16.6
X104.39Y-35.6
X104.39Y-54.7
X104.39Y-73.7
X104.39Y-92.9
X109.93Y-2.02
X109.93Y-21.02
X109.93Y-40.12
X109.93Y-59.12
X109.93Y-78.22
X112.01Y-16.6
X112.01Y-35.6
X112.01Y-54.7
X112.01Y-73.7
X112.01Y-92.9
X112.47Y-2.02
X112.47Y-21.02
X112.47Y-40.12
X112.47Y-59.12
X112.47Y-78.22
X112.49Y-111.9
X119.53Y-97.32
X120.11Y-111.9
X120.8Y-83.09
X120.8Y-90.71
X122.07Y-97.32
X123.49Y-16.6
X123.49Y-35.6
X123.49Y-54.7
X123.49Y-73.7
X123.49Y-92.9
X124.79Y-117.2
X124.79Y-120.6
X124.89Y-124.
X129.03Y-2.02
X129.03Y-21.02
X129.03Y-40.12
X129.03Y-59.12
X129.03Y-78.22
X131.11Y-16.6
X131.11Y-35.6
X131.11Y-54.7
X131.11Y-73.7
X131.11Y-92.9
X131.57Y-2.02
X131.57Y-21.02
X131.57Y-40.12
X131.57Y-59.12
X131.57Y-78.22
X132.41Y-117.2
X132.41Y-120.6
X132.51Y-124.
X139.33Y-125.2
X139.8Y-6.89
X139.8Y-14.51
X139.8Y-44.99
X139.8Y-52.61
X139.8Y-83.09
X139.8Y-90.71
X139.8Y-106.79
X139.8Y-114.41
X141.87Y-125.2
X142.59Y-16.6
X142.59Y-54.7
X142.59Y-92.9
X145.23Y-125.2
X147.77Y-125.2
X148.03Y-2.02
X148.03Y-30.62
X148.03Y-68.72
X148.03Y-106.82
X150.21Y-16.6
X150.21Y-54.7
X150.21Y-92.9
X150.57Y-2.02
X150.57Y-30.62
X150.57Y-68.72
X150.57Y-106.82
X151.13Y-125.2
X153.67Y-125.2
X156.83Y-125.3
X158.9Y-44.99
X158.9Y-52.61
X158.9Y-102.19
X158.9Y-109.81
X159.37Y-125.3
X161.69Y-16.6
X161.69Y-35.6
X161.69Y-54.7
X161.69Y-73.7
X161.69Y-92.9
X167.13Y-2.02
X167.13Y-21.02
X167.13Y-40.12
X167.13Y-59.12
X167.13Y-78.22
X169.31Y-16.6
X169.31Y-35.6
X169.31Y-54.7
X169.31Y-73.7
X169.31Y-92.9
X169.59Y-111.9
X169.67Y-2.02
X169.67Y-21.02
X169.67Y-40.12
X169.67Y-59.12
X169.67Y-78.22
X176.63Y-97.32
X177.21Y-111.9
X178.Y-6.89
X178.Y-14.51
X178.Y-25.99
X178.Y-33.61
X178.Y-64.09
X178.Y-71.71
X178.Y-83.09
X178.Y-90.71
X179.17Y-97.32
X180.79Y-16.6
X180.79Y-35.6
X180.79Y-54.7
X180.79Y-73.7
X180.79Y-92.9
X184.99Y-120.4
X186.13Y-78.22
X186.23Y-2.02
X186.23Y-21.02
X186.23Y-40.12
X186.23Y-59.12
X188.41Y-16.6
X188.41Y-35.6
X188.41Y-54.7
X188.41Y-73.7
X188.41Y-92.9
X188.67Y-78.22
X188.77Y-2.02
X188.77Y-21.02
X188.77Y-40.12
X188.77Y-59.12
X192.61Y-120.4
X197.Y-44.99
X197.Y-52.61
X197.Y-116.29
X197.Y-123.91
X199.69Y-16.6
X199.69Y-35.6
X199.69Y-54.7
X199.69Y-73.7
X199.69Y-92.9
X199.69Y-111.9
X205.13Y-2.02
X205.13Y-21.02
X205.13Y-40.12
X205.13Y-59.12
X205.13Y-78.22
X205.13Y-97.32
X205.13Y-116.32
X207.31Y-16.6
X207.31Y-35.6
X207.31Y-54.7
X207.31Y-73.7
X207.31Y-92.9
X207.31Y-111.9
X207.67Y-2.02
X207.67Y-21.02
X207.67Y-40.12
X207.67Y-59.12
X207.67Y-78.22
X207.67Y-97.32
X207.67Y-116.32
X216.Y-6.89
X216.Y-14.51
X216.Y-25.99
X216.Y-33.61
X216.Y-64.09
X216.Y-71.71
X216.Y-83.09
X216.Y-90.71
X216.Y-102.19
X216.Y-109.81
X216.Y-116.29
X216.Y-123.91
X218.79Y-16.6
X218.79Y-35.6
X218.79Y-54.7
X218.79Y-73.7
X218.79Y-92.9
X218.79Y-111.9
X224.23Y-2.02
X224.23Y-21.02
X224.23Y-40.12
X224.23Y-59.12
X224.23Y-78.22
X224.23Y-97.32
X224.23Y-116.32
X226.41Y-16.6
X226.41Y-35.6
X226.41Y-54.7
X226.41Y-73.7
X226.41Y-92.9
X226.41Y-111.9
X226.77Y-2.02
X226.77Y-21.02
X226.77Y-40.12
X226.77Y-59.12
X226.77Y-78.22
X226.77Y-97.32
X226.77Y-116.32
X235.1Y-44.99
X235.1Y-52.61
X235.1Y-105.49
X235.1Y-113.11
X235.1Y-116.29
X235.1Y-123.91
X237.89Y-16.6
X237.89Y-35.6
X237.89Y-54.7
X237.89Y-73.7
X237.89Y-92.9
X237.89Y-111.9
X243.33Y-2.02
X243.33Y-21.02
X243.33Y-40.12
X243.33Y-59.12
X243.33Y-78.22
X243.33Y-97.32
X243.33Y-116.32
X245.51Y-16.6
X245.51Y-35.6
X245.51Y-54.7
X245.51Y-73.7
X245.51Y-92.9
X245.51Y-111.9
X245.87Y-2.02
X245.87Y-21.02
X245.87Y-40.12
X245.87Y-59.12
X245.87Y-78.22
X245.87Y-97.32
X245.87Y-116.32
X254.1Y-6.89
X254.1Y-14.51
X254.1Y-25.99
X254.1Y-33.61
X254.1Y-64.09
X254.1Y-71.71
X254.1Y-83.09
X254.1Y-90.71
X254.1Y-102.19
X254.1Y-109.81
X254.1Y-116.39
X254.1Y-124.01
X256.89Y-16.6
X256.89Y-35.6
X256.89Y-54.7
X256.89Y-73.7
X256.89Y-92.9
X256.89Y-111.9
X262.33Y-2.02
X262.33Y-21.02
X262.33Y-40.12
X262.33Y-59.12
X262.33Y-78.22
X262.33Y-97.32
X262.33Y-116.32
X264.51Y-16.6
X264.51Y-35.6
X264.51Y-54.7
X264.51Y-73.7
X264.51Y-92.9
X264.51Y-111.9
X264.87Y-2.02
X264.87Y-21.02
X264.87Y-40.12
X264.87Y-59.12
X264.87Y-78.22
X264.87Y-97.32
X264.87Y-116.32
X273.2Y-106.79
X273.2Y-114.41
X275.89Y-16.6
X275.89Y-35.6
X275.89Y-54.7
X275.89Y-92.9
X281.33Y-40.12
X281.43Y-2.02
X281.43Y-21.02
X281.43Y-68.72
X281.43Y-106.82
X283.51Y-16.6
X283.51Y-35.6
X283.51Y-54.7
X283.51Y-92.9
X283.87Y-40.12
X283.97Y-2.02
X283.97Y-21.02
X283.97Y-68.72
X283.97Y-106.82
T4
X5.48Y-1.7
X5.48Y-4.24
X5.48Y-6.78
X5.48Y-9.32
X5.48Y-11.86
X5.48Y-14.4
X5.48Y-16.94
X5.48Y-19.48
X5.48Y-22.02
X5.48Y-24.56
X5.48Y-27.1
X5.48Y-29.64
X8.02Y-11.86
X8.02Y-29.64
X18.18Y-11.86
X18.18Y-29.64
X20.72Y-1.7
X20.72Y-4.24
X20.72Y-6.78
X20.72Y-9.32
X20.72Y-11.86
X20.72Y-14.4
X20.72Y-16.94
X20.72Y-19.48
X20.72Y-22.02
X20.72Y-24.56
X20.72Y-27.1
X20.72Y-29.64
T5
X32.46Y-12.18
X32.46Y-31.18
X32.46Y-50.28
X32.46Y-78.88
X32.46Y-116.98
X38.81Y-9.64
X38.81Y-28.64
X38.81Y-47.74
X38.81Y-76.34
X38.81Y-114.44
X51.56Y-12.18
X51.56Y-31.18
X51.56Y-50.28
X51.56Y-69.28
X51.56Y-88.38
X51.56Y-107.48
X51.56Y-126.48
X57.91Y-9.64
X57.91Y-28.64
X57.91Y-47.74
X57.91Y-66.74
X57.91Y-85.84
X57.91Y-104.94
X57.91Y-123.94
X70.56Y-12.18
X70.56Y-31.18
X70.56Y-50.28
X70.56Y-69.28
X70.56Y-88.38
X70.56Y-107.48
X70.56Y-126.48
X76.91Y-9.64
X76.91Y-28.64
X76.91Y-47.74
X76.91Y-66.74
X76.91Y-85.84
X76.91Y-104.94
X76.91Y-123.94
X89.66Y-12.18
X89.66Y-31.18
X89.66Y-50.28
X89.66Y-69.28
X89.66Y-88.38
X89.66Y-107.48
X89.66Y-126.48
X96.01Y-9.64
X96.01Y-28.64
X96.01Y-47.74
X96.01Y-66.74
X96.01Y-85.84
X96.01Y-104.94
X96.01Y-123.94
X108.66Y-12.18
X108.66Y-31.18
X108.66Y-50.28
X108.66Y-69.28
X108.66Y-88.38
X115.01Y-9.64
X115.01Y-28.64
X115.01Y-47.74
X115.01Y-66.74
X115.01Y-85.84
X118.26Y-107.48
X124.61Y-104.94
X127.76Y-12.18
X127.76Y-31.18
X127.76Y-50.28
X127.76Y-69.28
X127.76Y-88.38
X134.11Y-9.64
X134.11Y-28.64
X134.11Y-47.74
X134.11Y-66.74
X134.11Y-85.84
X146.76Y-12.18
X146.76Y-40.78
X146.76Y-78.88
X146.76Y-116.98
X153.11Y-9.64
X153.11Y-38.24
X153.11Y-76.34
X153.11Y-114.44
X165.86Y-12.18
X165.86Y-31.18
X165.86Y-50.28
X165.86Y-69.28
X165.86Y-88.38
X172.21Y-9.64
X172.21Y-28.64
X172.21Y-47.74
X172.21Y-66.74
X172.21Y-85.84
X175.36Y-107.48
X181.71Y-104.94
X184.96Y-12.18
X184.96Y-31.18
X184.96Y-50.28
X184.96Y-69.28
X184.96Y-88.38
X191.31Y-9.64
X191.31Y-28.64
X191.31Y-47.74
X191.31Y-66.74
X191.31Y-85.84
X203.86Y-12.18
X203.86Y-31.18
X203.86Y-50.28
X203.86Y-69.28
X203.86Y-88.38
X203.86Y-107.48
X203.86Y-126.48
X210.21Y-9.64
X210.21Y-28.64
X210.21Y-47.74
X210.21Y-66.74
X210.21Y-85.84
X210.21Y-104.94
X210.21Y-123.94
X222.96Y-12.18
X222.96Y-31.18
X222.96Y-50.28
X222.96Y-69.28
X222.96Y-88.38
X222.96Y-107.48
X222.96Y-126.48
X229.31Y-9.64
X229.31Y-28.64
X229.31Y-47.74
X229.31Y-66.74
X229.31Y-85.84
X229.31Y-104.94
X229.31Y-123.94
X242.06Y-12.18
X242.06Y-31.18
X242.06Y-50.28
X242.06Y-69.28
X242.06Y-88.38
X242.06Y-107.48
X242.06Y-126.48
X248.41Y-9.64
X248.41Y-28.64
X248.41Y-47.74
X248.41Y-66.74
X248.41Y-85.84
X248.41Y-104.94
X248.41Y-123.94
X261.06Y-12.18
X261.06Y-31.18
X261.06Y-50.28
X261.06Y-69.28
X261.06Y-88.38
X261.06Y-107.48
X261.06Y-126.48
X267.41Y-9.64
X267.41Y-28.64
X267.41Y-47.74
X267.41Y-66.74
X267.41Y-85.84
X267.41Y-104.94
X267.41Y-123.94
X280.06Y-50.28
X280.16Y-12.18
X280.16Y-31.18
X280.16Y-78.88
X280.16Y-116.98
X286.41Y-47.74
X286.51Y-9.64
X286.51Y-28.64
X286.51Y-76.34
X286.51Y-114.44
T0
M30
