G04 (created by PCBNEW (2013-jul-07)-stable) date lun. 20 juin 2016 20:07:23 IST*
%MOIN*%
G04 Gerber Fmt 3.4, Leading zero omitted, Abs format*
%FSLAX34Y34*%
G01*
G70*
G90*
G04 APERTURE LIST*
%ADD10C,0.00590551*%
%ADD11R,0.085X0.075*%
%ADD12O,0.085X0.075*%
%ADD13C,0.15748*%
%ADD14C,0.105*%
%ADD15C,0.067*%
%ADD16C,0.157*%
%ADD17C,0.055*%
%ADD18O,0.062X0.09*%
%ADD19C,0.066*%
%ADD20R,0.055X0.055*%
%ADD21C,0.063*%
G04 APERTURE END LIST*
G54D10*
G54D11*
X8157Y-669D03*
G54D12*
X8157Y-1669D03*
X8157Y-2669D03*
X8157Y-3669D03*
X8157Y-4669D03*
X8157Y-5669D03*
X8157Y-6669D03*
X8157Y-7669D03*
X8157Y-8669D03*
X8157Y-9669D03*
X8157Y-10669D03*
X8157Y-11669D03*
X7157Y-11669D03*
X3157Y-11669D03*
X2157Y-11669D03*
X2157Y-10669D03*
X2157Y-9669D03*
X2157Y-8669D03*
X2157Y-7669D03*
X2157Y-6669D03*
X2157Y-5669D03*
X2157Y-4669D03*
X2157Y-3669D03*
X2157Y-2669D03*
X2157Y-1669D03*
X2157Y-669D03*
X3157Y-4669D03*
X7157Y-4669D03*
G54D13*
X4763Y-10393D03*
G54D14*
X65299Y-12275D03*
X67799Y-11275D03*
G54D15*
X64299Y-10275D03*
X68299Y-10275D03*
G54D16*
X66299Y-10275D03*
G54D14*
X80259Y-34795D03*
X82759Y-33795D03*
G54D15*
X79259Y-32795D03*
X83259Y-32795D03*
G54D16*
X81259Y-32795D03*
G54D14*
X80259Y-27275D03*
X82759Y-26275D03*
G54D15*
X79259Y-25275D03*
X83259Y-25275D03*
G54D16*
X81259Y-25275D03*
G54D14*
X80259Y-19795D03*
X82759Y-18795D03*
G54D15*
X79259Y-17795D03*
X83259Y-17795D03*
G54D16*
X81259Y-17795D03*
G54D14*
X80259Y-12275D03*
X82759Y-11275D03*
G54D15*
X79259Y-10275D03*
X83259Y-10275D03*
G54D16*
X81259Y-10275D03*
G54D14*
X72818Y-4795D03*
X75318Y-3795D03*
G54D15*
X71818Y-2795D03*
X75818Y-2795D03*
G54D16*
X73818Y-2795D03*
G54D14*
X72818Y-34795D03*
X75318Y-33795D03*
G54D15*
X71818Y-32795D03*
X75818Y-32795D03*
G54D16*
X73818Y-32795D03*
G54D14*
X72818Y-27275D03*
X75318Y-26275D03*
G54D15*
X71818Y-25275D03*
X75818Y-25275D03*
G54D16*
X73818Y-25275D03*
G54D14*
X72818Y-19795D03*
X75318Y-18795D03*
G54D15*
X71818Y-17795D03*
X75818Y-17795D03*
G54D16*
X73818Y-17795D03*
G54D14*
X72818Y-12275D03*
X75318Y-11275D03*
G54D15*
X71818Y-10275D03*
X75818Y-10275D03*
G54D16*
X73818Y-10275D03*
G54D14*
X65299Y-4795D03*
X67799Y-3795D03*
G54D15*
X64299Y-2795D03*
X68299Y-2795D03*
G54D16*
X66299Y-2795D03*
G54D14*
X69039Y-42314D03*
X71539Y-41314D03*
G54D15*
X68039Y-40314D03*
X72039Y-40314D03*
G54D16*
X70039Y-40314D03*
G54D14*
X65299Y-34795D03*
X67799Y-33795D03*
G54D15*
X64299Y-32795D03*
X68299Y-32795D03*
G54D16*
X66299Y-32795D03*
G54D14*
X65299Y-27275D03*
X67799Y-26275D03*
G54D15*
X64299Y-25275D03*
X68299Y-25275D03*
G54D16*
X66299Y-25275D03*
G54D14*
X65299Y-19795D03*
X67799Y-18795D03*
G54D15*
X64299Y-17795D03*
X68299Y-17795D03*
G54D16*
X66299Y-17795D03*
G54D14*
X80259Y-49795D03*
X82759Y-48795D03*
G54D15*
X79259Y-47795D03*
X83259Y-47795D03*
G54D16*
X81259Y-47795D03*
G54D14*
X57779Y-4795D03*
X60279Y-3795D03*
G54D15*
X56779Y-2795D03*
X60779Y-2795D03*
G54D16*
X58779Y-2795D03*
G54D14*
X57779Y-46055D03*
X60279Y-45055D03*
G54D15*
X56779Y-44055D03*
X60779Y-44055D03*
G54D16*
X58779Y-44055D03*
G54D14*
X57779Y-31055D03*
X60279Y-30055D03*
G54D15*
X56779Y-29055D03*
X60779Y-29055D03*
G54D16*
X58779Y-29055D03*
G54D14*
X57779Y-16055D03*
X60279Y-15055D03*
G54D15*
X56779Y-14055D03*
X60779Y-14055D03*
G54D16*
X58779Y-14055D03*
G54D14*
X50299Y-4795D03*
X52799Y-3795D03*
G54D15*
X49299Y-2795D03*
X53299Y-2795D03*
G54D16*
X51299Y-2795D03*
G54D14*
X50299Y-34795D03*
X52799Y-33795D03*
G54D15*
X49299Y-32795D03*
X53299Y-32795D03*
G54D16*
X51299Y-32795D03*
G54D14*
X50299Y-27275D03*
X52799Y-26275D03*
G54D15*
X49299Y-25275D03*
X53299Y-25275D03*
G54D16*
X51299Y-25275D03*
G54D14*
X50299Y-19795D03*
X52799Y-18795D03*
G54D15*
X49299Y-17795D03*
X53299Y-17795D03*
G54D16*
X51299Y-17795D03*
G54D14*
X50299Y-12275D03*
X52799Y-11275D03*
G54D15*
X49299Y-10275D03*
X53299Y-10275D03*
G54D16*
X51299Y-10275D03*
G54D14*
X42779Y-4795D03*
X45279Y-3795D03*
G54D15*
X41779Y-2795D03*
X45779Y-2795D03*
G54D16*
X43779Y-2795D03*
G54D14*
X46559Y-42314D03*
X49059Y-41314D03*
G54D15*
X45559Y-40314D03*
X49559Y-40314D03*
G54D16*
X47559Y-40314D03*
G54D14*
X42779Y-34795D03*
X45279Y-33795D03*
G54D15*
X41779Y-32795D03*
X45779Y-32795D03*
G54D16*
X43779Y-32795D03*
G54D14*
X95299Y-42314D03*
X97799Y-41314D03*
G54D15*
X94299Y-40314D03*
X98299Y-40314D03*
G54D16*
X96299Y-40314D03*
G54D14*
X110299Y-4795D03*
X112799Y-3795D03*
G54D15*
X109299Y-2795D03*
X113299Y-2795D03*
G54D16*
X111299Y-2795D03*
G54D14*
X110299Y-46055D03*
X112799Y-45055D03*
G54D15*
X109299Y-44055D03*
X113299Y-44055D03*
G54D16*
X111299Y-44055D03*
G54D14*
X110299Y-31055D03*
X112799Y-30055D03*
G54D15*
X109299Y-29055D03*
X113299Y-29055D03*
G54D16*
X111299Y-29055D03*
G54D14*
X110259Y-19795D03*
X112759Y-18795D03*
G54D15*
X109259Y-17795D03*
X113259Y-17795D03*
G54D16*
X111259Y-17795D03*
G54D14*
X110299Y-12275D03*
X112799Y-11275D03*
G54D15*
X109299Y-10275D03*
X113299Y-10275D03*
G54D16*
X111299Y-10275D03*
G54D14*
X102779Y-4795D03*
X105279Y-3795D03*
G54D15*
X101779Y-2795D03*
X105779Y-2795D03*
G54D16*
X103779Y-2795D03*
G54D14*
X102779Y-49795D03*
X105279Y-48795D03*
G54D15*
X101779Y-47795D03*
X105779Y-47795D03*
G54D16*
X103779Y-47795D03*
G54D14*
X102779Y-34795D03*
X105279Y-33795D03*
G54D15*
X101779Y-32795D03*
X105779Y-32795D03*
G54D16*
X103779Y-32795D03*
G54D14*
X102779Y-27275D03*
X105279Y-26275D03*
G54D15*
X101779Y-25275D03*
X105779Y-25275D03*
G54D16*
X103779Y-25275D03*
G54D14*
X102779Y-19795D03*
X105279Y-18795D03*
G54D15*
X101779Y-17795D03*
X105779Y-17795D03*
G54D16*
X103779Y-17795D03*
G54D14*
X102779Y-12275D03*
X105279Y-11275D03*
G54D15*
X101779Y-10275D03*
X105779Y-10275D03*
G54D16*
X103779Y-10275D03*
G54D14*
X95299Y-4795D03*
X97799Y-3795D03*
G54D15*
X94299Y-2795D03*
X98299Y-2795D03*
G54D16*
X96299Y-2795D03*
G54D14*
X95299Y-49795D03*
X97799Y-48795D03*
G54D15*
X94299Y-47795D03*
X98299Y-47795D03*
G54D16*
X96299Y-47795D03*
G54D14*
X80259Y-42314D03*
X82759Y-41314D03*
G54D15*
X79259Y-40314D03*
X83259Y-40314D03*
G54D16*
X81259Y-40314D03*
G54D14*
X95299Y-34795D03*
X97799Y-33795D03*
G54D15*
X94299Y-32795D03*
X98299Y-32795D03*
G54D16*
X96299Y-32795D03*
G54D14*
X95299Y-27275D03*
X97799Y-26275D03*
G54D15*
X94299Y-25275D03*
X98299Y-25275D03*
G54D16*
X96299Y-25275D03*
G54D14*
X95299Y-19795D03*
X97799Y-18795D03*
G54D15*
X94299Y-17795D03*
X98299Y-17795D03*
G54D16*
X96299Y-17795D03*
G54D14*
X95299Y-12275D03*
X97799Y-11275D03*
G54D15*
X94299Y-10275D03*
X98299Y-10275D03*
G54D16*
X96299Y-10275D03*
G54D14*
X87779Y-4795D03*
X90279Y-3795D03*
G54D15*
X86779Y-2795D03*
X90779Y-2795D03*
G54D16*
X88779Y-2795D03*
G54D14*
X87779Y-49795D03*
X90279Y-48795D03*
G54D15*
X86779Y-47795D03*
X90779Y-47795D03*
G54D16*
X88779Y-47795D03*
G54D14*
X87779Y-42314D03*
X90279Y-41314D03*
G54D15*
X86779Y-40314D03*
X90779Y-40314D03*
G54D16*
X88779Y-40314D03*
G54D14*
X87779Y-34795D03*
X90279Y-33795D03*
G54D15*
X86779Y-32795D03*
X90779Y-32795D03*
G54D16*
X88779Y-32795D03*
G54D14*
X87779Y-27275D03*
X90279Y-26275D03*
G54D15*
X86779Y-25275D03*
X90779Y-25275D03*
G54D16*
X88779Y-25275D03*
G54D14*
X87779Y-19795D03*
X90279Y-18795D03*
G54D15*
X86779Y-17795D03*
X90779Y-17795D03*
G54D16*
X88779Y-17795D03*
G54D14*
X87779Y-12275D03*
X90279Y-11275D03*
G54D15*
X86779Y-10275D03*
X90779Y-10275D03*
G54D16*
X88779Y-10275D03*
G54D14*
X80259Y-4795D03*
X82759Y-3795D03*
G54D15*
X79259Y-2795D03*
X83259Y-2795D03*
G54D16*
X81259Y-2795D03*
G54D14*
X102779Y-42314D03*
X105279Y-41314D03*
G54D15*
X101779Y-40314D03*
X105779Y-40314D03*
G54D16*
X103779Y-40314D03*
G54D14*
X12779Y-12275D03*
X15279Y-11275D03*
G54D15*
X11779Y-10275D03*
X15779Y-10275D03*
G54D16*
X13779Y-10275D03*
G54D14*
X27779Y-34795D03*
X30279Y-33795D03*
G54D15*
X26779Y-32795D03*
X30779Y-32795D03*
G54D16*
X28779Y-32795D03*
G54D14*
X35299Y-12275D03*
X37799Y-11275D03*
G54D15*
X34299Y-10275D03*
X38299Y-10275D03*
G54D16*
X36299Y-10275D03*
G54D14*
X35299Y-19795D03*
X37799Y-18795D03*
G54D15*
X34299Y-17795D03*
X38299Y-17795D03*
G54D16*
X36299Y-17795D03*
G54D14*
X27779Y-27275D03*
X30279Y-26275D03*
G54D15*
X26779Y-25275D03*
X30779Y-25275D03*
G54D16*
X28779Y-25275D03*
G54D14*
X35299Y-27275D03*
X37799Y-26275D03*
G54D15*
X34299Y-25275D03*
X38299Y-25275D03*
G54D16*
X36299Y-25275D03*
G54D14*
X27779Y-42314D03*
X30279Y-41314D03*
G54D15*
X26779Y-40314D03*
X30779Y-40314D03*
G54D16*
X28779Y-40314D03*
G54D14*
X27779Y-4795D03*
X30279Y-3795D03*
G54D15*
X26779Y-2795D03*
X30779Y-2795D03*
G54D16*
X28779Y-2795D03*
G54D14*
X35299Y-34795D03*
X37799Y-33795D03*
G54D15*
X34299Y-32795D03*
X38299Y-32795D03*
G54D16*
X36299Y-32795D03*
G54D14*
X27779Y-19795D03*
X30279Y-18795D03*
G54D15*
X26779Y-17795D03*
X30779Y-17795D03*
G54D16*
X28779Y-17795D03*
G54D14*
X35299Y-42314D03*
X37799Y-41314D03*
G54D15*
X34299Y-40314D03*
X38299Y-40314D03*
G54D16*
X36299Y-40314D03*
G54D14*
X27779Y-49795D03*
X30279Y-48795D03*
G54D15*
X26779Y-47795D03*
X30779Y-47795D03*
G54D16*
X28779Y-47795D03*
G54D14*
X27779Y-12275D03*
X30279Y-11275D03*
G54D15*
X26779Y-10275D03*
X30779Y-10275D03*
G54D16*
X28779Y-10275D03*
G54D14*
X35299Y-49795D03*
X37799Y-48795D03*
G54D15*
X34299Y-47795D03*
X38299Y-47795D03*
G54D16*
X36299Y-47795D03*
G54D14*
X12779Y-19795D03*
X15279Y-18795D03*
G54D15*
X11779Y-17795D03*
X15779Y-17795D03*
G54D16*
X13779Y-17795D03*
G54D14*
X12779Y-31055D03*
X15279Y-30055D03*
G54D15*
X11779Y-29055D03*
X15779Y-29055D03*
G54D16*
X13779Y-29055D03*
G54D14*
X42779Y-27275D03*
X45279Y-26275D03*
G54D15*
X41779Y-25275D03*
X45779Y-25275D03*
G54D16*
X43779Y-25275D03*
G54D14*
X20299Y-42314D03*
X22799Y-41314D03*
G54D15*
X19299Y-40314D03*
X23299Y-40314D03*
G54D16*
X21299Y-40314D03*
G54D14*
X20299Y-34795D03*
X22799Y-33795D03*
G54D15*
X19299Y-32795D03*
X23299Y-32795D03*
G54D16*
X21299Y-32795D03*
G54D14*
X42779Y-19795D03*
X45279Y-18795D03*
G54D15*
X41779Y-17795D03*
X45779Y-17795D03*
G54D16*
X43779Y-17795D03*
G54D14*
X20299Y-27275D03*
X22799Y-26275D03*
G54D15*
X19299Y-25275D03*
X23299Y-25275D03*
G54D16*
X21299Y-25275D03*
G54D14*
X20299Y-19795D03*
X22799Y-18795D03*
G54D15*
X19299Y-17795D03*
X23299Y-17795D03*
G54D16*
X21299Y-17795D03*
G54D14*
X20299Y-49795D03*
X22799Y-48795D03*
G54D15*
X19299Y-47795D03*
X23299Y-47795D03*
G54D16*
X21299Y-47795D03*
G54D14*
X42779Y-12275D03*
X45279Y-11275D03*
G54D15*
X41779Y-10275D03*
X45779Y-10275D03*
G54D16*
X43779Y-10275D03*
G54D14*
X20299Y-12275D03*
X22799Y-11275D03*
G54D15*
X19299Y-10275D03*
X23299Y-10275D03*
G54D16*
X21299Y-10275D03*
G54D14*
X12779Y-4795D03*
X15279Y-3795D03*
G54D15*
X11779Y-2795D03*
X15779Y-2795D03*
G54D16*
X13779Y-2795D03*
G54D14*
X12779Y-46055D03*
X15279Y-45055D03*
G54D15*
X11779Y-44055D03*
X15779Y-44055D03*
G54D16*
X13779Y-44055D03*
G54D14*
X35299Y-4795D03*
X37799Y-3795D03*
G54D15*
X34299Y-2795D03*
X38299Y-2795D03*
G54D16*
X36299Y-2795D03*
G54D14*
X20299Y-4795D03*
X22799Y-3795D03*
G54D15*
X19299Y-2795D03*
X23299Y-2795D03*
G54D16*
X21299Y-2795D03*
G54D17*
X17519Y-13232D03*
X17519Y-10232D03*
X25039Y-13232D03*
X25039Y-10232D03*
X40039Y-13232D03*
X40039Y-10232D03*
X100039Y-5712D03*
X100039Y-2712D03*
X85039Y-5712D03*
X85039Y-2712D03*
X49129Y-46141D03*
X52129Y-46141D03*
X70078Y-5712D03*
X70078Y-2712D03*
X55039Y-5712D03*
X55039Y-2712D03*
X40039Y-5712D03*
X40039Y-2712D03*
X25039Y-5712D03*
X25039Y-2712D03*
X3933Y-40984D03*
X6933Y-40984D03*
X2913Y-30901D03*
X2913Y-33901D03*
X17519Y-5712D03*
X17519Y-2712D03*
X10000Y-20712D03*
X10000Y-17712D03*
X49129Y-47480D03*
X52129Y-47480D03*
X49169Y-48818D03*
X52169Y-48818D03*
X100039Y-28232D03*
X100039Y-25232D03*
X92559Y-41531D03*
X92559Y-44531D03*
X72830Y-47401D03*
X75830Y-47401D03*
X9996Y-48228D03*
X12996Y-48228D03*
X100039Y-43232D03*
X100039Y-40232D03*
X85039Y-43232D03*
X85039Y-40232D03*
X62559Y-43232D03*
X62559Y-40232D03*
X40039Y-43232D03*
X40039Y-40232D03*
X25039Y-43232D03*
X25039Y-40232D03*
X10000Y-37555D03*
X10000Y-40555D03*
X100039Y-35712D03*
X100039Y-32712D03*
X85039Y-35712D03*
X85039Y-32712D03*
X70078Y-35712D03*
X70078Y-32712D03*
X47559Y-35712D03*
X47559Y-32712D03*
X32559Y-35712D03*
X32559Y-32712D03*
X17519Y-35712D03*
X17519Y-32712D03*
X55039Y-20712D03*
X55039Y-17712D03*
X85039Y-28232D03*
X85039Y-25232D03*
X70078Y-28232D03*
X70078Y-25232D03*
X55039Y-35712D03*
X55039Y-32712D03*
X40039Y-28232D03*
X40039Y-25232D03*
X25039Y-28232D03*
X25039Y-25232D03*
X10000Y-35712D03*
X10000Y-32712D03*
X92559Y-20712D03*
X92559Y-17712D03*
X77559Y-20712D03*
X77559Y-17712D03*
X62559Y-20712D03*
X62559Y-17712D03*
X40039Y-20712D03*
X40039Y-17712D03*
X25039Y-20712D03*
X25039Y-17712D03*
X40039Y-45744D03*
X40039Y-48744D03*
X100039Y-13232D03*
X100039Y-10232D03*
X85039Y-13232D03*
X85039Y-10232D03*
X70078Y-13232D03*
X70078Y-10232D03*
G54D18*
X7929Y-43346D03*
X6929Y-43346D03*
X5929Y-43346D03*
X3913Y-43346D03*
X2913Y-43346D03*
X1913Y-43346D03*
G54D19*
X59500Y-49291D03*
X60500Y-49291D03*
X61744Y-49330D03*
X62744Y-49330D03*
X57177Y-49291D03*
X58177Y-49291D03*
X54854Y-49291D03*
X55854Y-49291D03*
G54D20*
X44287Y-44055D03*
G54D17*
X47287Y-44055D03*
G54D20*
X56137Y-36574D03*
G54D17*
X59137Y-36574D03*
G54D20*
X41098Y-36574D03*
G54D17*
X44098Y-36574D03*
G54D20*
X63657Y-14015D03*
G54D17*
X66657Y-14015D03*
G54D20*
X56137Y-21535D03*
G54D17*
X59137Y-21535D03*
G54D20*
X33618Y-44055D03*
G54D17*
X36618Y-44055D03*
G54D20*
X41098Y-29015D03*
G54D17*
X44098Y-29015D03*
G54D20*
X41098Y-21535D03*
G54D17*
X44098Y-21535D03*
G54D20*
X93657Y-14015D03*
G54D17*
X96657Y-14015D03*
G54D20*
X41098Y-14015D03*
G54D17*
X44098Y-14015D03*
G54D20*
X41098Y-6535D03*
G54D17*
X44098Y-6535D03*
G54D20*
X33618Y-29015D03*
G54D17*
X36618Y-29015D03*
G54D20*
X48618Y-36574D03*
G54D17*
X51618Y-36574D03*
G54D20*
X48618Y-14015D03*
G54D17*
X51618Y-14015D03*
G54D20*
X33618Y-6535D03*
G54D17*
X36618Y-6535D03*
G54D20*
X33618Y-36574D03*
G54D17*
X36618Y-36574D03*
G54D20*
X56137Y-6535D03*
G54D17*
X59137Y-6535D03*
G54D20*
X48618Y-21535D03*
G54D17*
X51618Y-21535D03*
G54D20*
X48618Y-29015D03*
G54D17*
X51618Y-29015D03*
G54D20*
X48618Y-6535D03*
G54D17*
X51618Y-6535D03*
G54D20*
X32559Y-45783D03*
G54D17*
X32559Y-48783D03*
G54D20*
X55039Y-42043D03*
G54D17*
X55039Y-45043D03*
G54D20*
X101137Y-21535D03*
G54D17*
X104137Y-21535D03*
G54D20*
X18618Y-6535D03*
G54D17*
X21618Y-6535D03*
G54D20*
X108618Y-21535D03*
G54D17*
X111618Y-21535D03*
G54D20*
X11137Y-21535D03*
G54D17*
X14137Y-21535D03*
G54D20*
X108618Y-14015D03*
G54D17*
X111618Y-14015D03*
G54D20*
X86137Y-29015D03*
G54D17*
X89137Y-29015D03*
G54D20*
X101137Y-6535D03*
G54D17*
X104137Y-6535D03*
G54D20*
X11137Y-36574D03*
G54D17*
X14137Y-36574D03*
G54D20*
X100039Y-45822D03*
G54D17*
X100039Y-48822D03*
G54D20*
X86137Y-36574D03*
G54D17*
X89137Y-36574D03*
G54D20*
X101137Y-44055D03*
G54D17*
X104137Y-44055D03*
G54D20*
X10000Y-42082D03*
G54D17*
X10000Y-45082D03*
G54D20*
X101137Y-36574D03*
G54D17*
X104137Y-36574D03*
G54D20*
X17519Y-45862D03*
G54D17*
X17519Y-48862D03*
G54D20*
X101137Y-29015D03*
G54D17*
X104137Y-29015D03*
G54D20*
X11137Y-6535D03*
G54D17*
X14137Y-6535D03*
G54D20*
X108618Y-36574D03*
G54D17*
X111618Y-36574D03*
G54D20*
X86137Y-44055D03*
G54D17*
X89137Y-44055D03*
G54D20*
X101137Y-14015D03*
G54D17*
X104137Y-14015D03*
G54D20*
X18618Y-14015D03*
G54D17*
X21618Y-14015D03*
G54D20*
X93657Y-6535D03*
G54D17*
X96657Y-6535D03*
G54D20*
X85039Y-45783D03*
G54D17*
X85039Y-48783D03*
G54D20*
X92559Y-45783D03*
G54D17*
X92559Y-48783D03*
G54D20*
X18618Y-21535D03*
G54D17*
X21618Y-21535D03*
G54D20*
X93657Y-44055D03*
G54D17*
X96657Y-44055D03*
G54D20*
X18618Y-44055D03*
G54D17*
X21618Y-44055D03*
G54D20*
X93657Y-36574D03*
G54D17*
X96657Y-36574D03*
G54D20*
X18618Y-29015D03*
G54D17*
X21618Y-29015D03*
G54D20*
X93657Y-29015D03*
G54D17*
X96657Y-29015D03*
G54D20*
X86137Y-6535D03*
G54D17*
X89137Y-6535D03*
G54D20*
X93657Y-21535D03*
G54D17*
X96657Y-21535D03*
G54D20*
X18618Y-36574D03*
G54D17*
X21618Y-36574D03*
G54D20*
X26098Y-36574D03*
G54D17*
X29098Y-36574D03*
G54D20*
X33618Y-21535D03*
G54D17*
X36618Y-21535D03*
G54D20*
X63657Y-29015D03*
G54D17*
X66657Y-29015D03*
G54D20*
X63657Y-36574D03*
G54D17*
X66657Y-36574D03*
G54D20*
X33618Y-14015D03*
G54D17*
X36618Y-14015D03*
G54D20*
X66767Y-44055D03*
G54D17*
X69767Y-44055D03*
G54D20*
X63657Y-6535D03*
G54D17*
X66657Y-6535D03*
G54D20*
X26098Y-6535D03*
G54D17*
X29098Y-6535D03*
G54D20*
X71177Y-14015D03*
G54D17*
X74177Y-14015D03*
G54D20*
X71177Y-21535D03*
G54D17*
X74177Y-21535D03*
G54D20*
X25039Y-45783D03*
G54D17*
X25039Y-48783D03*
G54D20*
X71177Y-29015D03*
G54D17*
X74177Y-29015D03*
G54D20*
X71177Y-36574D03*
G54D17*
X74177Y-36574D03*
G54D20*
X26098Y-44055D03*
G54D17*
X29098Y-44055D03*
G54D20*
X71177Y-6535D03*
G54D17*
X74177Y-6535D03*
G54D20*
X78618Y-14015D03*
G54D17*
X81618Y-14015D03*
G54D20*
X63657Y-21535D03*
G54D17*
X66657Y-21535D03*
G54D20*
X78618Y-21535D03*
G54D17*
X81618Y-21535D03*
G54D20*
X78618Y-29015D03*
G54D17*
X81618Y-29015D03*
G54D20*
X26098Y-29015D03*
G54D17*
X29098Y-29015D03*
G54D20*
X78618Y-36574D03*
G54D17*
X81618Y-36574D03*
G54D20*
X78618Y-44055D03*
G54D17*
X81618Y-44055D03*
G54D20*
X26098Y-21535D03*
G54D17*
X29098Y-21535D03*
G54D20*
X77559Y-45783D03*
G54D17*
X77559Y-48783D03*
G54D20*
X78618Y-6535D03*
G54D17*
X81618Y-6535D03*
G54D20*
X26098Y-14015D03*
G54D17*
X29098Y-14015D03*
G54D20*
X86137Y-14015D03*
G54D17*
X89137Y-14015D03*
G54D20*
X108618Y-6535D03*
G54D17*
X111618Y-6535D03*
G54D20*
X86137Y-21535D03*
G54D17*
X89137Y-21535D03*
G54D20*
X107559Y-42043D03*
G54D17*
X107559Y-45043D03*
G54D20*
X11137Y-14015D03*
G54D17*
X14137Y-14015D03*
X5996Y-38740D03*
X6996Y-38740D03*
G54D21*
X21799Y-8275D03*
X20799Y-8275D03*
X96799Y-23275D03*
X95799Y-23275D03*
X74318Y-8275D03*
X73318Y-8275D03*
X81759Y-8275D03*
X80759Y-8275D03*
X89279Y-23275D03*
X88279Y-23275D03*
X59279Y-12055D03*
X58279Y-12055D03*
X66799Y-8275D03*
X65799Y-8275D03*
X44279Y-8275D03*
X43279Y-8275D03*
X51799Y-8275D03*
X50799Y-8275D03*
X111759Y-15795D03*
X110759Y-15795D03*
X29279Y-8275D03*
X28279Y-8275D03*
X36799Y-8275D03*
X35799Y-8275D03*
X104279Y-23275D03*
X103279Y-23275D03*
X14279Y-8275D03*
X13279Y-8275D03*
X96799Y-8275D03*
X95799Y-8275D03*
X104279Y-795D03*
X103279Y-795D03*
X111799Y-795D03*
X110799Y-795D03*
X29279Y-30795D03*
X28279Y-30795D03*
X89279Y-795D03*
X88279Y-795D03*
X96799Y-795D03*
X95799Y-795D03*
X21799Y-30795D03*
X20799Y-30795D03*
X74318Y-795D03*
X73318Y-795D03*
X81759Y-795D03*
X80759Y-795D03*
X59279Y-795D03*
X58279Y-795D03*
X66799Y-795D03*
X65799Y-795D03*
X44279Y-795D03*
X43279Y-795D03*
X51799Y-795D03*
X50799Y-795D03*
X74318Y-15795D03*
X73318Y-15795D03*
X29279Y-23275D03*
X28279Y-23275D03*
X36799Y-23275D03*
X35799Y-23275D03*
X51799Y-23275D03*
X50799Y-23275D03*
X14279Y-27055D03*
X13279Y-27055D03*
X21799Y-23275D03*
X20799Y-23275D03*
X44279Y-23275D03*
X43279Y-23275D03*
X96799Y-15795D03*
X95799Y-15795D03*
X104279Y-15795D03*
X103279Y-15795D03*
X81759Y-15795D03*
X80759Y-15795D03*
X89279Y-15795D03*
X88279Y-15795D03*
X66799Y-23275D03*
X65799Y-23275D03*
X66799Y-15795D03*
X65799Y-15795D03*
X44279Y-30795D03*
X43279Y-30795D03*
X59279Y-27055D03*
X58279Y-27055D03*
X44279Y-15795D03*
X43279Y-15795D03*
X51799Y-15795D03*
X50799Y-15795D03*
X29279Y-15795D03*
X28279Y-15795D03*
X36799Y-15795D03*
X35799Y-15795D03*
X81759Y-23275D03*
X80759Y-23275D03*
X14279Y-15795D03*
X13279Y-15795D03*
X21799Y-15795D03*
X20799Y-15795D03*
X74318Y-23275D03*
X73318Y-23275D03*
X104279Y-8275D03*
X103279Y-8275D03*
X111799Y-8275D03*
X110799Y-8275D03*
X89279Y-8275D03*
X88279Y-8275D03*
X96799Y-38314D03*
X95799Y-38314D03*
X111799Y-27055D03*
X110799Y-27055D03*
X104279Y-30795D03*
X103279Y-30795D03*
X21799Y-38314D03*
X20799Y-38314D03*
X14279Y-42055D03*
X13279Y-42055D03*
X36799Y-38314D03*
X35799Y-38314D03*
X29279Y-38314D03*
X28279Y-38314D03*
X59279Y-42055D03*
X58279Y-42055D03*
X48059Y-38314D03*
X47059Y-38314D03*
X81759Y-38314D03*
X80759Y-38314D03*
X70539Y-38314D03*
X69539Y-38314D03*
X36799Y-30795D03*
X35799Y-30795D03*
X89279Y-38314D03*
X88279Y-38314D03*
X111799Y-42055D03*
X110799Y-42055D03*
X104279Y-38314D03*
X103279Y-38314D03*
X29279Y-45795D03*
X28279Y-45795D03*
X21799Y-45795D03*
X20799Y-45795D03*
X89279Y-45795D03*
X88279Y-45795D03*
X81759Y-45795D03*
X80759Y-45795D03*
X104279Y-45795D03*
X103279Y-45795D03*
X96799Y-45795D03*
X95799Y-45795D03*
X36799Y-45795D03*
X35799Y-45795D03*
X89279Y-30795D03*
X88279Y-30795D03*
X96799Y-30795D03*
X95799Y-30795D03*
X29279Y-795D03*
X28279Y-795D03*
X14279Y-795D03*
X13279Y-795D03*
X66799Y-30795D03*
X65799Y-30795D03*
X74279Y-30795D03*
X73279Y-30795D03*
X21799Y-795D03*
X20799Y-795D03*
X36799Y-795D03*
X35799Y-795D03*
X51799Y-30795D03*
X50799Y-30795D03*
X81759Y-30795D03*
X80759Y-30795D03*
M02*
