G04 (created by PCBNEW (2013-jul-07)-stable) date lun. 20 juin 2016 20:07:23 IST*
%MOIN*%
G04 Gerber Fmt 3.4, Leading zero omitted, Abs format*
%FSLAX34Y34*%
G01*
G70*
G90*
G04 APERTURE LIST*
%ADD10C,0.00590551*%
%ADD11R,0.085X0.075*%
%ADD12O,0.085X0.075*%
%ADD13C,0.105*%
%ADD14C,0.055*%
%ADD15O,0.062X0.09*%
%ADD16C,0.066*%
%ADD17R,0.055X0.055*%
%ADD18C,0.063*%
%ADD19C,0.035*%
%ADD20C,0.018*%
G04 APERTURE END LIST*
G54D10*
G54D11*
X8157Y-669D03*
G54D12*
X8157Y-1669D03*
X8157Y-2669D03*
X8157Y-3669D03*
X8157Y-4669D03*
X8157Y-5669D03*
X8157Y-6669D03*
X8157Y-7669D03*
X8157Y-8669D03*
X8157Y-9669D03*
X8157Y-10669D03*
X8157Y-11669D03*
X7157Y-11669D03*
X3157Y-11669D03*
X2157Y-11669D03*
X2157Y-10669D03*
X2157Y-9669D03*
X2157Y-8669D03*
X2157Y-7669D03*
X2157Y-6669D03*
X2157Y-5669D03*
X2157Y-4669D03*
X2157Y-3669D03*
X2157Y-2669D03*
X2157Y-1669D03*
X2157Y-669D03*
X3157Y-4669D03*
X7157Y-4669D03*
G54D13*
X65299Y-12275D03*
X67799Y-11275D03*
X80259Y-34795D03*
X82759Y-33795D03*
X80259Y-27275D03*
X82759Y-26275D03*
X80259Y-19795D03*
X82759Y-18795D03*
X80259Y-12275D03*
X82759Y-11275D03*
X72818Y-4795D03*
X75318Y-3795D03*
X72818Y-34795D03*
X75318Y-33795D03*
X72818Y-27275D03*
X75318Y-26275D03*
X72818Y-19795D03*
X75318Y-18795D03*
X72818Y-12275D03*
X75318Y-11275D03*
X65299Y-4795D03*
X67799Y-3795D03*
X69039Y-42314D03*
X71539Y-41314D03*
X65299Y-34795D03*
X67799Y-33795D03*
X65299Y-27275D03*
X67799Y-26275D03*
X65299Y-19795D03*
X67799Y-18795D03*
X80259Y-49795D03*
X82759Y-48795D03*
X57779Y-4795D03*
X60279Y-3795D03*
X57779Y-46055D03*
X60279Y-45055D03*
X57779Y-31055D03*
X60279Y-30055D03*
X57779Y-16055D03*
X60279Y-15055D03*
X50299Y-4795D03*
X52799Y-3795D03*
X50299Y-34795D03*
X52799Y-33795D03*
X50299Y-27275D03*
X52799Y-26275D03*
X50299Y-19795D03*
X52799Y-18795D03*
X50299Y-12275D03*
X52799Y-11275D03*
X42779Y-4795D03*
X45279Y-3795D03*
X46559Y-42314D03*
X49059Y-41314D03*
X42779Y-34795D03*
X45279Y-33795D03*
X95299Y-42314D03*
X97799Y-41314D03*
X110299Y-4795D03*
X112799Y-3795D03*
X110299Y-46055D03*
X112799Y-45055D03*
X110299Y-31055D03*
X112799Y-30055D03*
X110259Y-19795D03*
X112759Y-18795D03*
X110299Y-12275D03*
X112799Y-11275D03*
X102779Y-4795D03*
X105279Y-3795D03*
X102779Y-49795D03*
X105279Y-48795D03*
X102779Y-34795D03*
X105279Y-33795D03*
X102779Y-27275D03*
X105279Y-26275D03*
X102779Y-19795D03*
X105279Y-18795D03*
X102779Y-12275D03*
X105279Y-11275D03*
X95299Y-4795D03*
X97799Y-3795D03*
X95299Y-49795D03*
X97799Y-48795D03*
X80259Y-42314D03*
X82759Y-41314D03*
X95299Y-34795D03*
X97799Y-33795D03*
X95299Y-27275D03*
X97799Y-26275D03*
X95299Y-19795D03*
X97799Y-18795D03*
X95299Y-12275D03*
X97799Y-11275D03*
X87779Y-4795D03*
X90279Y-3795D03*
X87779Y-49795D03*
X90279Y-48795D03*
X87779Y-42314D03*
X90279Y-41314D03*
X87779Y-34795D03*
X90279Y-33795D03*
X87779Y-27275D03*
X90279Y-26275D03*
X87779Y-19795D03*
X90279Y-18795D03*
X87779Y-12275D03*
X90279Y-11275D03*
X80259Y-4795D03*
X82759Y-3795D03*
X102779Y-42314D03*
X105279Y-41314D03*
X12779Y-12275D03*
X15279Y-11275D03*
X27779Y-34795D03*
X30279Y-33795D03*
X35299Y-12275D03*
X37799Y-11275D03*
X35299Y-19795D03*
X37799Y-18795D03*
X27779Y-27275D03*
X30279Y-26275D03*
X35299Y-27275D03*
X37799Y-26275D03*
X27779Y-42314D03*
X30279Y-41314D03*
X27779Y-4795D03*
X30279Y-3795D03*
X35299Y-34795D03*
X37799Y-33795D03*
X27779Y-19795D03*
X30279Y-18795D03*
X35299Y-42314D03*
X37799Y-41314D03*
X27779Y-49795D03*
X30279Y-48795D03*
X27779Y-12275D03*
X30279Y-11275D03*
X35299Y-49795D03*
X37799Y-48795D03*
X12779Y-19795D03*
X15279Y-18795D03*
X12779Y-31055D03*
X15279Y-30055D03*
X42779Y-27275D03*
X45279Y-26275D03*
X20299Y-42314D03*
X22799Y-41314D03*
X20299Y-34795D03*
X22799Y-33795D03*
X42779Y-19795D03*
X45279Y-18795D03*
X20299Y-27275D03*
X22799Y-26275D03*
X20299Y-19795D03*
X22799Y-18795D03*
X20299Y-49795D03*
X22799Y-48795D03*
X42779Y-12275D03*
X45279Y-11275D03*
X20299Y-12275D03*
X22799Y-11275D03*
X12779Y-4795D03*
X15279Y-3795D03*
X12779Y-46055D03*
X15279Y-45055D03*
X35299Y-4795D03*
X37799Y-3795D03*
X20299Y-4795D03*
X22799Y-3795D03*
G54D14*
X17519Y-13232D03*
X17519Y-10232D03*
X25039Y-13232D03*
X25039Y-10232D03*
X40039Y-13232D03*
X40039Y-10232D03*
X100039Y-5712D03*
X100039Y-2712D03*
X85039Y-5712D03*
X85039Y-2712D03*
X49129Y-46141D03*
X52129Y-46141D03*
X70078Y-5712D03*
X70078Y-2712D03*
X55039Y-5712D03*
X55039Y-2712D03*
X40039Y-5712D03*
X40039Y-2712D03*
X25039Y-5712D03*
X25039Y-2712D03*
X3933Y-40984D03*
X6933Y-40984D03*
X2913Y-30901D03*
X2913Y-33901D03*
X17519Y-5712D03*
X17519Y-2712D03*
X10000Y-20712D03*
X10000Y-17712D03*
X49129Y-47480D03*
X52129Y-47480D03*
X49169Y-48818D03*
X52169Y-48818D03*
X100039Y-28232D03*
X100039Y-25232D03*
X92559Y-41531D03*
X92559Y-44531D03*
X72830Y-47401D03*
X75830Y-47401D03*
X9996Y-48228D03*
X12996Y-48228D03*
X100039Y-43232D03*
X100039Y-40232D03*
X85039Y-43232D03*
X85039Y-40232D03*
X62559Y-43232D03*
X62559Y-40232D03*
X40039Y-43232D03*
X40039Y-40232D03*
X25039Y-43232D03*
X25039Y-40232D03*
X10000Y-37555D03*
X10000Y-40555D03*
X100039Y-35712D03*
X100039Y-32712D03*
X85039Y-35712D03*
X85039Y-32712D03*
X70078Y-35712D03*
X70078Y-32712D03*
X47559Y-35712D03*
X47559Y-32712D03*
X32559Y-35712D03*
X32559Y-32712D03*
X17519Y-35712D03*
X17519Y-32712D03*
X55039Y-20712D03*
X55039Y-17712D03*
X85039Y-28232D03*
X85039Y-25232D03*
X70078Y-28232D03*
X70078Y-25232D03*
X55039Y-35712D03*
X55039Y-32712D03*
X40039Y-28232D03*
X40039Y-25232D03*
X25039Y-28232D03*
X25039Y-25232D03*
X10000Y-35712D03*
X10000Y-32712D03*
X92559Y-20712D03*
X92559Y-17712D03*
X77559Y-20712D03*
X77559Y-17712D03*
X62559Y-20712D03*
X62559Y-17712D03*
X40039Y-20712D03*
X40039Y-17712D03*
X25039Y-20712D03*
X25039Y-17712D03*
X40039Y-45744D03*
X40039Y-48744D03*
X100039Y-13232D03*
X100039Y-10232D03*
X85039Y-13232D03*
X85039Y-10232D03*
X70078Y-13232D03*
X70078Y-10232D03*
G54D15*
X7929Y-43346D03*
X6929Y-43346D03*
X5929Y-43346D03*
X3913Y-43346D03*
X2913Y-43346D03*
X1913Y-43346D03*
G54D16*
X59500Y-49291D03*
X60500Y-49291D03*
X61744Y-49330D03*
X62744Y-49330D03*
X57177Y-49291D03*
X58177Y-49291D03*
X54854Y-49291D03*
X55854Y-49291D03*
G54D17*
X44287Y-44055D03*
G54D14*
X47287Y-44055D03*
G54D17*
X56137Y-36574D03*
G54D14*
X59137Y-36574D03*
G54D17*
X41098Y-36574D03*
G54D14*
X44098Y-36574D03*
G54D17*
X63657Y-14015D03*
G54D14*
X66657Y-14015D03*
G54D17*
X56137Y-21535D03*
G54D14*
X59137Y-21535D03*
G54D17*
X33618Y-44055D03*
G54D14*
X36618Y-44055D03*
G54D17*
X41098Y-29015D03*
G54D14*
X44098Y-29015D03*
G54D17*
X41098Y-21535D03*
G54D14*
X44098Y-21535D03*
G54D17*
X93657Y-14015D03*
G54D14*
X96657Y-14015D03*
G54D17*
X41098Y-14015D03*
G54D14*
X44098Y-14015D03*
G54D17*
X41098Y-6535D03*
G54D14*
X44098Y-6535D03*
G54D17*
X33618Y-29015D03*
G54D14*
X36618Y-29015D03*
G54D17*
X48618Y-36574D03*
G54D14*
X51618Y-36574D03*
G54D17*
X48618Y-14015D03*
G54D14*
X51618Y-14015D03*
G54D17*
X33618Y-6535D03*
G54D14*
X36618Y-6535D03*
G54D17*
X33618Y-36574D03*
G54D14*
X36618Y-36574D03*
G54D17*
X56137Y-6535D03*
G54D14*
X59137Y-6535D03*
G54D17*
X48618Y-21535D03*
G54D14*
X51618Y-21535D03*
G54D17*
X48618Y-29015D03*
G54D14*
X51618Y-29015D03*
G54D17*
X48618Y-6535D03*
G54D14*
X51618Y-6535D03*
G54D17*
X32559Y-45783D03*
G54D14*
X32559Y-48783D03*
G54D17*
X55039Y-42043D03*
G54D14*
X55039Y-45043D03*
G54D17*
X101137Y-21535D03*
G54D14*
X104137Y-21535D03*
G54D17*
X18618Y-6535D03*
G54D14*
X21618Y-6535D03*
G54D17*
X108618Y-21535D03*
G54D14*
X111618Y-21535D03*
G54D17*
X11137Y-21535D03*
G54D14*
X14137Y-21535D03*
G54D17*
X108618Y-14015D03*
G54D14*
X111618Y-14015D03*
G54D17*
X86137Y-29015D03*
G54D14*
X89137Y-29015D03*
G54D17*
X101137Y-6535D03*
G54D14*
X104137Y-6535D03*
G54D17*
X11137Y-36574D03*
G54D14*
X14137Y-36574D03*
G54D17*
X100039Y-45822D03*
G54D14*
X100039Y-48822D03*
G54D17*
X86137Y-36574D03*
G54D14*
X89137Y-36574D03*
G54D17*
X101137Y-44055D03*
G54D14*
X104137Y-44055D03*
G54D17*
X10000Y-42082D03*
G54D14*
X10000Y-45082D03*
G54D17*
X101137Y-36574D03*
G54D14*
X104137Y-36574D03*
G54D17*
X17519Y-45862D03*
G54D14*
X17519Y-48862D03*
G54D17*
X101137Y-29015D03*
G54D14*
X104137Y-29015D03*
G54D17*
X11137Y-6535D03*
G54D14*
X14137Y-6535D03*
G54D17*
X108618Y-36574D03*
G54D14*
X111618Y-36574D03*
G54D17*
X86137Y-44055D03*
G54D14*
X89137Y-44055D03*
G54D17*
X101137Y-14015D03*
G54D14*
X104137Y-14015D03*
G54D17*
X18618Y-14015D03*
G54D14*
X21618Y-14015D03*
G54D17*
X93657Y-6535D03*
G54D14*
X96657Y-6535D03*
G54D17*
X85039Y-45783D03*
G54D14*
X85039Y-48783D03*
G54D17*
X92559Y-45783D03*
G54D14*
X92559Y-48783D03*
G54D17*
X18618Y-21535D03*
G54D14*
X21618Y-21535D03*
G54D17*
X93657Y-44055D03*
G54D14*
X96657Y-44055D03*
G54D17*
X18618Y-44055D03*
G54D14*
X21618Y-44055D03*
G54D17*
X93657Y-36574D03*
G54D14*
X96657Y-36574D03*
G54D17*
X18618Y-29015D03*
G54D14*
X21618Y-29015D03*
G54D17*
X93657Y-29015D03*
G54D14*
X96657Y-29015D03*
G54D17*
X86137Y-6535D03*
G54D14*
X89137Y-6535D03*
G54D17*
X93657Y-21535D03*
G54D14*
X96657Y-21535D03*
G54D17*
X18618Y-36574D03*
G54D14*
X21618Y-36574D03*
G54D17*
X26098Y-36574D03*
G54D14*
X29098Y-36574D03*
G54D17*
X33618Y-21535D03*
G54D14*
X36618Y-21535D03*
G54D17*
X63657Y-29015D03*
G54D14*
X66657Y-29015D03*
G54D17*
X63657Y-36574D03*
G54D14*
X66657Y-36574D03*
G54D17*
X33618Y-14015D03*
G54D14*
X36618Y-14015D03*
G54D17*
X66767Y-44055D03*
G54D14*
X69767Y-44055D03*
G54D17*
X63657Y-6535D03*
G54D14*
X66657Y-6535D03*
G54D17*
X26098Y-6535D03*
G54D14*
X29098Y-6535D03*
G54D17*
X71177Y-14015D03*
G54D14*
X74177Y-14015D03*
G54D17*
X71177Y-21535D03*
G54D14*
X74177Y-21535D03*
G54D17*
X25039Y-45783D03*
G54D14*
X25039Y-48783D03*
G54D17*
X71177Y-29015D03*
G54D14*
X74177Y-29015D03*
G54D17*
X71177Y-36574D03*
G54D14*
X74177Y-36574D03*
G54D17*
X26098Y-44055D03*
G54D14*
X29098Y-44055D03*
G54D17*
X71177Y-6535D03*
G54D14*
X74177Y-6535D03*
G54D17*
X78618Y-14015D03*
G54D14*
X81618Y-14015D03*
G54D17*
X63657Y-21535D03*
G54D14*
X66657Y-21535D03*
G54D17*
X78618Y-21535D03*
G54D14*
X81618Y-21535D03*
G54D17*
X78618Y-29015D03*
G54D14*
X81618Y-29015D03*
G54D17*
X26098Y-29015D03*
G54D14*
X29098Y-29015D03*
G54D17*
X78618Y-36574D03*
G54D14*
X81618Y-36574D03*
G54D17*
X78618Y-44055D03*
G54D14*
X81618Y-44055D03*
G54D17*
X26098Y-21535D03*
G54D14*
X29098Y-21535D03*
G54D17*
X77559Y-45783D03*
G54D14*
X77559Y-48783D03*
G54D17*
X78618Y-6535D03*
G54D14*
X81618Y-6535D03*
G54D17*
X26098Y-14015D03*
G54D14*
X29098Y-14015D03*
G54D17*
X86137Y-14015D03*
G54D14*
X89137Y-14015D03*
G54D17*
X108618Y-6535D03*
G54D14*
X111618Y-6535D03*
G54D17*
X86137Y-21535D03*
G54D14*
X89137Y-21535D03*
G54D17*
X107559Y-42043D03*
G54D14*
X107559Y-45043D03*
G54D17*
X11137Y-14015D03*
G54D14*
X14137Y-14015D03*
X5996Y-38740D03*
X6996Y-38740D03*
G54D18*
X21799Y-8275D03*
X20799Y-8275D03*
X96799Y-23275D03*
X95799Y-23275D03*
X74318Y-8275D03*
X73318Y-8275D03*
X81759Y-8275D03*
X80759Y-8275D03*
X89279Y-23275D03*
X88279Y-23275D03*
X59279Y-12055D03*
X58279Y-12055D03*
X66799Y-8275D03*
X65799Y-8275D03*
X44279Y-8275D03*
X43279Y-8275D03*
X51799Y-8275D03*
X50799Y-8275D03*
X111759Y-15795D03*
X110759Y-15795D03*
X29279Y-8275D03*
X28279Y-8275D03*
X36799Y-8275D03*
X35799Y-8275D03*
X104279Y-23275D03*
X103279Y-23275D03*
X14279Y-8275D03*
X13279Y-8275D03*
X96799Y-8275D03*
X95799Y-8275D03*
X104279Y-795D03*
X103279Y-795D03*
X111799Y-795D03*
X110799Y-795D03*
X29279Y-30795D03*
X28279Y-30795D03*
X89279Y-795D03*
X88279Y-795D03*
X96799Y-795D03*
X95799Y-795D03*
X21799Y-30795D03*
X20799Y-30795D03*
X74318Y-795D03*
X73318Y-795D03*
X81759Y-795D03*
X80759Y-795D03*
X59279Y-795D03*
X58279Y-795D03*
X66799Y-795D03*
X65799Y-795D03*
X44279Y-795D03*
X43279Y-795D03*
X51799Y-795D03*
X50799Y-795D03*
X74318Y-15795D03*
X73318Y-15795D03*
X29279Y-23275D03*
X28279Y-23275D03*
X36799Y-23275D03*
X35799Y-23275D03*
X51799Y-23275D03*
X50799Y-23275D03*
X14279Y-27055D03*
X13279Y-27055D03*
X21799Y-23275D03*
X20799Y-23275D03*
X44279Y-23275D03*
X43279Y-23275D03*
X96799Y-15795D03*
X95799Y-15795D03*
X104279Y-15795D03*
X103279Y-15795D03*
X81759Y-15795D03*
X80759Y-15795D03*
X89279Y-15795D03*
X88279Y-15795D03*
X66799Y-23275D03*
X65799Y-23275D03*
X66799Y-15795D03*
X65799Y-15795D03*
X44279Y-30795D03*
X43279Y-30795D03*
X59279Y-27055D03*
X58279Y-27055D03*
X44279Y-15795D03*
X43279Y-15795D03*
X51799Y-15795D03*
X50799Y-15795D03*
X29279Y-15795D03*
X28279Y-15795D03*
X36799Y-15795D03*
X35799Y-15795D03*
X81759Y-23275D03*
X80759Y-23275D03*
X14279Y-15795D03*
X13279Y-15795D03*
X21799Y-15795D03*
X20799Y-15795D03*
X74318Y-23275D03*
X73318Y-23275D03*
X104279Y-8275D03*
X103279Y-8275D03*
X111799Y-8275D03*
X110799Y-8275D03*
X89279Y-8275D03*
X88279Y-8275D03*
X96799Y-38314D03*
X95799Y-38314D03*
X111799Y-27055D03*
X110799Y-27055D03*
X104279Y-30795D03*
X103279Y-30795D03*
X21799Y-38314D03*
X20799Y-38314D03*
X14279Y-42055D03*
X13279Y-42055D03*
X36799Y-38314D03*
X35799Y-38314D03*
X29279Y-38314D03*
X28279Y-38314D03*
X59279Y-42055D03*
X58279Y-42055D03*
X48059Y-38314D03*
X47059Y-38314D03*
X81759Y-38314D03*
X80759Y-38314D03*
X70539Y-38314D03*
X69539Y-38314D03*
X36799Y-30795D03*
X35799Y-30795D03*
X89279Y-38314D03*
X88279Y-38314D03*
X111799Y-42055D03*
X110799Y-42055D03*
X104279Y-38314D03*
X103279Y-38314D03*
X29279Y-45795D03*
X28279Y-45795D03*
X21799Y-45795D03*
X20799Y-45795D03*
X89279Y-45795D03*
X88279Y-45795D03*
X81759Y-45795D03*
X80759Y-45795D03*
X104279Y-45795D03*
X103279Y-45795D03*
X96799Y-45795D03*
X95799Y-45795D03*
X36799Y-45795D03*
X35799Y-45795D03*
X89279Y-30795D03*
X88279Y-30795D03*
X96799Y-30795D03*
X95799Y-30795D03*
X29279Y-795D03*
X28279Y-795D03*
X14279Y-795D03*
X13279Y-795D03*
X66799Y-30795D03*
X65799Y-30795D03*
X74279Y-30795D03*
X73279Y-30795D03*
X21799Y-795D03*
X20799Y-795D03*
X36799Y-795D03*
X35799Y-795D03*
X51799Y-30795D03*
X50799Y-30795D03*
X81759Y-30795D03*
X80759Y-30795D03*
G54D19*
X15472Y-25196D03*
X4221Y-23920D03*
X12834Y-14486D03*
X11250Y-23513D03*
X23812Y-45084D03*
X11906Y-10969D03*
X6515Y-28799D03*
X55673Y-22233D03*
X12488Y-21737D03*
X14566Y-24244D03*
X3861Y-21345D03*
X76915Y-5501D03*
X10684Y-8449D03*
X9544Y-36878D03*
X10688Y-23427D03*
X9391Y-14015D03*
X11023Y-13059D03*
X15472Y-21102D03*
G54D20*
X88279Y-15795D02*
X81759Y-15795D01*
X23055Y-47051D02*
X21799Y-45795D01*
X26079Y-47051D02*
X23055Y-47051D01*
X27335Y-45795D02*
X26079Y-47051D01*
X28279Y-45795D02*
X27335Y-45795D01*
X14214Y-47010D02*
X12996Y-48228D01*
X19584Y-47010D02*
X14214Y-47010D01*
X20799Y-45795D02*
X19584Y-47010D01*
X16191Y-1384D02*
X17519Y-2712D01*
X13868Y-1384D02*
X16191Y-1384D01*
X13279Y-795D02*
X13868Y-1384D01*
X100039Y-35712D02*
X100039Y-35708D01*
X99330Y-28940D02*
X100039Y-28232D01*
X99330Y-35000D02*
X99330Y-28940D01*
X100039Y-35708D02*
X99330Y-35000D01*
X70078Y-13232D02*
X69173Y-13232D01*
X69173Y-13232D02*
X69173Y-13228D01*
X69173Y-5712D02*
X69173Y-13228D01*
X69173Y-13228D02*
X69173Y-15003D01*
X69173Y-15003D02*
X69173Y-15000D01*
X69173Y-15000D02*
X69173Y-15003D01*
X92559Y-41531D02*
X92559Y-39842D01*
X93307Y-39094D02*
X99251Y-39094D01*
X92559Y-39842D02*
X93307Y-39094D01*
X100039Y-35712D02*
X100039Y-37637D01*
X99251Y-42444D02*
X100039Y-43232D01*
X99251Y-38425D02*
X99251Y-39094D01*
X99251Y-39094D02*
X99251Y-42444D01*
X100039Y-37637D02*
X99251Y-38425D01*
X85039Y-35712D02*
X85039Y-35787D01*
X84448Y-42641D02*
X85039Y-43232D01*
X84448Y-36377D02*
X84448Y-42641D01*
X85039Y-35787D02*
X84448Y-36377D01*
X40039Y-20712D02*
X40035Y-20712D01*
X39251Y-27444D02*
X40039Y-28232D01*
X39251Y-21496D02*
X39251Y-27444D01*
X40035Y-20712D02*
X39251Y-21496D01*
X32559Y-35712D02*
X32559Y-37086D01*
X32559Y-37086D02*
X33070Y-37598D01*
X33070Y-37598D02*
X37672Y-37598D01*
X37672Y-37598D02*
X39325Y-35944D01*
X39325Y-35944D02*
X41535Y-35944D01*
X41535Y-35944D02*
X41929Y-36338D01*
X41929Y-36338D02*
X41929Y-37322D01*
X32559Y-35712D02*
X25480Y-35712D01*
X25480Y-35712D02*
X24278Y-36914D01*
X24278Y-36914D02*
X24278Y-42471D01*
X24278Y-42471D02*
X25039Y-43232D01*
X85039Y-5712D02*
X85035Y-5712D01*
X84212Y-12405D02*
X85039Y-13232D01*
X84212Y-6535D02*
X84212Y-12405D01*
X85035Y-5712D02*
X84212Y-6535D01*
X47559Y-37322D02*
X47559Y-35712D01*
X55039Y-37322D02*
X55039Y-35712D01*
X41929Y-37322D02*
X47559Y-37322D01*
X47559Y-37322D02*
X55039Y-37322D01*
X55039Y-37322D02*
X55433Y-37322D01*
X55433Y-37322D02*
X55433Y-37322D01*
X69249Y-28228D02*
X70074Y-28228D01*
X70074Y-28228D02*
X70078Y-28232D01*
X64370Y-22480D02*
X64370Y-21859D01*
X64370Y-21859D02*
X64368Y-21857D01*
X65201Y-15152D02*
X65201Y-15563D01*
X65201Y-15563D02*
X65201Y-18722D01*
X65201Y-18722D02*
X64368Y-19556D01*
X64368Y-21857D02*
X64368Y-19556D01*
X65350Y-15003D02*
X65201Y-15152D01*
X69066Y-15003D02*
X65350Y-15003D01*
X69173Y-15003D02*
X69066Y-15003D01*
X76858Y-15003D02*
X76688Y-15003D01*
X84917Y-15003D02*
X85043Y-15003D01*
X84917Y-15003D02*
X76858Y-15003D01*
X76688Y-15003D02*
X69173Y-15003D01*
X62559Y-20712D02*
X62559Y-21535D01*
X69249Y-29062D02*
X69249Y-34882D01*
X69249Y-34882D02*
X70078Y-35712D01*
X69249Y-23461D02*
X69249Y-28228D01*
X69249Y-28228D02*
X69249Y-29062D01*
X68267Y-22480D02*
X69249Y-23461D01*
X63503Y-22480D02*
X64370Y-22480D01*
X64370Y-22480D02*
X68267Y-22480D01*
X62559Y-21535D02*
X63503Y-22480D01*
X85043Y-15003D02*
X85043Y-13236D01*
X85043Y-13236D02*
X85039Y-13232D01*
X76838Y-17479D02*
X76838Y-15003D01*
X77559Y-20712D02*
X76838Y-19991D01*
X76838Y-17479D02*
X76838Y-19991D01*
X86182Y-15003D02*
X85043Y-15003D01*
X86182Y-15003D02*
X91753Y-15003D01*
X10000Y-20712D02*
X10000Y-20984D01*
X8151Y-33864D02*
X10000Y-35712D01*
X8151Y-22832D02*
X8151Y-33864D01*
X10000Y-20984D02*
X8151Y-22832D01*
X24216Y-13232D02*
X24216Y-5728D01*
X24216Y-5728D02*
X24232Y-5712D01*
X25039Y-13232D02*
X24216Y-13232D01*
X24216Y-13232D02*
X23921Y-13232D01*
X23921Y-13232D02*
X17519Y-13232D01*
X17519Y-5712D02*
X24232Y-5712D01*
X24232Y-5712D02*
X24480Y-5712D01*
X24480Y-5712D02*
X25039Y-5712D01*
X25594Y-27677D02*
X25039Y-28232D01*
X25594Y-23135D02*
X25594Y-27677D01*
X25039Y-22580D02*
X25594Y-23135D01*
X25039Y-20712D02*
X25039Y-22580D01*
X39480Y-12673D02*
X40039Y-13232D01*
X39480Y-5712D02*
X39480Y-12673D01*
X25039Y-5712D02*
X39480Y-5712D01*
X39480Y-5712D02*
X40039Y-5712D01*
X40039Y-5712D02*
X55039Y-5712D01*
X55039Y-5712D02*
X69173Y-5712D01*
X69173Y-5712D02*
X69516Y-5712D01*
X69516Y-5712D02*
X70078Y-5712D01*
X66728Y-47401D02*
X62559Y-43232D01*
X72830Y-47401D02*
X66728Y-47401D01*
X10000Y-37555D02*
X10000Y-35712D01*
X7929Y-46161D02*
X9996Y-48228D01*
X7929Y-43346D02*
X7929Y-46161D01*
X84297Y-28974D02*
X85039Y-28232D01*
X84297Y-34970D02*
X84297Y-28974D01*
X85039Y-35712D02*
X84297Y-34970D01*
X61415Y-42088D02*
X62559Y-43232D01*
X55433Y-37322D02*
X60199Y-42088D01*
X60199Y-42088D02*
X61415Y-42088D01*
X39491Y-42684D02*
X40039Y-43232D01*
X41929Y-37322D02*
X41929Y-37555D01*
X41929Y-37555D02*
X39491Y-39993D01*
X39491Y-39993D02*
X39491Y-42684D01*
X91753Y-19906D02*
X92559Y-20712D01*
X91753Y-15003D02*
X91753Y-19906D01*
X91753Y-14317D02*
X91753Y-15003D01*
X99488Y-13232D02*
X92838Y-13232D01*
X92838Y-13232D02*
X91753Y-14317D01*
X100039Y-13232D02*
X99488Y-13232D01*
X99488Y-6263D02*
X100039Y-5712D01*
X99488Y-13232D02*
X99488Y-6263D01*
X15511Y-23460D02*
X15511Y-25157D01*
X18021Y-20950D02*
X15511Y-23460D01*
X18267Y-20950D02*
X18021Y-20950D01*
X4311Y-23830D02*
X4221Y-23920D01*
X4311Y-20028D02*
X4311Y-23830D01*
X1455Y-17172D02*
X4311Y-20028D01*
X1455Y-9371D02*
X1455Y-17172D01*
X1455Y-9371D02*
X2157Y-8669D01*
X15511Y-25157D02*
X15472Y-25196D01*
X41098Y-36574D02*
X41098Y-37119D01*
X39128Y-39089D02*
X41098Y-37119D01*
X39128Y-43092D02*
X39128Y-39089D01*
X40091Y-44055D02*
X39128Y-43092D01*
X43742Y-44055D02*
X40091Y-44055D01*
X44287Y-44055D02*
X43742Y-44055D01*
X41098Y-6535D02*
X41098Y-14015D01*
X41098Y-29015D02*
X41098Y-21535D01*
X41098Y-21535D02*
X41098Y-20990D01*
X24020Y-20950D02*
X18267Y-20950D01*
X18267Y-20950D02*
X18267Y-20950D01*
X24809Y-20161D02*
X24020Y-20950D01*
X25560Y-20161D02*
X24809Y-20161D01*
X26389Y-20990D02*
X25560Y-20161D01*
X38972Y-20990D02*
X26389Y-20990D01*
X39809Y-20153D02*
X38972Y-20990D01*
X40261Y-20153D02*
X39809Y-20153D01*
X41098Y-20990D02*
X40261Y-20153D01*
X66799Y-15795D02*
X73318Y-15795D01*
X33618Y-44055D02*
X33618Y-44724D01*
X33618Y-44724D02*
X32559Y-45783D01*
X33618Y-29015D02*
X33618Y-36574D01*
X13071Y-14724D02*
X12834Y-14486D01*
X26336Y-14724D02*
X13071Y-14724D01*
X26643Y-14417D02*
X26336Y-14724D01*
X26643Y-12135D02*
X26643Y-14417D01*
X27401Y-11377D02*
X26643Y-12135D01*
X28389Y-11377D02*
X27401Y-11377D01*
X29087Y-12076D02*
X28389Y-11377D01*
X33618Y-12076D02*
X29087Y-12076D01*
X33618Y-14015D02*
X33618Y-12076D01*
X33618Y-12076D02*
X33618Y-6535D01*
X37722Y-48871D02*
X37799Y-48795D01*
X32647Y-48871D02*
X37722Y-48871D01*
X32559Y-48783D02*
X32647Y-48871D01*
X59137Y-31196D02*
X60279Y-30055D01*
X59137Y-36574D02*
X59137Y-31196D01*
X60203Y-45131D02*
X60279Y-45055D01*
X55127Y-45131D02*
X60203Y-45131D01*
X55039Y-45043D02*
X55127Y-45131D01*
X60279Y-20393D02*
X60279Y-15055D01*
X59137Y-21535D02*
X60279Y-20393D01*
X89279Y-8275D02*
X95799Y-8275D01*
X15204Y-45130D02*
X15279Y-45055D01*
X10047Y-45130D02*
X15204Y-45130D01*
X10000Y-45082D02*
X10047Y-45130D01*
X15279Y-5393D02*
X15279Y-3795D01*
X14137Y-6535D02*
X15279Y-5393D01*
X35299Y-13282D02*
X35299Y-12275D01*
X102779Y-12275D02*
X110299Y-12275D01*
X72818Y-12275D02*
X80259Y-12275D01*
X87779Y-12275D02*
X95299Y-12275D01*
X12583Y-12275D02*
X12779Y-12275D01*
X10239Y-9932D02*
X12583Y-12275D01*
X10239Y-3751D02*
X10239Y-9932D01*
X8157Y-1669D02*
X10239Y-3751D01*
X20299Y-12275D02*
X12779Y-12275D01*
X42779Y-12275D02*
X50299Y-12275D01*
X33857Y-14724D02*
X35299Y-13282D01*
X31053Y-14724D02*
X33857Y-14724D01*
X28604Y-12275D02*
X31053Y-14724D01*
X27779Y-12275D02*
X28604Y-12275D01*
X36676Y-13282D02*
X35299Y-13282D01*
X38118Y-14724D02*
X36676Y-13282D01*
X41732Y-14724D02*
X38118Y-14724D01*
X42779Y-13677D02*
X41732Y-14724D01*
X42779Y-12275D02*
X42779Y-13677D01*
X15279Y-35433D02*
X15279Y-30055D01*
X14137Y-36574D02*
X15279Y-35433D01*
X14137Y-19937D02*
X15279Y-18795D01*
X14137Y-21535D02*
X14137Y-19937D01*
X80759Y-8275D02*
X74318Y-8275D01*
X5996Y-38740D02*
X5962Y-38740D01*
X5929Y-38773D02*
X5962Y-38740D01*
X5929Y-43346D02*
X5929Y-38773D01*
X734Y-2092D02*
X2157Y-669D01*
X734Y-29971D02*
X734Y-2092D01*
X5962Y-35199D02*
X734Y-29971D01*
X5962Y-38740D02*
X5962Y-35199D01*
X26098Y-44055D02*
X26098Y-44724D01*
X26098Y-44724D02*
X25039Y-45783D01*
X26098Y-14015D02*
X26098Y-6535D01*
X26098Y-29015D02*
X26098Y-21535D01*
X26098Y-44055D02*
X26098Y-36574D01*
X30203Y-48871D02*
X30279Y-48795D01*
X25127Y-48871D02*
X30203Y-48871D01*
X25039Y-48783D02*
X25127Y-48871D01*
X18618Y-44055D02*
X18618Y-44763D01*
X18618Y-44763D02*
X17519Y-45862D01*
X18618Y-21535D02*
X18618Y-22080D01*
X18618Y-28470D02*
X18618Y-22080D01*
X18618Y-29015D02*
X18618Y-28470D01*
X18618Y-36574D02*
X18618Y-37119D01*
X18618Y-37119D02*
X18618Y-44055D01*
X32443Y-34795D02*
X27779Y-34795D01*
X33106Y-35458D02*
X32443Y-34795D01*
X33106Y-36027D02*
X33106Y-35458D01*
X33055Y-36077D02*
X33106Y-36027D01*
X33055Y-36945D02*
X33055Y-36077D01*
X33247Y-37136D02*
X33055Y-36945D01*
X34319Y-37136D02*
X33247Y-37136D01*
X35299Y-36157D02*
X34319Y-37136D01*
X35299Y-34795D02*
X35299Y-36157D01*
X14760Y-25687D02*
X14758Y-25687D01*
X14760Y-25687D02*
X17154Y-28081D01*
X17154Y-28081D02*
X17154Y-29444D01*
X17154Y-29444D02*
X19981Y-32271D01*
X19981Y-32271D02*
X19981Y-34477D01*
X20299Y-34795D02*
X19981Y-34477D01*
X12043Y-22972D02*
X12043Y-20410D01*
X14758Y-25687D02*
X12043Y-22972D01*
X10934Y-19301D02*
X12043Y-20410D01*
X8157Y-4669D02*
X9280Y-5791D01*
X9280Y-5791D02*
X9280Y-10653D01*
X9280Y-10653D02*
X10196Y-11570D01*
X10196Y-11570D02*
X10196Y-15429D01*
X10196Y-15429D02*
X10934Y-16167D01*
X10934Y-16167D02*
X10934Y-19301D01*
X89904Y-34795D02*
X87779Y-34795D01*
X92423Y-37314D02*
X89904Y-34795D01*
X94267Y-37314D02*
X92423Y-37314D01*
X95299Y-36283D02*
X94267Y-37314D01*
X95299Y-34795D02*
X95299Y-36283D01*
X42779Y-34795D02*
X50299Y-34795D01*
X72779Y-34795D02*
X80259Y-34795D01*
X27779Y-34795D02*
X20299Y-34795D01*
X35299Y-34795D02*
X42779Y-34795D01*
X72779Y-36173D02*
X72779Y-34795D01*
X71637Y-37314D02*
X72779Y-36173D01*
X66366Y-37314D02*
X71637Y-37314D01*
X65299Y-36248D02*
X66366Y-37314D01*
X65299Y-34795D02*
X65299Y-36248D01*
X97799Y-18795D02*
X97799Y-20393D01*
X97799Y-20393D02*
X96657Y-21535D01*
X97722Y-48871D02*
X97799Y-48795D01*
X92647Y-48871D02*
X97722Y-48871D01*
X92559Y-48783D02*
X92647Y-48871D01*
X52169Y-48818D02*
X52169Y-48814D01*
X56350Y-48464D02*
X57177Y-49291D01*
X52519Y-48464D02*
X56350Y-48464D01*
X52169Y-48814D02*
X52519Y-48464D01*
X52129Y-47480D02*
X52129Y-47492D01*
X58082Y-47874D02*
X59500Y-49291D01*
X52511Y-47874D02*
X58082Y-47874D01*
X52129Y-47492D02*
X52511Y-47874D01*
X55039Y-17059D02*
X55039Y-17712D01*
X57681Y-14416D02*
X55039Y-17059D01*
X57681Y-12652D02*
X57681Y-14416D01*
X58279Y-12055D02*
X57681Y-12652D01*
X102322Y-29015D02*
X101137Y-29015D01*
X101137Y-44055D02*
X101137Y-44724D01*
X101137Y-44724D02*
X100039Y-45822D01*
X23812Y-45084D02*
X23918Y-44978D01*
X23918Y-44978D02*
X23918Y-39599D01*
X23918Y-39599D02*
X21645Y-37326D01*
X21645Y-37326D02*
X21026Y-37326D01*
X21026Y-37326D02*
X16793Y-33093D01*
X16793Y-33093D02*
X16793Y-28230D01*
X16793Y-28230D02*
X14611Y-26047D01*
X14611Y-26047D02*
X13785Y-26047D01*
X13785Y-26047D02*
X11250Y-23513D01*
X101137Y-36574D02*
X101137Y-36029D01*
X101137Y-36029D02*
X101137Y-29560D01*
X101137Y-29288D02*
X101137Y-29560D01*
X101137Y-29015D02*
X101137Y-29288D01*
X101137Y-43510D02*
X101137Y-36574D01*
X101137Y-44055D02*
X101137Y-43510D01*
X102461Y-23404D02*
X101137Y-22080D01*
X102461Y-25689D02*
X102461Y-23404D01*
X103700Y-26929D02*
X102461Y-25689D01*
X103700Y-27637D02*
X103700Y-26929D01*
X102322Y-29015D02*
X103700Y-27637D01*
X101137Y-14015D02*
X101137Y-6535D01*
X101137Y-21535D02*
X101137Y-22080D01*
X110021Y-14332D02*
X110021Y-14036D01*
X109411Y-21783D02*
X111072Y-20122D01*
X111072Y-20122D02*
X111072Y-19102D01*
X111072Y-19102D02*
X110021Y-18051D01*
X110021Y-18051D02*
X110021Y-14332D01*
X110021Y-14036D02*
X110000Y-14015D01*
X11906Y-10969D02*
X11955Y-10969D01*
X11955Y-10969D02*
X12384Y-10540D01*
X12384Y-10540D02*
X12384Y-8325D01*
X12384Y-8325D02*
X13043Y-7666D01*
X13043Y-7666D02*
X14794Y-7666D01*
X14794Y-7666D02*
X18467Y-3994D01*
X18467Y-3994D02*
X21562Y-3994D01*
X21562Y-3994D02*
X22161Y-4592D01*
X22161Y-4592D02*
X24278Y-4592D01*
X24278Y-4592D02*
X24871Y-4000D01*
X24871Y-4000D02*
X29049Y-4000D01*
X29049Y-4000D02*
X29641Y-4592D01*
X29641Y-4592D02*
X31772Y-4592D01*
X31772Y-4592D02*
X32364Y-4000D01*
X32364Y-4000D02*
X36569Y-4000D01*
X36569Y-4000D02*
X37161Y-4592D01*
X37161Y-4592D02*
X39278Y-4592D01*
X39278Y-4592D02*
X39871Y-4000D01*
X39871Y-4000D02*
X44049Y-4000D01*
X44049Y-4000D02*
X44641Y-4592D01*
X44641Y-4592D02*
X46772Y-4592D01*
X46772Y-4592D02*
X47364Y-4000D01*
X47364Y-4000D02*
X51569Y-4000D01*
X51569Y-4000D02*
X52161Y-4592D01*
X52161Y-4592D02*
X54278Y-4592D01*
X54278Y-4592D02*
X54871Y-4000D01*
X54871Y-4000D02*
X59049Y-4000D01*
X59049Y-4000D02*
X59641Y-4592D01*
X59641Y-4592D02*
X61772Y-4592D01*
X61772Y-4592D02*
X62379Y-3985D01*
X62379Y-3985D02*
X65903Y-3985D01*
X65903Y-3985D02*
X66784Y-4867D01*
X66784Y-4867D02*
X71257Y-4867D01*
X71257Y-4867D02*
X72342Y-5952D01*
X72342Y-5952D02*
X82251Y-5952D01*
X82251Y-5952D02*
X83048Y-5155D01*
X83048Y-5155D02*
X86202Y-5155D01*
X86202Y-5155D02*
X86640Y-5593D01*
X86640Y-5593D02*
X95766Y-5593D01*
X95766Y-5593D02*
X96192Y-5167D01*
X96192Y-5167D02*
X101214Y-5167D01*
X101214Y-5167D02*
X102037Y-5990D01*
X102037Y-5990D02*
X108076Y-5990D01*
X108076Y-5990D02*
X108622Y-6535D01*
X108618Y-6535D02*
X108622Y-6535D01*
X108618Y-21535D02*
X109163Y-21535D01*
X108618Y-6535D02*
X108618Y-6492D01*
X110000Y-14015D02*
X111181Y-12834D01*
X111181Y-12834D02*
X111181Y-11889D01*
X111181Y-11889D02*
X109981Y-10689D01*
X109981Y-10689D02*
X109981Y-7855D01*
X109981Y-7855D02*
X108618Y-6492D01*
X109163Y-21535D02*
X109411Y-21783D01*
X109411Y-21783D02*
X109411Y-21783D01*
X110395Y-22768D02*
X109411Y-21783D01*
X110395Y-22768D02*
X110395Y-22768D01*
X112389Y-24761D02*
X110395Y-22768D01*
X112389Y-27317D02*
X112389Y-24761D01*
X111982Y-27724D02*
X112389Y-27317D01*
X111107Y-27724D02*
X111982Y-27724D01*
X109981Y-28851D02*
X111107Y-27724D01*
X109981Y-29544D02*
X109981Y-28851D01*
X108618Y-30906D02*
X109981Y-29544D01*
X108618Y-36574D02*
X108618Y-30906D01*
X108618Y-14015D02*
X110000Y-14015D01*
X105204Y-48870D02*
X105279Y-48795D01*
X100086Y-48870D02*
X105204Y-48870D01*
X100039Y-48822D02*
X100086Y-48870D01*
X112799Y-35393D02*
X112799Y-30055D01*
X111618Y-36574D02*
X112799Y-35393D01*
X112722Y-45131D02*
X112799Y-45055D01*
X107647Y-45131D02*
X112722Y-45131D01*
X107559Y-45043D02*
X107647Y-45131D01*
X71177Y-29015D02*
X71177Y-36574D01*
X71177Y-6535D02*
X71177Y-14015D01*
X71177Y-29015D02*
X71177Y-21535D01*
X95299Y-4795D02*
X102779Y-4795D01*
X87779Y-4795D02*
X95299Y-4795D01*
X80259Y-4795D02*
X87779Y-4795D01*
X80259Y-4795D02*
X72818Y-4795D01*
X110299Y-4795D02*
X102779Y-4795D01*
X27612Y-4962D02*
X27779Y-4795D01*
X20466Y-4962D02*
X27612Y-4962D01*
X20299Y-4795D02*
X20466Y-4962D01*
X35140Y-4954D02*
X35299Y-4795D01*
X27938Y-4954D02*
X35140Y-4954D01*
X27779Y-4795D02*
X27938Y-4954D01*
X42610Y-4964D02*
X42779Y-4795D01*
X35468Y-4964D02*
X42610Y-4964D01*
X35299Y-4795D02*
X35468Y-4964D01*
X50139Y-4954D02*
X50299Y-4795D01*
X42939Y-4954D02*
X50139Y-4954D01*
X42779Y-4795D02*
X42939Y-4954D01*
X57617Y-4957D02*
X57779Y-4795D01*
X50461Y-4957D02*
X57617Y-4957D01*
X50299Y-4795D02*
X50461Y-4957D01*
X65140Y-4954D02*
X65299Y-4795D01*
X57938Y-4954D02*
X65140Y-4954D01*
X57779Y-4795D02*
X57938Y-4954D01*
X5821Y-6650D02*
X5821Y-6005D01*
X5714Y-27998D02*
X6515Y-28799D01*
X5821Y-10831D02*
X5821Y-6650D01*
X5714Y-10938D02*
X5821Y-10831D01*
X5714Y-27262D02*
X5714Y-10938D01*
X5714Y-27262D02*
X5714Y-27998D01*
X5821Y-6005D02*
X7157Y-4669D01*
X64582Y-27992D02*
X65299Y-27275D01*
X58349Y-27992D02*
X64582Y-27992D01*
X57710Y-28631D02*
X58349Y-27992D01*
X57710Y-30985D02*
X57710Y-28631D01*
X57779Y-31055D02*
X57710Y-30985D01*
X95299Y-27275D02*
X102779Y-27275D01*
X80259Y-28795D02*
X80259Y-27275D01*
X79330Y-29724D02*
X80259Y-28795D01*
X77048Y-29724D02*
X79330Y-29724D01*
X74599Y-27275D02*
X77048Y-29724D01*
X72818Y-27275D02*
X74599Y-27275D01*
X42779Y-27275D02*
X50299Y-27275D01*
X27779Y-28519D02*
X27779Y-27275D01*
X26574Y-29724D02*
X27779Y-28519D01*
X24515Y-29724D02*
X26574Y-29724D01*
X22066Y-27275D02*
X24515Y-29724D01*
X20299Y-27275D02*
X22066Y-27275D01*
X27779Y-27275D02*
X35299Y-27275D01*
X80259Y-27275D02*
X87779Y-27275D01*
X87779Y-27275D02*
X95299Y-27275D01*
X38085Y-27275D02*
X35299Y-27275D01*
X40534Y-29724D02*
X38085Y-27275D01*
X41692Y-29724D02*
X40534Y-29724D01*
X42779Y-28637D02*
X41692Y-29724D01*
X42779Y-27275D02*
X42779Y-28637D01*
X63657Y-21535D02*
X63657Y-20990D01*
X63657Y-29015D02*
X63657Y-36574D01*
X63657Y-36574D02*
X63657Y-37119D01*
X63657Y-6535D02*
X63657Y-7080D01*
X63657Y-20990D02*
X63657Y-14015D01*
X63657Y-14015D02*
X63657Y-7080D01*
X61850Y-38927D02*
X63657Y-37119D01*
X61850Y-40551D02*
X61850Y-38927D01*
X65354Y-44055D02*
X61850Y-40551D01*
X66767Y-44055D02*
X65354Y-44055D01*
X13589Y-22838D02*
X12488Y-21737D01*
X15462Y-22838D02*
X13589Y-22838D01*
X17711Y-20590D02*
X15462Y-22838D01*
X23736Y-20590D02*
X17711Y-20590D01*
X24525Y-19801D02*
X23736Y-20590D01*
X25889Y-19801D02*
X24525Y-19801D01*
X26701Y-20613D02*
X25889Y-19801D01*
X38705Y-20613D02*
X26701Y-20613D01*
X39525Y-19793D02*
X38705Y-20613D01*
X40547Y-19793D02*
X39525Y-19793D01*
X42987Y-22233D02*
X40547Y-19793D01*
X55673Y-22233D02*
X42987Y-22233D01*
X67799Y-27874D02*
X67799Y-26275D01*
X66657Y-29015D02*
X67799Y-27874D01*
X86137Y-29015D02*
X86137Y-36574D01*
X86137Y-44055D02*
X82992Y-44055D01*
X82992Y-44055D02*
X82282Y-44764D01*
X14566Y-24244D02*
X14566Y-24965D01*
X14566Y-24965D02*
X14929Y-25327D01*
X14929Y-25327D02*
X17577Y-27975D01*
X17577Y-27975D02*
X17577Y-29231D01*
X17577Y-29231D02*
X18464Y-30118D01*
X18464Y-30118D02*
X30114Y-30118D01*
X30114Y-30118D02*
X31885Y-28346D01*
X31885Y-28346D02*
X34599Y-28346D01*
X34599Y-28346D02*
X36371Y-30118D01*
X36371Y-30118D02*
X45164Y-30118D01*
X45164Y-30118D02*
X46975Y-28307D01*
X46975Y-28307D02*
X50138Y-28307D01*
X50138Y-28307D02*
X52384Y-30552D01*
X52384Y-30552D02*
X52384Y-31024D01*
X52384Y-31024D02*
X55584Y-34224D01*
X55584Y-34224D02*
X55584Y-36964D01*
X55584Y-36964D02*
X55863Y-37244D01*
X55863Y-37244D02*
X57422Y-37244D01*
X57422Y-37244D02*
X66887Y-46709D01*
X66887Y-46709D02*
X78448Y-46709D01*
X78448Y-46709D02*
X80392Y-44764D01*
X80392Y-44764D02*
X82282Y-44764D01*
X82282Y-44764D02*
X82311Y-44764D01*
X1095Y-18578D02*
X3861Y-21345D01*
X1095Y-5731D02*
X1095Y-18578D01*
X2157Y-4669D02*
X1095Y-5731D01*
X86137Y-37119D02*
X86137Y-42795D01*
X86137Y-43510D02*
X86137Y-44055D01*
X86137Y-36574D02*
X86137Y-37119D01*
X86137Y-42795D02*
X86137Y-43510D01*
X86137Y-14015D02*
X86137Y-6535D01*
X90203Y-48871D02*
X90279Y-48795D01*
X85127Y-48871D02*
X90203Y-48871D01*
X85039Y-48783D02*
X85127Y-48871D01*
X87779Y-42314D02*
X95299Y-42314D01*
X9451Y-31307D02*
X9451Y-23351D01*
X11682Y-21950D02*
X11682Y-20990D01*
X11682Y-20990D02*
X10574Y-19881D01*
X10574Y-19881D02*
X10574Y-17482D01*
X10574Y-17482D02*
X9836Y-16744D01*
X9836Y-16744D02*
X9836Y-11719D01*
X9836Y-11719D02*
X8920Y-10803D01*
X8920Y-10803D02*
X8920Y-6431D01*
X8920Y-6431D02*
X8157Y-5669D01*
X11019Y-22614D02*
X11682Y-21950D01*
X10188Y-22614D02*
X11019Y-22614D01*
X9451Y-23351D02*
X10188Y-22614D01*
X57329Y-45604D02*
X57779Y-46055D01*
X52363Y-45604D02*
X57329Y-45604D01*
X49990Y-43231D02*
X52363Y-45604D01*
X46559Y-43231D02*
X49990Y-43231D01*
X46559Y-42314D02*
X46559Y-43231D01*
X44830Y-44960D02*
X46559Y-43231D01*
X38999Y-44960D02*
X44830Y-44960D01*
X36353Y-42314D02*
X38999Y-44960D01*
X35299Y-42314D02*
X36353Y-42314D01*
X35124Y-42489D02*
X27779Y-42489D01*
X35299Y-42314D02*
X35124Y-42489D01*
X27779Y-42489D02*
X27779Y-42314D01*
X20299Y-42314D02*
X20299Y-44806D01*
X27779Y-44517D02*
X27779Y-42489D01*
X25605Y-46691D02*
X27779Y-44517D01*
X23557Y-46691D02*
X25605Y-46691D01*
X21672Y-44806D02*
X23557Y-46691D01*
X20299Y-44806D02*
X21672Y-44806D01*
X12779Y-46055D02*
X16387Y-46055D01*
X16828Y-46496D02*
X16387Y-46055D01*
X18609Y-46496D02*
X16828Y-46496D01*
X20299Y-44806D02*
X18609Y-46496D01*
X106927Y-46055D02*
X110299Y-46055D01*
X103187Y-42314D02*
X106927Y-46055D01*
X102779Y-42314D02*
X103187Y-42314D01*
X80259Y-44017D02*
X80259Y-42314D01*
X77949Y-46328D02*
X80259Y-44017D01*
X73053Y-46328D02*
X77949Y-46328D01*
X69039Y-42314D02*
X73053Y-46328D01*
X9451Y-33331D02*
X9451Y-31307D01*
X9451Y-31307D02*
X9451Y-31235D01*
X16387Y-40268D02*
X9451Y-33331D01*
X16387Y-46055D02*
X16387Y-40268D01*
X78618Y-44055D02*
X78618Y-44724D01*
X78618Y-44724D02*
X77559Y-45783D01*
X78618Y-44055D02*
X78618Y-36574D01*
X78618Y-21535D02*
X78618Y-29015D01*
X76825Y-5592D02*
X76915Y-5501D01*
X72491Y-5592D02*
X76825Y-5592D01*
X70331Y-3431D02*
X72491Y-5592D01*
X70007Y-3431D02*
X70331Y-3431D01*
X68291Y-1716D02*
X70007Y-3431D01*
X19498Y-1716D02*
X68291Y-1716D01*
X14797Y-6417D02*
X19498Y-1716D01*
X14797Y-6646D02*
X14797Y-6417D01*
X14363Y-7080D02*
X14797Y-6646D01*
X12053Y-7080D02*
X14363Y-7080D01*
X10684Y-8449D02*
X12053Y-7080D01*
X82683Y-48871D02*
X82759Y-48795D01*
X77647Y-48871D02*
X82683Y-48871D01*
X77559Y-48783D02*
X77647Y-48871D01*
X6095Y-21889D02*
X6095Y-27319D01*
X7070Y-36129D02*
X8632Y-37691D01*
X7070Y-28295D02*
X7070Y-36129D01*
X6095Y-27319D02*
X7070Y-28295D01*
X35299Y-49795D02*
X40456Y-49795D01*
X76204Y-49795D02*
X80259Y-49795D01*
X74795Y-48385D02*
X76204Y-49795D01*
X65377Y-48385D02*
X74795Y-48385D01*
X63874Y-46881D02*
X65377Y-48385D01*
X43370Y-46881D02*
X63874Y-46881D01*
X40456Y-49795D02*
X43370Y-46881D01*
X102779Y-49795D02*
X95299Y-49795D01*
X95299Y-49795D02*
X87779Y-49795D01*
X27779Y-49795D02*
X35299Y-49795D01*
X80259Y-49795D02*
X87779Y-49795D01*
X27618Y-49956D02*
X27779Y-49795D01*
X20460Y-49956D02*
X27618Y-49956D01*
X20299Y-49795D02*
X20460Y-49956D01*
X13254Y-49795D02*
X20299Y-49795D01*
X8632Y-37691D02*
X8632Y-45172D01*
X8632Y-45172D02*
X13254Y-49795D01*
X6095Y-11067D02*
X6095Y-21889D01*
X6095Y-21889D02*
X6095Y-21923D01*
X6181Y-10980D02*
X6095Y-11067D01*
X6181Y-8645D02*
X6181Y-10980D01*
X8157Y-6669D02*
X6181Y-8645D01*
X82759Y-41314D02*
X82759Y-42913D01*
X82759Y-42913D02*
X81618Y-44055D01*
X89279Y-23275D02*
X95799Y-23275D01*
X63059Y-23275D02*
X65799Y-23275D01*
X59279Y-27055D02*
X63059Y-23275D01*
X21799Y-30795D02*
X28279Y-30795D01*
X10000Y-32098D02*
X10000Y-32712D01*
X12681Y-29416D02*
X10000Y-32098D01*
X12681Y-27652D02*
X12681Y-29416D01*
X13279Y-27055D02*
X12681Y-27652D01*
X35799Y-23275D02*
X29279Y-23275D01*
X103279Y-15795D02*
X96799Y-15795D01*
X44279Y-23275D02*
X50799Y-23275D01*
X2157Y-10669D02*
X2852Y-10669D01*
X2852Y-10669D02*
X2852Y-10669D01*
X3119Y-10669D02*
X2852Y-10669D01*
X4693Y-12243D02*
X3119Y-10669D01*
X4693Y-29121D02*
X4693Y-12243D01*
X2913Y-30901D02*
X4693Y-29121D01*
X3933Y-42606D02*
X3933Y-40984D01*
X3913Y-42626D02*
X3933Y-42606D01*
X3913Y-43346D02*
X3913Y-42626D01*
X50799Y-15795D02*
X44279Y-15795D01*
X6933Y-42622D02*
X6933Y-40984D01*
X6929Y-42626D02*
X6933Y-42622D01*
X6929Y-43346D02*
X6929Y-42626D01*
X2913Y-43346D02*
X2913Y-33901D01*
X35799Y-795D02*
X29279Y-795D01*
X6455Y-11929D02*
X6455Y-27164D01*
X8157Y-7669D02*
X6541Y-9285D01*
X6541Y-9285D02*
X6541Y-11130D01*
X6541Y-11130D02*
X6455Y-11216D01*
X6455Y-11216D02*
X6455Y-11929D01*
X9082Y-37512D02*
X9082Y-45113D01*
X9082Y-45113D02*
X13390Y-49421D01*
X13390Y-49421D02*
X19490Y-49421D01*
X19490Y-49421D02*
X19912Y-49000D01*
X19912Y-49000D02*
X21011Y-49000D01*
X21011Y-49000D02*
X21608Y-49596D01*
X21608Y-49596D02*
X23454Y-49596D01*
X23454Y-49596D02*
X24961Y-48089D01*
X24961Y-48089D02*
X25629Y-48089D01*
X25629Y-48089D02*
X27286Y-46432D01*
X27286Y-46432D02*
X33625Y-46432D01*
X33625Y-46432D02*
X34867Y-45191D01*
X34867Y-45191D02*
X38538Y-45191D01*
X38538Y-45191D02*
X39643Y-46295D01*
X39643Y-46295D02*
X48975Y-46295D01*
X48975Y-46295D02*
X49129Y-46141D01*
X7431Y-35860D02*
X9082Y-37512D01*
X7431Y-28140D02*
X7431Y-35860D01*
X6455Y-27164D02*
X7431Y-28140D01*
X8157Y-11669D02*
X8157Y-12681D01*
X7791Y-35125D02*
X9544Y-36878D01*
X7791Y-13046D02*
X7791Y-35125D01*
X8157Y-12681D02*
X7791Y-13046D01*
X20799Y-795D02*
X14279Y-795D01*
X14279Y-8275D02*
X20799Y-8275D01*
X29279Y-15795D02*
X35799Y-15795D01*
X16303Y-9015D02*
X17519Y-10232D01*
X14019Y-9015D02*
X16303Y-9015D01*
X13279Y-8275D02*
X14019Y-9015D01*
X110799Y-795D02*
X104279Y-795D01*
X50799Y-8275D02*
X44279Y-8275D01*
X50799Y-795D02*
X44279Y-795D01*
X65799Y-795D02*
X59279Y-795D01*
X20799Y-15795D02*
X14279Y-15795D01*
X95799Y-795D02*
X89279Y-795D01*
X80759Y-795D02*
X74318Y-795D01*
X95295Y-22263D02*
X95295Y-19799D01*
X95295Y-19799D02*
X95299Y-19795D01*
X93877Y-22263D02*
X95295Y-22263D01*
X95295Y-22263D02*
X98149Y-22263D01*
X100618Y-19795D02*
X102779Y-19795D01*
X98149Y-22263D02*
X100618Y-19795D01*
X27779Y-19795D02*
X35299Y-19795D01*
X80259Y-19795D02*
X87779Y-19795D01*
X65299Y-19795D02*
X72818Y-19795D01*
X79299Y-19795D02*
X80259Y-19795D01*
X77821Y-21273D02*
X79299Y-19795D01*
X77272Y-21273D02*
X77821Y-21273D01*
X75794Y-19795D02*
X77272Y-21273D01*
X72818Y-19795D02*
X75794Y-19795D01*
X42779Y-19795D02*
X50299Y-19795D01*
X102779Y-19795D02*
X110259Y-19795D01*
X92081Y-22263D02*
X93877Y-22263D01*
X89612Y-19795D02*
X92081Y-22263D01*
X87779Y-19795D02*
X89612Y-19795D01*
X9879Y-4391D02*
X8157Y-2669D01*
X9879Y-10592D02*
X9879Y-4391D01*
X10556Y-11269D02*
X9879Y-10592D01*
X10556Y-15280D02*
X10556Y-11269D01*
X12461Y-17185D02*
X10556Y-15280D01*
X12461Y-19477D02*
X12461Y-17185D01*
X12779Y-19795D02*
X12461Y-19477D01*
X12933Y-19949D02*
X12779Y-19795D01*
X12933Y-21619D02*
X12933Y-19949D01*
X13766Y-22452D02*
X12933Y-21619D01*
X15041Y-22452D02*
X13766Y-22452D01*
X17698Y-19795D02*
X15041Y-22452D01*
X20299Y-19795D02*
X17698Y-19795D01*
X38507Y-19795D02*
X35299Y-19795D01*
X38869Y-19433D02*
X38507Y-19795D01*
X42417Y-19433D02*
X38869Y-19433D01*
X42779Y-19795D02*
X42417Y-19433D01*
X23494Y-19795D02*
X20299Y-19795D01*
X23848Y-19441D02*
X23494Y-19795D01*
X27425Y-19441D02*
X23848Y-19441D01*
X27779Y-19795D02*
X27425Y-19441D01*
X92013Y-45783D02*
X91187Y-46609D01*
X91187Y-46609D02*
X79576Y-46609D01*
X79576Y-46609D02*
X78239Y-47946D01*
X78239Y-47946D02*
X66102Y-47946D01*
X66102Y-47946D02*
X60905Y-42749D01*
X60905Y-42749D02*
X48501Y-42749D01*
X48501Y-42749D02*
X47169Y-41417D01*
X47169Y-41417D02*
X46141Y-41417D01*
X46141Y-41417D02*
X44935Y-42623D01*
X44935Y-42623D02*
X44935Y-44345D01*
X44935Y-44345D02*
X44680Y-44600D01*
X44680Y-44600D02*
X39442Y-44600D01*
X39442Y-44600D02*
X36362Y-41519D01*
X36362Y-41519D02*
X32611Y-41519D01*
X32611Y-41519D02*
X32004Y-42126D01*
X32004Y-42126D02*
X29099Y-42126D01*
X29099Y-42126D02*
X28473Y-41500D01*
X28473Y-41500D02*
X27357Y-41500D01*
X27357Y-41500D02*
X26960Y-41897D01*
X26960Y-41897D02*
X26960Y-44819D01*
X26960Y-44819D02*
X25452Y-46328D01*
X25452Y-46328D02*
X24417Y-46328D01*
X24417Y-46328D02*
X22428Y-44340D01*
X22428Y-44340D02*
X22428Y-43303D01*
X22428Y-43303D02*
X19960Y-40835D01*
X19960Y-40835D02*
X19960Y-36976D01*
X19960Y-36976D02*
X16433Y-33449D01*
X16433Y-33449D02*
X16433Y-28381D01*
X16433Y-28381D02*
X14460Y-26408D01*
X14460Y-26408D02*
X13508Y-26408D01*
X13508Y-26408D02*
X10688Y-23588D01*
X10688Y-23588D02*
X10688Y-23427D01*
X92559Y-45783D02*
X92013Y-45783D01*
X93657Y-21535D02*
X93657Y-14015D01*
X93657Y-29015D02*
X93657Y-36574D01*
X11500Y-42055D02*
X10000Y-40555D01*
X13279Y-42055D02*
X11500Y-42055D01*
X108019Y-27055D02*
X110799Y-27055D01*
X104279Y-30795D02*
X108019Y-27055D01*
X91881Y-28192D02*
X89279Y-30795D01*
X94185Y-28192D02*
X91881Y-28192D01*
X95799Y-29807D02*
X94185Y-28192D01*
X95799Y-30795D02*
X95799Y-29807D01*
X29279Y-38314D02*
X35799Y-38314D01*
X54539Y-38314D02*
X58279Y-42055D01*
X48059Y-38314D02*
X54539Y-38314D01*
X41956Y-38314D02*
X47059Y-38314D01*
X40039Y-40232D02*
X41956Y-38314D01*
X36799Y-30795D02*
X43279Y-30795D01*
X80759Y-30795D02*
X74279Y-30795D01*
X93822Y-45795D02*
X92559Y-44531D01*
X95799Y-45795D02*
X93822Y-45795D01*
X40039Y-48679D02*
X40039Y-48744D01*
X37935Y-46575D02*
X40039Y-48679D01*
X36579Y-46575D02*
X37935Y-46575D01*
X35799Y-45795D02*
X36579Y-46575D01*
X102500Y-46574D02*
X103279Y-45795D01*
X97578Y-46574D02*
X102500Y-46574D01*
X96799Y-45795D02*
X97578Y-46574D01*
X87641Y-45157D02*
X88279Y-45795D01*
X82397Y-45157D02*
X87641Y-45157D01*
X81759Y-45795D02*
X82397Y-45157D01*
X78275Y-47401D02*
X75830Y-47401D01*
X79881Y-45795D02*
X78275Y-47401D01*
X80759Y-45795D02*
X79881Y-45795D01*
X11137Y-21535D02*
X9957Y-21535D01*
X11137Y-35854D02*
X11137Y-36574D01*
X8515Y-33232D02*
X11137Y-35854D01*
X8515Y-22977D02*
X8515Y-33232D01*
X9957Y-21535D02*
X8515Y-22977D01*
X11137Y-21535D02*
X11137Y-20954D01*
X10833Y-20650D02*
X10833Y-20650D01*
X11137Y-20954D02*
X10833Y-20650D01*
X10000Y-42082D02*
X10000Y-41537D01*
X10000Y-41537D02*
X9448Y-40986D01*
X9448Y-40986D02*
X9448Y-38967D01*
X9448Y-38967D02*
X11137Y-37278D01*
X11137Y-37278D02*
X11137Y-36574D01*
X9391Y-11902D02*
X9391Y-14015D01*
X8157Y-10669D02*
X9391Y-11902D01*
X9391Y-19207D02*
X10833Y-20650D01*
X10833Y-20650D02*
X10833Y-20650D01*
X9391Y-14015D02*
X9391Y-19207D01*
X48618Y-29015D02*
X48618Y-29560D01*
X49981Y-30923D02*
X48618Y-29560D01*
X49981Y-32971D02*
X49981Y-30923D01*
X51220Y-34211D02*
X49981Y-32971D01*
X51220Y-35236D02*
X51220Y-34211D01*
X49881Y-36574D02*
X51220Y-35236D01*
X48618Y-36574D02*
X49881Y-36574D01*
X11114Y-13059D02*
X11023Y-13059D01*
X11992Y-13937D02*
X11114Y-13059D01*
X11992Y-14289D02*
X11992Y-13937D01*
X12820Y-15118D02*
X11992Y-14289D01*
X46970Y-15118D02*
X12820Y-15118D01*
X48072Y-14015D02*
X46970Y-15118D01*
X48618Y-14015D02*
X48072Y-14015D01*
X17728Y-18845D02*
X15472Y-21102D01*
X19316Y-18845D02*
X17744Y-18845D01*
X20099Y-18062D02*
X19316Y-18845D01*
X20099Y-17277D02*
X20099Y-18062D01*
X20655Y-16721D02*
X20099Y-17277D01*
X20655Y-16721D02*
X54151Y-16721D01*
X17744Y-18845D02*
X17728Y-18845D01*
X56137Y-6535D02*
X56137Y-7080D01*
X54151Y-17791D02*
X54151Y-16721D01*
X56137Y-19778D02*
X54151Y-17791D01*
X56137Y-21535D02*
X56137Y-19778D01*
X56137Y-14735D02*
X54151Y-16721D01*
X56137Y-7080D02*
X56137Y-14735D01*
X56137Y-36574D02*
X56137Y-21535D01*
X89279Y-38314D02*
X95799Y-38314D01*
X107059Y-38314D02*
X110799Y-42055D01*
X104279Y-38314D02*
X107059Y-38314D01*
X74388Y-38314D02*
X70539Y-38314D01*
X76837Y-35866D02*
X74388Y-38314D01*
X79133Y-35866D02*
X76837Y-35866D01*
X80759Y-37492D02*
X79133Y-35866D01*
X80759Y-38314D02*
X80759Y-37492D01*
X64476Y-38314D02*
X62559Y-40232D01*
X69539Y-38314D02*
X64476Y-38314D01*
M02*
